<?xml version="1.0" encoding="utf-8"?>
<!-- Generator: Adobe Illustrator 22.1.0, SVG Export Plug-In . SVG Version: 6.00 Build 0)  -->
<svg version="1.1" id="Capa_1" xmlns="http://www.w3.org/2000/svg" xmlns:xlink="http://www.w3.org/1999/xlink" x="0px" y="0px"
	 viewBox="0 0 200 200" style="enable-background:new 0 0 200 200;" xml:space="preserve">
<style type="text/css">
	.st0{fill:#FFFFFF;}
</style>
<g>
	<path class="st0" d="M48.9,168.1c-1-0.6-1.8-1.3-2.4-2.3c-0.6-1-0.9-2.1-0.9-3.3s0.3-2.3,0.9-3.3c0.6-1,1.4-1.7,2.4-2.3
		s2.1-0.8,3.4-0.8c0.9,0,1.8,0.2,2.6,0.5s1.5,0.8,2,1.4l-0.8,0.8c-1-1-2.2-1.5-3.7-1.5c-1,0-1.9,0.2-2.7,0.7s-1.5,1.1-1.9,1.9
		s-0.7,1.7-0.7,2.7s0.2,1.9,0.7,2.7s1.1,1.4,1.9,1.9s1.7,0.7,2.7,0.7c1.5,0,2.8-0.5,3.7-1.5l0.8,0.8c-0.6,0.6-1.2,1.1-2,1.4
		c-0.8,0.3-1.7,0.5-2.6,0.5C51.1,169,49.9,168.7,48.9,168.1z"/>
	<path class="st0" d="M62.3,168.3c-0.7-0.4-1.3-1-1.7-1.7S60,165,60,164.1s0.2-1.8,0.6-2.5c0.4-0.7,1-1.3,1.7-1.7s1.6-0.6,2.5-0.6
		c0.9,0,1.7,0.2,2.5,0.6c0.7,0.4,1.3,1,1.7,1.7c0.4,0.7,0.6,1.6,0.6,2.5s-0.2,1.8-0.6,2.5s-1,1.3-1.7,1.7s-1.6,0.6-2.5,0.6
		S63,168.7,62.3,168.3z M66.6,167.4c0.5-0.3,1-0.7,1.3-1.3s0.5-1.2,0.5-1.9s-0.2-1.4-0.5-1.9c-0.3-0.6-0.7-1-1.3-1.3
		c-0.5-0.3-1.1-0.5-1.8-0.5s-1.3,0.2-1.8,0.5s-1,0.7-1.3,1.3s-0.5,1.2-0.5,1.9s0.2,1.4,0.5,1.9c0.3,0.6,0.7,1,1.3,1.3
		c0.5,0.3,1.1,0.5,1.8,0.5S66,167.7,66.6,167.4z"/>
	<path class="st0" d="M81.6,160.4c0.7,0.7,1.1,1.7,1.1,3v5.5h-1.3v-5.4c0-1-0.2-1.7-0.7-2.3c-0.5-0.5-1.2-0.8-2.1-0.8
		c-1,0-1.8,0.3-2.4,0.9c-0.6,0.6-0.9,1.4-0.9,2.5v5H74v-9.5h1.2v1.7c0.3-0.6,0.8-1,1.4-1.3s1.3-0.5,2.2-0.5
		C80,159.3,80.9,159.7,81.6,160.4z"/>
	<path class="st0" d="M93,168.3c-0.2,0.2-0.5,0.4-0.9,0.5S91.4,169,91,169c-0.9,0-1.6-0.2-2.1-0.7s-0.7-1.2-0.7-2v-5.7h-1.7v-1.1
		h1.7v-2.1h1.3v2.1h2.9v1.1h-2.9v5.7c0,0.6,0.1,1,0.4,1.3s0.7,0.4,1.2,0.4c0.3,0,0.5,0,0.8-0.1s0.5-0.2,0.6-0.4L93,168.3z"/>
	<path class="st0" d="M99.6,159.8c0.6-0.3,1.3-0.5,2.2-0.5v1.2h-0.3c-1,0-1.8,0.3-2.3,0.9c-0.6,0.6-0.8,1.5-0.8,2.6v4.8h-1.3v-9.5
		h1.2v1.9C98.6,160.6,99.1,160.1,99.6,159.8z"/>
	<path class="st0" d="M107.3,168.3c-0.7-0.4-1.3-1-1.7-1.7c-0.4-0.7-0.6-1.6-0.6-2.5s0.2-1.8,0.6-2.5s1-1.3,1.7-1.7s1.6-0.6,2.5-0.6
		s1.7,0.2,2.5,0.6c0.7,0.4,1.3,1,1.7,1.7c0.4,0.7,0.6,1.6,0.6,2.5s-0.2,1.8-0.6,2.5s-1,1.3-1.7,1.7s-1.6,0.6-2.5,0.6
		S108,168.7,107.3,168.3z M111.5,167.4c0.5-0.3,1-0.7,1.3-1.3s0.5-1.2,0.5-1.9s-0.2-1.4-0.5-1.9c-0.3-0.6-0.7-1-1.3-1.3
		c-0.5-0.3-1.1-0.5-1.8-0.5s-1.3,0.2-1.8,0.5s-1,0.7-1.3,1.3s-0.5,1.2-0.5,1.9s0.2,1.4,0.5,1.9c0.3,0.6,0.7,1,1.3,1.3
		s1.1,0.5,1.8,0.5S111,167.7,111.5,167.4z"/>
	<path class="st0" d="M119,155.5h1.3v13.4H119V155.5z"/>
	<path class="st0" d="M140.8,155.5v13.4h-1.2V167c-0.4,0.6-0.9,1.1-1.5,1.5c-0.6,0.3-1.3,0.5-2.1,0.5c-0.9,0-1.7-0.2-2.4-0.6
		c-0.7-0.4-1.3-1-1.7-1.7s-0.6-1.6-0.6-2.5s0.2-1.8,0.6-2.5c0.4-0.7,1-1.3,1.7-1.7s1.5-0.6,2.4-0.6c0.8,0,1.5,0.2,2.1,0.5
		s1.1,0.8,1.5,1.4v-5.7L140.8,155.5L140.8,155.5z M137.8,167.4c0.5-0.3,1-0.7,1.3-1.3s0.5-1.2,0.5-1.9s-0.2-1.4-0.5-1.9
		c-0.3-0.6-0.7-1-1.3-1.3c-0.5-0.3-1.1-0.5-1.8-0.5s-1.3,0.2-1.8,0.5s-1,0.7-1.3,1.3s-0.5,1.2-0.5,1.9s0.2,1.4,0.5,1.9
		c0.3,0.6,0.7,1,1.3,1.3c0.5,0.3,1.1,0.5,1.8,0.5C136.6,167.8,137.2,167.7,137.8,167.4z"/>
	<path class="st0" d="M154.4,164.5h-7.9c0.1,1,0.5,1.8,1.1,2.4c0.7,0.6,1.5,0.9,2.6,0.9c0.6,0,1.1-0.1,1.6-0.3s0.9-0.5,1.3-0.9
		l0.7,0.8c-0.4,0.5-0.9,0.9-1.6,1.2s-1.3,0.4-2.1,0.4c-1,0-1.8-0.2-2.6-0.6s-1.3-1-1.8-1.7c-0.4-0.7-0.6-1.6-0.6-2.5
		s0.2-1.8,0.6-2.5c0.4-0.7,1-1.3,1.7-1.7s1.5-0.6,2.4-0.6s1.7,0.2,2.4,0.6c0.7,0.4,1.2,1,1.6,1.7c0.4,0.7,0.6,1.6,0.6,2.5V164.5z
		 M147.5,161.3c-0.6,0.6-1,1.3-1.1,2.3h6.7c-0.1-0.9-0.4-1.7-1.1-2.3c-0.6-0.6-1.4-0.9-2.3-0.9C148.9,160.4,148.1,160.7,147.5,161.3
		z"/>
	<path class="st0" d="M72.7,181.8c0.7,0.6,1,1.5,1,2.7v5.9h-1.2V189c-0.3,0.5-0.7,0.9-1.3,1.2c-0.6,0.3-1.2,0.4-2,0.4
		c-1.1,0-1.9-0.3-2.5-0.8s-0.9-1.2-0.9-2s0.3-1.5,0.9-1.9c0.6-0.5,1.5-0.7,2.8-0.7h3v-0.6c0-0.8-0.2-1.4-0.7-1.9
		c-0.5-0.4-1.1-0.6-2-0.6c-0.6,0-1.2,0.1-1.7,0.3c-0.6,0.2-1,0.5-1.4,0.8l-0.6-1c0.5-0.4,1.1-0.7,1.7-0.9c0.7-0.2,1.4-0.3,2.1-0.3
		C71,180.9,72,181.2,72.7,181.8z M71.2,189c0.5-0.3,0.9-0.8,1.2-1.4v-1.5h-3c-1.6,0-2.4,0.6-2.4,1.7c0,0.6,0.2,1,0.6,1.3
		s1,0.5,1.8,0.5C70.1,189.5,70.7,189.4,71.2,189z"/>
	<path class="st0" d="M80.4,189.9c-0.7-0.4-1.3-1-1.7-1.7c-0.4-0.7-0.6-1.6-0.6-2.5s0.2-1.8,0.6-2.5s1-1.3,1.7-1.7s1.6-0.6,2.5-0.6
		c0.8,0,1.5,0.2,2.2,0.5c0.6,0.3,1.1,0.8,1.5,1.4l-1,0.6c-0.3-0.5-0.7-0.8-1.2-1.1c-0.5-0.2-1-0.4-1.6-0.4c-0.7,0-1.3,0.2-1.8,0.5
		s-1,0.7-1.3,1.3s-0.5,1.2-0.5,1.9s0.2,1.4,0.5,1.9c0.3,0.6,0.7,1,1.3,1.3s1.2,0.5,1.8,0.5c0.6,0,1.1-0.1,1.6-0.3s0.9-0.6,1.2-1
		l1,0.6c-0.4,0.6-0.9,1.1-1.5,1.4c-0.6,0.3-1.4,0.5-2.2,0.5C81.9,190.5,81.1,190.3,80.4,189.9z"/>
	<path class="st0" d="M92.1,189.9c-0.7-0.4-1.3-1-1.7-1.7c-0.4-0.7-0.6-1.6-0.6-2.5s0.2-1.8,0.6-2.5s1-1.3,1.7-1.7s1.6-0.6,2.5-0.6
		c0.8,0,1.5,0.2,2.2,0.5c0.6,0.3,1.1,0.8,1.5,1.4l-1,0.6c-0.3-0.5-0.7-0.8-1.2-1.1c-0.5-0.2-1-0.4-1.6-0.4c-0.7,0-1.3,0.2-1.8,0.5
		s-1,0.7-1.3,1.3s-0.5,1.2-0.5,1.9s0.2,1.4,0.5,1.9c0.3,0.6,0.7,1,1.3,1.3c0.5,0.3,1.2,0.5,1.8,0.5c0.6,0,1.1-0.1,1.6-0.3
		s0.9-0.6,1.2-1l1,0.6c-0.4,0.6-0.9,1.1-1.5,1.4c-0.6,0.3-1.4,0.5-2.2,0.5C93.7,190.5,92.9,190.3,92.1,189.9z"/>
	<path class="st0" d="M110.7,186.1h-7.9c0.1,1,0.5,1.8,1.1,2.4c0.7,0.6,1.5,0.9,2.6,0.9c0.6,0,1.1-0.1,1.6-0.3s0.9-0.5,1.3-0.9
		l0.7,0.8c-0.4,0.5-0.9,0.9-1.6,1.2c-0.6,0.3-1.3,0.4-2.1,0.4c-1,0-1.8-0.2-2.6-0.6s-1.3-1-1.8-1.7c-0.4-0.7-0.6-1.6-0.6-2.5
		s0.2-1.8,0.6-2.5s1-1.3,1.7-1.7s1.5-0.6,2.4-0.6s1.7,0.2,2.4,0.6s1.2,1,1.6,1.7s0.6,1.6,0.6,2.5L110.7,186.1z M103.9,182.9
		c-0.6,0.6-1,1.3-1.1,2.3h6.7c-0.1-0.9-0.4-1.7-1.1-2.3c-0.6-0.6-1.4-0.9-2.3-0.9C105.3,182,104.5,182.3,103.9,182.9z"/>
	<path class="st0" d="M115.5,190.2c-0.7-0.2-1.3-0.5-1.6-0.8l0.6-1c0.4,0.3,0.9,0.6,1.5,0.8s1.2,0.3,1.9,0.3c0.9,0,1.5-0.1,1.9-0.4
		c0.4-0.3,0.6-0.7,0.6-1.1c0-0.3-0.1-0.6-0.3-0.8c-0.2-0.2-0.5-0.3-0.9-0.5c-0.3-0.1-0.8-0.2-1.4-0.3c-0.8-0.1-1.4-0.3-1.9-0.4
		c-0.5-0.1-0.9-0.4-1.2-0.8c-0.3-0.4-0.5-0.9-0.5-1.5c0-0.8,0.3-1.4,1-1.9s1.6-0.8,2.8-0.8c0.6,0,1.2,0.1,1.8,0.2s1.1,0.4,1.5,0.6
		l-0.6,1c-0.8-0.5-1.7-0.8-2.8-0.8c-0.8,0-1.4,0.1-1.8,0.4s-0.6,0.7-0.6,1.1c0,0.4,0.1,0.6,0.4,0.9s0.5,0.4,0.9,0.5
		c0.3,0.1,0.8,0.2,1.4,0.3c0.8,0.1,1.4,0.3,1.8,0.4c0.5,0.1,0.8,0.4,1.2,0.7c0.3,0.3,0.5,0.8,0.5,1.4c0,0.8-0.3,1.5-1,2
		s-1.6,0.7-2.9,0.7C116.9,190.5,116.2,190.4,115.5,190.2z"/>
	<path class="st0" d="M127.2,189.9c-0.7-0.4-1.3-1-1.7-1.7c-0.4-0.7-0.6-1.6-0.6-2.5s0.2-1.8,0.6-2.5s1-1.3,1.7-1.7s1.6-0.6,2.5-0.6
		s1.7,0.2,2.5,0.6s1.3,1,1.7,1.7s0.6,1.6,0.6,2.5s-0.2,1.8-0.6,2.5c-0.4,0.7-1,1.3-1.7,1.7s-1.6,0.6-2.5,0.6
		S127.9,190.3,127.2,189.9z M131.5,189c0.5-0.3,1-0.7,1.3-1.3s0.5-1.2,0.5-1.9s-0.2-1.4-0.5-1.9c-0.3-0.6-0.7-1-1.3-1.3
		c-0.5-0.3-1.1-0.5-1.8-0.5s-1.3,0.2-1.8,0.5s-1,0.7-1.3,1.3s-0.5,1.2-0.5,1.9s0.2,1.4,0.5,1.9c0.3,0.6,0.7,1,1.3,1.3
		c0.5,0.3,1.1,0.5,1.8,0.5S130.9,189.3,131.5,189z"/>
</g>
<g>
	<path class="st0" d="M81.9,26.2c0-0.8,0-1.4,0-2c0-5.1,0-10.2,0-15.3c0-3.2,1.8-5,4.9-5c8.8,0,17.5,0,26.3,0c3.2,0,4.9,1.8,4.9,5
		c0,5.1,0,10.2,0,15.3c0,0.6,0,1.1,0,1.9c0.6,0,1.2,0.1,1.7,0.1c5.5,0,11,0,16.6,0c9.2,0,16,6.8,16,16c0,27.4,0,54.7,0,82.1
		c0,9.2-6.8,16-16,16c-24.2,0-48.4,0-72.6,0c-9.2,0-16-6.9-16-16c0-27.4,0-54.7,0-82.1c0-9.2,6.8-15.9,16-16c5.5,0,10.9,0,16.4,0
		C80.6,26.2,81.2,26.2,81.9,26.2z M63.2,131.1c0-2.6,0-5,0-7.5c0.2-9.8,8-17.6,17.7-17.7c12.9-0.1,25.8-0.1,38.6,0
		c7.1,0.1,12.4,3.6,15.8,9.9c1.4,2.6,1.9,5.4,1.9,8.3c0,2.3,0,4.6,0,7.4c1.4-0.7,2.6-1.1,3.6-1.9c2-1.5,2.4-3.7,2.4-6.1
		c0-26.8,0-53.7,0-80.5c0-0.5,0-1.1,0-1.6c-0.3-3.6-3-6.2-6.6-6.2c-5.8,0-11.6,0-17.4,0c-0.3,0-0.6,0.1-1,0.1c0,0.6,0,1.2,0,1.8
		c0,5.1,0,10.3,0,15.4c0,3.4-1.7,5.1-5.1,5.1c-8.6,0-17.2,0-25.9,0c-3.5,0-5.2-1.7-5.2-5.2c0-5.1,0-10.3,0-15.4
		c0-0.6-0.1-1.1-0.1-1.8c-0.7,0-1.2,0-1.7,0c-5.2,0-10.4,0-15.5,0c-5.2,0-7.8,2.5-7.8,7.7c0,26.8,0,53.7,0,80.5c0,0.8,0,1.7,0.2,2.5
		C57.5,128.8,60,131,63.2,131.1z M109.1,48.5c0-11.8,0-23.6,0-35.4c-6,0-11.9,0-17.8,0c0,11.9,0,23.6,0,35.4
		C97.3,48.5,103.2,48.5,109.1,48.5z"/>
	<path class="st0" d="M84.5,86.4c0-8.7,7-15.7,15.7-15.7s15.7,7,15.7,15.7s-7,15.7-15.7,15.7S84.6,95.1,84.5,86.4z"/>
</g>
</svg>
