<?xml version="1.0" encoding="utf-8"?>
<!-- Generator: Adobe Illustrator 22.1.0, SVG Export Plug-In . SVG Version: 6.00 Build 0)  -->
<svg version="1.1" id="Capa_1" xmlns="http://www.w3.org/2000/svg" xmlns:xlink="http://www.w3.org/1999/xlink" x="0px" y="0px"
	 viewBox="0 0 200 200" style="enable-background:new 0 0 200 200;" xml:space="preserve">
<style type="text/css">
	.st0{fill:#FFFFFF;}
</style>
<g>
	<path class="st0" d="M100.3,38.6L100.3,38.6c-3.9,0-7.5-1.5-10.3-4.3c-2.7-2.8-4.3-6.4-4.3-10.3c0-8,6.5-14.5,14.6-14.5l0,0
		c8,0,14.5,6.5,14.5,14.6C114.9,32.1,108.4,38.6,100.3,38.6z M100.3,34.6L100.3,34.6c5.8,0,10.6-4.7,10.6-10.5s-4.7-10.6-10.5-10.6
		l0,0c-5.8,0-10.6,4.7-10.6,10.5c0,2.8,1.1,5.5,3.1,7.5S97.5,34.6,100.3,34.6z"/>
</g>
<path class="st0" d="M83.5,63.8c-0.7-10.7,7-18,15.3-18.7c4-0.4,7.7,0.6,11,2.9c5.4,3.8,7.6,9.3,7.3,15.8c1.5,0,2.8,0,4.2,0
	c0.3-8.5-2.7-15.3-10-19.8c-7.6-4.7-15.5-4.4-22.9,0.6c-6.6,4.5-9.4,11.2-9,19.2C80.9,63.8,82.1,63.8,83.5,63.8z"/>
<g>
	<path class="st0" d="M100.3,38.6L100.3,38.6c-3.9,0-7.5-1.5-10.3-4.3c-2.7-2.8-4.3-6.4-4.3-10.3c0-8,6.5-14.5,14.6-14.5l0,0l0,0
		c8,0,14.5,6.5,14.5,14.6C114.9,32.1,108.4,38.6,100.3,38.6z M100.3,13.5c-5.8,0-10.6,4.7-10.6,10.5c0,2.8,1.1,5.5,3.1,7.5
		s4.6,3.1,7.5,3.1l0,0c5.8,0,10.6-4.7,10.6-10.5C110.9,18.2,106.2,13.5,100.3,13.5L100.3,13.5z"/>
</g>
<g>
	<path class="st0" d="M100.3,38.6L100.3,38.6c-3.9,0-7.5-1.5-10.3-4.3c-2.7-2.8-4.3-6.4-4.3-10.3c0-8,6.5-14.5,14.6-14.5l0,0l0,0
		c8,0,14.5,6.5,14.5,14.6C114.9,32.1,108.4,38.6,100.3,38.6z M100.3,13.5c-5.8,0-10.6,4.7-10.6,10.5c0,2.8,1.1,5.5,3.1,7.5
		s4.6,3.1,7.5,3.1l0,0c5.8,0,10.6-4.7,10.6-10.5C110.9,18.2,106.2,13.5,100.3,13.5L100.3,13.5z"/>
</g>
<path class="st0" d="M83.5,63.8c-1.4,0-2.7,0-4.1,0c-0.4-8,2.4-14.6,9-19.2c7.4-5,15.2-5.3,22.9-0.6c7.3,4.4,10.3,11.3,10,19.8
	c-1.4,0-2.7,0-4.2,0c0.3-6.5-1.8-11.9-7.3-15.8c-3.3-2.3-7-3.3-11-2.9C90.5,45.8,82.8,53,83.5,63.8z"/>
<g>
	<path class="st0" d="M56.4,165.5h-7l-1.5,3.4h-1.4l5.8-12.6h1.3l5.8,12.6H58L56.4,165.5z M55.9,164.4l-3-6.8l-3,6.8H55.9z"/>
	<path class="st0" d="M63.2,168.6c-0.7-0.2-1.3-0.5-1.6-0.8l0.6-1c0.4,0.3,0.9,0.6,1.5,0.8c0.6,0.2,1.2,0.3,1.9,0.3
		c0.9,0,1.5-0.1,1.9-0.4c0.4-0.3,0.6-0.7,0.6-1.1c0-0.3-0.1-0.6-0.3-0.8c-0.2-0.2-0.5-0.3-0.9-0.5c-0.3-0.1-0.8-0.2-1.4-0.3
		c-0.8-0.1-1.4-0.3-1.9-0.4c-0.5-0.1-0.9-0.4-1.2-0.8c-0.3-0.4-0.5-0.9-0.5-1.5c0-0.8,0.3-1.4,1-1.9s1.6-0.8,2.8-0.8
		c0.6,0,1.2,0.1,1.8,0.2c0.6,0.2,1.1,0.4,1.5,0.6l-0.6,1c-0.8-0.5-1.7-0.8-2.8-0.8c-0.8,0-1.4,0.1-1.8,0.4s-0.6,0.7-0.6,1.1
		c0,0.4,0.1,0.6,0.4,0.9s0.5,0.4,0.9,0.5c0.3,0.1,0.8,0.2,1.4,0.3c0.8,0.1,1.4,0.3,1.8,0.4c0.5,0.1,0.8,0.4,1.2,0.7
		c0.3,0.3,0.5,0.8,0.5,1.4c0,0.8-0.3,1.5-1,2s-1.6,0.7-2.9,0.7C64.6,168.9,63.9,168.8,63.2,168.6z"/>
	<path class="st0" d="M73.4,157c-0.2-0.2-0.3-0.4-0.3-0.6c0-0.2,0.1-0.5,0.3-0.6c0.2-0.2,0.4-0.3,0.7-0.3c0.3,0,0.5,0.1,0.7,0.3
		s0.3,0.4,0.3,0.6c0,0.3-0.1,0.5-0.3,0.7c-0.2,0.2-0.4,0.3-0.7,0.3C73.8,157.3,73.6,157.2,73.4,157z M73.4,159.4h1.3v9.5h-1.3V159.4
		z"/>
	<path class="st0" d="M80.4,168.6c-0.7-0.2-1.3-0.5-1.6-0.8l0.6-1c0.4,0.3,0.9,0.6,1.5,0.8s1.2,0.3,1.9,0.3c0.9,0,1.5-0.1,1.9-0.4
		c0.4-0.3,0.6-0.7,0.6-1.1c0-0.3-0.1-0.6-0.3-0.8c-0.2-0.2-0.5-0.3-0.9-0.5c-0.3-0.1-0.8-0.2-1.4-0.3c-0.8-0.1-1.4-0.3-1.9-0.4
		c-0.5-0.1-0.9-0.4-1.2-0.8c-0.3-0.4-0.5-0.9-0.5-1.5c0-0.8,0.3-1.4,1-1.9s1.6-0.8,2.8-0.8c0.6,0,1.2,0.1,1.8,0.2
		c0.6,0.2,1.1,0.4,1.5,0.6l-0.6,1c-0.8-0.5-1.7-0.8-2.8-0.8c-0.8,0-1.4,0.1-1.8,0.4s-0.6,0.7-0.6,1.1c0,0.4,0.1,0.6,0.4,0.9
		s0.5,0.4,0.9,0.5c0.3,0.1,0.8,0.2,1.4,0.3c0.8,0.1,1.4,0.3,1.8,0.4c0.5,0.1,0.8,0.4,1.2,0.7c0.3,0.3,0.5,0.8,0.5,1.4
		c0,0.8-0.3,1.5-1,2s-1.6,0.7-2.9,0.7C81.9,168.9,81.1,168.8,80.4,168.6z"/>
	<path class="st0" d="M95.7,168.3c-0.2,0.2-0.5,0.4-0.9,0.5s-0.7,0.2-1.1,0.2c-0.9,0-1.6-0.2-2.1-0.7s-0.7-1.2-0.7-2v-5.7h-1.7v-1.1
		h1.7v-2.1h1.3v2.1h2.9v1.1h-2.9v5.7c0,0.6,0.1,1,0.4,1.3s0.7,0.4,1.2,0.4c0.3,0,0.5,0,0.8-0.1c0.2-0.1,0.5-0.2,0.6-0.4L95.7,168.3z
		"/>
	<path class="st0" d="M107.7,164.5h-7.9c0.1,1,0.5,1.8,1.1,2.4c0.7,0.6,1.5,0.9,2.6,0.9c0.6,0,1.1-0.1,1.6-0.3s0.9-0.5,1.3-0.9
		l0.7,0.8c-0.4,0.5-0.9,0.9-1.6,1.2s-1.3,0.4-2.1,0.4c-1,0-1.8-0.2-2.6-0.6s-1.3-1-1.8-1.7c-0.4-0.7-0.6-1.6-0.6-2.5
		s0.2-1.8,0.6-2.5s1-1.3,1.7-1.7s1.5-0.6,2.4-0.6s1.7,0.2,2.4,0.6c0.7,0.4,1.2,1,1.6,1.7s0.6,1.6,0.6,2.5L107.7,164.5z M100.8,161.3
		c-0.6,0.6-1,1.3-1.1,2.3h6.7c-0.1-0.9-0.4-1.7-1.1-2.3c-0.6-0.6-1.4-0.9-2.3-0.9C102.2,160.4,101.4,160.7,100.8,161.3z"/>
	<path class="st0" d="M119.8,160.4c0.7,0.7,1.1,1.7,1.1,3v5.5h-1.3v-5.4c0-1-0.2-1.7-0.7-2.3c-0.5-0.5-1.2-0.8-2.1-0.8
		c-1,0-1.8,0.3-2.4,0.9c-0.6,0.6-0.9,1.4-0.9,2.5v5h-1.3v-9.5h1.2v1.7c0.3-0.6,0.8-1,1.4-1.3s1.3-0.5,2.2-0.5
		C118.1,159.3,119.1,159.7,119.8,160.4z"/>
	<path class="st0" d="M127.6,168.3c-0.7-0.4-1.3-1-1.7-1.7c-0.4-0.7-0.6-1.6-0.6-2.5s0.2-1.8,0.6-2.5s1-1.3,1.7-1.7
		c0.7-0.4,1.6-0.6,2.5-0.6c0.8,0,1.5,0.2,2.2,0.5c0.6,0.3,1.1,0.8,1.5,1.4l-1,0.6c-0.3-0.5-0.7-0.8-1.2-1.1c-0.5-0.2-1-0.4-1.6-0.4
		c-0.7,0-1.3,0.2-1.8,0.5s-1,0.7-1.3,1.3s-0.5,1.2-0.5,1.9s0.2,1.4,0.5,1.9c0.3,0.6,0.7,1,1.3,1.3s1.2,0.5,1.8,0.5s1.1-0.1,1.6-0.3
		s0.9-0.6,1.2-1l1,0.6c-0.4,0.6-0.9,1.1-1.5,1.4c-0.6,0.3-1.4,0.5-2.2,0.5C129.1,168.9,128.3,168.7,127.6,168.3z"/>
	<path class="st0" d="M138.1,157c-0.2-0.2-0.3-0.4-0.3-0.6c0-0.2,0.1-0.5,0.3-0.6c0.2-0.2,0.4-0.3,0.7-0.3s0.5,0.1,0.7,0.3
		s0.3,0.4,0.3,0.6c0,0.3-0.1,0.5-0.3,0.7s-0.4,0.3-0.7,0.3C138.5,157.3,138.2,157.2,138.1,157z M138.1,159.4h1.3v9.5h-1.3V159.4z"/>
	<path class="st0" d="M150.9,160.2c0.7,0.6,1,1.5,1,2.7v5.9h-1.2v-1.5c-0.3,0.5-0.7,0.9-1.3,1.2s-1.2,0.4-2,0.4
		c-1.1,0-1.9-0.3-2.5-0.8s-0.9-1.2-0.9-2s0.3-1.5,0.9-1.9c0.6-0.5,1.5-0.7,2.8-0.7h3v-0.6c0-0.8-0.2-1.4-0.7-1.9s-1.1-0.6-2-0.6
		c-0.6,0-1.2,0.1-1.7,0.3c-0.6,0.2-1,0.5-1.4,0.8l-0.6-1c0.5-0.4,1.1-0.7,1.7-0.9c0.7-0.2,1.4-0.3,2.1-0.3
		C149.3,159.3,150.2,159.6,150.9,160.2z M149.4,167.4c0.5-0.3,0.9-0.8,1.2-1.4v-1.5h-3c-1.6,0-2.4,0.6-2.4,1.7c0,0.6,0.2,1,0.6,1.3
		c0.4,0.3,1,0.5,1.8,0.5C148.3,167.9,148.9,167.8,149.4,167.4z"/>
	<path class="st0" d="M36.8,179c0.9,0.8,1.4,1.8,1.4,3.2c0,1.3-0.5,2.4-1.4,3.2s-2.2,1.1-3.8,1.1h-3.4v4h-1.3v-12.6H33
		C34.6,177.9,35.9,178.2,36.8,179z M35.8,184.5c0.7-0.5,1-1.3,1-2.3s-0.3-1.8-1-2.3s-1.6-0.8-2.9-0.8h-3.3v6.3H33
		C34.2,185.3,35.2,185,35.8,184.5z"/>
	<path class="st0" d="M50.7,186.1h-7.9c0.1,1,0.5,1.8,1.1,2.4c0.7,0.6,1.5,0.9,2.6,0.9c0.6,0,1.1-0.1,1.6-0.3s0.9-0.5,1.3-0.9
		l0.7,0.8c-0.4,0.5-0.9,0.9-1.6,1.2s-1.3,0.4-2.1,0.4c-1,0-1.8-0.2-2.6-0.6s-1.3-1-1.8-1.7c-0.4-0.7-0.6-1.6-0.6-2.5
		s0.2-1.8,0.6-2.5c0.4-0.7,1-1.3,1.7-1.7s1.5-0.6,2.4-0.6s1.7,0.2,2.4,0.6c0.7,0.4,1.2,1,1.6,1.7c0.4,0.7,0.6,1.6,0.6,2.5V186.1z
		 M43.9,182.9c-0.6,0.6-1,1.3-1.1,2.3h6.7c-0.1-0.9-0.4-1.7-1.1-2.3c-0.6-0.6-1.4-0.9-2.3-0.9C45.3,182,44.5,182.3,43.9,182.9z"/>
	<path class="st0" d="M57.7,181.4c0.6-0.3,1.3-0.5,2.2-0.5v1.2h-0.3c-1,0-1.8,0.3-2.3,0.9c-0.6,0.6-0.8,1.5-0.8,2.6v4.8h-1.3V181
		h1.2v1.9C56.7,182.2,57.1,181.7,57.7,181.4z"/>
	<path class="st0" d="M64.4,190.2c-0.7-0.2-1.3-0.5-1.6-0.8l0.6-1c0.4,0.3,0.9,0.6,1.5,0.8s1.2,0.3,1.9,0.3c0.9,0,1.5-0.1,1.9-0.4
		c0.4-0.3,0.6-0.7,0.6-1.1c0-0.3-0.1-0.6-0.3-0.8c-0.2-0.2-0.5-0.3-0.9-0.5c-0.3-0.1-0.8-0.2-1.4-0.3c-0.8-0.1-1.4-0.3-1.9-0.4
		c-0.5-0.1-0.9-0.4-1.2-0.8c-0.3-0.4-0.5-0.9-0.5-1.5c0-0.8,0.3-1.4,1-1.9s1.6-0.8,2.8-0.8c0.6,0,1.2,0.1,1.8,0.2
		c0.6,0.2,1.1,0.4,1.5,0.6l-0.6,1c-0.8-0.5-1.7-0.8-2.8-0.8c-0.8,0-1.4,0.1-1.8,0.4s-0.6,0.7-0.6,1.1c0,0.4,0.1,0.6,0.4,0.9
		s0.5,0.4,0.9,0.5c0.3,0.1,0.8,0.2,1.4,0.3c0.8,0.1,1.4,0.3,1.8,0.4c0.5,0.1,0.8,0.4,1.2,0.7c0.3,0.3,0.5,0.8,0.5,1.4
		c0,0.8-0.3,1.5-1,2s-1.6,0.7-2.9,0.7C65.9,190.5,65.1,190.4,64.4,190.2z"/>
	<path class="st0" d="M76.1,189.9c-0.7-0.4-1.3-1-1.7-1.7c-0.4-0.7-0.6-1.6-0.6-2.5s0.2-1.8,0.6-2.5s1-1.3,1.7-1.7s1.6-0.6,2.5-0.6
		s1.7,0.2,2.5,0.6c0.7,0.4,1.3,1,1.7,1.7c0.4,0.7,0.6,1.6,0.6,2.5s-0.2,1.8-0.6,2.5s-1,1.3-1.7,1.7s-1.6,0.6-2.5,0.6
		S76.8,190.3,76.1,189.9z M80.4,189c0.5-0.3,1-0.7,1.3-1.3s0.5-1.2,0.5-1.9s-0.2-1.4-0.5-1.9c-0.3-0.6-0.7-1-1.3-1.3
		c-0.5-0.3-1.1-0.5-1.8-0.5s-1.3,0.2-1.8,0.5s-1,0.7-1.3,1.3s-0.5,1.2-0.5,1.9s0.2,1.4,0.5,1.9c0.3,0.6,0.7,1,1.3,1.3
		c0.5,0.3,1.1,0.5,1.8,0.5S79.9,189.3,80.4,189z"/>
	<path class="st0" d="M95.5,182c0.7,0.7,1.1,1.7,1.1,3v5.5h-1.3v-5.4c0-1-0.2-1.7-0.7-2.3c-0.5-0.5-1.2-0.8-2.1-0.8
		c-1,0-1.8,0.3-2.4,0.9c-0.6,0.6-0.9,1.4-0.9,2.5v5h-1.3V181H89v1.7c0.3-0.6,0.8-1,1.4-1.3s1.3-0.5,2.2-0.5
		C93.8,180.9,94.8,181.3,95.5,182z"/>
	<path class="st0" d="M107.9,181.8c0.7,0.6,1,1.5,1,2.7v5.9h-1.2V189c-0.3,0.5-0.7,0.9-1.3,1.2c-0.6,0.3-1.2,0.4-2,0.4
		c-1.1,0-1.9-0.3-2.5-0.8s-0.9-1.2-0.9-2s0.3-1.5,0.9-1.9c0.6-0.5,1.5-0.7,2.8-0.7h3v-0.6c0-0.8-0.2-1.4-0.7-1.9s-1.1-0.6-2-0.6
		c-0.6,0-1.2,0.1-1.7,0.3c-0.6,0.2-1,0.5-1.4,0.8l-0.6-1c0.5-0.4,1.1-0.7,1.7-0.9c0.7-0.2,1.4-0.3,2.1-0.3
		C106.3,180.9,107.3,181.2,107.9,181.8z M106.5,189c0.5-0.3,0.9-0.8,1.2-1.4v-1.5h-3c-1.6,0-2.4,0.6-2.4,1.7c0,0.6,0.2,1,0.6,1.3
		s1,0.5,1.8,0.5C105.4,189.5,106,189.4,106.5,189z"/>
	<path class="st0" d="M114.2,177.1h1.3v13.4h-1.3V177.1z"/>
	<path class="st0" d="M120.8,178.6c-0.2-0.2-0.3-0.4-0.3-0.6c0-0.2,0.1-0.5,0.3-0.6c0.2-0.2,0.4-0.3,0.7-0.3c0.3,0,0.5,0.1,0.7,0.3
		s0.3,0.4,0.3,0.6c0,0.3-0.1,0.5-0.3,0.7c-0.2,0.2-0.4,0.3-0.7,0.3C121.2,178.9,121,178.8,120.8,178.6z M120.8,181h1.3v9.5h-1.3V181
		z"/>
	<path class="st0" d="M134.2,189.4v1.1h-7.7v-0.8l6-7.5h-5.9V181h7.5v0.8l-6,7.6L134.2,189.4L134.2,189.4z"/>
	<path class="st0" d="M144.6,181.8c0.7,0.6,1,1.5,1,2.7v5.9h-1.2V189c-0.3,0.5-0.7,0.9-1.3,1.2s-1.2,0.4-2,0.4
		c-1.1,0-1.9-0.3-2.5-0.8s-0.9-1.2-0.9-2s0.3-1.5,0.9-1.9c0.6-0.5,1.5-0.7,2.8-0.7h3v-0.6c0-0.8-0.2-1.4-0.7-1.9s-1.1-0.6-2-0.6
		c-0.6,0-1.2,0.1-1.7,0.3c-0.6,0.2-1,0.5-1.4,0.8l-0.6-1c0.5-0.4,1.1-0.7,1.7-0.9c0.7-0.2,1.4-0.3,2.1-0.3
		C143,180.9,144,181.2,144.6,181.8z M143.2,189c0.5-0.3,0.9-0.8,1.2-1.4v-1.5h-3c-1.6,0-2.4,0.6-2.4,1.7c0,0.6,0.2,1,0.6,1.3
		c0.4,0.3,1,0.5,1.8,0.5C142.1,189.5,142.7,189.4,143.2,189z"/>
	<path class="st0" d="M159.6,177.1v13.4h-1.2v-1.9c-0.4,0.6-0.9,1.1-1.5,1.5c-0.6,0.3-1.3,0.5-2.1,0.5c-0.9,0-1.7-0.2-2.4-0.6
		c-0.7-0.4-1.3-1-1.7-1.7s-0.6-1.6-0.6-2.5s0.2-1.8,0.6-2.5c0.4-0.7,1-1.3,1.7-1.7s1.5-0.6,2.4-0.6c0.8,0,1.5,0.2,2.1,0.5
		s1.1,0.8,1.5,1.4v-5.7L159.6,177.1L159.6,177.1z M156.6,189c0.5-0.3,1-0.7,1.3-1.3s0.5-1.2,0.5-1.9s-0.2-1.4-0.5-1.9
		c-0.3-0.6-0.7-1-1.3-1.3c-0.5-0.3-1.1-0.5-1.8-0.5s-1.3,0.2-1.8,0.5s-1,0.7-1.3,1.3s-0.5,1.2-0.5,1.9s0.2,1.4,0.5,1.9
		c0.3,0.6,0.7,1,1.3,1.3c0.5,0.3,1.1,0.5,1.8,0.5C155.5,189.4,156.1,189.3,156.6,189z"/>
	<path class="st0" d="M171.1,181.8c0.7,0.6,1,1.5,1,2.7v5.9h-1.2V189c-0.3,0.5-0.7,0.9-1.3,1.2s-1.2,0.4-2,0.4
		c-1.1,0-1.9-0.3-2.5-0.8s-0.9-1.2-0.9-2s0.3-1.5,0.9-1.9c0.6-0.5,1.5-0.7,2.8-0.7h3v-0.6c0-0.8-0.2-1.4-0.7-1.9s-1.1-0.6-2-0.6
		c-0.6,0-1.2,0.1-1.7,0.3c-0.6,0.2-1,0.5-1.4,0.8l-0.6-1c0.5-0.4,1.1-0.7,1.7-0.9c0.7-0.2,1.4-0.3,2.1-0.3
		C169.5,180.9,170.4,181.2,171.1,181.8z M169.7,189c0.5-0.3,0.9-0.8,1.2-1.4v-1.5h-3c-1.6,0-2.4,0.6-2.4,1.7c0,0.6,0.2,1,0.6,1.3
		c0.4,0.3,1,0.5,1.8,0.5C168.5,189.5,169.1,189.4,169.7,189z"/>
</g>
<path class="st0" d="M160.4,68c-10.8,0-21.6,0-32.4,0c-29.2,0-58.4,0-87.5,0c-2.2,0-2.9,0.6-2.9,2.9c0,3.5,0.1,7.1,0,10.6
	c0,1.7,0.2,3,2.1,3.4c0,0.7,0,1.2,0,1.8c0,15.8,0,31.6,0,47.4c0,2.5,0.6,3,3.1,3c4.8,0,9.5,0,14.3,0c33.8,0,67.5,0,101.3,0
	c2.2,0,2.8-0.7,2.8-2.8c0-3.2,0-6.5,0-9.7c0-13.2,0-26.4,0-39.7c1.8-0.7,2.1-1.1,2.1-2.9c0-3.8,0-7.5,0-11.3
	C163.1,68.7,162.4,68,160.4,68z M156.8,132.8c-37.6,0-75.2,0-112.9,0c0-15.9,0-31.9,0-48c37.7,0,75.3,0,112.9,0
	C156.8,100.8,156.8,116.8,156.8,132.8z M158.9,80.5c-39.1,0-78.1,0-117.1,0c0-2.7,0-5.4,0-8.2c39,0,78,0,117.1,0
	C158.9,75,158.9,77.7,158.9,80.5z"/>
</svg>
