<?xml version="1.0" encoding="utf-8"?>
<!-- Generator: Adobe Illustrator 22.1.0, SVG Export Plug-In . SVG Version: 6.00 Build 0)  -->
<svg version="1.1" id="Capa_1" xmlns="http://www.w3.org/2000/svg" xmlns:xlink="http://www.w3.org/1999/xlink" x="0px" y="0px"
	 viewBox="0 0 200 200" style="enable-background:new 0 0 200 200;" xml:space="preserve">
<style type="text/css">
	.st0{fill:#FFFFFF;}
</style>
<g>
	<path class="st0" d="M61,157.4c0.9,0.8,1.4,1.8,1.4,3.2c0,1.3-0.5,2.4-1.4,3.2s-2.2,1.1-3.8,1.1h-3.4v4h-1.3v-12.6h4.7
		C58.9,156.3,60.1,156.6,61,157.4z M60.1,162.9c0.7-0.5,1-1.3,1-2.3s-0.3-1.8-1-2.3s-1.6-0.8-2.9-0.8h-3.3v6.3h3.3
		C58.5,163.7,59.4,163.4,60.1,162.9z"/>
	<path class="st0" d="M72.9,160.2c0.7,0.6,1,1.5,1,2.7v5.9h-1.2v-1.5c-0.3,0.5-0.7,0.9-1.3,1.2c-0.6,0.3-1.2,0.4-2,0.4
		c-1.1,0-1.9-0.3-2.5-0.8s-0.9-1.2-0.9-2s0.3-1.5,0.9-1.9c0.6-0.5,1.5-0.7,2.8-0.7h3v-0.6c0-0.8-0.2-1.4-0.7-1.9s-1.1-0.6-2-0.6
		c-0.6,0-1.2,0.1-1.7,0.3c-0.6,0.2-1,0.5-1.4,0.8l-0.6-1c0.5-0.4,1.1-0.7,1.7-0.9c0.7-0.2,1.4-0.3,2.1-0.3
		C71.3,159.3,72.2,159.6,72.9,160.2z M71.5,167.4c0.5-0.3,0.9-0.8,1.2-1.4v-1.5h-3c-1.6,0-2.4,0.6-2.4,1.7c0,0.6,0.2,1,0.6,1.3
		s1,0.5,1.8,0.5C70.3,167.9,70.9,167.8,71.5,167.4z"/>
	<path class="st0" d="M86.4,159.9c0.7,0.4,1.3,1,1.7,1.7c0.4,0.7,0.6,1.6,0.6,2.5s-0.2,1.8-0.6,2.5s-1,1.3-1.7,1.7s-1.5,0.6-2.4,0.6
		c-0.8,0-1.5-0.2-2.1-0.5s-1.1-0.8-1.5-1.4v5.3h-1.3v-13h1.2v1.9c0.4-0.6,0.9-1.1,1.5-1.4c0.6-0.3,1.3-0.5,2.1-0.5
		C84.9,159.3,85.7,159.5,86.4,159.9z M85.7,167.4c0.5-0.3,1-0.7,1.3-1.3s0.5-1.2,0.5-1.9s-0.2-1.4-0.5-1.9c-0.3-0.6-0.7-1-1.3-1.3
		c-0.5-0.3-1.1-0.5-1.8-0.5c-0.7,0-1.3,0.2-1.8,0.5s-1,0.7-1.3,1.3s-0.5,1.2-0.5,1.9s0.2,1.4,0.5,1.9c0.3,0.6,0.7,1,1.3,1.3
		c0.5,0.3,1.1,0.5,1.8,0.5C84.6,167.8,85.2,167.7,85.7,167.4z"/>
	<path class="st0" d="M101.4,164.5h-7.9c0.1,1,0.5,1.8,1.1,2.4c0.7,0.6,1.5,0.9,2.6,0.9c0.6,0,1.1-0.1,1.6-0.3s0.9-0.5,1.3-0.9
		l0.7,0.8c-0.4,0.5-0.9,0.9-1.6,1.2s-1.3,0.4-2.1,0.4c-1,0-1.8-0.2-2.6-0.6s-1.3-1-1.8-1.7c-0.4-0.7-0.6-1.6-0.6-2.5
		s0.2-1.8,0.6-2.5s1-1.3,1.7-1.7s1.5-0.6,2.4-0.6s1.7,0.2,2.4,0.6c0.7,0.4,1.2,1,1.6,1.7s0.6,1.6,0.6,2.5L101.4,164.5z M94.5,161.3
		c-0.6,0.6-1,1.3-1.1,2.3h6.7c-0.1-0.9-0.4-1.7-1.1-2.3c-0.6-0.6-1.4-0.9-2.3-0.9C95.9,160.4,95.2,160.7,94.5,161.3z"/>
	<path class="st0" d="M105.8,155.5h1.3v13.4h-1.3V155.5z"/>
	<path class="st0" d="M120.7,164.5h-7.9c0.1,1,0.5,1.8,1.1,2.4c0.7,0.6,1.5,0.9,2.6,0.9c0.6,0,1.1-0.1,1.6-0.3s0.9-0.5,1.3-0.9
		l0.7,0.8c-0.4,0.5-0.9,0.9-1.6,1.2s-1.3,0.4-2.1,0.4c-1,0-1.8-0.2-2.6-0.6s-1.3-1-1.8-1.7c-0.4-0.7-0.6-1.6-0.6-2.5
		s0.2-1.8,0.6-2.5s1-1.3,1.7-1.7s1.5-0.6,2.4-0.6s1.7,0.2,2.4,0.6c0.7,0.4,1.2,1,1.6,1.7s0.6,1.6,0.6,2.5L120.7,164.5z M113.9,161.3
		c-0.6,0.6-1,1.3-1.1,2.3h6.7c-0.1-0.9-0.4-1.7-1.1-2.3c-0.6-0.6-1.4-0.9-2.3-0.9C115.2,160.4,114.5,160.7,113.9,161.3z"/>
	<path class="st0" d="M127.7,159.8c0.6-0.3,1.3-0.5,2.2-0.5v1.2h-0.3c-1,0-1.8,0.3-2.3,0.9c-0.6,0.6-0.8,1.5-0.8,2.6v4.8h-1.3v-9.5
		h1.2v1.9C126.7,160.6,127.1,160.1,127.7,159.8z"/>
	<path class="st0" d="M134,157c-0.2-0.2-0.3-0.4-0.3-0.6c0-0.2,0.1-0.5,0.3-0.6c0.2-0.2,0.4-0.3,0.7-0.3s0.5,0.1,0.7,0.3
		s0.3,0.4,0.3,0.6c0,0.3-0.1,0.5-0.3,0.7s-0.4,0.3-0.7,0.3C134.4,157.3,134.2,157.2,134,157z M134,159.4h1.3v9.5H134V159.4z"/>
	<path class="st0" d="M146.8,160.2c0.7,0.6,1,1.5,1,2.7v5.9h-1.2v-1.5c-0.3,0.5-0.7,0.9-1.3,1.2s-1.2,0.4-2,0.4
		c-1.1,0-1.9-0.3-2.5-0.8s-0.9-1.2-0.9-2s0.3-1.5,0.9-1.9c0.6-0.5,1.5-0.7,2.8-0.7h3v-0.6c0-0.8-0.2-1.4-0.7-1.9s-1.1-0.6-2-0.6
		c-0.6,0-1.2,0.1-1.7,0.3c-0.6,0.2-1,0.5-1.4,0.8l-0.6-1c0.5-0.4,1.1-0.7,1.7-0.9c0.7-0.2,1.4-0.3,2.1-0.3
		C145.2,159.3,146.2,159.6,146.8,160.2z M145.4,167.4c0.5-0.3,0.9-0.8,1.2-1.4v-1.5h-3c-1.6,0-2.4,0.6-2.4,1.7c0,0.6,0.2,1,0.6,1.3
		c0.4,0.3,1,0.5,1.8,0.5C144.2,167.9,144.9,167.8,145.4,167.4z"/>
</g>
<g>
	<path class="st0" d="M174.6,71.5c0,20.3,0,40.5,0,60.8c-1.3,0.7-2.6,1.9-4,1.9c-4.8,0.2-9.6,0.1-14.4,0.1c-5.5,0-11,0-16.9,0
		c0,3.1,0.2,5.8-0.1,8.5c-0.2,1.6-1.2,3.2-1.8,4.8c-35.6,0-71.2,0-106.9,0c0-40.5,0-81.1,0-121.6C38.1,18.6,45.6,11.1,53,3.6
		c28.2,0,56.3,0,84.5,0c0.6,1.6,1.7,3.2,1.8,4.8c0.3,4.2,0.1,8.4,0.1,13c6.3,0,12.2,0,18.2,0c2.3,0,3.7,0.7,3.7,3.2
		c0,11.5,0,23,0,34.5c0,2.5-1.5,3.3-3.7,3.3c-3.6,0-7.2,0-10.9,0c-2.4,0-4.8,0-7.1,0c0,2.7,0,4.9,0,7.3c10.2,0,20.2-0.1,30.2,0.1
		C171.4,69.9,173,70.9,174.6,71.5z M133.4,21.4c0-4.2,0-8,0-11.7c-25.6,0-50.9,0-76.4,0c0,5.2,0,10.2,0,15.2c0,4.8-0.2,5-5.1,5
		c-5.1,0-10.1,0-15.2,0c0,37.5,0,74.6,0,111.6c32.4,0,64.5,0,96.7,0c0-2.5,0-4.8,0-7.3c-1.5,0-2.8,0-4.1,0c-21.5,0-43.1,0-64.6,0
		c-4.1,0-4.6-0.5-4.6-4.7c0-18.1,0-36.3,0-54.4c0-5,0.5-5.5,5.5-5.5c21.3,0,42.7,0,64,0c1.2,0,2.5,0,3.9,0c0-2.6,0-4.7,0-7.1
		c-1.2-0.1-2.2-0.2-3.2-0.2c-7.5,0-14.9,0-22.4,0c-4.5,0-5-0.5-5-4.9c0-10.5,0-20.9,0-31.4c0-4.5,0.3-4.8,4.7-4.8
		C116,21.4,124.5,21.4,133.4,21.4z M168.7,77.7c-1.3,0.7-2.3,1.1-3.2,1.6c-15,8.1-30,16.1-44.9,24.3c-2.3,1.3-4.1,1.3-6.5,0
		C99.7,95.7,85.3,88,70.9,80.2c-1.6-0.8-3.1-1.6-4.8-2.6c0,17.2,0,33.9,0,50.7c34.3,0,68.4,0,102.6,0
		C168.7,111.5,168.7,94.9,168.7,77.7z M75.7,75.6c-0.1,0.2-0.1,0.3-0.2,0.5c0.6,0.4,1.2,0.8,1.9,1.1c12.4,6.7,24.9,13.4,37.3,20.2
		c1.9,1,3.3,1.1,5.2,0c12.3-6.8,24.7-13.4,37-20.1c0.8-0.4,1.5-0.9,2.9-1.7C131.2,75.6,103.5,75.6,75.7,75.6z M108.7,56.5
		c15.6,0,31.1,0,46.6,0c0-9.8,0-19.5,0-29.1c-15.7,0-31.2,0-46.6,0C108.7,37.2,108.7,46.8,108.7,56.5z M51.1,15.3
		c-2.8,2.8-5.9,6-8.6,8.6c2.2,0,5.4,0,8.6,0C51.1,20.7,51.1,17.6,51.1,15.3z"/>
	<path class="st0" d="M137.5,147.6c0.6-1.6,1.6-3.2,1.8-4.8c0.3-2.7,0.1-5.5,0.1-8.5c5.9,0,11.4,0,16.9,0c4.8,0,9.6,0.1,14.4-0.1
		c1.4-0.1,2.6-1.3,4-1.9c0,5.1,0,10.2,0,15.4C162.3,147.6,149.9,147.6,137.5,147.6z"/>
	<path class="st0" d="M53,3.6c-7.4,7.5-14.9,15-22.4,22.4c0-7.5,0-14.9,0-22.4C38.1,3.6,45.6,3.6,53,3.6z"/>
	<path class="st0" d="M95.1,50.4c-15.6,0-30.9,0-46.4,0c0-1.8,0-3.5,0-5.5c15.5,0,30.9,0,46.4,0C95.1,46.8,95.1,48.4,95.1,50.4z"/>
	<path class="st0" d="M95.2,56.9c0,1.9,0,3.6,0,5.4c-15.5,0-30.9,0-46.5,0c0-1.8,0-3.5,0-5.4C64.1,56.9,79.5,56.9,95.2,56.9z"/>
	<path class="st0" d="M95.2,21.6c0,1.9,0,3.5,0,5.3c-5.8,0-11.4,0-17.3,0c0-1.8,0-3.5,0-5.3C83.7,21.6,89.3,21.6,95.2,21.6z"/>
	<path class="st0" d="M77.9,38.6c0-1.8,0-3.5,0-5.4c5.7,0,11.3,0,17.1,0c0,1.7,0,3.4,0,5.4C89.4,38.6,83.7,38.6,77.9,38.6z"/>
	<path class="st0" d="M113.1,41.7c0.1-5.7,4.5-10.1,10.2-10c5.7,0.1,10.1,4.5,10.1,10.2c0,5.5-4.7,10.3-10.2,10.3
		C117.5,52.1,113,47.5,113.1,41.7z M123.1,46.3c2.3,0.1,4.6-2.1,4.6-4.5s-2.1-4.4-4.5-4.4s-4.3,1.8-4.3,4.2
		C118.7,44.1,120.7,46.3,123.1,46.3z"/>
	<path class="st0" d="M150.9,33.2c0,1.9,0,3.6,0,5.4c-4.2,0-8.3,0-12.6,0c0-1.8,0-3.5,0-5.4C142.4,33.2,146.5,33.2,150.9,33.2z"/>
	<path class="st0" d="M138.2,48.9c0-1.8,0-3.5,0-5.4c4.1,0,8.2,0,12.6,0c0,1.7,0,3.4,0,5.4C146.7,48.9,142.5,48.9,138.2,48.9z"/>
</g>
</svg>
