<?xml version="1.0" encoding="utf-8"?>
<!-- Generator: Adobe Illustrator 22.1.0, SVG Export Plug-In . SVG Version: 6.00 Build 0)  -->
<svg version="1.1" id="Capa_1" xmlns="http://www.w3.org/2000/svg" xmlns:xlink="http://www.w3.org/1999/xlink" x="0px" y="0px"
	 viewBox="0 0 200 200" style="enable-background:new 0 0 200 200;" xml:space="preserve">
<style type="text/css">
	.st0{fill:#FFFFFF;}
</style>
<g>
	<path class="st0" d="M39.2,168.9l-2.9-4c-0.3,0-0.7,0.1-1,0.1h-3.4v4h-1.3v-12.6h4.7c1.6,0,2.9,0.4,3.8,1.2
		c0.9,0.8,1.4,1.8,1.4,3.2c0,1-0.2,1.8-0.7,2.5s-1.2,1.2-2.1,1.5l3.1,4.3h-1.6V168.9z M38.1,162.9c0.7-0.6,1-1.3,1-2.3
		s-0.3-1.8-1-2.3s-1.6-0.8-2.9-0.8h-3.3v6.3h3.3C36.5,163.7,37.4,163.4,38.1,162.9z"/>
	<path class="st0" d="M53.4,164.5h-7.9c0.1,1,0.4,1.8,1.1,2.4c0.7,0.6,1.5,0.9,2.6,0.9c0.6,0,1.1-0.1,1.6-0.3s0.9-0.5,1.3-0.9
		l0.7,0.8c-0.4,0.5-0.9,0.9-1.6,1.2s-1.3,0.4-2.1,0.4c-1,0-1.8-0.2-2.6-0.6s-1.3-1-1.8-1.7c-0.4-0.7-0.6-1.6-0.6-2.5
		s0.2-1.8,0.6-2.5c0.4-0.7,1-1.3,1.7-1.7s1.5-0.6,2.4-0.6s1.7,0.2,2.4,0.6c0.7,0.4,1.2,1,1.6,1.7c0.4,0.7,0.6,1.6,0.6,2.5V164.5z
		 M46.5,161.3c-0.6,0.6-1,1.3-1.1,2.3h6.7c-0.1-0.9-0.4-1.7-1.1-2.3c-0.6-0.6-1.4-0.9-2.3-0.9C47.9,160.4,47.1,160.7,46.5,161.3z"/>
	<path class="st0" d="M59.2,168.3c-0.7-0.4-1.3-1-1.7-1.7s-0.6-1.6-0.6-2.5s0.2-1.8,0.6-2.5c0.4-0.7,1-1.3,1.7-1.7s1.6-0.6,2.5-0.6
		c0.8,0,1.5,0.2,2.2,0.5c0.6,0.3,1.1,0.8,1.5,1.4l-1,0.6c-0.3-0.5-0.7-0.8-1.2-1.1c-0.5-0.2-1-0.4-1.6-0.4c-0.7,0-1.3,0.2-1.8,0.5
		s-1,0.7-1.3,1.3S58,163.3,58,164s0.2,1.4,0.5,1.9c0.3,0.6,0.7,1,1.3,1.3c0.5,0.3,1.2,0.5,1.8,0.5s1.1-0.1,1.6-0.3s0.9-0.6,1.2-1
		l1,0.6c-0.4,0.6-0.9,1.1-1.5,1.4c-0.6,0.3-1.4,0.5-2.2,0.5C60.8,168.9,59.9,168.7,59.2,168.3z"/>
	<path class="st0" d="M77.8,164.5h-7.9c0.1,1,0.5,1.8,1.1,2.4c0.7,0.6,1.5,0.9,2.6,0.9c0.6,0,1.1-0.1,1.6-0.3s0.9-0.5,1.3-0.9
		l0.7,0.8c-0.4,0.5-0.9,0.9-1.6,1.2c-0.6,0.3-1.3,0.4-2.1,0.4c-1,0-1.8-0.2-2.6-0.6s-1.3-1-1.8-1.7c-0.4-0.7-0.6-1.6-0.6-2.5
		s0.2-1.8,0.6-2.5s1-1.3,1.7-1.7s1.5-0.6,2.4-0.6s1.7,0.2,2.4,0.6s1.2,1,1.6,1.7s0.6,1.6,0.6,2.5L77.8,164.5z M70.9,161.3
		c-0.6,0.6-1,1.3-1.1,2.3h6.7c-0.1-0.9-0.4-1.7-1.1-2.3c-0.6-0.6-1.4-0.9-2.3-0.9C72.3,160.4,71.5,160.7,70.9,161.3z"/>
	<path class="st0" d="M89.5,159.9c0.7,0.4,1.3,1,1.7,1.7c0.4,0.7,0.6,1.6,0.6,2.5s-0.2,1.8-0.6,2.5s-1,1.3-1.7,1.7s-1.5,0.6-2.4,0.6
		c-0.8,0-1.5-0.2-2.1-0.5s-1.1-0.8-1.5-1.4v5.3h-1.3v-13h1.2v1.9c0.4-0.6,0.9-1.1,1.5-1.4s1.3-0.5,2.1-0.5
		C88,159.3,88.8,159.5,89.5,159.9z M88.8,167.4c0.5-0.3,1-0.7,1.3-1.3s0.5-1.2,0.5-1.9s-0.2-1.4-0.5-1.9c-0.3-0.6-0.7-1-1.3-1.3
		c-0.5-0.3-1.1-0.5-1.8-0.5c-0.7,0-1.3,0.2-1.8,0.5s-1,0.7-1.3,1.3s-0.5,1.2-0.5,1.9s0.2,1.4,0.5,1.9c0.3,0.6,0.7,1,1.3,1.3
		s1.1,0.5,1.8,0.5C87.7,167.8,88.3,167.7,88.8,167.4z"/>
	<path class="st0" d="M97.6,168.3c-0.7-0.4-1.3-1-1.7-1.7c-0.4-0.7-0.6-1.6-0.6-2.5s0.2-1.8,0.6-2.5s1-1.3,1.7-1.7s1.6-0.6,2.5-0.6
		c0.8,0,1.5,0.2,2.2,0.5c0.6,0.3,1.1,0.8,1.5,1.4l-1,0.6c-0.3-0.5-0.7-0.8-1.2-1.1c-0.5-0.2-1-0.4-1.6-0.4c-0.7,0-1.3,0.2-1.8,0.5
		s-1,0.7-1.3,1.3s-0.5,1.2-0.5,1.9s0.2,1.4,0.5,1.9c0.3,0.6,0.7,1,1.3,1.3s1.2,0.5,1.8,0.5c0.6,0,1.1-0.1,1.6-0.3s0.9-0.6,1.2-1
		l1,0.6c-0.4,0.6-0.9,1.1-1.5,1.4c-0.6,0.3-1.4,0.5-2.2,0.5C99.2,168.9,98.4,168.7,97.6,168.3z"/>
	<path class="st0" d="M108.1,157c-0.2-0.2-0.3-0.4-0.3-0.6c0-0.2,0.1-0.5,0.3-0.6s0.4-0.3,0.7-0.3s0.5,0.1,0.7,0.3s0.3,0.4,0.3,0.6
		c0,0.3-0.1,0.5-0.3,0.7c-0.2,0.2-0.4,0.3-0.7,0.3S108.3,157.2,108.1,157z M108.2,159.4h1.3v9.5h-1.3V159.4z"/>
	<path class="st0" d="M116.2,168.3c-0.7-0.4-1.3-1-1.7-1.7c-0.4-0.7-0.6-1.6-0.6-2.5s0.2-1.8,0.6-2.5s1-1.3,1.7-1.7s1.6-0.6,2.5-0.6
		s1.7,0.2,2.5,0.6c0.7,0.4,1.3,1,1.7,1.7c0.4,0.7,0.6,1.6,0.6,2.5s-0.2,1.8-0.6,2.5s-1,1.3-1.7,1.7s-1.6,0.6-2.5,0.6
		S116.9,168.7,116.2,168.3z M120.5,167.4c0.5-0.3,1-0.7,1.3-1.3s0.5-1.2,0.5-1.9s-0.2-1.4-0.5-1.9c-0.3-0.6-0.7-1-1.3-1.3
		c-0.5-0.3-1.1-0.5-1.8-0.5s-1.3,0.2-1.8,0.5s-1,0.7-1.3,1.3s-0.5,1.2-0.5,1.9s0.2,1.4,0.5,1.9c0.3,0.6,0.7,1,1.3,1.3
		c0.5,0.3,1.1,0.5,1.8,0.5S119.9,167.7,120.5,167.4z M120,155.7h1.7l-2.9,2.2h-1.3L120,155.7z"/>
	<path class="st0" d="M135.5,160.4c0.7,0.7,1.1,1.7,1.1,3v5.5h-1.3v-5.4c0-1-0.2-1.7-0.7-2.3c-0.5-0.5-1.2-0.8-2.1-0.8
		c-1,0-1.8,0.3-2.4,0.9c-0.6,0.6-0.9,1.4-0.9,2.5v5h-1.3v-9.5h1.2v1.7c0.3-0.6,0.8-1,1.4-1.3c0.6-0.3,1.3-0.5,2.2-0.5
		C133.9,159.3,134.8,159.7,135.5,160.4z"/>
	<path class="st0" d="M157,155.5v13.4h-1.2V167c-0.4,0.6-0.9,1.1-1.5,1.5c-0.6,0.3-1.3,0.5-2.1,0.5c-0.9,0-1.7-0.2-2.4-0.6
		c-0.7-0.4-1.3-1-1.7-1.7s-0.6-1.6-0.6-2.5s0.2-1.8,0.6-2.5c0.4-0.7,1-1.3,1.7-1.7s1.5-0.6,2.4-0.6c0.8,0,1.5,0.2,2.1,0.5
		s1.1,0.8,1.5,1.4v-5.7L157,155.5L157,155.5z M154.1,167.4c0.5-0.3,1-0.7,1.3-1.3s0.5-1.2,0.5-1.9s-0.2-1.4-0.5-1.9
		c-0.3-0.6-0.7-1-1.3-1.3c-0.5-0.3-1.1-0.5-1.8-0.5s-1.3,0.2-1.8,0.5s-1,0.7-1.3,1.3s-0.5,1.2-0.5,1.9s0.2,1.4,0.5,1.9
		c0.3,0.6,0.7,1,1.3,1.3c0.5,0.3,1.1,0.5,1.8,0.5C152.9,167.8,153.5,167.7,154.1,167.4z"/>
	<path class="st0" d="M170.6,164.5h-7.9c0.1,1,0.5,1.8,1.1,2.4c0.7,0.6,1.5,0.9,2.6,0.9c0.6,0,1.1-0.1,1.6-0.3s0.9-0.5,1.3-0.9
		l0.7,0.8c-0.4,0.5-0.9,0.9-1.6,1.2c-0.6,0.3-1.3,0.4-2.1,0.4c-1,0-1.8-0.2-2.6-0.6s-1.3-1-1.8-1.7c-0.4-0.7-0.6-1.6-0.6-2.5
		s0.2-1.8,0.6-2.5c0.4-0.7,1-1.3,1.7-1.7s1.5-0.6,2.4-0.6s1.7,0.2,2.4,0.6c0.7,0.4,1.2,1,1.6,1.7c0.4,0.7,0.6,1.6,0.6,2.5V164.5z
		 M163.8,161.3c-0.6,0.6-1,1.3-1.1,2.3h6.7c-0.1-0.9-0.4-1.7-1.1-2.3c-0.6-0.6-1.4-0.9-2.3-0.9C165.2,160.4,164.4,160.7,163.8,161.3
		z"/>
	<path class="st0" d="M51.8,181.5c0.7,0.4,1.3,1,1.7,1.7s0.6,1.6,0.6,2.5s-0.2,1.8-0.6,2.5c-0.4,0.7-1,1.3-1.7,1.7s-1.5,0.6-2.4,0.6
		c-0.8,0-1.5-0.2-2.1-0.5s-1.1-0.8-1.5-1.4v5.3h-1.3v-13h1.2v1.9c0.4-0.6,0.9-1.1,1.5-1.4c0.6-0.3,1.3-0.5,2.1-0.5
		C50.3,180.9,51.1,181.1,51.8,181.5z M51.1,189c0.5-0.3,1-0.7,1.3-1.3s0.5-1.2,0.5-1.9s-0.2-1.4-0.5-1.9c-0.3-0.6-0.7-1-1.3-1.3
		c-0.5-0.3-1.1-0.5-1.8-0.5s-1.3,0.2-1.8,0.5s-1,0.7-1.3,1.3s-0.5,1.2-0.5,1.9s0.2,1.4,0.5,1.9c0.3,0.6,0.7,1,1.3,1.3
		c0.5,0.3,1.1,0.5,1.8,0.5C49.9,189.4,50.5,189.3,51.1,189z"/>
	<path class="st0" d="M64.6,181.8c0.7,0.6,1,1.5,1,2.7v5.9h-1.2V189c-0.3,0.5-0.7,0.9-1.3,1.2s-1.2,0.4-2,0.4
		c-1.1,0-1.9-0.3-2.5-0.8s-0.9-1.2-0.9-2s0.3-1.5,0.9-1.9c0.6-0.5,1.5-0.7,2.8-0.7h3v-0.6c0-0.8-0.2-1.4-0.7-1.9s-1.1-0.6-2-0.6
		c-0.6,0-1.2,0.1-1.7,0.3c-0.6,0.2-1,0.5-1.4,0.8l-0.6-1c0.5-0.4,1.1-0.7,1.7-0.9c0.7-0.2,1.4-0.3,2.1-0.3
		C63,180.9,63.9,181.2,64.6,181.8z M63.2,189c0.5-0.3,0.9-0.8,1.2-1.4v-1.5h-3c-1.6,0-2.4,0.6-2.4,1.7c0,0.6,0.2,1,0.6,1.3
		c0.4,0.3,1,0.5,1.8,0.5C62,189.5,62.6,189.4,63.2,189z"/>
	<path class="st0" d="M79.5,181v13h-1.3v-5.3c-0.4,0.6-0.9,1.1-1.5,1.4c-0.6,0.3-1.3,0.5-2.1,0.5c-0.9,0-1.7-0.2-2.4-0.6
		s-1.3-1-1.7-1.7c-0.4-0.7-0.6-1.6-0.6-2.5s0.2-1.8,0.6-2.5s1-1.3,1.7-1.7s1.5-0.6,2.4-0.6c0.8,0,1.5,0.2,2.1,0.5s1.1,0.8,1.5,1.4
		V181H79.5z M76.6,189c0.5-0.3,1-0.7,1.3-1.3s0.5-1.2,0.5-1.9s-0.2-1.4-0.5-1.9c-0.3-0.6-0.7-1-1.3-1.3c-0.5-0.3-1.1-0.5-1.8-0.5
		c-0.7,0-1.3,0.2-1.8,0.5s-1,0.7-1.3,1.3s-0.5,1.2-0.5,1.9s0.2,1.4,0.5,1.9c0.3,0.6,0.7,1,1.3,1.3c0.5,0.3,1.1,0.5,1.8,0.5
		C75.4,189.4,76,189.3,76.6,189z"/>
	<path class="st0" d="M93.4,181v9.5h-1.2v-1.7c-0.3,0.6-0.8,1-1.4,1.3s-1.3,0.5-2,0.5c-1.2,0-2.2-0.3-2.9-1c-0.7-0.7-1.1-1.7-1.1-3
		V181h1.3v5.4c0,1,0.2,1.8,0.7,2.3s1.2,0.8,2.1,0.8c1,0,1.8-0.3,2.4-0.9c0.6-0.6,0.9-1.4,0.9-2.5v-5h1.2V181z"/>
	<path class="st0" d="M107.1,186.1h-7.9c0.1,1,0.4,1.8,1.1,2.4c0.7,0.6,1.5,0.9,2.6,0.9c0.6,0,1.1-0.1,1.6-0.3s0.9-0.5,1.3-0.9
		l0.7,0.8c-0.4,0.5-0.9,0.9-1.6,1.2s-1.3,0.4-2.1,0.4c-1,0-1.8-0.2-2.6-0.6s-1.3-1-1.8-1.7c-0.4-0.7-0.6-1.6-0.6-2.5
		s0.2-1.8,0.6-2.5s1-1.3,1.7-1.7s1.5-0.6,2.4-0.6s1.7,0.2,2.4,0.6c0.7,0.4,1.2,1,1.6,1.7s0.6,1.6,0.6,2.5L107.1,186.1z M100.2,182.9
		c-0.6,0.6-1,1.3-1.1,2.3h6.7c-0.1-0.9-0.4-1.7-1.1-2.3c-0.6-0.6-1.4-0.9-2.3-0.9C101.6,182,100.8,182.3,100.2,182.9z"/>
	<path class="st0" d="M116.5,189.9c-0.2,0.2-0.5,0.4-0.9,0.5s-0.7,0.2-1.1,0.2c-0.9,0-1.6-0.2-2.1-0.7s-0.7-1.2-0.7-2v-5.7H110V181
		h1.7v-2.1h1.3v2.1h2.9v1.1H113v5.7c0,0.6,0.1,1,0.4,1.3s0.7,0.4,1.2,0.4c0.3,0,0.5,0,0.8-0.1s0.5-0.2,0.6-0.4L116.5,189.9z"/>
	<path class="st0" d="M128.5,186.1h-7.9c0.1,1,0.5,1.8,1.1,2.4c0.7,0.6,1.5,0.9,2.6,0.9c0.6,0,1.1-0.1,1.6-0.3s0.9-0.5,1.3-0.9
		l0.7,0.8c-0.4,0.5-0.9,0.9-1.6,1.2c-0.6,0.3-1.3,0.4-2.1,0.4c-1,0-1.8-0.2-2.6-0.6s-1.3-1-1.8-1.7c-0.4-0.7-0.6-1.6-0.6-2.5
		s0.2-1.8,0.6-2.5s1-1.3,1.7-1.7s1.5-0.6,2.4-0.6s1.7,0.2,2.4,0.6c0.7,0.4,1.2,1,1.6,1.7c0.4,0.7,0.6,1.6,0.6,2.5V186.1z
		 M121.6,182.9c-0.6,0.6-1,1.3-1.1,2.3h6.7c-0.1-0.9-0.4-1.7-1.1-2.3c-0.6-0.6-1.4-0.9-2.3-0.9C123,182,122.3,182.3,121.6,182.9z"/>
	<path class="st0" d="M135.5,181.4c0.6-0.3,1.3-0.5,2.2-0.5v1.2h-0.3c-1,0-1.8,0.3-2.3,0.9c-0.6,0.6-0.8,1.5-0.8,2.6v4.8H133V181
		h1.2v1.9C134.5,182.2,134.9,181.7,135.5,181.4z"/>
	<path class="st0" d="M143.7,177.3h1.7l-2.9,2.2h-1.3L143.7,177.3z M141.8,181h1.3v9.5h-1.3V181z"/>
	<path class="st0" d="M154.6,181.8c0.7,0.6,1,1.5,1,2.7v5.9h-1.2V189c-0.3,0.5-0.7,0.9-1.3,1.2s-1.2,0.4-2,0.4
		c-1.1,0-1.9-0.3-2.5-0.8s-0.9-1.2-0.9-2s0.3-1.5,0.9-1.9c0.6-0.5,1.5-0.7,2.8-0.7h3v-0.6c0-0.8-0.2-1.4-0.7-1.9
		c-0.5-0.4-1.1-0.6-2-0.6c-0.6,0-1.2,0.1-1.7,0.3c-0.6,0.2-1,0.5-1.4,0.8l-0.6-1c0.5-0.4,1.1-0.7,1.7-0.9c0.7-0.2,1.4-0.3,2.1-0.3
		C153,180.9,153.9,181.2,154.6,181.8z M153.2,189c0.5-0.3,0.9-0.8,1.2-1.4v-1.5h-3c-1.6,0-2.4,0.6-2.4,1.7c0,0.6,0.2,1,0.6,1.3
		c0.4,0.3,1,0.5,1.8,0.5C152,189.5,152.6,189.4,153.2,189z"/>
</g>
<g>
	<path class="st0" d="M184.7,63.1c-3.4,2-6.5,4.5-10.1,5.9c-4.4,1.7-5.8,4.2-5.7,8.9c0.4,10.9,0,21.8,0.2,32.7
		c0,2.9-1.1,4.6-3.7,5.8c-20.5,9.8-41,19.6-61.4,29.6c-2.8,1.3-5,1.3-7.7-0.1c-20.2-9.9-40.5-19.7-60.8-29.3
		c-3.1-1.5-4.4-3.4-4.4-6.9c0.2-11.5,0-23,0.1-34.6c0-2.5-0.7-3.8-3.1-4.7C25,69.2,22,67.7,19,66.1c-1.4-0.7-2.4-2-3.6-3
		c0-0.8,0-1.5,0-2.3c5-9.4,10.1-18.7,15-28.1c1.3-2.4,2.9-3.7,5.6-4.4c20.1-5.4,40.2-11,60.4-16.3c2.4-0.6,5.2-0.6,7.6,0
		c20.1,5.3,40,10.9,60.1,16.2c2.7,0.7,4.3,2.1,5.6,4.4c4.9,9.4,10,18.7,15,28.1C184.7,61.6,184.7,62.3,184.7,63.1z M39,75.6
		c0,11.2-0.1,21.6,0.1,31.9c0,1.2,1.5,2.7,2.7,3.3c17.2,8.4,34.4,16.7,51.6,25c0.8,0.4,1.7,0.6,2.6,0.8c0-20.4,0-40.5,0-60.5
		c-3.1,5.6-5.7,11.2-8.2,16.9c-1.4,3.2-3.6,3.9-6.6,2.4s-6.1-2.9-9.2-4.3C61.3,86.1,50.4,81,39,75.6z M104.2,137
		c1.7-0.7,2.9-1.2,4.1-1.8c15.5-7.5,31-15.2,46.6-22.4c4.9-2.2,6.8-4.8,6.5-10.3c-0.6-8.8-0.2-17.6-0.2-26.9c-1.9,0.8-3.2,1.3-4.6,2
		c-10.7,5.1-21.5,10.2-32.2,15.3c-11.3,5.4-10.3,5-15.1-5.5c-1.6-3.4-3.1-6.8-4.6-10.2c-0.2,0.1-0.4,0.2-0.6,0.3
		C104.2,97.1,104.2,116.7,104.2,137z M81.9,87.3c4.3-9.6,8.5-18.8,12.8-28.3c-19.5-7.2-38.6-14.3-58-21.5c-4,7.6-8,15.1-12,22.7
		C43.9,69.3,62.8,78.2,81.9,87.3z M163.2,37.4c-19.4,7.2-38.6,14.3-58,21.5c4.4,9.6,8.5,18.8,12.8,28.2c19.2-9.1,38.1-18,57.2-27
		C171.2,52.4,167.3,45.1,163.2,37.4z M48.4,33c0.8,0.4,1.1,0.6,1.4,0.8c16.2,6,32.4,12.1,48.7,18.1c1.2,0.4,2.9,0.1,4.2-0.4
		c9.5-3.4,19-7,28.4-10.5c6.7-2.5,13.3-5,20.3-7.6c-0.9-0.5-1.2-0.7-1.5-0.8c-15.9-4.3-31.8-8.6-47.7-12.8c-1.6-0.4-3.5-0.2-5.1,0.2
		c-8.1,2-16.3,4.2-24.5,6.4C64.6,28.6,56.7,30.8,48.4,33z"/>
</g>
</svg>
