<?xml version="1.0" encoding="utf-8"?>
<!-- Generator: Adobe Illustrator 22.1.0, SVG Export Plug-In . SVG Version: 6.00 Build 0)  -->
<svg version="1.1" id="Capa_1" xmlns="http://www.w3.org/2000/svg" xmlns:xlink="http://www.w3.org/1999/xlink" x="0px" y="0px"
	 viewBox="0 0 200 200" style="enable-background:new 0 0 200 200;" xml:space="preserve">
<style type="text/css">
	.st0{fill:#FFFFFF;}
</style>
<g>
	<path class="st0" d="M85,157.4c0.9,0.8,1.4,1.8,1.4,3.2c0,1.3-0.5,2.4-1.4,3.2s-2.2,1.1-3.8,1.1h-3.4v4h-1.3v-12.6h4.7
		C82.8,156.3,84.1,156.6,85,157.4z M84,162.9c0.7-0.5,1-1.3,1-2.3s-0.3-1.8-1-2.3s-1.6-0.8-2.9-0.8h-3.3v6.3h3.3
		C82.4,163.7,83.4,163.4,84,162.9z"/>
	<path class="st0" d="M93.1,159.8c0.6-0.3,1.3-0.5,2.2-0.5v1.2H95c-1,0-1.8,0.3-2.3,0.9c-0.6,0.6-0.8,1.5-0.8,2.6v4.8h-1.3v-9.5h1.2
		v1.9C92.1,160.6,92.5,160.1,93.1,159.8z"/>
	<path class="st0" d="M99.4,157c-0.2-0.2-0.3-0.4-0.3-0.6c0-0.2,0.1-0.5,0.3-0.6c0.2-0.2,0.4-0.3,0.7-0.3c0.3,0,0.5,0.1,0.7,0.3
		s0.3,0.4,0.3,0.6c0,0.3-0.1,0.5-0.3,0.7c-0.2,0.2-0.4,0.3-0.7,0.3C99.8,157.3,99.6,157.2,99.4,157z M99.4,159.4h1.3v9.5h-1.3V159.4
		z"/>
	<path class="st0" d="M113.7,160.4c0.7,0.7,1.1,1.7,1.1,3v5.5h-1.3v-5.4c0-1-0.2-1.7-0.7-2.3c-0.5-0.5-1.2-0.8-2.1-0.8
		c-1,0-1.8,0.3-2.4,0.9c-0.6,0.6-0.9,1.4-0.9,2.5v5H106v-9.5h1.2v1.7c0.3-0.6,0.8-1,1.4-1.3s1.3-0.5,2.2-0.5
		C112.1,159.3,113,159.7,113.7,160.4z"/>
	<path class="st0" d="M125,168.3c-0.2,0.2-0.5,0.4-0.9,0.5s-0.7,0.2-1.1,0.2c-0.9,0-1.6-0.2-2.1-0.7s-0.7-1.2-0.7-2v-5.7h-1.7v-1.1
		h1.7v-2.1h1.3v2.1h2.9v1.1h-2.9v5.7c0,0.6,0.1,1,0.4,1.3s0.7,0.4,1.2,0.4c0.3,0,0.5,0,0.8-0.1c0.2-0.1,0.5-0.2,0.6-0.4L125,168.3z"
		/>
	<path class="st0" d="M69.3,189.7c-1-0.6-1.8-1.3-2.4-2.3s-0.9-2.1-0.9-3.3s0.3-2.3,0.9-3.3s1.4-1.7,2.4-2.3s2.1-0.8,3.4-0.8
		c0.9,0,1.8,0.2,2.6,0.5c0.8,0.3,1.5,0.8,2,1.4l-0.8,0.8c-1-1-2.2-1.5-3.7-1.5c-1,0-1.9,0.2-2.7,0.7s-1.5,1.1-1.9,1.9
		s-0.7,1.7-0.7,2.7s0.2,1.9,0.7,2.7s1.1,1.4,1.9,1.9s1.7,0.7,2.7,0.7c1.5,0,2.8-0.5,3.7-1.5l0.8,0.8c-0.6,0.6-1.2,1.1-2,1.4
		c-0.8,0.3-1.7,0.5-2.6,0.5C71.5,190.6,70.3,190.3,69.3,189.7z"/>
	<path class="st0" d="M89.5,186.1h-7.9c0.1,1,0.5,1.8,1.1,2.4c0.7,0.6,1.5,0.9,2.6,0.9c0.6,0,1.1-0.1,1.6-0.3s0.9-0.5,1.3-0.9
		L89,189c-0.4,0.5-0.9,0.9-1.6,1.2s-1.3,0.4-2.1,0.4c-1,0-1.8-0.2-2.6-0.6s-1.3-1-1.8-1.7c-0.4-0.7-0.6-1.6-0.6-2.5s0.2-1.8,0.6-2.5
		s1-1.3,1.7-1.7s1.5-0.6,2.4-0.6s1.7,0.2,2.4,0.6c0.7,0.4,1.2,1,1.6,1.7s0.6,1.6,0.6,2.5L89.5,186.1z M82.7,182.9
		c-0.6,0.6-1,1.3-1.1,2.3h6.7c-0.1-0.9-0.4-1.7-1.1-2.3c-0.6-0.6-1.4-0.9-2.3-0.9C84,182,83.3,182.3,82.7,182.9z"/>
	<path class="st0" d="M101.6,182c0.7,0.7,1.1,1.7,1.1,3v5.5h-1.3v-5.4c0-1-0.2-1.7-0.7-2.3c-0.5-0.5-1.2-0.8-2.1-0.8
		c-1,0-1.8,0.3-2.4,0.9c-0.6,0.6-0.9,1.4-0.9,2.5v5H94V181h1.2v1.7c0.3-0.6,0.8-1,1.4-1.3s1.3-0.5,2.2-0.5
		C100,180.9,100.9,181.3,101.6,182z"/>
	<path class="st0" d="M112.9,189.9c-0.2,0.2-0.5,0.4-0.9,0.5s-0.7,0.2-1.1,0.2c-0.9,0-1.6-0.2-2.1-0.7s-0.7-1.2-0.7-2v-5.7h-1.7V181
		h1.7v-2.1h1.3v2.1h2.9v1.1h-2.9v5.7c0,0.6,0.1,1,0.4,1.3s0.7,0.4,1.2,0.4c0.3,0,0.5,0,0.8-0.1c0.2-0.1,0.5-0.2,0.6-0.4L112.9,189.9
		z"/>
	<path class="st0" d="M125,186.1h-8c0.1,1,0.5,1.8,1.1,2.4c0.7,0.6,1.5,0.9,2.6,0.9c0.6,0,1.1-0.1,1.6-0.3s0.9-0.5,1.3-0.9l0.7,0.8
		c-0.4,0.5-0.9,0.9-1.6,1.2s-1.3,0.4-2.1,0.4c-1,0-1.8-0.2-2.6-0.6s-1.3-1-1.8-1.7c-0.4-0.7-0.6-1.6-0.6-2.5s0.2-1.8,0.6-2.5
		s1-1.3,1.7-1.7s1.5-0.6,2.4-0.6s1.7,0.2,2.4,0.6c0.7,0.4,1.2,1,1.6,1.7s0.6,1.6,0.6,2.5L125,186.1z M118.1,182.9
		c-0.6,0.6-1,1.3-1.1,2.3h6.7c-0.1-0.9-0.4-1.7-1.1-2.3c-0.6-0.6-1.4-0.9-2.3-0.9C119.5,182,118.7,182.3,118.1,182.9z"/>
	<path class="st0" d="M131.9,181.4c0.6-0.3,1.3-0.5,2.2-0.5v1.2h-0.3c-1,0-1.8,0.3-2.3,0.9c-0.6,0.6-0.8,1.5-0.8,2.6v4.8h-1.3V181
		h1.2v1.9C130.9,182.2,131.4,181.7,131.9,181.4z"/>
</g>
<path class="st0" d="M33.7,100.6c0-16.5,0-32.9,0-49.4c0.5-1.4,0.9-3,1.7-4.3c2.3-4,5.9-6.2,10.6-6.3c3.1-0.1,6.3,0,9.5,0
	c0-0.5,0-0.9,0-1.3c0-9,0-18,0-27c0-3.4,1.5-4.9,4.9-4.9c26.5,0,53.1,0,79.6,0c3.3,0,4.9,1.6,4.9,4.8c0,9,0,18,0,27
	c0,0.5,0,0.9,0,1.4c3.3,0,6.4,0,9.5,0c6.7,0.1,12.2,5.5,12.3,12.3c0,15.4,0,30.7,0,46.1c0,2.4-0.7,4.7-2.1,6.7
	c-2.5,3.6-5.9,5.5-10.3,5.6c-3.1,0.1-6.2,0-9.4,0c0,0.6,0,1.2,0,1.7c0,7.4-0.1,14.7,0,22.1c0,2.5-0.8,4.3-3.2,5.4
	c-27.7,0-55.4,0-83.1,0c-2.4-1-3.2-2.8-3.2-5.3c0.1-7.4,0-14.9,0-22.3c0-0.5,0-0.9,0-1.4c-3.3,0-6.4,0-9.5,0
	c-5.5-0.1-10.3-3.8-11.8-9.1C34,101.6,33.9,101.1,33.7,100.6z M144.9,102.9c3.1,0,6,0,8.9,0s4.6-1.7,4.6-4.6c0-15,0-30,0-44.9
	c0-2.8-1.7-4.5-4.5-4.5c-35.7,0-71.3,0-107,0c-3.2,0-4.8,1.6-4.8,4.8c0,7.3,0,14.5,0,21.8c0,7.7,0,15.3,0,23c0,2.3,1.4,4.3,3.6,4.4
	c3.3,0.2,6.5,0,9.9,0c0-0.7,0-1.4,0-2c0-7.4,0-14.8,0-22.2c0-3.3,1.6-4.8,4.9-4.8c26.6,0,53.2,0,79.9,0c3,0,4.6,1.7,4.6,4.7
	c0,7.6,0,15.2,0,22.9C144.9,101.8,144.9,102.3,144.9,102.9z M136.5,82.2c-24.3,0-48.4,0-72.6,0c0,16.6,0,33.2,0,49.7
	c24.2,0,48.4,0,72.6,0C136.5,115.4,136.5,98.8,136.5,82.2z M63.9,40.5c24.3,0,48.4,0,72.6,0c0-8.3,0-16.5,0-24.8
	c-24.2,0-48.4,0-72.6,0C63.9,24,63.9,32.2,63.9,40.5z"/>
<path class="st0" d="M146,57.2c2.3,0.1,4.1,2,4.1,4.3c-0.1,2.2-2,4.1-4.2,4c-2.3-0.1-4.1-2-4.1-4.3S143.8,57.1,146,57.2z"/>
<path class="st0" d="M100.2,98.8c-7.9,0-15.8,0-23.8,0c-3,0-4.9-2.6-4-5.4c0.6-1.8,2.1-2.9,4.3-2.9c6.3,0,12.6,0,18.8,0
	c9.4,0,18.9,0,28.3,0c2.8,0,4.6,1.9,4.4,4.6c-0.2,2.3-1.9,3.7-4.5,3.7C116,98.8,108.1,98.8,100.2,98.8L100.2,98.8z"/>
<path class="st0" d="M100.2,115.4c-7.9,0-15.8,0-23.8,0c-1.7,0-3-0.7-3.8-2.3c-0.8-1.5-0.6-3,0.4-4.4c0.9-1.3,2.3-1.7,3.9-1.7
	c13.2,0,26.5,0,39.7,0c2.5,0,5,0,7.5,0c2,0,3.6,1.3,4,3.1c0.5,1.9-0.4,4-2.1,4.7c-0.7,0.3-1.6,0.4-2.4,0.4
	C115.9,115.5,108.1,115.4,100.2,115.4z"/>
</svg>
