<?xml version="1.0" encoding="utf-8"?>
<!-- Generator: Adobe Illustrator 22.1.0, SVG Export Plug-In . SVG Version: 6.00 Build 0)  -->
<svg version="1.1" id="Capa_1" xmlns="http://www.w3.org/2000/svg" xmlns:xlink="http://www.w3.org/1999/xlink" x="0px" y="0px"
	 viewBox="0 0 200 200" style="enable-background:new 0 0 200 200;" xml:space="preserve">
<style type="text/css">
	.st0{fill:#FFFFFF;}
</style>
<g>
	<path class="st0" d="M59.7,168.5c-0.9-0.3-1.5-0.7-2-1.2l0.5-1c0.5,0.5,1.1,0.8,1.8,1.1c0.8,0.3,1.5,0.4,2.3,0.4
		c1.1,0,2-0.2,2.5-0.6c0.6-0.4,0.8-1,0.8-1.6c0-0.5-0.2-0.9-0.5-1.2s-0.7-0.5-1.1-0.7s-1.1-0.3-1.9-0.5c-0.9-0.2-1.7-0.5-2.3-0.7
		s-1-0.6-1.4-1c-0.4-0.5-0.6-1.1-0.6-1.9c0-0.6,0.2-1.2,0.5-1.7s0.9-0.9,1.5-1.3c0.7-0.3,1.6-0.5,2.6-0.5c0.7,0,1.4,0.1,2.1,0.3
		c0.7,0.2,1.3,0.5,1.8,0.8l-0.5,1.1c-0.5-0.3-1.1-0.6-1.7-0.8s-1.2-0.3-1.8-0.3c-1.1,0-1.9,0.2-2.5,0.6c-0.6,0.4-0.8,1-0.8,1.6
		c0,0.5,0.2,0.9,0.5,1.2s0.7,0.5,1.2,0.7s1.1,0.3,1.9,0.5c0.9,0.2,1.7,0.5,2.2,0.7c0.6,0.2,1.1,0.6,1.4,1s0.6,1.1,0.6,1.8
		c0,0.6-0.2,1.2-0.5,1.7s-0.9,0.9-1.6,1.2s-1.6,0.5-2.6,0.5C61.4,169,60.5,168.8,59.7,168.5z"/>
	<path class="st0" d="M77.6,160.2c0.7,0.6,1,1.5,1,2.7v5.9h-1.2v-1.5c-0.3,0.5-0.7,0.9-1.3,1.2c-0.6,0.3-1.2,0.4-2,0.4
		c-1.1,0-1.9-0.3-2.5-0.8s-0.9-1.2-0.9-2s0.3-1.5,0.9-1.9c0.6-0.5,1.5-0.7,2.8-0.7h3v-0.6c0-0.8-0.2-1.4-0.7-1.9s-1.1-0.6-2-0.6
		c-0.6,0-1.2,0.1-1.7,0.3c-0.6,0.2-1,0.5-1.4,0.8l-0.6-1c0.5-0.4,1.1-0.7,1.7-0.9c0.7-0.2,1.4-0.3,2.1-0.3
		C76,159.3,77,159.6,77.6,160.2z M76.2,167.4c0.5-0.3,0.9-0.8,1.2-1.4v-1.5h-3c-1.6,0-2.4,0.6-2.4,1.7c0,0.6,0.2,1,0.6,1.3
		s1,0.5,1.8,0.5C75.1,167.9,75.7,167.8,76.2,167.4z"/>
	<path class="st0" d="M83.9,155.5h1.3v13.4h-1.3V155.5z"/>
	<path class="st0" d="M96.7,160.2c0.7,0.6,1,1.5,1,2.7v5.9h-1.2v-1.5c-0.3,0.5-0.7,0.9-1.3,1.2c-0.6,0.3-1.2,0.4-2,0.4
		c-1.1,0-1.9-0.3-2.5-0.8s-0.9-1.2-0.9-2s0.3-1.5,0.9-1.9c0.6-0.5,1.5-0.7,2.8-0.7h3v-0.6c0-0.8-0.2-1.4-0.7-1.9s-1.1-0.6-2-0.6
		c-0.6,0-1.2,0.1-1.7,0.3c-0.6,0.2-1,0.5-1.4,0.8l-0.6-1c0.5-0.4,1.1-0.7,1.7-0.9c0.7-0.2,1.4-0.3,2.1-0.3
		C95.1,159.3,96,159.6,96.7,160.2z M95.3,167.4c0.5-0.3,0.9-0.8,1.2-1.4v-1.5h-3c-1.6,0-2.4,0.6-2.4,1.7c0,0.6,0.2,1,0.6,1.3
		s1,0.5,1.8,0.5C94.1,167.9,94.7,167.8,95.3,167.4z"/>
	<path class="st0" d="M103.3,168.6c-0.7-0.2-1.3-0.5-1.6-0.8l0.6-1c0.4,0.3,0.9,0.6,1.5,0.8s1.2,0.3,1.9,0.3c0.9,0,1.5-0.1,1.9-0.4
		c0.4-0.3,0.6-0.7,0.6-1.1c0-0.3-0.1-0.6-0.3-0.8c-0.2-0.2-0.5-0.3-0.9-0.5c-0.3-0.1-0.8-0.2-1.4-0.3c-0.8-0.1-1.4-0.3-1.9-0.4
		c-0.5-0.1-0.9-0.4-1.2-0.8c-0.3-0.4-0.5-0.9-0.5-1.5c0-0.8,0.3-1.4,1-1.9s1.6-0.8,2.8-0.8c0.6,0,1.2,0.1,1.8,0.2
		c0.6,0.2,1.1,0.4,1.5,0.6l-0.6,1c-0.8-0.5-1.7-0.8-2.8-0.8c-0.8,0-1.4,0.1-1.8,0.4s-0.6,0.7-0.6,1.1c0,0.4,0.1,0.6,0.4,0.9
		s0.5,0.4,0.9,0.5c0.3,0.1,0.8,0.2,1.4,0.3c0.8,0.1,1.4,0.3,1.8,0.4c0.5,0.1,0.8,0.4,1.2,0.7c0.3,0.3,0.5,0.8,0.5,1.4
		c0,0.8-0.3,1.5-1,2s-1.6,0.7-2.9,0.7C104.7,168.9,104,168.8,103.3,168.6z"/>
	<path class="st0" d="M128.7,155.5v13.4h-1.2V167c-0.4,0.6-0.9,1.1-1.5,1.5c-0.6,0.3-1.3,0.5-2.1,0.5c-0.9,0-1.7-0.2-2.4-0.6
		c-0.7-0.4-1.3-1-1.7-1.7c-0.4-0.7-0.6-1.6-0.6-2.5s0.2-1.8,0.6-2.5s1-1.3,1.7-1.7s1.5-0.6,2.4-0.6c0.8,0,1.5,0.2,2.1,0.5
		s1.1,0.8,1.5,1.4v-5.7L128.7,155.5L128.7,155.5z M125.7,167.4c0.5-0.3,1-0.7,1.3-1.3s0.5-1.2,0.5-1.9s-0.2-1.4-0.5-1.9
		c-0.3-0.6-0.7-1-1.3-1.3c-0.5-0.3-1.1-0.5-1.8-0.5c-0.7,0-1.3,0.2-1.8,0.5s-1,0.7-1.3,1.3s-0.5,1.2-0.5,1.9s0.2,1.4,0.5,1.9
		c0.3,0.6,0.7,1,1.3,1.3c0.5,0.3,1.1,0.5,1.8,0.5C124.6,167.8,125.2,167.7,125.7,167.4z"/>
	<path class="st0" d="M142.3,164.5h-7.9c0.1,1,0.5,1.8,1.1,2.4c0.7,0.6,1.5,0.9,2.6,0.9c0.6,0,1.1-0.1,1.6-0.3s0.9-0.5,1.3-0.9
		l0.7,0.8c-0.4,0.5-0.9,0.9-1.6,1.2s-1.3,0.4-2.1,0.4c-1,0-1.8-0.2-2.6-0.6s-1.3-1-1.8-1.7c-0.4-0.7-0.6-1.6-0.6-2.5
		s0.2-1.8,0.6-2.5c0.4-0.7,1-1.3,1.7-1.7s1.5-0.6,2.4-0.6s1.7,0.2,2.4,0.6c0.7,0.4,1.2,1,1.6,1.7c0.4,0.7,0.6,1.6,0.6,2.5V164.5z
		 M135.5,161.3c-0.6,0.6-1,1.3-1.1,2.3h6.7c-0.1-0.9-0.4-1.7-1.1-2.3c-0.6-0.6-1.4-0.9-2.3-0.9C136.8,160.4,136.1,160.7,135.5,161.3
		z"/>
	<path class="st0" d="M66.9,190.1c-0.6-0.3-1.1-0.8-1.5-1.3l0.8-0.9c0.7,1,1.6,1.5,2.7,1.5c1.6,0,2.3-0.9,2.3-2.8V179h-4.6v-1.2h5.9
		v8.7c0,1.3-0.3,2.3-0.9,3s-1.5,1-2.7,1C68.2,190.6,67.5,190.4,66.9,190.1z"/>
	<path class="st0" d="M86.6,181v9.5h-1.2v-1.7c-0.3,0.6-0.8,1-1.4,1.3s-1.3,0.5-2,0.5c-1.2,0-2.2-0.3-2.9-1c-0.7-0.7-1.1-1.7-1.1-3
		V181h1.3v5.4c0,1,0.2,1.8,0.7,2.3s1.2,0.8,2.1,0.8c1,0,1.8-0.3,2.4-0.9c0.6-0.6,0.9-1.4,0.9-2.5v-5h1.2V181z"/>
	<path class="st0" d="M99.6,182c0.7,0.7,1.1,1.7,1.1,3v5.5h-1.3v-5.4c0-1-0.2-1.7-0.7-2.3c-0.5-0.5-1.2-0.8-2.1-0.8
		c-1,0-1.8,0.3-2.4,0.9c-0.6,0.6-0.9,1.4-0.9,2.5v5H92V181h1.2v1.7c0.3-0.6,0.8-1,1.4-1.3s1.3-0.5,2.2-0.5
		C98,180.9,98.9,181.3,99.6,182z"/>
	<path class="st0" d="M111,189.9c-0.2,0.2-0.5,0.4-0.9,0.5s-0.7,0.2-1.1,0.2c-0.9,0-1.6-0.2-2.1-0.7s-0.7-1.2-0.7-2v-5.7h-1.7V181
		h1.7v-2.1h1.3v2.1h2.9v1.1h-2.9v5.7c0,0.6,0.1,1,0.4,1.3s0.7,0.4,1.2,0.4c0.3,0,0.5,0,0.8-0.1c0.2-0.1,0.5-0.2,0.6-0.4L111,189.9z"
		/>
	<path class="st0" d="M121.2,181.8c0.7,0.6,1,1.5,1,2.7v5.9H121V189c-0.3,0.5-0.7,0.9-1.3,1.2c-0.6,0.3-1.2,0.4-2,0.4
		c-1.1,0-1.9-0.3-2.5-0.8s-0.9-1.2-0.9-2s0.3-1.5,0.9-1.9c0.6-0.5,1.5-0.7,2.8-0.7h3v-0.6c0-0.8-0.2-1.4-0.7-1.9s-1.1-0.6-2-0.6
		c-0.6,0-1.2,0.1-1.7,0.3c-0.6,0.2-1,0.5-1.4,0.8l-0.6-1c0.5-0.4,1.1-0.7,1.7-0.9c0.7-0.2,1.4-0.3,2.1-0.3
		C119.6,180.9,120.6,181.2,121.2,181.8z M119.8,189c0.5-0.3,0.9-0.8,1.2-1.4v-1.5h-3c-1.6,0-2.4,0.6-2.4,1.7c0,0.6,0.2,1,0.6,1.3
		s1,0.5,1.8,0.5C118.7,189.5,119.3,189.4,119.8,189z"/>
	<path class="st0" d="M127.8,190.2c-0.7-0.2-1.3-0.5-1.6-0.8l0.6-1c0.4,0.3,0.9,0.6,1.5,0.8c0.6,0.2,1.2,0.3,1.9,0.3
		c0.9,0,1.5-0.1,1.9-0.4c0.4-0.3,0.6-0.7,0.6-1.1c0-0.3-0.1-0.6-0.3-0.8s-0.5-0.3-0.9-0.5c-0.3-0.1-0.8-0.2-1.4-0.3
		c-0.8-0.1-1.4-0.3-1.9-0.4c-0.5-0.1-0.9-0.4-1.2-0.8c-0.3-0.4-0.5-0.9-0.5-1.5c0-0.8,0.3-1.4,1-1.9s1.6-0.8,2.8-0.8
		c0.6,0,1.2,0.1,1.8,0.2c0.6,0.2,1.1,0.4,1.5,0.6l-0.6,1c-0.8-0.5-1.7-0.8-2.8-0.8c-0.8,0-1.4,0.1-1.8,0.4s-0.6,0.7-0.6,1.1
		c0,0.4,0.1,0.6,0.4,0.9s0.5,0.4,0.9,0.5c0.3,0.1,0.8,0.2,1.4,0.3c0.8,0.1,1.4,0.3,1.8,0.4c0.5,0.1,0.8,0.4,1.2,0.7
		c0.3,0.3,0.5,0.8,0.5,1.4c0,0.8-0.3,1.5-1,2s-1.6,0.7-2.9,0.7C129.3,190.5,128.5,190.4,127.8,190.2z"/>
</g>
<g>
	<path class="st0" d="M99.8,86.2c-4.4,0-8.9,0-13.3,0c-1.3,0-1.8-0.4-1.6-1.7c0.2-1.3-0.2-1.9-1.6-2.1c-3.1-0.6-4.9-3-4.8-6.4
		c0.1-6,0.3-12,0.5-17.9c0.1-2.9,0.2-5.7,0.6-8.6c0.9-6.5,4.9-10.3,11.3-11.3c1.6-0.2,2.8,0,4,1.1c1.4,1.4,3.1,2.5,4.6,3.9
		c0.8,0.7,1.4,0.7,2.1,0c1.7-1.5,3.5-3,5.3-4.4c0.4-0.3,0.9-0.7,1.4-0.7c4.6,0.4,9,1.6,11.3,6c1.2,2.3,2.1,4.9,2.1,7.5
		c0.3,8.3,0.2,16.6,0.1,25c0,3.2-2,5.4-5.5,6c-1.3,0.2-1.8,0.8-1.6,2c0.2,1.4-0.5,1.8-1.8,1.8C108.4,86.2,104.1,86.2,99.8,86.2z"/>
	<path class="st0" d="M75.6,115c-0.6-1.4-1-2.7-1.5-4c-0.7-1.8-0.2-3.1,1.2-3.6c1.4-0.5,2.5,0.2,3.2,1.9c0.5,1.3,1,2.5,1.5,3.8
		c0.5,1.5,1.2,2.7,2.7,3.6c2,1.2,2.2,3.3,1.9,5.5c-0.2,2.1-1.4,3.5-3.4,4.2c-1,0.3-2.1,0.5-3.2,0.5c-6.7,0-13.3,0-20,0
		c-3.1,0-5.4-1.3-6.8-4c-1.7-3.3-3.3-6.7-5-10.1c-0.8-1.6-1.7-3.2-2.3-4.9c-0.5-1.1-1.1-1.3-2.1-0.9c-0.6,0.2-1.3,0.5-2.1,0.8
		c1.2,2.7,2.3,5.3,3.6,7.8c0.8,1.6,0.7,3-0.2,4.5c-1.1,1.8-2,3.7-3,5.5c-0.3,0.5-1,1-1.6,1c-4.6,0.1-9.1,0-13.7,0.1
		c-0.9,0-1.4-0.2-1.2-1.3c1.2-8.4,2.2-16.9,3.5-25.3c0.3-1.9,1.1-3.8,1.9-5.6c4.5-9.5,18.7-10.8,24.7-1.4c1.9,3.1,3.2,6.5,4.7,9.9
		c1.4,3.1,2.6,6.3,3.9,9.4c0.5,1.2,1.1,1.9,2.5,2c3.1,0.2,6.2,0.6,9.3,0.9C74.4,115,74.9,115,75.6,115z"/>
	<path class="st0" d="M160.2,107.8c-0.3-0.2-0.4-0.3-0.5-0.4c-2.8-1.3-2.9-1.1-4.2,1.6c-2.1,4.5-4.3,9-6.5,13.5
		c-1.5,2.9-3.9,4.3-7.2,4.3c-6.4-0.1-12.8,0-19.3,0c-0.6,0-1.3,0-1.9-0.1c-4.4-0.5-6.6-4.8-4.5-8.7c0.8-1.5,2.1-2.2,3.8-2.4
		c5.2-0.6,10.3-1.1,15.5-1.6c1.2-0.1,1.8-0.5,2.2-1.6c2.2-5.3,4.5-10.7,6.8-16c1.7-3.9,4.1-7.1,8.1-8.8c8-3.5,16.9,0.5,19.6,8.9
		c1.1,3.5,1.5,7.2,2.1,10.9c0.8,5.7,1.5,11.5,2.3,17.2c0.2,1.4-0.1,1.8-1.5,1.8c-4.3-0.1-8.7,0-13,0c-1,0-1.6-0.3-2.1-1.2
		c-1.1-2.2-2.4-4.3-3.5-6.6c-0.3-0.6-0.3-1.5,0-2.1c0.9-2.3,2-4.5,3-6.8C159.7,109.1,159.9,108.5,160.2,107.8z"/>
	<path class="st0" d="M46.5,123.8c1.3,1.7,2.6,3.2,3.8,4.8c0.2,0.3,0.1,0.9-0.1,1.3c-0.9,1.8-1.8,3.5-2.8,5.5c35.1,0,69.9,0,105,0
		c-1.1-2.2-2.2-4.3-3.1-6.1c1.4-1.9,2.6-3.7,4-5.6c0.7,1.4,1.5,2.7,2.2,4.1c1.5,2.9,3.1,5.7,4.6,8.6c1.7,3.1,0.3,5.5-3.2,5.5
		c-38,0-76.1,0-114.1,0c-3.4,0-4.7-2.3-3.2-5.3c2.1-3.9,4.1-7.8,6.2-11.7C46.1,124.5,46.4,124.1,46.5,123.8z"/>
	<path class="st0" d="M137.8,70.4c0-7.6,6.1-13.8,13.7-13.8c7.7,0,13.9,6.1,13.9,13.7c0,7.5-6.2,13.8-13.7,13.8
		C144,84.2,137.8,78.1,137.8,70.4z"/>
	<path class="st0" d="M54,85.7c-7.6,0-13.7-6.1-13.8-13.7c0-7.6,6.2-13.8,13.8-13.8s13.8,6.3,13.8,13.9C67.7,79.6,61.6,85.7,54,85.7
		z"/>
	<path class="st0" d="M136.1,103.4c-0.9-1.6-1.8-3.1-2.5-4.7c-0.6-1.4-1.4-1.8-2.9-1.8c-13.4,0.1-26.8,0-40.1,0
		c-7.2,0-14.4,0-21.6,0c-1.1,0-1.8,0.3-2.2,1.4c-0.8,1.8-1.9,3.6-3,5.8c-0.8-1.9-1.6-3.5-2.2-5c-0.4-0.9-1-2-0.8-2.7
		c0.7-1.7,1.7-3.4,2.8-4.9c0.3-0.5,1.3-0.7,2-0.7c1.1-0.1,2.2-0.1,3.4-0.1c20.8,0,41.6,0,62.3,0c6.1,0,5.2-0.1,8,5.3
		c0.2,0.3,0.2,0.9,0.1,1.2c-0.9,2.1-1.8,4.2-2.7,6.3C136.4,103.4,136.3,103.4,136.1,103.4z"/>
	<path class="st0" d="M112.4,23.1c0,6.7-5.4,12.1-12.1,12c-6.7,0-12-5.4-12-12.1s5.4-12,12.1-12C107.1,11.1,112.4,16.3,112.4,23.1z"
		/>
</g>
</svg>
