<?xml version="1.0" encoding="utf-8"?>
<!-- Generator: Adobe Illustrator 22.1.0, SVG Export Plug-In . SVG Version: 6.00 Build 0)  -->
<svg version="1.1" id="Capa_1" xmlns="http://www.w3.org/2000/svg" xmlns:xlink="http://www.w3.org/1999/xlink" x="0px" y="0px"
	 viewBox="0 0 200 200" style="enable-background:new 0 0 200 200;" xml:space="preserve">
<style type="text/css">
	.st0{fill:#FFFFFF;}
</style>
<g>
	<path class="st0" d="M34.8,157.4h-4.4v-1.2h10.2v1.2h-4.4v11.4h-1.3L34.8,157.4L34.8,157.4z"/>
	<path class="st0" d="M46.6,159.8c0.6-0.3,1.3-0.5,2.2-0.5v1.2h-0.3c-1,0-1.8,0.3-2.3,0.9c-0.6,0.6-0.8,1.5-0.8,2.6v4.8H44v-9.5h1.2
		v1.9C45.5,160.6,46,160.1,46.6,159.8z"/>
	<path class="st0" d="M59,160.2c0.7,0.6,1,1.5,1,2.7v5.9h-1.2v-1.5c-0.3,0.5-0.7,0.9-1.3,1.2s-1.2,0.4-2,0.4c-1.1,0-1.9-0.3-2.5-0.8
		s-0.9-1.2-0.9-2s0.3-1.5,0.9-1.9c0.6-0.5,1.5-0.7,2.8-0.7h3v-0.6c0-0.8-0.2-1.4-0.7-1.9c-0.5-0.4-1.1-0.6-2-0.6
		c-0.6,0-1.2,0.1-1.7,0.3c-0.6,0.2-1,0.5-1.4,0.8l-0.6-1c0.5-0.4,1.1-0.7,1.7-0.9c0.7-0.2,1.4-0.3,2.1-0.3
		C57.4,159.3,58.3,159.6,59,160.2z M57.6,167.4c0.5-0.3,0.9-0.8,1.2-1.4v-1.5h-3c-1.6,0-2.4,0.6-2.4,1.7c0,0.6,0.2,1,0.6,1.3
		c0.4,0.3,1,0.5,1.8,0.5C56.4,167.9,57,167.8,57.6,167.4z"/>
	<path class="st0" d="M72.9,160.4c0.7,0.7,1.1,1.7,1.1,3v5.5h-1.3v-5.4c0-1-0.2-1.7-0.7-2.3c-0.5-0.5-1.2-0.8-2.1-0.8
		c-1,0-1.8,0.3-2.4,0.9c-0.6,0.6-0.9,1.4-0.9,2.5v5h-1.3v-9.5h1.2v1.7c0.3-0.6,0.8-1,1.4-1.3s1.3-0.5,2.2-0.5
		C71.3,159.3,72.2,159.7,72.9,160.4z"/>
	<path class="st0" d="M79.6,168.6c-0.7-0.2-1.3-0.5-1.6-0.8l0.6-1c0.4,0.3,0.9,0.6,1.5,0.8s1.2,0.3,1.9,0.3c0.9,0,1.5-0.1,1.9-0.4
		c0.4-0.3,0.6-0.7,0.6-1.1c0-0.3-0.1-0.6-0.3-0.8c-0.2-0.2-0.5-0.3-0.9-0.5c-0.3-0.1-0.8-0.2-1.4-0.3c-0.8-0.1-1.4-0.3-1.9-0.4
		c-0.5-0.1-0.9-0.4-1.2-0.8c-0.3-0.4-0.5-0.9-0.5-1.5c0-0.8,0.3-1.4,1-1.9s1.6-0.8,2.8-0.8c0.6,0,1.2,0.1,1.8,0.2
		c0.6,0.2,1.1,0.4,1.5,0.6l-0.6,1c-0.8-0.5-1.7-0.8-2.8-0.8c-0.8,0-1.4,0.1-1.8,0.4s-0.6,0.7-0.6,1.1c0,0.4,0.1,0.6,0.4,0.9
		c0.2,0.2,0.5,0.4,0.9,0.5c0.3,0.1,0.8,0.2,1.4,0.3c0.8,0.1,1.4,0.3,1.8,0.4c0.5,0.1,0.8,0.4,1.2,0.7c0.3,0.3,0.5,0.8,0.5,1.4
		c0,0.8-0.3,1.5-1,2s-1.6,0.7-2.9,0.7C81,168.9,80.3,168.8,79.6,168.6z"/>
	<path class="st0" d="M97.1,159.9c0.7,0.4,1.3,1,1.7,1.7c0.4,0.7,0.6,1.6,0.6,2.5s-0.2,1.8-0.6,2.5s-1,1.3-1.7,1.7s-1.5,0.6-2.4,0.6
		c-0.8,0-1.5-0.2-2.1-0.5s-1.1-0.8-1.5-1.4v5.3h-1.3v-13H91v1.9c0.4-0.6,0.9-1.1,1.5-1.4c0.6-0.3,1.3-0.5,2.1-0.5
		C95.6,159.3,96.4,159.5,97.1,159.9z M96.4,167.4c0.5-0.3,1-0.7,1.3-1.3s0.5-1.2,0.5-1.9s-0.2-1.4-0.5-1.9c-0.3-0.6-0.7-1-1.3-1.3
		c-0.5-0.3-1.1-0.5-1.8-0.5c-0.7,0-1.3,0.2-1.8,0.5s-1,0.7-1.3,1.3s-0.5,1.2-0.5,1.9s0.2,1.4,0.5,1.9c0.3,0.6,0.7,1,1.3,1.3
		c0.5,0.3,1.1,0.5,1.8,0.5C95.3,167.8,95.9,167.7,96.4,167.4z"/>
	<path class="st0" d="M105.3,168.3c-0.7-0.4-1.3-1-1.7-1.7c-0.4-0.7-0.6-1.6-0.6-2.5s0.2-1.8,0.6-2.5s1-1.3,1.7-1.7s1.6-0.6,2.5-0.6
		s1.7,0.2,2.5,0.6c0.7,0.4,1.3,1,1.7,1.7c0.4,0.7,0.6,1.6,0.6,2.5s-0.2,1.8-0.6,2.5s-1,1.3-1.7,1.7s-1.6,0.6-2.5,0.6
		S106,168.7,105.3,168.3z M109.5,167.4c0.5-0.3,1-0.7,1.3-1.3s0.5-1.2,0.5-1.9s-0.2-1.4-0.5-1.9c-0.3-0.6-0.7-1-1.3-1.3
		c-0.5-0.3-1.1-0.5-1.8-0.5s-1.3,0.2-1.8,0.5s-1,0.7-1.3,1.3s-0.5,1.2-0.5,1.9s0.2,1.4,0.5,1.9c0.3,0.6,0.7,1,1.3,1.3
		c0.5,0.3,1.1,0.5,1.8,0.5S109,167.7,109.5,167.4z"/>
	<path class="st0" d="M119.5,159.8c0.6-0.3,1.3-0.5,2.2-0.5v1.2h-0.3c-1,0-1.8,0.3-2.3,0.9c-0.6,0.6-0.8,1.5-0.8,2.6v4.8H117v-9.5
		h1.2v1.9C118.5,160.6,118.9,160.1,119.5,159.8z"/>
	<path class="st0" d="M131.2,168.3c-0.2,0.2-0.5,0.4-0.9,0.5s-0.7,0.2-1.1,0.2c-0.9,0-1.6-0.2-2.1-0.7s-0.7-1.2-0.7-2v-5.7h-1.7
		v-1.1h1.7v-2.1h1.3v2.1h2.9v1.1h-2.9v5.7c0,0.6,0.1,1,0.4,1.3s0.7,0.4,1.2,0.4c0.3,0,0.5,0,0.8-0.1c0.2-0.1,0.5-0.2,0.6-0.4
		L131.2,168.3z"/>
	<path class="st0" d="M143.2,164.5h-7.9c0.1,1,0.5,1.8,1.1,2.4c0.7,0.6,1.5,0.9,2.6,0.9c0.6,0,1.1-0.1,1.6-0.3s0.9-0.5,1.3-0.9
		l0.7,0.8c-0.4,0.5-0.9,0.9-1.6,1.2s-1.3,0.4-2.1,0.4c-1,0-1.8-0.2-2.6-0.6s-1.3-1-1.8-1.7c-0.4-0.7-0.6-1.6-0.6-2.5
		s0.2-1.8,0.6-2.5c0.4-0.7,1-1.3,1.7-1.7s1.5-0.6,2.4-0.6s1.7,0.2,2.4,0.6c0.7,0.4,1.2,1,1.6,1.7c0.4,0.7,0.6,1.6,0.6,2.5V164.5z
		 M136.4,161.3c-0.6,0.6-1,1.3-1.1,2.3h6.7c-0.1-0.9-0.4-1.7-1.1-2.3c-0.6-0.6-1.4-0.9-2.3-0.9C137.8,160.4,137,160.7,136.4,161.3z"
		/>
	<path class="st0" d="M160.3,160.2c0.7,0.6,1,1.5,1,2.7v5.9h-1.2v-1.5c-0.3,0.5-0.7,0.9-1.3,1.2s-1.2,0.4-2,0.4
		c-1.1,0-1.9-0.3-2.5-0.8s-0.9-1.2-0.9-2s0.3-1.5,0.9-1.9c0.6-0.5,1.5-0.7,2.8-0.7h3v-0.6c0-0.8-0.2-1.4-0.7-1.9s-1.1-0.6-2-0.6
		c-0.6,0-1.2,0.1-1.7,0.3c-0.6,0.2-1,0.5-1.4,0.8l-0.6-1c0.5-0.4,1.1-0.7,1.7-0.9c0.7-0.2,1.4-0.3,2.1-0.3
		C158.7,159.3,159.7,159.6,160.3,160.2z M158.9,167.4c0.5-0.3,0.9-0.8,1.2-1.4v-1.5h-3c-1.6,0-2.4,0.6-2.4,1.7c0,0.6,0.2,1,0.6,1.3
		c0.4,0.3,1,0.5,1.8,0.5C157.8,167.9,158.4,167.8,158.9,167.4z"/>
	<path class="st0" d="M166.6,155.5h1.3v13.4h-1.3V155.5z"/>
	<path class="st0" d="M49.5,181.8c0.7,0.6,1,1.5,1,2.7v5.9h-1.2V189c-0.3,0.5-0.7,0.9-1.3,1.2s-1.2,0.4-2,0.4
		c-1.1,0-1.9-0.3-2.5-0.8s-0.9-1.2-0.9-2s0.3-1.5,0.9-1.9c0.6-0.5,1.5-0.7,2.8-0.7h3v-0.6c0-0.8-0.2-1.4-0.7-1.9
		c-0.5-0.4-1.1-0.6-2-0.6c-0.6,0-1.2,0.1-1.7,0.3c-0.6,0.2-1,0.5-1.4,0.8l-0.6-1c0.5-0.4,1.1-0.7,1.7-0.9c0.7-0.2,1.4-0.3,2.1-0.3
		C47.9,180.9,48.8,181.2,49.5,181.8z M48,189c0.5-0.3,0.9-0.8,1.2-1.4v-1.5h-3c-1.6,0-2.4,0.6-2.4,1.7c0,0.6,0.2,1,0.6,1.3
		c0.4,0.3,1,0.5,1.8,0.5C46.9,189.5,47.5,189.4,48,189z"/>
	<path class="st0" d="M64,186.1h-7.9c0.1,1,0.5,1.8,1.1,2.4c0.7,0.6,1.5,0.9,2.6,0.9c0.6,0,1.1-0.1,1.6-0.3s0.9-0.5,1.3-0.9l0.7,0.8
		c-0.4,0.5-0.9,0.9-1.6,1.2c-0.6,0.3-1.3,0.4-2.1,0.4c-1,0-1.8-0.2-2.6-0.6s-1.3-1-1.8-1.7c-0.4-0.7-0.6-1.6-0.6-2.5
		s0.2-1.8,0.6-2.5c0.4-0.7,1-1.3,1.7-1.7s1.5-0.6,2.4-0.6s1.7,0.2,2.4,0.6c0.7,0.4,1.2,1,1.6,1.7c0.4,0.7,0.6,1.6,0.6,2.5V186.1z
		 M57.2,182.9c-0.6,0.6-1,1.3-1.1,2.3h6.7c-0.1-0.9-0.4-1.7-1.1-2.3c-0.6-0.6-1.4-0.9-2.3-0.9C58.5,182,57.8,182.3,57.2,182.9z"/>
	<path class="st0" d="M71,181.4c0.6-0.3,1.3-0.5,2.2-0.5v1.2h-0.3c-1,0-1.8,0.3-2.3,0.9c-0.6,0.6-0.8,1.5-0.8,2.6v4.8h-1.3V181h1.2
		v1.9C70,182.2,70.4,181.7,71,181.4z"/>
	<path class="st0" d="M78.6,189.9c-0.7-0.4-1.3-1-1.7-1.7c-0.4-0.7-0.6-1.6-0.6-2.5s0.2-1.8,0.6-2.5s1-1.3,1.7-1.7s1.6-0.6,2.5-0.6
		s1.7,0.2,2.5,0.6c0.7,0.4,1.3,1,1.7,1.7c0.4,0.7,0.6,1.6,0.6,2.5s-0.2,1.8-0.6,2.5s-1,1.3-1.7,1.7s-1.6,0.6-2.5,0.6
		S79.4,190.3,78.6,189.9z M82.9,189c0.5-0.3,1-0.7,1.3-1.3s0.5-1.2,0.5-1.9s-0.2-1.4-0.5-1.9c-0.3-0.6-0.7-1-1.3-1.3
		c-0.5-0.3-1.1-0.5-1.8-0.5s-1.3,0.2-1.8,0.5s-1,0.7-1.3,1.3s-0.5,1.2-0.5,1.9s0.2,1.4,0.5,1.9c0.3,0.6,0.7,1,1.3,1.3
		c0.5,0.3,1.1,0.5,1.8,0.5S82.4,189.3,82.9,189z"/>
	<path class="st0" d="M97.6,181.5c0.7,0.4,1.3,1,1.7,1.7c0.4,0.7,0.6,1.6,0.6,2.5s-0.2,1.8-0.6,2.5s-1,1.3-1.7,1.7s-1.5,0.6-2.4,0.6
		c-0.8,0-1.5-0.2-2.1-0.5s-1.1-0.8-1.5-1.4v5.3h-1.3v-13h1.2v1.9c0.4-0.6,0.9-1.1,1.5-1.4s1.3-0.5,2.1-0.5
		C96.1,180.9,96.9,181.1,97.6,181.5z M96.9,189c0.5-0.3,1-0.7,1.3-1.3s0.5-1.2,0.5-1.9s-0.2-1.4-0.5-1.9c-0.3-0.6-0.7-1-1.3-1.3
		c-0.5-0.3-1.1-0.5-1.8-0.5c-0.7,0-1.3,0.2-1.8,0.5s-1,0.7-1.3,1.3s-0.5,1.2-0.5,1.9s0.2,1.4,0.5,1.9c0.3,0.6,0.7,1,1.3,1.3
		s1.1,0.5,1.8,0.5C95.8,189.4,96.4,189.3,96.9,189z"/>
	<path class="st0" d="M112.9,181v9.5h-1.2v-1.7c-0.3,0.6-0.8,1-1.4,1.3s-1.3,0.5-2,0.5c-1.2,0-2.2-0.3-2.9-1c-0.7-0.7-1.1-1.7-1.1-3
		V181h1.3v5.4c0,1,0.2,1.8,0.7,2.3s1.2,0.8,2.1,0.8c1,0,1.8-0.3,2.4-0.9c0.6-0.6,0.9-1.4,0.9-2.5v-5h1.2V181z"/>
	<path class="st0" d="M126.5,186.1h-7.9c0.1,1,0.4,1.8,1.1,2.4c0.7,0.6,1.5,0.9,2.6,0.9c0.6,0,1.1-0.1,1.6-0.3s0.9-0.5,1.3-0.9
		l0.7,0.8c-0.4,0.5-0.9,0.9-1.6,1.2s-1.3,0.4-2.1,0.4c-1,0-1.8-0.2-2.6-0.6s-1.3-1-1.8-1.7c-0.4-0.7-0.6-1.6-0.6-2.5
		s0.2-1.8,0.6-2.5s1-1.3,1.7-1.7s1.5-0.6,2.4-0.6s1.7,0.2,2.4,0.6c0.7,0.4,1.2,1,1.6,1.7s0.6,1.6,0.6,2.5L126.5,186.1z M119.6,182.9
		c-0.6,0.6-1,1.3-1.1,2.3h6.7c-0.1-0.9-0.4-1.7-1.1-2.3c-0.6-0.6-1.4-0.9-2.3-0.9C121,182,120.2,182.3,119.6,182.9z"/>
	<path class="st0" d="M133.5,181.4c0.6-0.3,1.3-0.5,2.2-0.5v1.2h-0.3c-1,0-1.8,0.3-2.3,0.9c-0.6,0.6-0.8,1.5-0.8,2.6v4.8H131V181
		h1.2v1.9C132.4,182.2,132.9,181.7,133.5,181.4z"/>
	<path class="st0" d="M145.2,189.9c-0.2,0.2-0.5,0.4-0.9,0.5s-0.7,0.2-1.1,0.2c-0.9,0-1.6-0.2-2.1-0.7s-0.7-1.2-0.7-2v-5.7h-1.7V181
		h1.7v-2.1h1.3v2.1h2.9v1.1h-2.9v5.7c0,0.6,0.1,1,0.4,1.3c0.3,0.3,0.7,0.4,1.2,0.4c0.3,0,0.5,0,0.8-0.1c0.2-0.1,0.5-0.2,0.6-0.4
		L145.2,189.9z"/>
	<path class="st0" d="M150.4,189.9c-0.7-0.4-1.3-1-1.7-1.7s-0.6-1.6-0.6-2.5s0.2-1.8,0.6-2.5c0.4-0.7,1-1.3,1.7-1.7s1.6-0.6,2.5-0.6
		s1.7,0.2,2.5,0.6c0.7,0.4,1.3,1,1.7,1.7s0.6,1.6,0.6,2.5s-0.2,1.8-0.6,2.5c-0.4,0.7-1,1.3-1.7,1.7s-1.6,0.6-2.5,0.6
		S151.1,190.3,150.4,189.9z M154.6,189c0.5-0.3,1-0.7,1.3-1.3s0.5-1.2,0.5-1.9s-0.2-1.4-0.5-1.9c-0.3-0.6-0.7-1-1.3-1.3
		c-0.5-0.3-1.1-0.5-1.8-0.5s-1.3,0.2-1.8,0.5s-1,0.7-1.3,1.3s-0.5,1.2-0.5,1.9s0.2,1.4,0.5,1.9c0.3,0.6,0.7,1,1.3,1.3
		s1.1,0.5,1.8,0.5S154.1,189.3,154.6,189z"/>
</g>
<g>
	<g>
		<path class="st0" d="M161.3,75.6c-1.8-1.5-3-3.3-3.8-5.5c-2.7-7.2-6.4-13.9-11.1-20c-2-2.6-4.5-4.4-7.7-5.1
			c-2.1-0.5-4.2-0.7-6.3-0.8c-14.2-1.1-28.3-0.8-42.5,0c-6,0.3-11.1,2.8-14.2,8c-3.3,5.5-6,11.3-9,16.9c-1.3,2.4-2.6,5.2-4.7,6.9
			c-4.2,3.6-6.5,8-7.7,13.2c-0.4,1.9-0.7,3.9-1.1,5.8c0,1.6,0,3.3,0,4.9c0.1,0.3,0.2,0.6,0.3,0.9c0.7,3.9,1.3,7.9,2.2,11.8
			c0.6,2.5,1.3,3.8,2.6,4.5l-0.1,5.7c0,0.3-0.1,0.6-0.1,1s0,0.8,0,1.3v0.2l0,0c0,0.9,0,1.8,0,2.7c0.2,3.3,1.7,5.1,4.9,5.3
			c2.9,0.2,5.8,0,8.7,0v0.1c2.7,0,5.4,0,8.1,0c0.6,0,1.1-0.2,1.7-0.3c1.4-0.3,2.5-1.2,3.3-2.3l0,0c1.6-1.4,1.8-6.7,1.8-10
			c1.5,0.7,3.1,1.2,4.7,1.2c13.9,0.1,27.7,0.1,41.6,0c0.9,0,1.9-0.3,2.8-0.6c0,3.3,0.3,8,1.8,9.4l0,0c0.8,1.1,1.9,2,3.3,2.3
			c0.6,0.1,1.1,0.3,1.7,0.3c2.7,0,5.4,0,8.1,0v-0.1c2.9,0,5.8,0.2,8.7,0c3.2-0.3,4.7-2.1,4.9-5.3c0-0.9,0-1.8,0-2.7l0,0v-0.2
			c0-0.4,0-0.8,0-1.3c0-0.3,0-0.7-0.1-1l-0.1-5.2c2.8-0.6,4-2.3,5.1-6c0.2-0.7,0.4-1.5,0.5-2.2c0.3-3.5,0.7-7,1-10.5
			C171,89.6,168.5,81.7,161.3,75.6z M72.5,68.5c2.6-4.8,5.3-9.5,8.1-14.2c1.8-3,4.5-4.5,7.9-4.7c7.8-0.4,15.6-0.8,22.8-1.2
			c7.9,0.4,15.1,0.8,22.3,1c4.5,0.2,8,1.8,10.3,5.8c2.5,4.5,5.1,8.9,7.5,13.4c1,1.9,0.4,2.7-1.8,2.4c-11.7-1.6-23.5-1.7-35.3-1.8
			c-13.4-0.1-26.7,0.2-40,1.8C71.9,71.3,71.3,70.6,72.5,68.5z M61.5,93.5c7.6-1.1,11.9,1.1,15.4,8c-5.5,0-10.8,0-16.1,0
			c-0.4,0-1.2-0.2-1.2-0.3c-0.3-2-0.7-4-0.7-6C59,93.7,60.4,93.6,61.5,93.5z M80.4,125.6c0,0.2,0,0.4,0,0.6s-0.1,0.4-0.1,0.6
			c-0.1,0.3-0.2,0.5-0.4,0.7c-0.1-0.1-0.1,0-0.1,0.1c-0.4,0.3-0.9,0.5-1.7,0.5c-3.5,0-6.9,0-10.4,0c-2.2,0-3.2,0-3.7-0.7l0.4,0.1
			c-1.2-1.5-1-6.2-0.6-9.6c3.8,0,7.6,0.1,11.4,0c2.1-0.1,4.1,0.2,6,0.8c-0.2,2.5-0.4,4.3-0.6,5.7C80.6,124.7,80.4,125.2,80.4,125.6z
			 M158,127.3c-0.5,0.7-1.5,0.7-3.7,0.7c-3.5,0-6.9,0-10.4,0c-0.8,0-1.3-0.2-1.7-0.5c0-0.1,0-0.2-0.1-0.1c-0.2-0.2-0.3-0.4-0.4-0.7
			c0-0.2-0.1-0.4-0.1-0.6s0-0.4,0-0.6c0-0.4-0.1-0.9-0.3-1.3c-0.2-1.2-0.3-2.7-0.5-4.8c1.5-0.6,3.1-1.2,4.7-1.3
			c4.2-0.4,8.5-0.3,12.7-0.2c0.4,3.4,0.7,8.1-0.6,9.6L158,127.3z M161.2,112.5c-4.1,0.1-8.2,0.1-12.2,0s-7.7,0.2-11.2,2.5
			c-3.7,2.3-7.9,2.2-12.1,2.2c-9.2-0.1-18.5-0.1-27.7,0c-4.8,0.1-9.4-0.2-13.6-2.9c-2.7-1.7-5.8-1.8-8.9-1.7c-4.2,0.1-8.4,0-12.6,0
			c-1.8,0-2.9-1-3.4-2.7c-0.6-2.1,0.2-3.1,2.4-3.2c6.5,0,13.1,0,19.6,0c1,0,2.2-0.3,2.9-0.9c1.2-0.9,1.1-2.4,0.2-3.5
			c-2.9-3.5-5.7-7.2-8.8-10.5c-3.4-3.7-8.1-3.8-12.8-3.7c-0.9,0-1.8-0.3-2.6-0.5c0.3-0.9,0.4-1.9,0.8-2.7c3.9-7.3,10.8-8.8,18.2-9.3
			c10-0.6,19.9-1,30.4-1.6c10.6,0.5,21.7,0.9,32.8,1.5c3.2,0.2,6.5,0.7,9.7,1.2c4.3,0.7,7.1,3.6,9.3,7c0.7,1.1,1.2,2.5,1.8,3.8
			c-1.3,0.2-2.7,0.5-4,0.4c-5.9-0.4-10.6,1.7-14.1,6.6c-1.8,2.5-4,4.7-5.8,7.2c-0.6,0.8-1,2.2-0.8,3.2c0.3,1.4,1.7,1.7,3,1.7
			c6.5,0,12.9,0,19.4,0c1.4,0,3-0.3,3.1,1.8C164.4,111,163.3,112.5,161.2,112.5z M160.2,101.5c-4.4,0-8.9,0-13.9,0
			c2.2-2.5,4-4.7,6-6.8c0.6-0.6,1.5-1.1,2.3-1.1c2.8-0.1,5.6-0.1,8.4-0.1c1.4,0,2.1,1,2.1,2.3c0,0.2,0,0.4,0,0.6
			C165.2,101.3,165,101.5,160.2,101.5z"/>
		<path class="st0" d="M133.2,92.9c-0.9-0.3-1.8-0.4-2.8-0.4c-6.2,0-12.4,0-18.6,0c0,0,0,0,0,0.1c-6.2,0-12.4,0-18.6,0
			c-2.3,0-4.2,0.7-5.2,3c-1,2.1-0.2,3.9,1.2,5.5c2.2,2.6,4.3,5.2,6.5,7.9c1.2,1.5,2.8,2.3,4.7,2.2c6.2,0,12.3,0.1,18.5,0
			c3.1,0,6.4,0.2,8.8-2c3-2.9,5.8-6.2,8.3-9.7C137.5,97.1,135.9,93.8,133.2,92.9z M124.6,105c-0.4,0.5-1.3,0.7-2,0.7
			c-6.7,0.1-13.3,0.1-20,0.2c-2.1,0-3.7-0.7-5-2.4c-1.2-1.7-2.7-3.3-4.3-5.2c12.5,0,24.7,0,37.3,0
			C128.5,100.6,126.6,102.9,124.6,105z"/>
	</g>
	<path class="st0" d="M106.8,15.4c-1,2-2.9,3.1-4.6,4.2c-5.4,3.3-11.1,5.9-16.8,8.7c-0.6,0.3-0.9,0.6-1.2,1.2
		c-3.6,7.9-7.2,15.7-10.9,23.6c-0.7,1.5-1.6,2.8-2.7,4.1c-1.3,1.5-3.1,2.1-4.9,2.8c-1.3,0.5-2.6-0.5-2.6-2c0-1.3,0.3-2.7,0.5-4
		c1-5.5,2-10.9,3.1-16.4c0-0.2,0.1-0.4,0.1-0.8c-0.3,0.1-0.6,0.2-0.8,0.4c-5.4,2.4-10.9,4.7-16.7,6.1c-2.7,0.7-5.5,1.2-8.3,1
		c-1.8-0.1-3.5-0.5-4.7-1.9c-0.5-0.5-0.8-1.1-1.1-1.8c-1.7-3.8-3.3-7.6-5.1-11.3c-1.4-2.8,0.5-4.9,3.1-5.1c1.3-0.1,2.5,0.2,3.6,1.1
		c2,1.5,4.1,3,6.2,4.6c0.7,0.5,1.3,0.6,2.1,0.2c3.7-1.7,7.4-3.3,11.1-5c0.2-0.1,0.4-0.2,0.8-0.4c-0.3-0.2-0.5-0.3-0.7-0.5
		c-3.4-2.1-6.8-4.1-10.2-6.2c-0.2-0.1-0.5-0.3-0.7-0.5c-1.7-1.4-1.4-3.2,0.5-4.1c1.5-0.7,2.9-1.4,4.6-1.4c1.6,0,3.2,0.2,4.7,0.6
		c5.4,1.6,10.8,3.3,16.2,5c0.6,0.2,1.2,0.2,1.8-0.1c5.4-2.4,10.7-4.9,16.1-7.1c4.5-1.8,9.1-2,13.6,0.1c1.7,0.8,3,2,3.9,3.7
		C106.8,14.6,106.8,15,106.8,15.4z M103.6,15c-1.7-1.8-3.6-2.4-5.7-2.7c-3.2-0.4-6.2,0.3-9.1,1.6C74.6,20.2,60.4,26.6,46.1,33
		c-1.7,0.8-3.2,0.6-4.7-0.4c-0.4-0.3-0.7-0.5-1.1-0.8c-1.8-1.3-3.6-2.7-5.4-4c-0.7-0.5-1.4-0.6-2.2-0.2c0,0.1,0,0.2,0.1,0.3
		c1.7,3.9,3.5,7.8,5.2,11.7c0.4,0.9,1.1,1.3,1.9,1.5c1.6,0.4,3.1,0.3,4.7,0c3.8-0.5,7.5-1.6,11-3c4.8-1.9,9.5-4,14.3-6.1
		c0.3-0.1,0.6-0.2,0.9-0.4c-1.6,8.3-3.1,16.4-4.6,24.6c0.1,0,0.1,0.1,0.2,0.1c0.5-0.3,1.1-0.6,1.5-1c1.1-1,1.9-2.3,2.5-3.6
		c3.8-8.2,7.6-16.4,11.3-24.5c0.2-0.5,0.6-0.9,1.1-1.1c5-2.5,10-4.9,14.9-7.4C99.8,17.5,101.6,16.2,103.6,15z M48.2,15.8
		c4,2.4,7.9,4.8,11.9,7.2c0.2,0.1,0.5,0.1,0.6,0.1c2.4-1,4.7-2.1,7.2-3.2c-1.3-0.4-2.5-0.8-3.7-1.1c-3.7-1.1-7.4-2.3-11.2-3.3
		C51.5,14.9,49.9,14.9,48.2,15.8z"/>
</g>
</svg>
