<?xml version="1.0" encoding="utf-8"?>
<!-- Generator: Adobe Illustrator 22.1.0, SVG Export Plug-In . SVG Version: 6.00 Build 0)  -->
<svg version="1.1" id="Capa_1" xmlns="http://www.w3.org/2000/svg" xmlns:xlink="http://www.w3.org/1999/xlink" x="0px" y="0px"
	 viewBox="0 0 200 200" style="enable-background:new 0 0 200 200;" xml:space="preserve">
<style type="text/css">
	.st0{fill:#FFFFFF;}
</style>
<g>
	<path class="st0" d="M50.9,168.1c-1-0.6-1.8-1.3-2.4-2.3c-0.6-1-0.9-2.1-0.9-3.3s0.3-2.3,0.9-3.3c0.6-1,1.4-1.7,2.4-2.3
		s2.1-0.8,3.4-0.8c0.9,0,1.8,0.2,2.6,0.5s1.5,0.8,2,1.4l-0.8,0.8c-1-1-2.2-1.5-3.7-1.5c-1,0-1.9,0.2-2.7,0.7s-1.5,1.1-1.9,1.9
		s-0.7,1.7-0.7,2.7s0.2,1.9,0.7,2.7s1.1,1.4,1.9,1.9s1.7,0.7,2.7,0.7c1.5,0,2.8-0.5,3.7-1.5l0.8,0.8c-0.6,0.6-1.2,1.1-2,1.4
		c-0.8,0.3-1.7,0.5-2.6,0.5C53,169,51.9,168.7,50.9,168.1z"/>
	<path class="st0" d="M64.3,168.3c-0.7-0.4-1.3-1-1.7-1.7S62,165,62,164.1s0.2-1.8,0.6-2.5c0.4-0.7,1-1.3,1.7-1.7
		c0.7-0.4,1.6-0.6,2.5-0.6s1.7,0.2,2.5,0.6c0.7,0.4,1.3,1,1.7,1.7c0.4,0.7,0.6,1.6,0.6,2.5s-0.2,1.8-0.6,2.5s-1,1.3-1.7,1.7
		s-1.6,0.6-2.5,0.6S65,168.7,64.3,168.3z M68.5,167.4c0.5-0.3,1-0.7,1.3-1.3s0.5-1.2,0.5-1.9s-0.2-1.4-0.5-1.9
		c-0.3-0.6-0.7-1-1.3-1.3c-0.5-0.3-1.1-0.5-1.8-0.5s-1.3,0.2-1.8,0.5s-1,0.7-1.3,1.3s-0.5,1.2-0.5,1.9s0.2,1.4,0.5,1.9
		c0.3,0.6,0.7,1,1.3,1.3c0.5,0.3,1.1,0.5,1.8,0.5S68,167.7,68.5,167.4z"/>
	<path class="st0" d="M83.6,160.4c0.7,0.7,1.1,1.7,1.1,3v5.5h-1.3v-5.4c0-1-0.2-1.7-0.7-2.3c-0.5-0.5-1.2-0.8-2.1-0.8
		c-1,0-1.8,0.3-2.4,0.9c-0.6,0.6-0.9,1.4-0.9,2.5v5H76v-9.5h1.2v1.7c0.3-0.6,0.8-1,1.4-1.3s1.3-0.5,2.2-0.5
		C82,159.3,82.9,159.7,83.6,160.4z"/>
	<path class="st0" d="M91.4,168.3c-0.7-0.4-1.3-1-1.7-1.7c-0.4-0.7-0.6-1.6-0.6-2.5s0.2-1.8,0.6-2.5s1-1.3,1.7-1.7s1.6-0.6,2.5-0.6
		c0.8,0,1.5,0.2,2.2,0.5c0.6,0.3,1.1,0.8,1.5,1.4l-1,0.6c-0.3-0.5-0.7-0.8-1.2-1.1c-0.5-0.2-1-0.4-1.6-0.4c-0.7,0-1.3,0.2-1.8,0.5
		s-1,0.7-1.3,1.3s-0.5,1.2-0.5,1.9s0.2,1.4,0.5,1.9c0.3,0.6,0.7,1,1.3,1.3s1.2,0.5,1.8,0.5c0.6,0,1.1-0.1,1.6-0.3s0.9-0.6,1.2-1
		l1,0.6c-0.4,0.6-0.9,1.1-1.5,1.4c-0.6,0.3-1.4,0.5-2.2,0.5C93,168.9,92.1,168.7,91.4,168.3z"/>
	<path class="st0" d="M101.9,157c-0.2-0.2-0.3-0.4-0.3-0.6c0-0.2,0.1-0.5,0.3-0.6c0.2-0.2,0.4-0.3,0.7-0.3c0.3,0,0.5,0.1,0.7,0.3
		s0.3,0.4,0.3,0.6c0,0.3-0.1,0.5-0.3,0.7c-0.2,0.2-0.4,0.3-0.7,0.3C102.3,157.3,102.1,157.2,101.9,157z M101.9,159.4h1.3v9.5h-1.3
		V159.4z"/>
	<path class="st0" d="M116.8,164.5h-7.9c0.1,1,0.5,1.8,1.1,2.4c0.7,0.6,1.5,0.9,2.6,0.9c0.6,0,1.1-0.1,1.6-0.3s0.9-0.5,1.3-0.9
		l0.7,0.8c-0.4,0.5-0.9,0.9-1.6,1.2s-1.3,0.4-2.1,0.4c-1,0-1.8-0.2-2.6-0.6s-1.3-1-1.8-1.7c-0.4-0.7-0.6-1.6-0.6-2.5
		s0.2-1.8,0.6-2.5s1-1.3,1.7-1.7s1.5-0.6,2.4-0.6s1.7,0.2,2.4,0.6c0.7,0.4,1.2,1,1.6,1.7s0.6,1.6,0.6,2.5L116.8,164.5z M109.9,161.3
		c-0.6,0.6-1,1.3-1.1,2.3h6.7c-0.1-0.9-0.4-1.7-1.1-2.3c-0.6-0.6-1.4-0.9-2.3-0.9C111.3,160.4,110.5,160.7,109.9,161.3z"/>
	<path class="st0" d="M123.8,159.8c0.6-0.3,1.3-0.5,2.2-0.5v1.2h-0.3c-1,0-1.8,0.3-2.3,0.9c-0.6,0.6-0.8,1.5-0.8,2.6v4.8h-1.3v-9.5
		h1.2v1.9C122.7,160.6,123.2,160.1,123.8,159.8z"/>
	<path class="st0" d="M138.8,159.4v8.3c0,1.6-0.4,2.8-1.2,3.6s-2,1.2-3.6,1.2c-0.9,0-1.7-0.1-2.5-0.4c-0.8-0.3-1.4-0.6-1.9-1.1
		l0.6-1c0.5,0.4,1,0.7,1.7,1c0.7,0.2,1.3,0.3,2.1,0.3c1.2,0,2.1-0.3,2.6-0.8c0.6-0.6,0.8-1.4,0.8-2.6v-1.2c-0.4,0.6-0.9,1.1-1.6,1.4
		c-0.6,0.3-1.4,0.5-2.1,0.5c-0.9,0-1.7-0.2-2.4-0.6c-0.7-0.4-1.3-0.9-1.7-1.6c-0.4-0.7-0.6-1.5-0.6-2.4s0.2-1.7,0.6-2.4
		c0.4-0.7,1-1.2,1.7-1.6c0.7-0.4,1.5-0.6,2.4-0.6c0.8,0,1.5,0.2,2.2,0.5c0.6,0.3,1.2,0.8,1.6,1.4v-1.8L138.8,159.4L138.8,159.4z
		 M135.8,166.9c0.6-0.3,1-0.7,1.3-1.2s0.5-1.1,0.5-1.8s-0.2-1.3-0.5-1.8s-0.7-0.9-1.3-1.2c-0.5-0.3-1.2-0.4-1.9-0.4
		s-1.3,0.1-1.8,0.4s-1,0.7-1.3,1.2s-0.5,1.1-0.5,1.8s0.2,1.3,0.5,1.8s0.7,0.9,1.3,1.2s1.2,0.4,1.8,0.4S135.2,167.2,135.8,166.9z"/>
	<path class="st0" d="M152.4,164.5h-7.9c0.1,1,0.5,1.8,1.1,2.4c0.7,0.6,1.5,0.9,2.6,0.9c0.6,0,1.1-0.1,1.6-0.3s0.9-0.5,1.3-0.9
		l0.7,0.8c-0.4,0.5-0.9,0.9-1.6,1.2s-1.3,0.4-2.1,0.4c-1,0-1.8-0.2-2.6-0.6s-1.3-1-1.8-1.7c-0.4-0.7-0.6-1.6-0.6-2.5
		s0.2-1.8,0.6-2.5c0.4-0.7,1-1.3,1.7-1.7s1.5-0.6,2.4-0.6s1.7,0.2,2.4,0.6c0.7,0.4,1.2,1,1.6,1.7c0.4,0.7,0.6,1.6,0.6,2.5V164.5z
		 M145.5,161.3c-0.6,0.6-1,1.3-1.1,2.3h6.7c-0.1-0.9-0.4-1.7-1.1-2.3c-0.6-0.6-1.4-0.9-2.3-0.9C146.9,160.4,146.1,160.7,145.5,161.3
		z"/>
</g>
<path class="st0" d="M88.3,107.7c0-2.3,0-4.6,0-6.9c-0.4,0-0.7,0-1.1,0c-13.7,0-27.3,0-41,0c-2.9,0-5.9,0-8.8,0
	c-2.3,0-4.6-1.9-4.6-4.2c0-6.1-0.4-12.2,0.4-18.2c0.9-6.2,3.1-12,6.5-17.3c4.3-6.8,10.1-12,17.2-15.7c4.2-2.2,8.7-3.5,13.4-4.2
	c4-0.6,8.1-0.4,12.1-0.4c0.4,0,0.7,0,1.3,0C83.3,33.7,86.2,29,93,27c0-1.5,0-3.1,0-4.7c-1.5,0-3.1,0-4.6,0c-1.3,0-2.4-0.5-3.3-1.3
	c-0.9-0.9-1.3-1.9-1.4-3.2c0-1.6,0-3.2,0-4.8c0-2.6,2-4.6,4.5-4.6c7.8,0,15.6,0,23.4,0c2.4,0,4.4,2,4.5,4.4c0,1.7,0,3.3,0,5
	c0,2.4-2.1,4.4-4.5,4.4c-1.6,0-3.1,0-4.7,0c0,1.6,0,3.2,0,4.8c6.8,2.1,9.7,6.7,9.2,13.7c0.4,0,0.8,0,1.1,0c3.6,0.1,7.2-0.1,10.8,0.3
	c9.1,0.9,17.1,4.6,24,10.6c6.1,5.3,10.3,11.9,12.9,19.6c1.4,4.4,2.1,8.9,2.1,13.5c0,3.7,0,7.5,0,11.2c0,2.9-2,4.9-4.9,4.9
	c-16.5,0-33,0-49.5,0c-0.3,0-0.6,0-1.1,0c0,0.4,0,0.7,0,0.9c0,1.8,0,3.6,0,5.3c0,0.5,0.2,0.7,0.7,0.7c2.4,0,4.8,0,7.2,0
	c15.1,0,30.2,0,45.3,0c3.1,0,5.4,2.2,5.9,4.7c0.9,4.3,2.1,8.6,3.2,12.9c0.8,3.2-1,5.6-4.2,5.6c-13.6,0-27.2,0-40.8,0
	c-17.6,0-35.2,0-52.8,0c-15.1,0-30.2,0-45.3,0c-3.5,0-5.2-2.3-4.3-5.7c1.1-4.4,2.2-8.8,3.3-13.2c0.6-2.5,2.9-4.3,5.6-4.3
	c17.5,0,34.9,0,52.4,0C87.8,107.7,88.1,107.7,88.3,107.7z M162.4,96.1c0-0.2,0-0.4,0-0.5c0-4,0-8,0-12c0-1.6-0.2-3.2-0.4-4.7
	c-0.6-4.4-2-8.6-4.1-12.5c-3.2-6.1-7.6-11-13.4-14.7c-6.7-4.4-14.2-6.4-22.2-6.3c-5.3,0.1-10.7,0-16,0c-10.3,0-20.5,0-30.8,0
	c-3.9,0-7.7,0.8-11.3,2c-8.4,2.9-15.1,8.1-20.1,15.6c-4.1,6.2-6.3,13.1-6.5,20.6c-0.1,3.4-0.1,6.7-0.1,10.1c0,0.8,0,1.6,0,2.5
	C79.2,96.1,120.8,96.1,162.4,96.1z M169.1,126.2c0-0.2-0.1-0.5-0.1-0.7c-1-4-2-8-3-12c-0.2-0.8-0.6-1.1-1.5-1.1
	c-7.5,0-14.9,0-22.4,0c-8.7,0-17.5,0-26.2,0c-20.2,0-40.4,0-60.6,0c-6.7,0-13.3,0-20,0c-0.9,0-1.2,0.3-1.4,1.1
	c-0.5,2.2-1.1,4.4-1.7,6.6c-0.5,2-1,4-1.5,6C77,126.2,123,126.2,169.1,126.2z M111.7,40.7c-0.2-1.5-0.1-3-0.5-4.3
	c-0.8-3-3.5-4.9-6.6-4.9s-6.1,0-9.2,0c-0.6,0-1.2,0.1-1.8,0.3c-4.1,1.2-5.6,4.9-5,8.9C96.2,40.7,103.8,40.7,111.7,40.7z M111.5,13
	c-7.7,0-15.4,0-23.1,0c0,1.5,0,3,0,4.5c7.7,0,15.4,0,23.1,0C111.5,16,111.5,14.6,111.5,13z M106.9,107.7c0-2.3,0-4.6,0-6.9
	c-4.6,0-9.2,0-13.8,0c0,2.3,0,4.6,0,6.9C97.7,107.7,102.2,107.7,106.9,107.7z M97.7,26.8c1.5,0,3,0,4.5,0c0-1.5,0-3,0-4.5
	c-1.5,0-3,0-4.5,0C97.7,23.8,97.7,25.2,97.7,26.8z"/>
</svg>
