<?xml version="1.0" encoding="utf-8"?>
<!-- Generator: Adobe Illustrator 22.1.0, SVG Export Plug-In . SVG Version: 6.00 Build 0)  -->
<svg version="1.1" id="Capa_1" xmlns="http://www.w3.org/2000/svg" xmlns:xlink="http://www.w3.org/1999/xlink" x="0px" y="0px"
	 viewBox="0 0 200 200" style="enable-background:new 0 0 200 200;" xml:space="preserve">
<style type="text/css">
	.st0{fill:#FFFFFF;}
</style>
<g>
	<path class="st0" d="M40.4,156.3h5.1c1.3,0,2.5,0.3,3.5,0.8s1.8,1.3,2.4,2.2c0.6,1,0.8,2,0.8,3.3c0,1.2-0.3,2.3-0.8,3.3
		c-0.6,1-1.4,1.7-2.4,2.2s-2.2,0.8-3.5,0.8h-5.1V156.3z M45.5,167.7c1.1,0,2.1-0.2,2.9-0.7c0.8-0.4,1.5-1,1.9-1.8s0.7-1.7,0.7-2.7
		s-0.2-1.9-0.7-2.7s-1.1-1.4-1.9-1.8c-0.8-0.4-1.8-0.7-2.9-0.7h-3.7v10.3L45.5,167.7L45.5,167.7z"/>
	<path class="st0" d="M65.1,164.5h-7.9c0.1,1,0.4,1.8,1.1,2.4c0.7,0.6,1.5,0.9,2.6,0.9c0.6,0,1.1-0.1,1.6-0.3s0.9-0.5,1.3-0.9
		l0.7,0.8c-0.4,0.5-0.9,0.9-1.6,1.2s-1.3,0.4-2.1,0.4c-1,0-1.8-0.2-2.6-0.6s-1.3-1-1.8-1.7c-0.4-0.7-0.6-1.6-0.6-2.5
		s0.2-1.8,0.6-2.5c0.4-0.7,1-1.3,1.7-1.7s1.5-0.6,2.4-0.6s1.7,0.2,2.4,0.6c0.7,0.4,1.2,1,1.6,1.7s0.6,1.6,0.6,2.5V164.5z
		 M58.2,161.3c-0.6,0.6-1,1.3-1.1,2.3h6.7c-0.1-0.9-0.4-1.7-1.1-2.3c-0.6-0.6-1.4-0.9-2.3-0.9C59.6,160.4,58.8,160.7,58.2,161.3z"/>
	<path class="st0" d="M69.5,155.5h1.3v13.4h-1.3V155.5z"/>
	<path class="st0" d="M76.1,157c-0.2-0.2-0.3-0.4-0.3-0.6c0-0.2,0.1-0.5,0.3-0.6s0.4-0.3,0.7-0.3s0.5,0.1,0.7,0.3s0.3,0.4,0.3,0.6
		c0,0.3-0.1,0.5-0.3,0.7c-0.2,0.2-0.4,0.3-0.7,0.3S76.3,157.2,76.1,157z M76.1,159.4h1.3v9.5h-1.3V159.4z"/>
	<path class="st0" d="M91.5,159.4v8.3c0,1.6-0.4,2.8-1.2,3.6c-0.8,0.8-2,1.2-3.6,1.2c-0.9,0-1.7-0.1-2.5-0.4
		c-0.8-0.3-1.4-0.6-1.9-1.1l0.6-1c0.5,0.4,1,0.7,1.7,1c0.7,0.2,1.3,0.3,2.1,0.3c1.2,0,2.1-0.3,2.6-0.8c0.6-0.6,0.8-1.4,0.8-2.6v-1.2
		c-0.4,0.6-0.9,1.1-1.6,1.4c-0.6,0.3-1.4,0.5-2.1,0.5c-0.9,0-1.7-0.2-2.4-0.6c-0.7-0.4-1.3-0.9-1.7-1.6c-0.4-0.7-0.6-1.5-0.6-2.4
		s0.2-1.7,0.6-2.4s1-1.2,1.7-1.6s1.5-0.6,2.4-0.6c0.8,0,1.5,0.2,2.2,0.5c0.6,0.3,1.2,0.8,1.6,1.4v-1.8L91.5,159.4L91.5,159.4z
		 M88.6,166.9c0.6-0.3,1-0.7,1.3-1.2s0.5-1.1,0.5-1.8s-0.2-1.3-0.5-1.8s-0.7-0.9-1.3-1.2c-0.5-0.3-1.2-0.4-1.9-0.4
		c-0.7,0-1.3,0.1-1.8,0.4s-1,0.7-1.3,1.2s-0.5,1.1-0.5,1.8s0.2,1.3,0.5,1.8s0.7,0.9,1.3,1.2s1.2,0.4,1.8,0.4
		C87.4,167.4,88,167.2,88.6,166.9z"/>
	<path class="st0" d="M105.2,164.5h-7.9c0.1,1,0.5,1.8,1.1,2.4c0.7,0.6,1.5,0.9,2.6,0.9c0.6,0,1.1-0.1,1.6-0.3s0.9-0.5,1.3-0.9
		l0.7,0.8c-0.4,0.5-0.9,0.9-1.6,1.2c-0.6,0.3-1.3,0.4-2.1,0.4c-1,0-1.8-0.2-2.6-0.6s-1.3-1-1.8-1.7c-0.4-0.7-0.6-1.6-0.6-2.5
		s0.2-1.8,0.6-2.5s1-1.3,1.7-1.7s1.5-0.6,2.4-0.6s1.7,0.2,2.4,0.6c0.7,0.4,1.2,1,1.6,1.7s0.6,1.6,0.6,2.5L105.2,164.5z M98.3,161.3
		c-0.6,0.6-1,1.3-1.1,2.3h6.7c-0.1-0.9-0.4-1.7-1.1-2.3c-0.6-0.6-1.4-0.9-2.3-0.9C99.7,160.4,98.9,160.7,98.3,161.3z"/>
	<path class="st0" d="M117.3,160.4c0.7,0.7,1.1,1.7,1.1,3v5.5H117v-5.4c0-1-0.2-1.7-0.7-2.3c-0.5-0.5-1.2-0.8-2.1-0.8
		c-1,0-1.8,0.3-2.4,0.9c-0.6,0.6-0.9,1.4-0.9,2.5v5h-1.3v-9.5h1.2v1.7c0.3-0.6,0.8-1,1.4-1.3s1.3-0.5,2.2-0.5
		C115.6,159.3,116.5,159.7,117.3,160.4z"/>
	<path class="st0" d="M125,168.3c-0.7-0.4-1.3-1-1.7-1.7c-0.4-0.7-0.6-1.6-0.6-2.5s0.2-1.8,0.6-2.5s1-1.3,1.7-1.7s1.6-0.6,2.5-0.6
		c0.8,0,1.5,0.2,2.2,0.5c0.6,0.3,1.1,0.8,1.5,1.4l-1,0.6c-0.3-0.5-0.7-0.8-1.2-1.1c-0.5-0.2-1-0.4-1.6-0.4c-0.7,0-1.3,0.2-1.8,0.5
		s-1,0.7-1.3,1.3s-0.5,1.2-0.5,1.9s0.2,1.4,0.5,1.9c0.3,0.6,0.7,1,1.3,1.3s1.2,0.5,1.8,0.5c0.6,0,1.1-0.1,1.6-0.3s0.9-0.6,1.2-1
		l1,0.6c-0.4,0.6-0.9,1.1-1.5,1.4c-0.6,0.3-1.4,0.5-2.2,0.5C126.6,168.9,125.8,168.7,125,168.3z"/>
	<path class="st0" d="M135.5,157c-0.2-0.2-0.3-0.4-0.3-0.6c0-0.2,0.1-0.5,0.3-0.6c0.2-0.2,0.4-0.3,0.7-0.3s0.5,0.1,0.7,0.3
		s0.3,0.4,0.3,0.6c0,0.3-0.1,0.5-0.3,0.7s-0.4,0.3-0.7,0.3C135.9,157.3,135.7,157.2,135.5,157z M135.5,159.4h1.3v9.5h-1.3V159.4z"/>
	<path class="st0" d="M148.3,160.2c0.7,0.6,1,1.5,1,2.7v5.9h-1.2v-1.5c-0.3,0.5-0.7,0.9-1.3,1.2s-1.2,0.4-2,0.4
		c-1.1,0-1.9-0.3-2.5-0.8s-0.9-1.2-0.9-2s0.3-1.5,0.9-1.9c0.6-0.5,1.5-0.7,2.8-0.7h3v-0.6c0-0.8-0.2-1.4-0.7-1.9s-1.1-0.6-2-0.6
		c-0.6,0-1.2,0.1-1.7,0.3c-0.6,0.2-1,0.5-1.4,0.8l-0.6-1c0.5-0.4,1.1-0.7,1.7-0.9c0.7-0.2,1.4-0.3,2.1-0.3
		C146.7,159.3,147.7,159.6,148.3,160.2z M146.9,167.4c0.5-0.3,0.9-0.8,1.2-1.4v-1.5h-3c-1.6,0-2.4,0.6-2.4,1.7c0,0.6,0.2,1,0.6,1.3
		c0.4,0.3,1,0.5,1.8,0.5C145.8,167.9,146.4,167.8,146.9,167.4z"/>
	<path class="st0" d="M154.9,168.6c-0.7-0.2-1.3-0.5-1.6-0.8l0.6-1c0.4,0.3,0.9,0.6,1.5,0.8s1.2,0.3,1.9,0.3c0.9,0,1.5-0.1,1.9-0.4
		c0.4-0.3,0.6-0.7,0.6-1.1c0-0.3-0.1-0.6-0.3-0.8s-0.5-0.3-0.9-0.5s-0.8-0.2-1.4-0.3c-0.8-0.1-1.4-0.3-1.9-0.4
		c-0.5-0.1-0.9-0.4-1.2-0.8c-0.3-0.4-0.5-0.9-0.5-1.5c0-0.8,0.3-1.4,1-1.9s1.6-0.8,2.8-0.8c0.6,0,1.2,0.1,1.8,0.2
		c0.6,0.2,1.1,0.4,1.5,0.6l-0.6,1c-0.8-0.5-1.7-0.8-2.8-0.8c-0.8,0-1.4,0.1-1.8,0.4s-0.6,0.7-0.6,1.1c0,0.4,0.1,0.6,0.4,0.9
		c0.2,0.2,0.5,0.4,0.9,0.5c0.3,0.1,0.8,0.2,1.4,0.3c0.8,0.1,1.4,0.3,1.8,0.4c0.5,0.1,0.8,0.4,1.2,0.7s0.5,0.8,0.5,1.4
		c0,0.8-0.3,1.5-1,2s-1.6,0.7-2.9,0.7C156.4,168.9,155.6,168.8,154.9,168.6z"/>
</g>
<g>
	<path class="st0" d="M149.2,96.8c3.7-2.7,7.9-4,12.3-4.8c3.6-0.6,7.2-0.7,10.8-0.5c0.5,0,0.7-0.2,1-0.6c1.2-2.4,0.7-4.7-0.5-6.9
		c-1.4-2.7-3.4-4.9-5.6-6.9c-4.2-3.8-8.9-6.9-13.8-9.5c-5-2.7-10.2-5.3-15.3-7.9c-2-1-4-2.1-6.3-2.5c-1.5-0.3-3.1-0.3-4.5,0.6
		c-0.6,0.4-1.2,0.6-2,0.6c-3.2-0.2-6.4-0.2-9.6-0.3c-0.3,0-0.7-0.2-0.8-0.4c-2.4-3.7-4.9-7.4-7.3-11.2c-1.4-2.2-3.3-3.7-5.9-4.2
		c-3.7-0.8-6.9,0.4-9.3,3.3c-0.8,1-1.5,2.1-2.2,3.2c-3.5,5.1-7,10.2-10.4,15.4c-2.4,3.6-2,8,1.1,11c1.2,1.2,2.8,2.1,4.3,3.1
		c5.9,3.7,11.7,7.4,17.6,11.1c0.6,0.4,0.7,0.7,0.5,1.4c-1.6,4.1-3.2,8.2-4.8,12.2c-0.6,1.6,0.1,3.3,1.8,4c1.5,0.6,3.2-0.2,3.8-1.7
		c2-5.1,4-10.2,6-15.3c0.6-1.6,0.2-2.9-1.2-3.8c-3.7-2.4-7.5-4.8-11.2-7.2c-1.5-1-3-2-4.4-2.8c4.9-6.3,8.9-13.1,13.5-19.6
		c0.1,0.2,0.2,0.3,0.3,0.5c1.2,1.8,2.4,3.7,3.6,5.5c0.7,1.1,1.6,1.6,2.8,1.6c4,0.1,8.1,0.2,12.1,0.4c0.3,0.6,0.6,1.2,0.9,1.8
		c2.3,3.6,4.6,7.1,6.9,10.7c0.4,0.6,0.3,1-0.2,1.5c-0.2-0.1-0.4-0.3-0.7-0.4c-4-2.6-8-5.3-12.3-7.4c-3.1-1.5-6.3-2.6-9.8-2.8
		c-5.5-0.3-9.5,2.6-11.6,7.8c0.8,0.4,1.7,0.9,2.5,1.3c0.9,0.5,1.7,0.9,2.6,1.4c0.5-0.8,0.9-1.6,1.4-2.3c1.5-2.3,3.1-2.4,5.6-2.2
		c3.1,0.3,6,1.6,8.7,3.2c3.6,2.1,7.1,4.4,10.6,6.6c1.7,1,3.4,2,5.1,2.9c0.1-0.1,0.2-0.2,0.2-0.2c1.6-2.9,3.3-5.8,4.9-8.7
		c0.1-0.2,0-0.7-0.1-0.9c-2.3-3.6-4.7-7.2-7-10.8c-0.5-0.7-0.9-1.4-1.4-2.2c1.5,0.6,2.9,1.3,4.3,2c6.4,3.3,13,6.3,19.1,10.4
		c2.9,1.9,5.7,4,8.4,6.1c1.2,0.9,2.1,2.1,3.3,3.2c-0.2,0.1-0.3,0.2-0.3,0.2c-0.2,0-0.4,0-0.6,0c-4.5,0.2-8.9,0.8-13.1,2.3
		c-2.8,1-5.4,2.3-7.7,4c-4.4,3.2-7.5,7.4-9.7,12.3c-1.2,2.6-2.1,5.2-3.1,7.9c-0.1,0.4-0.2,0.7-0.8,0.7c-11,0-22.1,0-33.1,0
		c-0.7,0-1.1-0.1-1.2-0.9c0-0.4-0.2-0.8-0.3-1.2c-1.2-5.9-3.5-11.3-7.6-15.9c-3.2-3.6-7.1-6.1-11.4-8c-1.8-0.8-3.8-1.4-5.7-1.9
		c-2.5-0.6-5-1-7.6-1.4c-0.3-0.1-0.5-0.1-0.8-0.2c-3.9-0.3-7.8-0.5-11.7-0.7c-0.5,0-0.7-0.1-0.9-0.6s-0.5-1-0.8-1.5h9.3
		c3.3,0,6.3-1.2,8.7-3.2c1,1.5,2.1,3,3.1,4.6c0.3,0.4,0.6,0.6,1.1,0.6c4,0,8,0,12.1,0c0.2,0,0.4,0,0.8-0.1c-2.7-1.8-5.2-3.5-7.7-5.1
		c-0.7-0.5-1.4-1-2.4-0.8c-0.2,0-0.5-0.2-0.6-0.4c-0.9-1.3-1.7-2.5-2.5-3.8c0.7-1.6,1-3.3,1-5.2V45.6c0-7.4-6.1-13.5-13.5-13.5H31.1
		c-7.4,0-13.5,6.1-13.5,13.5V67c0,7.4,6.1,13.5,13.5,13.5h12.8c0.5,0.7,1,1.3,1.4,2.1c0.9,1.7,1.6,3.6,2.3,5.5
		c0.1,0.4,0.3,0.5,0.7,0.5c1.2,0,2.5,0,3.7,0c5,0.1,9.9,0.3,14.8,1.2c1.9,0.3,3.7,0.8,5.6,1.2c1.2,0.5,2.5,0.9,3.7,1.4
		c5.5,2.3,9.8,6,12.7,11.3c1.9,3.6,2.9,7.5,3.4,11.5c0.2,1.2,0.3,2.4,0.4,3.6h9.1c11.3,0,22.6,0,33.9,0c1.4,0,1.4,0,1.8-1.3
		c1.7-5.4,3.4-10.8,6.7-15.4C145.6,100,147.2,98.3,149.2,96.8z M102.3,52.2c-2.9,4.3-5.8,8.6-8.7,12.9c-1.2,1.8-2.4,3.5-3.6,5.3
		c-0.6,0.9-1.6,1.4-2.9,1.4c-1-0.1-1.9-0.5-2.4-1.5s-0.4-2,0.2-3c3.3-4.9,6.6-9.8,9.9-14.7c0.7-1.1,1.4-2.2,2.2-3.3
		c1.3-1.9,3.9-1.9,5.2,0C102.9,50.2,103,51.3,102.3,52.2z M24.2,61.4V51.2c0-7.4,6.1-13.5,13.5-13.5h16.2c7.4,0,13.5,6.1,13.5,13.5
		v10.1c0,7.4-6.1,13.5-13.5,13.5H37.7C30.2,74.9,24.2,68.8,24.2,61.4z"/>
	<path class="st0" d="M164.8,94.6c-11.5,0-21,9.2-21.1,21s9.4,21.3,21.3,21.3c11.6,0,21.1-9.5,21.1-21.1
		C186,104,176.6,94.6,164.8,94.6z M164.5,130.9c-8.8-0.3-15.1-7.3-14.7-16.1c0.4-8,7.6-14.5,15.6-14.2c8.5,0.4,15.1,7.4,14.7,15.8
		C179.5,125,172.6,131.2,164.5,130.9z"/>
	<path class="st0" d="M66.5,94.6c-11.6,0.1-21,9.5-21,21.1c0,11.9,9.4,21.3,21.2,21.2c11.6,0,21.1-9.5,21-21.2
		C87.8,104.1,78.3,94.6,66.5,94.6z M66.7,130.9c-8.3,0-15.2-6.8-15.2-15.2c0.1-8.5,6.8-15,15.1-15.1c8.3,0,15.2,6.8,15.2,15.1
		C81.8,124.1,75,130.9,66.7,130.9z"/>
	<path class="st0" d="M117.2,42.8c-1.1-3.6-1.5-7.4-3.5-10.8c4-0.2,7.9-0.4,11.8-0.5c-0.1-1.1-0.1-2.1-0.2-3
		c-0.6-5.4-3.2-9.5-8.1-11.8c-5-2.4-9.9-2-14.5,1.1c-6.4,4.2-8.2,13.4-3.9,19.8C102.8,43.3,109.6,45.5,117.2,42.8z M108.9,21.3
		c3.8-1,8.1,1,9.5,4.5c-1.1,0.1-2.2,0.1-3.3,0.3c-1.3,0.2-2.6,0.3-3.8,0.7c-2.7,1-3.7,3.2-3,6.2c0.4,1.6,0.9,3.2,1.3,4.9
		c-3-0.2-6.9-2.9-7.2-7.8C102.2,26,104.8,22.3,108.9,21.3z"/>
</g>
</svg>
