<?xml version="1.0" encoding="utf-8"?>
<!-- Generator: Adobe Illustrator 22.1.0, SVG Export Plug-In . SVG Version: 6.00 Build 0)  -->
<svg version="1.1" id="Capa_1" xmlns="http://www.w3.org/2000/svg" xmlns:xlink="http://www.w3.org/1999/xlink" x="0px" y="0px"
	 viewBox="0 0 200 200" style="enable-background:new 0 0 200 200;" xml:space="preserve">
<style type="text/css">
	.st0{fill:#FFFFFF;}
</style>
<g>
	<path class="st0" d="M21.9,167.7v1.2H13v-12.6h8.6v1.2h-7.3v4.5h6.5v1.1h-6.5v4.7L21.9,167.7L21.9,167.7z"/>
	<path class="st0" d="M26.7,168.6c-0.7-0.2-1.3-0.5-1.6-0.8l0.6-1c0.4,0.3,0.9,0.6,1.5,0.8s1.2,0.3,1.9,0.3c0.9,0,1.5-0.1,1.9-0.4
		c0.4-0.3,0.6-0.7,0.6-1.1c0-0.3-0.1-0.6-0.3-0.8c-0.2-0.2-0.5-0.3-0.9-0.5s-0.8-0.2-1.4-0.3c-0.8-0.1-1.4-0.3-1.9-0.4
		c-0.5-0.1-0.9-0.4-1.2-0.8c-0.3-0.4-0.5-0.9-0.5-1.5c0-0.8,0.3-1.4,1-1.9s1.6-0.8,2.8-0.8c0.6,0,1.2,0.1,1.8,0.2
		c0.6,0.2,1.1,0.4,1.5,0.6l-0.6,1c-0.8-0.5-1.7-0.8-2.8-0.8c-0.8,0-1.4,0.1-1.8,0.4s-0.6,0.7-0.6,1.1c0,0.4,0.1,0.6,0.4,0.9
		c0.2,0.2,0.5,0.4,0.9,0.5c0.3,0.1,0.8,0.2,1.4,0.3c0.8,0.1,1.4,0.3,1.8,0.4c0.5,0.1,0.8,0.4,1.2,0.7c0.4,0.3,0.5,0.8,0.5,1.4
		c0,0.8-0.3,1.5-1,2s-1.6,0.7-2.9,0.7C28.2,168.9,27.4,168.8,26.7,168.6z"/>
	<path class="st0" d="M42,168.3c-0.2,0.2-0.5,0.4-0.9,0.5S40.4,169,40,169c-0.9,0-1.6-0.2-2.1-0.7s-0.7-1.2-0.7-2v-5.7h-1.7v-1.1
		h1.7v-2.1h1.3v2.1h2.9v1.1h-2.9v5.7c0,0.6,0.1,1,0.4,1.3c0.3,0.3,0.7,0.4,1.2,0.4c0.3,0,0.5,0,0.8-0.1s0.5-0.2,0.6-0.4L42,168.3z"
		/>
	<path class="st0" d="M52.3,160.2c0.7,0.6,1,1.5,1,2.7v5.9H52v-1.5c-0.3,0.5-0.7,0.9-1.3,1.2s-1.2,0.4-2,0.4c-1.1,0-1.9-0.3-2.5-0.8
		s-0.9-1.2-0.9-2s0.3-1.5,0.9-1.9c0.6-0.5,1.5-0.7,2.8-0.7h3v-0.6c0-0.8-0.2-1.4-0.7-1.9c-0.5-0.4-1.1-0.6-2-0.6
		c-0.6,0-1.2,0.1-1.7,0.3c-0.6,0.2-1,0.5-1.4,0.8l-0.6-1c0.5-0.4,1.1-0.7,1.7-0.9c0.7-0.2,1.4-0.3,2.1-0.3
		C50.6,159.3,51.6,159.6,52.3,160.2z M50.8,167.4c0.5-0.3,0.9-0.8,1.2-1.4v-1.5h-3c-1.6,0-2.4,0.6-2.4,1.7c0,0.6,0.2,1,0.6,1.3
		c0.4,0.3,1,0.5,1.8,0.5C49.7,167.9,50.3,167.8,50.8,167.4z"/>
	<path class="st0" d="M60,168.3c-0.7-0.4-1.3-1-1.7-1.7s-0.6-1.6-0.6-2.5s0.2-1.8,0.6-2.5c0.4-0.7,1-1.3,1.7-1.7s1.6-0.6,2.5-0.6
		c0.8,0,1.5,0.2,2.2,0.5c0.6,0.3,1.1,0.8,1.5,1.4l-1,0.6c-0.3-0.5-0.7-0.8-1.2-1.1c-0.5-0.2-1-0.4-1.6-0.4c-0.7,0-1.3,0.2-1.8,0.5
		s-1,0.7-1.3,1.3s-0.5,1.2-0.5,1.9s0.2,1.4,0.5,1.9c0.3,0.6,0.7,1,1.3,1.3c0.5,0.3,1.2,0.5,1.8,0.5s1.1-0.1,1.6-0.3
		c0.5-0.2,0.9-0.6,1.2-1l1,0.6c-0.4,0.6-0.9,1.1-1.5,1.4c-0.6,0.3-1.4,0.5-2.2,0.5C61.5,168.9,60.7,168.7,60,168.3z"/>
	<path class="st0" d="M70.5,157c-0.2-0.2-0.3-0.4-0.3-0.6c0-0.2,0.1-0.5,0.3-0.6s0.4-0.3,0.7-0.3s0.5,0.1,0.7,0.3s0.3,0.4,0.3,0.6
		c0,0.3-0.1,0.5-0.3,0.7c-0.2,0.2-0.4,0.3-0.7,0.3S70.7,157.2,70.5,157z M70.5,159.4h1.3v9.5h-1.3V159.4z"/>
	<path class="st0" d="M78.5,168.3c-0.7-0.4-1.3-1-1.7-1.7c-0.4-0.7-0.6-1.6-0.6-2.5s0.2-1.8,0.6-2.5s1-1.3,1.7-1.7s1.6-0.6,2.5-0.6
		s1.7,0.2,2.5,0.6c0.7,0.4,1.3,1,1.7,1.7c0.4,0.7,0.6,1.6,0.6,2.5s-0.2,1.8-0.6,2.5s-1,1.3-1.7,1.7s-1.6,0.6-2.5,0.6
		S79.3,168.7,78.5,168.3z M82.8,167.4c0.5-0.3,1-0.7,1.3-1.3s0.5-1.2,0.5-1.9s-0.2-1.4-0.5-1.9c-0.3-0.6-0.7-1-1.3-1.3
		c-0.5-0.3-1.1-0.5-1.8-0.5s-1.3,0.2-1.8,0.5s-1,0.7-1.3,1.3s-0.5,1.2-0.5,1.9s0.2,1.4,0.5,1.9c0.3,0.6,0.7,1,1.3,1.3
		c0.5,0.3,1.1,0.5,1.8,0.5S82.3,167.7,82.8,167.4z"/>
	<path class="st0" d="M97.9,160.4c0.7,0.7,1.1,1.7,1.1,3v5.5h-1.3v-5.4c0-1-0.2-1.7-0.7-2.3c-0.5-0.5-1.2-0.8-2.1-0.8
		c-1,0-1.8,0.3-2.4,0.9c-0.6,0.6-0.9,1.4-0.9,2.5v5h-1.3v-9.5h1.2v1.7c0.3-0.6,0.8-1,1.4-1.3s1.3-0.5,2.2-0.5
		C96.2,159.3,97.2,159.7,97.9,160.4z"/>
	<path class="st0" d="M110.4,160.2c0.7,0.6,1,1.5,1,2.7v5.9h-1.2v-1.5c-0.3,0.5-0.7,0.9-1.3,1.2c-0.6,0.3-1.2,0.4-2,0.4
		c-1.1,0-1.9-0.3-2.5-0.8s-0.9-1.2-0.9-2s0.3-1.5,0.9-1.9c0.6-0.5,1.5-0.7,2.8-0.7h3v-0.6c0-0.8-0.2-1.4-0.7-1.9
		c-0.5-0.4-1.1-0.6-2-0.6c-0.6,0-1.2,0.1-1.7,0.3c-0.6,0.2-1,0.5-1.4,0.8l-0.6-1c0.5-0.4,1.1-0.7,1.7-0.9c0.7-0.2,1.4-0.3,2.1-0.3
		C108.8,159.3,109.7,159.6,110.4,160.2z M108.9,167.4c0.5-0.3,0.9-0.8,1.2-1.4v-1.5h-3c-1.6,0-2.4,0.6-2.4,1.7c0,0.6,0.2,1,0.6,1.3
		s1,0.5,1.8,0.5C107.8,167.9,108.4,167.8,108.9,167.4z"/>
	<path class="st0" d="M131.2,160.3c0.7,0.7,1,1.7,1,3v5.5H131v-5.4c0-1-0.2-1.7-0.7-2.3c-0.5-0.5-1.1-0.8-2-0.8
		c-1,0-1.8,0.3-2.3,0.9c-0.6,0.6-0.8,1.4-0.8,2.5v5h-1.3v-5.4c0-1-0.2-1.7-0.7-2.3c-0.5-0.5-1.1-0.8-2-0.8c-1,0-1.7,0.3-2.3,0.9
		c-0.6,0.6-0.9,1.4-0.9,2.5v5h-1.3v-9.5h1.2v1.7c0.3-0.6,0.8-1,1.4-1.3s1.3-0.5,2.1-0.5c0.8,0,1.5,0.2,2.1,0.5s1,0.8,1.3,1.5
		c0.3-0.6,0.8-1.1,1.5-1.5s1.4-0.5,2.2-0.5C129.6,159.3,130.6,159.7,131.2,160.3z"/>
	<path class="st0" d="M137.5,157c-0.2-0.2-0.3-0.4-0.3-0.6c0-0.2,0.1-0.5,0.3-0.6s0.4-0.3,0.7-0.3s0.5,0.1,0.7,0.3s0.3,0.4,0.3,0.6
		c0,0.3-0.1,0.5-0.3,0.7s-0.4,0.3-0.7,0.3S137.7,157.2,137.5,157z M137.5,159.4h1.3v9.5h-1.3V159.4z"/>
	<path class="st0" d="M152.4,164.5h-7.9c0.1,1,0.4,1.8,1.1,2.4c0.7,0.6,1.5,0.9,2.6,0.9c0.6,0,1.1-0.1,1.6-0.3s0.9-0.5,1.3-0.9
		l0.7,0.8c-0.4,0.5-0.9,0.9-1.6,1.2s-1.3,0.4-2.1,0.4c-1,0-1.8-0.2-2.6-0.6s-1.3-1-1.8-1.7c-0.4-0.7-0.6-1.6-0.6-2.5
		s0.2-1.8,0.6-2.5c0.4-0.7,1-1.3,1.7-1.7s1.5-0.6,2.4-0.6s1.7,0.2,2.4,0.6c0.7,0.4,1.2,1,1.6,1.7c0.4,0.7,0.6,1.6,0.6,2.5V164.5z
		 M145.5,161.3c-0.6,0.6-1,1.3-1.1,2.3h6.7c-0.1-0.9-0.4-1.7-1.1-2.3c-0.6-0.6-1.4-0.9-2.3-0.9C146.9,160.4,146.2,160.7,145.5,161.3
		z"/>
	<path class="st0" d="M164.5,160.4c0.7,0.7,1.1,1.7,1.1,3v5.5h-1.3v-5.4c0-1-0.2-1.7-0.7-2.3c-0.5-0.5-1.2-0.8-2.1-0.8
		c-1,0-1.8,0.3-2.4,0.9c-0.6,0.6-0.9,1.4-0.9,2.5v5h-1.3v-9.5h1.2v1.7c0.3-0.6,0.8-1,1.4-1.3c0.6-0.3,1.3-0.5,2.2-0.5
		C162.8,159.3,163.8,159.7,164.5,160.4z"/>
	<path class="st0" d="M175.8,168.3c-0.2,0.2-0.5,0.4-0.9,0.5s-0.7,0.2-1.1,0.2c-0.9,0-1.6-0.2-2.1-0.7s-0.7-1.2-0.7-2v-5.7h-1.7
		v-1.1h1.7v-2.1h1.3v2.1h2.9v1.1h-2.9v5.7c0,0.6,0.1,1,0.4,1.3c0.3,0.3,0.7,0.4,1.2,0.4c0.3,0,0.5,0,0.8-0.1
		c0.2-0.1,0.5-0.2,0.6-0.4L175.8,168.3z"/>
	<path class="st0" d="M181,168.3c-0.7-0.4-1.3-1-1.7-1.7s-0.6-1.6-0.6-2.5s0.2-1.8,0.6-2.5c0.4-0.7,1-1.3,1.7-1.7s1.6-0.6,2.5-0.6
		s1.7,0.2,2.5,0.6c0.7,0.4,1.3,1,1.7,1.7s0.6,1.6,0.6,2.5s-0.2,1.8-0.6,2.5c-0.4,0.7-1,1.3-1.7,1.7s-1.6,0.6-2.5,0.6
		S181.7,168.7,181,168.3z M185.3,167.4c0.5-0.3,1-0.7,1.3-1.3s0.4-1.2,0.4-1.9s-0.2-1.4-0.4-1.9c-0.3-0.6-0.7-1-1.3-1.3
		c-0.5-0.3-1.1-0.5-1.8-0.5s-1.3,0.2-1.8,0.5s-1,0.7-1.3,1.3s-0.5,1.2-0.5,1.9s0.2,1.4,0.5,1.9c0.3,0.6,0.7,1,1.3,1.3
		c0.5,0.3,1.1,0.5,1.8,0.5S184.7,167.7,185.3,167.4z"/>
</g>
<g>
	<path class="st0" d="M99.9,140.3c-35.2,0.2-64.4-29-64.5-64.4C35.3,40.5,64.2,11.1,99.5,11c36-0.1,64.6,28.2,65.2,63.3
		C165.2,111.2,136.5,140.1,99.9,140.3z M100.3,18.9C68.8,18.8,43.4,44,43.2,75.4C43,107,68.3,132.5,100,132.5
		c31.3,0.1,56.7-25.2,56.9-56.5C157,44.5,131.8,19,100.3,18.9z"/>
	<path class="st0" d="M77.9,40.7c0.4-0.1,0.5-0.2,0.6-0.2c11.1,0.1,22.3,0.1,33.4,0.4c11.7,0.3,18.5,9.6,18.6,19.9
		c0.1,10.5-4.3,18-13.2,20.9c-4,1.3-8.5,1.4-12.8,1.7c-4.1,0.3-8.2,0.1-12.5,0.1c0,8.7,0,17,0,25.6c-4.8,0-9.3,0-14.1,0
		C77.9,86.3,77.9,63.5,77.9,40.7z M92,52.2c0,6.8,0,12.9,0,19.6c5.5-0.3,10.8-0.3,16.1-0.9c4.8-0.5,7.7-4,7.9-8.6
		c0.2-4.6-2.7-8.7-7.4-9.3C103.2,52.4,97.7,52.4,92,52.2z"/>
</g>
</svg>
