<?xml version="1.0" encoding="utf-8"?>
<!-- Generator: Adobe Illustrator 22.1.0, SVG Export Plug-In . SVG Version: 6.00 Build 0)  -->
<svg version="1.1" id="Capa_1" xmlns="http://www.w3.org/2000/svg" xmlns:xlink="http://www.w3.org/1999/xlink" x="0px" y="0px"
	 viewBox="0 0 200 200" style="enable-background:new 0 0 200 200;" xml:space="preserve">
<style type="text/css">
	.st0{fill:#FFFFFF;}
</style>
<g>
	<path class="st0" d="M42.7,156.3H44v12.6h-1.3V156.3z"/>
	<path class="st0" d="M57.3,160.4c0.7,0.7,1.1,1.7,1.1,3v5.5h-1.3v-5.4c0-1-0.2-1.7-0.7-2.3c-0.5-0.5-1.2-0.8-2.1-0.8
		c-1,0-1.8,0.3-2.4,0.9c-0.6,0.6-0.9,1.4-0.9,2.5v5h-1.3v-9.5h1.2v1.7c0.3-0.6,0.8-1,1.4-1.3c0.6-0.3,1.3-0.5,2.2-0.5
		C55.7,159.3,56.6,159.7,57.3,160.4z"/>
	<path class="st0" d="M68.6,168.3c-0.2,0.2-0.5,0.4-0.9,0.5S67,169,66.6,169c-0.9,0-1.6-0.2-2.1-0.7s-0.7-1.2-0.7-2v-5.7h-1.7v-1.1
		h1.7v-2.1h1.3v2.1H68v1.1h-2.9v5.7c0,0.6,0.1,1,0.4,1.3s0.7,0.4,1.2,0.4c0.3,0,0.5,0,0.8-0.1c0.2-0.1,0.5-0.2,0.6-0.4L68.6,168.3z"
		/>
	<path class="st0" d="M80.6,164.5h-7.9c0.1,1,0.5,1.8,1.1,2.4c0.7,0.6,1.5,0.9,2.6,0.9c0.6,0,1.1-0.1,1.6-0.3s0.9-0.5,1.3-0.9
		l0.7,0.8c-0.4,0.5-0.9,0.9-1.6,1.2s-1.3,0.4-2.1,0.4c-1,0-1.8-0.2-2.6-0.6s-1.3-1-1.8-1.7c-0.4-0.7-0.6-1.6-0.6-2.5
		s0.2-1.8,0.6-2.5s1-1.3,1.7-1.7s1.5-0.6,2.4-0.6s1.7,0.2,2.4,0.6c0.7,0.4,1.2,1,1.6,1.7s0.6,1.6,0.6,2.5L80.6,164.5z M73.8,161.3
		c-0.6,0.6-1,1.3-1.1,2.3h6.7c-0.1-0.9-0.4-1.7-1.1-2.3c-0.6-0.6-1.4-0.9-2.3-0.9C75.2,160.4,74.4,160.7,73.8,161.3z"/>
	<path class="st0" d="M87.6,159.8c0.6-0.3,1.3-0.5,2.2-0.5v1.2h-0.3c-1,0-1.8,0.3-2.3,0.9c-0.6,0.6-0.8,1.5-0.8,2.6v4.8h-1.3v-9.5
		h1.2v1.9C86.6,160.6,87,160.1,87.6,159.8z"/>
	<path class="st0" d="M101.6,160.4c0.7,0.7,1.1,1.7,1.1,3v5.5h-1.3v-5.4c0-1-0.2-1.7-0.7-2.3c-0.5-0.5-1.2-0.8-2.1-0.8
		c-1,0-1.8,0.3-2.4,0.9c-0.6,0.6-0.9,1.4-0.9,2.5v5H94v-9.5h1.2v1.7c0.3-0.6,0.8-1,1.4-1.3s1.3-0.5,2.2-0.5
		C100,159.3,100.9,159.7,101.6,160.4z"/>
	<path class="st0" d="M116.2,164.5h-7.9c0.1,1,0.5,1.8,1.1,2.4c0.7,0.6,1.5,0.9,2.6,0.9c0.6,0,1.1-0.1,1.6-0.3s0.9-0.5,1.3-0.9
		l0.7,0.8c-0.4,0.5-0.9,0.9-1.6,1.2s-1.3,0.4-2.1,0.4c-1,0-1.8-0.2-2.6-0.6s-1.3-1-1.8-1.7c-0.4-0.7-0.6-1.6-0.6-2.5
		s0.2-1.8,0.6-2.5s1-1.3,1.7-1.7s1.5-0.6,2.4-0.6s1.7,0.2,2.4,0.6c0.7,0.4,1.2,1,1.6,1.7s0.6,1.6,0.6,2.5L116.2,164.5z M109.4,161.3
		c-0.6,0.6-1,1.3-1.1,2.3h6.7c-0.1-0.9-0.4-1.7-1.1-2.3c-0.6-0.6-1.4-0.9-2.3-0.9C110.7,160.4,110,160.7,109.4,161.3z"/>
	<path class="st0" d="M125.6,168.3c-0.2,0.2-0.5,0.4-0.9,0.5s-0.7,0.2-1.1,0.2c-0.9,0-1.6-0.2-2.1-0.7s-0.7-1.2-0.7-2v-5.7h-1.7
		v-1.1h1.7v-2.1h1.3v2.1h2.9v1.1h-2.9v5.7c0,0.6,0.1,1,0.4,1.3s0.7,0.4,1.2,0.4c0.3,0,0.5,0,0.8-0.1c0.2-0.1,0.5-0.2,0.6-0.4
		L125.6,168.3z"/>
	<path class="st0" d="M144.9,155.5v13.4h-1.2V167c-0.4,0.6-0.9,1.1-1.5,1.5c-0.6,0.3-1.3,0.5-2.1,0.5c-0.9,0-1.7-0.2-2.4-0.6
		c-0.7-0.4-1.3-1-1.7-1.7s-0.6-1.6-0.6-2.5s0.2-1.8,0.6-2.5c0.4-0.7,1-1.3,1.7-1.7s1.5-0.6,2.4-0.6c0.8,0,1.5,0.2,2.1,0.5
		s1.1,0.8,1.5,1.4v-5.7L144.9,155.5L144.9,155.5z M141.9,167.4c0.5-0.3,1-0.7,1.3-1.3s0.5-1.2,0.5-1.9s-0.2-1.4-0.5-1.9
		c-0.3-0.6-0.7-1-1.3-1.3c-0.5-0.3-1.1-0.5-1.8-0.5s-1.3,0.2-1.8,0.5s-1,0.7-1.3,1.3s-0.5,1.2-0.5,1.9s0.2,1.4,0.5,1.9
		c0.3,0.6,0.7,1,1.3,1.3c0.5,0.3,1.1,0.5,1.8,0.5C140.8,167.8,141.4,167.7,141.9,167.4z"/>
	<path class="st0" d="M158.5,164.5h-7.9c0.1,1,0.5,1.8,1.1,2.4c0.7,0.6,1.5,0.9,2.6,0.9c0.6,0,1.1-0.1,1.6-0.3s0.9-0.5,1.3-0.9
		l0.7,0.8c-0.4,0.5-0.9,0.9-1.6,1.2s-1.3,0.4-2.1,0.4c-1,0-1.8-0.2-2.6-0.6s-1.3-1-1.8-1.7c-0.4-0.7-0.6-1.6-0.6-2.5
		s0.2-1.8,0.6-2.5c0.4-0.7,1-1.3,1.7-1.7s1.5-0.6,2.4-0.6s1.7,0.2,2.4,0.6c0.7,0.4,1.2,1,1.6,1.7c0.4,0.7,0.6,1.6,0.6,2.5V164.5z
		 M151.6,161.3c-0.6,0.6-1,1.3-1.1,2.3h6.7c-0.1-0.9-0.4-1.7-1.1-2.3c-0.6-0.6-1.4-0.9-2.3-0.9C153,160.4,152.3,160.7,151.6,161.3z"
		/>
	<path class="st0" d="M33.7,187.1h-7l-1.5,3.4h-1.4l5.8-12.6h1.3l5.8,12.6h-1.4L33.7,187.1z M33.2,186l-3-6.8l-3,6.8H33.2z"/>
	<path class="st0" d="M40.3,177.1h1.3v13.4h-1.3V177.1z"/>
	<path class="st0" d="M51.9,189.9c-0.2,0.2-0.5,0.4-0.9,0.5s-0.7,0.2-1.1,0.2c-0.9,0-1.6-0.2-2.1-0.7s-0.7-1.2-0.7-2v-5.7h-1.7V181
		h1.7v-2.1h1.3v2.1h2.9v1.1h-2.9v5.7c0,0.6,0.1,1,0.4,1.3c0.3,0.3,0.7,0.4,1.2,0.4c0.3,0,0.5,0,0.8-0.1c0.2-0.1,0.5-0.2,0.6-0.4
		L51.9,189.9z"/>
	<path class="st0" d="M62.2,181.8c0.7,0.6,1,1.5,1,2.7v5.9H62V189c-0.3,0.5-0.7,0.9-1.3,1.2s-1.2,0.4-2,0.4c-1.1,0-1.9-0.3-2.5-0.8
		s-0.9-1.2-0.9-2s0.3-1.5,0.9-1.9c0.6-0.5,1.5-0.7,2.8-0.7h3v-0.6c0-0.8-0.2-1.4-0.7-1.9s-1.1-0.6-2-0.6c-0.6,0-1.2,0.1-1.7,0.3
		c-0.6,0.2-1,0.5-1.4,0.8l-0.6-1c0.5-0.4,1.1-0.7,1.7-0.9c0.7-0.2,1.4-0.3,2.1-0.3C60.6,180.9,61.5,181.2,62.2,181.8z M60.8,189
		c0.5-0.3,0.9-0.8,1.2-1.4v-1.5h-3c-1.6,0-2.4,0.6-2.4,1.7c0,0.6,0.2,1,0.6,1.3c0.4,0.3,1,0.5,1.8,0.5
		C59.6,189.5,60.3,189.4,60.8,189z"/>
	<path class="st0" d="M85.7,177.9l-5.6,12.6h-1.3l-5.6-12.6h1.4l4.8,10.9l4.9-10.9H85.7z"/>
	<path class="st0" d="M96.6,186.1h-7.9c0.1,1,0.5,1.8,1.1,2.4c0.7,0.6,1.5,0.9,2.6,0.9c0.6,0,1.1-0.1,1.6-0.3s0.9-0.5,1.3-0.9
		L96,189c-0.4,0.5-0.9,0.9-1.6,1.2s-1.3,0.4-2.1,0.4c-1,0-1.8-0.2-2.6-0.6s-1.3-1-1.8-1.7c-0.4-0.7-0.6-1.6-0.6-2.5s0.2-1.8,0.6-2.5
		s1-1.3,1.7-1.7s1.5-0.6,2.4-0.6s1.7,0.2,2.4,0.6c0.7,0.4,1.2,1,1.6,1.7s0.6,1.6,0.6,2.5V186.1z M89.7,182.9c-0.6,0.6-1,1.3-1.1,2.3
		h6.7c-0.1-0.9-0.4-1.7-1.1-2.3c-0.6-0.6-1.4-0.9-2.3-0.9C91.1,182,90.4,182.3,89.7,182.9z"/>
	<path class="st0" d="M101,177.1h1.3v13.4H101V177.1z"/>
	<path class="st0" d="M109.1,189.9c-0.7-0.4-1.3-1-1.7-1.7c-0.4-0.7-0.6-1.6-0.6-2.5s0.2-1.8,0.6-2.5s1-1.3,1.7-1.7s1.6-0.6,2.5-0.6
		s1.7,0.2,2.5,0.6c0.7,0.4,1.3,1,1.7,1.7c0.4,0.7,0.6,1.6,0.6,2.5s-0.2,1.8-0.6,2.5s-1,1.3-1.7,1.7s-1.6,0.6-2.5,0.6
		S109.8,190.3,109.1,189.9z M113.4,189c0.5-0.3,1-0.7,1.3-1.3s0.5-1.2,0.5-1.9s-0.2-1.4-0.5-1.9c-0.3-0.6-0.7-1-1.3-1.3
		c-0.5-0.3-1.1-0.5-1.8-0.5s-1.3,0.2-1.8,0.5s-1,0.7-1.3,1.3s-0.5,1.2-0.5,1.9s0.2,1.4,0.5,1.9c0.3,0.6,0.7,1,1.3,1.3
		c0.5,0.3,1.1,0.5,1.8,0.5S112.8,189.3,113.4,189z"/>
	<path class="st0" d="M122.2,189.9c-0.7-0.4-1.3-1-1.7-1.7c-0.4-0.7-0.6-1.6-0.6-2.5s0.2-1.8,0.6-2.5s1-1.3,1.7-1.7s1.6-0.6,2.5-0.6
		c0.8,0,1.5,0.2,2.2,0.5c0.6,0.3,1.1,0.8,1.5,1.4l-1,0.6c-0.3-0.5-0.7-0.8-1.2-1.1c-0.5-0.2-1-0.4-1.6-0.4c-0.7,0-1.3,0.2-1.8,0.5
		s-1,0.7-1.3,1.3s-0.5,1.2-0.5,1.9s0.2,1.4,0.5,1.9c0.3,0.6,0.7,1,1.3,1.3s1.2,0.5,1.8,0.5c0.6,0,1.1-0.1,1.6-0.3s0.9-0.6,1.2-1
		l1,0.6c-0.4,0.6-0.9,1.1-1.5,1.4c-0.6,0.3-1.4,0.5-2.2,0.5C123.8,190.5,122.9,190.3,122.2,189.9z"/>
	<path class="st0" d="M132.7,178.6c-0.2-0.2-0.3-0.4-0.3-0.6c0-0.2,0.1-0.5,0.3-0.6c0.2-0.2,0.4-0.3,0.7-0.3s0.5,0.1,0.7,0.3
		s0.3,0.4,0.3,0.6c0,0.3-0.1,0.5-0.3,0.7s-0.4,0.3-0.7,0.3C133.1,178.9,132.9,178.8,132.7,178.6z M132.7,181h1.3v9.5h-1.3V181z"/>
	<path class="st0" d="M148,177.1v13.4h-1.2v-1.9c-0.4,0.6-0.9,1.1-1.5,1.5c-0.6,0.3-1.3,0.5-2.1,0.5c-0.9,0-1.7-0.2-2.4-0.6
		c-0.7-0.4-1.3-1-1.7-1.7s-0.6-1.6-0.6-2.5s0.2-1.8,0.6-2.5c0.4-0.7,1-1.3,1.7-1.7s1.5-0.6,2.4-0.6c0.8,0,1.5,0.2,2.1,0.5
		s1.1,0.8,1.5,1.4v-5.7L148,177.1L148,177.1z M145,189c0.5-0.3,1-0.7,1.3-1.3s0.5-1.2,0.5-1.9s-0.2-1.4-0.5-1.9
		c-0.3-0.6-0.7-1-1.3-1.3c-0.5-0.3-1.1-0.5-1.8-0.5s-1.3,0.2-1.8,0.5s-1,0.7-1.3,1.3s-0.5,1.2-0.5,1.9s0.2,1.4,0.5,1.9
		c0.3,0.6,0.7,1,1.3,1.3c0.5,0.3,1.1,0.5,1.8,0.5C143.9,189.4,144.5,189.3,145,189z"/>
	<path class="st0" d="M159.5,181.8c0.7,0.6,1,1.5,1,2.7v5.9h-1.2V189c-0.3,0.5-0.7,0.9-1.3,1.2s-1.2,0.4-2,0.4
		c-1.1,0-1.9-0.3-2.5-0.8s-0.9-1.2-0.9-2s0.3-1.5,0.9-1.9c0.6-0.5,1.5-0.7,2.8-0.7h3v-0.6c0-0.8-0.2-1.4-0.7-1.9s-1.1-0.6-2-0.6
		c-0.6,0-1.2,0.1-1.7,0.3c-0.6,0.2-1,0.5-1.4,0.8l-0.6-1c0.5-0.4,1.1-0.7,1.7-0.9c0.7-0.2,1.4-0.3,2.1-0.3
		C157.9,180.9,158.8,181.2,159.5,181.8z M158.1,189c0.5-0.3,0.9-0.8,1.2-1.4v-1.5h-3c-1.6,0-2.4,0.6-2.4,1.7c0,0.6,0.2,1,0.6,1.3
		c0.4,0.3,1,0.5,1.8,0.5C156.9,189.5,157.5,189.4,158.1,189z"/>
	<path class="st0" d="M174.4,177.1v13.4h-1.2v-1.9c-0.4,0.6-0.9,1.1-1.5,1.5c-0.6,0.3-1.3,0.5-2.1,0.5c-0.9,0-1.7-0.2-2.4-0.6
		c-0.7-0.4-1.3-1-1.7-1.7s-0.6-1.6-0.6-2.5s0.2-1.8,0.6-2.5c0.4-0.7,1-1.3,1.7-1.7s1.5-0.6,2.4-0.6c0.8,0,1.5,0.2,2.1,0.5
		s1.1,0.8,1.5,1.4v-5.7L174.4,177.1L174.4,177.1z M171.5,189c0.5-0.3,1-0.7,1.3-1.3s0.5-1.2,0.5-1.9s-0.2-1.4-0.5-1.9
		c-0.3-0.6-0.7-1-1.3-1.3c-0.5-0.3-1.1-0.5-1.8-0.5s-1.3,0.2-1.8,0.5s-1,0.7-1.3,1.3s-0.5,1.2-0.5,1.9s0.2,1.4,0.5,1.9
		c0.3,0.6,0.7,1,1.3,1.3c0.5,0.3,1.1,0.5,1.8,0.5C170.3,189.4,170.9,189.3,171.5,189z"/>
</g>
<g>
	<path class="st0" d="M105.1,147c-3.6,0-7.3,0-10.9,0c-0.6-0.2-1.1-0.4-1.7-0.5c-28.2-3.9-47.2-19.4-56.9-46
		c-1.9-5.2-2.5-10.9-3.7-16.4c0-3.4,0-6.9,0-10.3c0.2-0.8,0.4-1.5,0.5-2.3C36.2,44.1,51,25.2,76.7,15.2c5.7-2.2,12-2.9,18-4.3
		c3.6,0,7.3,0,10.9,0c0.6,0.2,1.1,0.4,1.7,0.5c26.8,2.8,49.9,21.8,57.5,47.7c1.4,4.8,2.1,9.8,3.1,14.7c0,3.4,0,6.9,0,10.3
		c-0.2,0.8-0.4,1.5-0.5,2.3c-3.8,27.4-18.6,46.3-44.3,56.3C117.5,144.9,111.2,145.6,105.1,147z M70.4,56.4c-0.8,6-1.5,11.8-2.3,17.9
		c9.4,0,18.3,0,27.2,0c0-6,0-11.9,0-17.9C87,56.4,79,56.4,70.4,56.4z M68,83.6c0.8,5.8,1.5,11.2,2.5,16.6c0.1,0.6,1.4,1.3,2.1,1.4
		c3.6,0.1,7.2,0.1,10.9,0.1c4,0,8,0,11.8,0c0-6.3,0-12.2,0-18.1C86.2,83.6,77.5,83.6,68,83.6z M104.8,83.7c0,6.1,0,12,0,17.9
		c8.3,0,16.3,0,24.8,0c0.8-5.9,1.6-11.8,2.4-17.9C122.6,83.7,113.8,83.7,104.8,83.7z M104.7,56.5c0,6.1,0,11.9,0,17.8
		c9,0,17.9,0,27.3,0c-0.8-6.1-1.6-12-2.4-17.8C120.9,56.5,112.9,56.5,104.7,56.5z M95.3,47.2c0-9,0-17.6,0-26.3
		c-9.2,2.4-20.5,16.3-21.6,26.3C80.8,47.2,87.9,47.2,95.3,47.2z M104.5,110.8c0,4.6,0,8.9,0,13.2c0,4.4,0,8.7,0,13.2
		c9.4-2.4,20.6-16.2,21.8-26.4C119.2,110.8,112.1,110.8,104.5,110.8z M104.7,20.5c0,9.2,0,17.9,0,26.5c7.4,0,14.5,0,22.1,0
		C122.3,35.7,117.1,25.4,104.7,20.5z M73.2,110.9c4.5,11.4,9.7,21.8,22.1,26.6c0-9.1,0-17.8,0-26.6C88,110.9,80.9,110.9,73.2,110.9z
		 M40.6,74.3c6.8,0,12.6,0,18.5,0c0.7-6,1.5-11.9,2.2-17.9c-4.6,0-9.1,0.1-13.6,0c-1.8-0.1-2.6,0.6-3,2.2
		C43.4,63.6,42.1,68.7,40.6,74.3z M140.9,74.2c6,0,11.9,0,18.5,0c-1.5-5.6-2.8-10.8-4.2-16c-0.2-0.7-1-1.8-1.6-1.8
		c-5-0.1-10-0.1-14.8-0.1C139.5,62.5,140.2,68.3,140.9,74.2z M61.3,101.7c-0.8-6.3-1.5-12.1-2.2-17.9c-6.1,0-11.9,0-18.5,0
		c1.4,5.5,2.7,10.7,4.2,15.8c0.2,0.8,1.3,2,2,2C51.6,101.7,56.5,101.7,61.3,101.7z M138.7,101.7c4.8,0,9.7,0,14.5-0.1
		c0.6,0,1.5-0.7,1.7-1.2c1.6-5.4,3-10.9,4.6-16.7c-6.8,0-12.7,0-18.5,0C140.2,89.7,139.5,95.4,138.7,101.7z M126.5,131.7
		c9.3-4.7,17.1-11.4,23.1-20.8c-4.8,0-9,0-12.9,0C133.2,118,129.8,124.8,126.5,131.7z M50.3,47.3c4.2,0,7.8-0.1,11.3,0
		c1.9,0.1,2.5-0.7,3.1-2.3c1.9-4.6,4.1-9.2,6.2-13.7c0.8-1.7,2-3.2,3.3-5.5C64.2,31.1,56.5,37.8,50.3,47.3z M149.7,47.1
		c-6.3-9.3-13.8-16.1-23.1-20.7c3.3,6.8,6.6,13.6,10,20.7C140.5,47.1,144.7,47.1,149.7,47.1z M50.3,110.7
		c6.2,9.4,13.8,16.2,22.9,20.7c-2.9-6.3-5.8-12.9-8.8-19.3c-0.3-0.7-1.4-1.3-2.2-1.3C58.4,110.7,54.7,110.7,50.3,110.7z"/>
</g>
</svg>
