<?xml version="1.0" encoding="utf-8"?>
<!-- Generator: Adobe Illustrator 22.1.0, SVG Export Plug-In . SVG Version: 6.00 Build 0)  -->
<svg version="1.1" id="Capa_1" xmlns="http://www.w3.org/2000/svg" xmlns:xlink="http://www.w3.org/1999/xlink" x="0px" y="0px"
	 viewBox="0 0 200 200" style="enable-background:new 0 0 200 200;" xml:space="preserve">
<style type="text/css">
	.st0{fill:#FFFFFF;}
</style>
<path class="st0" d="M147.8,11.5c-0.1-1.1-0.7-1.9-1.8-2.4c-1.1-0.4-2.2-0.9-3.3-1.3c-4-1.3-7.9-1.3-11.6,1.1
	c-2.6,1.7-4.4,4-5.9,6.6c-2.5,4.3-4,8.9-5.3,13.6c-1.1,4.1-1.4,8.1,0.8,12c0.7,1.2,0.8,2.7,0.5,4c-0.7,3.5-1.5,7-2.3,10.5
	c-0.1,0.3-0.5,0.5-0.8,0.6c-2.4,0.8-4.8,1.4-7.2,2.4c-4.4,1.8-8.6,3.8-12.9,5.8c-3.9,1.8-7.6,3.9-11.2,6.3c-2.7,1.9-5.2,4.1-7.4,6.7
	c-3.2,3.6-5.7,7.6-7,12.2c-0.2,0-0.4,0-0.6,0c-3.8,0.4-7.6,0.6-11.4,1.1c-2.3,0.3-4.7,0.9-6.7,2.2c-1.4,0.8-2.2,2-2.2,3.7
	c0,2,0,4.1,0.3,6.1c0.7,4.2,2.4,7.3,6.7,9.6c0.1,0,1.6,0.7,10.5,0.7c5.1,0,10.2,0.1,15.4,0.1c0.7,0,0.9,0.3,0.9,0.9
	c0,3.9,0,7.8,0,11.7c0,0.6-0.2,0.9-0.8,1.1c-3,1-6,2-9,3c-4.4,1.5-8.8,3-13.2,4.5c-0.3,0.1-0.7,0.4-0.7,0.6c0,2.2,0,4.5,0,6.9
	c0.5,0,0.8,0,1.1,0c18.9,0,37.9,0,56.8,0c0.4,0,0.8,0,1.2,0c0.5,0,0.7-0.2,0.7-0.7c0-1.6,0.1-3.1,0.1-4.7c0-1.6-0.3-2-1.9-2.6
	c-7-2.4-14-4.7-21-7c-0.6-0.2-0.9-0.5-0.9-1.2c0-3.9,0-7.8,0-11.7c0-0.3,0-0.6,0.1-0.9c0.5,0,0.9,0,1.4,0c6.2-0.2,12.3-0.5,18.5-0.7
	c1.4-0.1,1.3-0.1,1.8,1.2c1.2,3.2,2.6,6.3,4.5,9.1c1.4,2.1,3.4,3.5,5.9,4.1c3.7,0.9,7.4,1,11.1,0.8c0.6,0,1.2-0.1,1.9-0.2
	c-0.1-1-0.2-1.8-0.3-2.8c-0.7,0-1.3,0.1-1.9,0.1c-3,0.2-6,0.1-8.9-0.4c-2.6-0.4-4.6-1.6-5.8-3.9c-1-1.8-1.9-3.7-2.8-5.6
	c-0.5-0.9-0.8-1.9-1.1-2.9c0.2-0.1,0.2-0.2,0.3-0.2c2.1-0.7,3.4-2.1,3.8-4.3c0.3-1.3,1-2.3,1.8-3.2c0.5-0.6,1.1-1.4,1.3-2.1
	c1.1-3.4,2.2-6.7,3.2-10.1c4.3-16,8.1-32.2,11.4-48.5c1.7-8.6,3.4-17.2,4.1-26C148,15.6,147.9,13.6,147.8,11.5z M76,88
	c2.1-5,5.5-9.1,9.7-12.6c3.7-3.2,7.8-5.6,12.2-7.7c6.2-3.1,12.4-5.9,19-8c0.4-0.1,0.8-0.2,1.3-0.4c-0.3,1.4-0.6,2.7-0.9,4
	c-0.1,0.2-0.4,0.4-0.6,0.5c-7.8,2.3-15.1,5.7-22,9.9c-4.9,2.9-8.8,6.8-11.5,11.9c-0.6,1.1-1,2.4-1.5,3.5c-0.1,0.2-0.3,0.5-0.5,0.5
	c-1.8,0-3.6,0-5.6,0C75.6,89,75.8,88.5,76,88z M116.5,66.8c-1.7,8.4-3.4,16.7-5.1,25c-9-0.8-18-1.5-27-2.2c0.1-0.4,0.3-0.9,0.5-1.3
	c2.1-4.6,5.3-8.2,9.4-11c6.6-4.6,13.9-7.7,21.5-10.3C116,66.9,116.1,66.9,116.5,66.8z M117.2,136.3c1.4,0.5,1.3,0.1,1.3,1.8
	c0,0.3,0,0.6,0,1H64.3c0-0.7-0.1-1.3,0-2c0-0.2,0.4-0.5,0.7-0.6c6.4-2.2,12.7-4.3,19.1-6.5c1-0.3,2-0.7,3-1c0.7-0.2,0.9-0.5,0.9-1.2
	c0-4.4,0-8.8,0-13.3c0-0.4,0-0.8,0-1.2c0.8,0,1.5-0.1,2.3-0.1c1.2,0,2.5,0,3.7,0c0.7,0,0.8,0.2,0.8,0.9c0,4.2,0,8.5,0,12.7
	c0,1.7,0.3,2.1,1.9,2.6C103.5,131.7,110.4,134,117.2,136.3z M145.2,14.2c-0.2,2.6-0.4,5.3-0.7,7.9c-1.5,10.8-3.6,21.5-6.1,32.2
	c-2.9,12.8-6.1,25.6-9.2,38.4c-0.7,2.7-1.6,5.3-2.4,8c-0.2,0.7-0.7,1.3-1.1,1.8c-1.1,1.3-2.1,2.7-2.4,4.4c-0.3,1.5-1.3,2.3-2.7,2.5
	c-3.3,0.3-6.6,0.6-10,0.7c-4.1,0.2-8.2,0.3-12.3,0.3c-4.1,0-8.2-0.1-12.3-0.1c-5.3,0-10.6,0.1-15.9,0.1c-3.1,0-6.3,0-9.4-0.2
	c-1.6-0.1-2.7-1.2-3.6-2.3c-2.2-2.5-2.8-5.5-3-8.6c0-0.5,0-1.1,0-1.6c-0.1-1.4,0.6-2.1,1.7-2.6c2.3-1,4.7-1.4,7.1-1.7
	c8.7-1,17.5-1.1,26.3-0.5c7.8,0.5,15.6,1.3,23.4,2c0.3,0,0.6,0,1,0.1c0.5-2.7,1-5.3,1.6-7.8c2.7-12.8,5.5-25.7,8.2-38.5
	c0.3-1.5,0.6-3,0.6-4.5c0-1.4-0.2-2.9-0.8-4.1c-1.6-3-1.6-6.1-0.7-9.3c1.3-5.2,2.9-10.3,5.9-14.9c1.7-2.6,3.9-4.8,7.1-5.7
	c2.7-0.7,5.2,0,7.7,0.9C145.1,11.9,145.4,12,145.2,14.2z"/>
<g>
	<path class="st0" d="M62.5,156.3v12.6h-1.3v-10.1l-4.9,8.5h-0.6l-4.9-8.4v10h-1.3v-12.6h1.1l5.5,9.3l5.4-9.3H62.5z"/>
	<path class="st0" d="M69.6,168.3c-0.7-0.4-1.3-1-1.7-1.7c-0.4-0.7-0.6-1.6-0.6-2.5s0.2-1.8,0.6-2.5s1-1.3,1.7-1.7s1.6-0.6,2.5-0.6
		s1.7,0.2,2.5,0.6c0.7,0.4,1.3,1,1.7,1.7c0.4,0.7,0.6,1.6,0.6,2.5s-0.2,1.8-0.6,2.5s-1,1.3-1.7,1.7s-1.6,0.6-2.5,0.6
		S70.3,168.7,69.6,168.3z M73.8,167.4c0.5-0.3,1-0.7,1.3-1.3s0.5-1.2,0.5-1.9s-0.2-1.4-0.5-1.9c-0.3-0.6-0.7-1-1.3-1.3
		c-0.5-0.3-1.1-0.5-1.8-0.5s-1.3,0.2-1.8,0.5s-1,0.7-1.3,1.3s-0.5,1.2-0.5,1.9s0.2,1.4,0.5,1.9c0.3,0.6,0.7,1,1.3,1.3
		c0.5,0.3,1.1,0.5,1.8,0.5S73.3,167.7,73.8,167.4z"/>
	<path class="st0" d="M88.5,159.9c0.7,0.4,1.3,1,1.7,1.7c0.4,0.7,0.6,1.6,0.6,2.5s-0.2,1.8-0.6,2.5s-1,1.3-1.7,1.7s-1.5,0.6-2.4,0.6
		c-0.8,0-1.5-0.2-2.1-0.5s-1.1-0.8-1.5-1.5v1.9h-1.2v-13.4h1.3v5.7c0.4-0.6,0.9-1.1,1.5-1.4c0.6-0.3,1.3-0.5,2.1-0.5
		C87,159.3,87.8,159.5,88.5,159.9z M87.8,167.4c0.5-0.3,1-0.7,1.3-1.3s0.5-1.2,0.5-1.9s-0.2-1.4-0.5-1.9c-0.3-0.6-0.7-1-1.3-1.3
		c-0.5-0.3-1.1-0.5-1.8-0.5c-0.7,0-1.3,0.2-1.8,0.5s-1,0.7-1.3,1.3s-0.5,1.2-0.5,1.9s0.2,1.4,0.5,1.9c0.3,0.6,0.7,1,1.3,1.3
		c0.5,0.3,1.1,0.5,1.8,0.5C86.7,167.8,87.3,167.7,87.8,167.4z"/>
	<path class="st0" d="M95.2,157c-0.2-0.2-0.3-0.4-0.3-0.6c0-0.2,0.1-0.5,0.3-0.6c0.2-0.2,0.4-0.3,0.7-0.3c0.3,0,0.5,0.1,0.7,0.3
		s0.3,0.4,0.3,0.6c0,0.3-0.1,0.5-0.3,0.7c-0.2,0.2-0.4,0.3-0.7,0.3C95.6,157.3,95.4,157.2,95.2,157z M95.2,159.4h1.3v9.5h-1.3V159.4
		z"/>
	<path class="st0" d="M101.9,155.5h1.3v13.4h-1.3V155.5z"/>
	<path class="st0" d="M108.5,157c-0.2-0.2-0.3-0.4-0.3-0.6c0-0.2,0.1-0.5,0.3-0.6c0.2-0.2,0.4-0.3,0.7-0.3c0.3,0,0.5,0.1,0.7,0.3
		s0.3,0.4,0.3,0.6c0,0.3-0.1,0.5-0.3,0.7c-0.2,0.2-0.4,0.3-0.7,0.3C108.9,157.3,108.7,157.2,108.5,157z M108.5,159.4h1.3v9.5h-1.3
		V159.4z"/>
	<path class="st0" d="M121.3,160.2c0.7,0.6,1,1.5,1,2.7v5.9h-1.2v-1.5c-0.3,0.5-0.7,0.9-1.3,1.2c-0.6,0.3-1.2,0.4-2,0.4
		c-1.1,0-1.9-0.3-2.5-0.8s-0.9-1.2-0.9-2s0.3-1.5,0.9-1.9c0.6-0.5,1.5-0.7,2.8-0.7h3v-0.6c0-0.8-0.2-1.4-0.7-1.9s-1.1-0.6-2-0.6
		c-0.6,0-1.2,0.1-1.7,0.3c-0.6,0.2-1,0.5-1.4,0.8l-0.6-1c0.5-0.4,1.1-0.7,1.7-0.9c0.7-0.2,1.4-0.3,2.1-0.3
		C119.7,159.3,120.7,159.6,121.3,160.2z M119.9,167.4c0.5-0.3,0.9-0.8,1.2-1.4v-1.5h-3c-1.6,0-2.4,0.6-2.4,1.7c0,0.6,0.2,1,0.6,1.3
		s1,0.5,1.8,0.5C118.8,167.9,119.4,167.8,119.9,167.4z"/>
	<path class="st0" d="M130.2,159.8c0.6-0.3,1.3-0.5,2.2-0.5v1.2h-0.3c-1,0-1.8,0.3-2.3,0.9c-0.6,0.6-0.8,1.5-0.8,2.6v4.8h-1.3v-9.5
		h1.2v1.9C129.1,160.6,129.6,160.1,130.2,159.8z"/>
	<path class="st0" d="M136.4,157c-0.2-0.2-0.3-0.4-0.3-0.6c0-0.2,0.1-0.5,0.3-0.6c0.2-0.2,0.4-0.3,0.7-0.3s0.5,0.1,0.7,0.3
		s0.3,0.4,0.3,0.6c0,0.3-0.1,0.5-0.3,0.7s-0.4,0.3-0.7,0.3C136.9,157.3,136.6,157.2,136.4,157z M136.5,159.4h1.3v9.5h-1.3V159.4z"/>
	<path class="st0" d="M144.5,168.3c-0.7-0.4-1.3-1-1.7-1.7s-0.6-1.6-0.6-2.5s0.2-1.8,0.6-2.5c0.4-0.7,1-1.3,1.7-1.7s1.6-0.6,2.5-0.6
		s1.7,0.2,2.5,0.6c0.7,0.4,1.3,1,1.7,1.7s0.6,1.6,0.6,2.5s-0.2,1.8-0.6,2.5c-0.4,0.7-1,1.3-1.7,1.7s-1.6,0.6-2.5,0.6
		S145.2,168.7,144.5,168.3z M148.8,167.4c0.5-0.3,1-0.7,1.3-1.3s0.5-1.2,0.5-1.9s-0.2-1.4-0.5-1.9c-0.3-0.6-0.7-1-1.3-1.3
		c-0.5-0.3-1.1-0.5-1.8-0.5s-1.3,0.2-1.8,0.5s-1,0.7-1.3,1.3s-0.5,1.2-0.5,1.9s0.2,1.4,0.5,1.9c0.3,0.6,0.7,1,1.3,1.3
		c0.5,0.3,1.1,0.5,1.8,0.5S148.3,167.7,148.8,167.4z"/>
	<path class="st0" d="M40.5,177.9v12.6h-1.3v-5.8h-7.9v5.8H30v-12.6h1.3v5.6h7.9v-5.6H40.5z"/>
	<path class="st0" d="M54.4,186.1h-7.9c0.1,1,0.5,1.8,1.1,2.4c0.7,0.6,1.5,0.9,2.6,0.9c0.6,0,1.1-0.1,1.6-0.3s0.9-0.5,1.3-0.9
		l0.7,0.8c-0.4,0.5-0.9,0.9-1.6,1.2s-1.3,0.4-2.1,0.4c-1,0-1.8-0.2-2.6-0.6s-1.3-1-1.8-1.7c-0.4-0.7-0.6-1.6-0.6-2.5
		s0.2-1.8,0.6-2.5c0.4-0.7,1-1.3,1.7-1.7s1.5-0.6,2.4-0.6s1.7,0.2,2.4,0.6c0.7,0.4,1.2,1,1.6,1.7c0.4,0.7,0.6,1.6,0.6,2.5V186.1z
		 M47.5,182.9c-0.6,0.6-1,1.3-1.1,2.3h6.7c-0.1-0.9-0.4-1.7-1.1-2.3c-0.6-0.6-1.4-0.9-2.3-0.9C48.9,182,48.2,182.3,47.5,182.9z"/>
	<path class="st0" d="M61.4,181.4c0.6-0.3,1.3-0.5,2.2-0.5v1.2h-0.3c-1,0-1.8,0.3-2.3,0.9c-0.6,0.6-0.8,1.5-0.8,2.6v4.8h-1.3V181
		h1.2v1.9C60.4,182.2,60.8,181.7,61.4,181.4z"/>
	<path class="st0" d="M82.3,181.9c0.7,0.7,1,1.7,1,3v5.5H82V185c0-1-0.2-1.7-0.7-2.3c-0.5-0.5-1.1-0.8-2-0.8c-1,0-1.8,0.3-2.3,0.9
		c-0.6,0.6-0.8,1.4-0.8,2.5v5h-1.3v-5.4c0-1-0.2-1.7-0.7-2.3c-0.5-0.5-1.1-0.8-2-0.8c-1,0-1.7,0.3-2.3,0.9c-0.6,0.6-0.9,1.4-0.9,2.5
		v5h-1.3V181h1.2v1.7c0.3-0.6,0.8-1,1.4-1.3s1.3-0.5,2.1-0.5c0.8,0,1.5,0.2,2.1,0.5s1,0.8,1.3,1.5c0.3-0.6,0.8-1.1,1.5-1.5
		s1.4-0.5,2.2-0.5C80.7,180.9,81.6,181.3,82.3,181.9z"/>
	<path class="st0" d="M94.8,181.8c0.7,0.6,1,1.5,1,2.7v5.9h-1.2V189c-0.3,0.5-0.7,0.9-1.3,1.2c-0.6,0.3-1.2,0.4-2,0.4
		c-1.1,0-1.9-0.3-2.5-0.8s-0.9-1.2-0.9-2s0.3-1.5,0.9-1.9c0.6-0.5,1.5-0.7,2.8-0.7h3v-0.6c0-0.8-0.2-1.4-0.7-1.9s-1.1-0.6-2-0.6
		c-0.6,0-1.2,0.1-1.7,0.3c-0.6,0.2-1,0.5-1.4,0.8l-0.6-1c0.5-0.4,1.1-0.7,1.7-0.9c0.7-0.2,1.4-0.3,2.1-0.3
		C93.2,180.9,94.1,181.2,94.8,181.8z M93.3,189c0.5-0.3,0.9-0.8,1.2-1.4v-1.5h-3c-1.6,0-2.4,0.6-2.4,1.7c0,0.6,0.2,1,0.6,1.3
		s1,0.5,1.8,0.5C92.2,189.5,92.8,189.4,93.3,189z"/>
	<path class="st0" d="M108.7,182c0.7,0.7,1.1,1.7,1.1,3v5.5h-1.3v-5.4c0-1-0.2-1.7-0.7-2.3c-0.5-0.5-1.2-0.8-2.1-0.8
		c-1,0-1.8,0.3-2.4,0.9c-0.6,0.6-0.9,1.4-0.9,2.5v5H101V181h1.2v1.7c0.3-0.6,0.8-1,1.4-1.3s1.3-0.5,2.2-0.5
		C107,180.9,108,181.3,108.7,182z"/>
	<path class="st0" d="M128.4,177.9v12.6h-1.3v-10.1l-4.9,8.5h-0.6l-4.9-8.4v10h-1.3v-12.6h1.1l5.5,9.3l5.4-9.3H128.4z"/>
	<path class="st0" d="M134,178.6c-0.2-0.2-0.3-0.4-0.3-0.6c0-0.2,0.1-0.5,0.3-0.6c0.2-0.2,0.4-0.3,0.7-0.3s0.5,0.1,0.7,0.3
		s0.3,0.4,0.3,0.6c0,0.3-0.1,0.5-0.3,0.7s-0.4,0.3-0.7,0.3C134.4,178.9,134.2,178.8,134,178.6z M134,181h1.3v9.5H134V181z"/>
	<path class="st0" d="M140.7,177.1h1.3v13.4h-1.3V177.1z"/>
	<path class="st0" d="M147.3,177.1h1.3v13.4h-1.3V177.1z"/>
	<path class="st0" d="M162.2,186.1h-7.9c0.1,1,0.5,1.8,1.1,2.4c0.7,0.6,1.5,0.9,2.6,0.9c0.6,0,1.1-0.1,1.6-0.3s0.9-0.5,1.3-0.9
		l0.7,0.8c-0.4,0.5-0.9,0.9-1.6,1.2s-1.3,0.4-2.1,0.4c-1,0-1.8-0.2-2.6-0.6s-1.3-1-1.8-1.7c-0.4-0.7-0.6-1.6-0.6-2.5
		s0.2-1.8,0.6-2.5c0.4-0.7,1-1.3,1.7-1.7s1.5-0.6,2.4-0.6s1.7,0.2,2.4,0.6c0.7,0.4,1.2,1,1.6,1.7c0.4,0.7,0.6,1.6,0.6,2.5V186.1z
		 M155.3,182.9c-0.6,0.6-1,1.3-1.1,2.3h6.7c-0.1-0.9-0.4-1.7-1.1-2.3c-0.6-0.6-1.4-0.9-2.3-0.9C156.7,182,155.9,182.3,155.3,182.9z"
		/>
	<path class="st0" d="M169.2,181.4c0.6-0.3,1.3-0.5,2.2-0.5v1.2h-0.3c-1,0-1.8,0.3-2.3,0.9c-0.6,0.6-0.8,1.5-0.8,2.6v4.8h-1.3V181
		h1.2v1.9C168.1,182.2,168.6,181.7,169.2,181.4z"/>
</g>
</svg>
