<?xml version="1.0" encoding="utf-8"?>
<!-- Generator: Adobe Illustrator 22.1.0, SVG Export Plug-In . SVG Version: 6.00 Build 0)  -->
<svg version="1.1" id="Capa_1" xmlns="http://www.w3.org/2000/svg" xmlns:xlink="http://www.w3.org/1999/xlink" x="0px" y="0px"
	 viewBox="0 0 818 762" style="enable-background:new 0 0 818 762;" xml:space="preserve">
<style type="text/css">
	.st0{fill-rule:evenodd;clip-rule:evenodd;fill:#FFFFFF;}
</style>
<g>
	<g>
		<path class="st0" d="M142.9,696.7h-27.7c0-12.6,5.2-19.4,14.1-19.4C137.7,677.3,142.9,685.2,142.9,696.7L142.9,696.7L142.9,696.7z
			 M158.6,708.2c0-1,0-2.1,0-3.1c0-16.2-3.1-25.1-8.9-31.4c-4.7-5.2-12-7.8-20.4-7.8c-9.4,0-16.7,3.1-22.5,9.9
			c-5.8,6.8-8.9,15.7-8.9,28.3c0,24.1,12.6,38.7,33.5,38.7c9.9,0,18.8-3.7,26.2-9.9l-5.8-9.4c-5.8,4.7-11.5,7.3-18.3,7.3
			c-6.8,0-12-2.6-15.7-7.9c-2.1-3.1-3.1-8.4-3.1-13.6v-1H158.6L158.6,708.2z"/>
		<path class="st0" d="M363.7,706.1l-0.5,17.3c-3.1,5.2-8.4,8.4-14.1,8.4c-6.8,0-10.5-4.2-10.5-11.5c0-4.2,1-7.3,3.7-9.9
			c3.1-3.1,8.4-4.2,17.8-4.2C361.1,706.1,362.2,706.1,363.7,706.1L363.7,706.1L363.7,706.1z M384.7,733.9c-5.2-3.1-6.3-6.3-6.3-14.7
			c0-1,0-1.6,0-2.1v-22v-4.7c0-6.8,0-9.4-1-12.6c-2.6-7.8-11-12-22-12c-6.3,0-13.1,1-19.4,4.2c-4.2,2.1-7.9,3.1-11.5,5.8l6.8,11
			c3.1-2.1,5.2-3.1,8.9-5.2c4.7-2.1,9.4-3.1,13.1-3.1c4.2,0,6.8,1,8.4,3.1c1.6,2.1,2.1,4.7,2.1,9.9v4.2c-2.1,0-3.1,0-4.7,0
			c-24.1,0-36.6,8.4-36.6,25.6c0,5.2,1.6,12,5.8,15.7c4.2,3.7,9.4,5.8,18.3,5.8c6.3,0,11-1.6,15.7-4.2c1.6-1.6,2.1-2.6,4.2-4.7
			c1.6,4.7,5.8,8.4,10.5,9.9L384.7,733.9L384.7,733.9z"/>
		<path class="st0" d="M732.1,696.7h-27.2c0-12.6,5.2-19.4,13.6-19.4C727.4,677.3,732.1,685.2,732.1,696.7L732.1,696.7L732.1,696.7z
			 M748.4,708.2c0-1,0-2.1,0-3.1c0-16.2-3.1-25.1-8.9-31.4c-5.2-5.2-12.6-7.8-20.9-7.8c-8.9,0-16.2,3.1-22,9.9
			c-5.8,6.8-8.9,15.7-8.9,28.3c0,24.1,12.6,38.7,33.5,38.7c9.4,0,18.3-3.7,26.2-9.9l-6.3-9.4c-5.2,4.7-11.5,7.3-17.8,7.3
			c-7.3,0-12.6-2.6-15.7-7.9c-2.1-3.1-3.1-8.9-3.1-13.6v-1H748.4L748.4,708.2z"/>
		<polygon class="st0" points="85.3,740.7 85.3,640.7 69.6,640.7 69.6,681.5 33.5,681.5 33.5,640.7 18.4,640.7 18.4,740.7 
			33.5,740.7 33.5,694.1 69.6,694.1 69.6,740.7 85.3,740.7 		"/>
		<path class="st0" d="M209.9,666.9c-1.6-0.5-3.1-1-5.8-1c-7.8,0-13.6,4.2-18.3,11.5v-1.6c0-4.2-1-6.8-2.6-9.9l-14.7,3.7
			c2.1,4.7,2.6,9.9,2.6,18.8v52.3h15.7V692c0.5-4.2,1.6-5.8,4.2-8.4c2.6-2.6,6.3-3.1,9.4-3.1c2.1,0,2.6,0.5,4.7,1L209.9,666.9
			L209.9,666.9z"/>
		<path class="st0" d="M309.3,740.7v-53.9c0-7.9-1.6-12.6-5.8-16.2c-3.1-3.1-7.9-4.7-13.1-4.7c-7.9,0-16.7,4.2-22.5,11
			c-3.1-6.8-9.9-11-17.3-11c-6.8,0-14.1,4.2-19.4,9.4c-0.5-3.7-1.6-6.8-2.6-8.9l-14.1,3.7c2.1,4.7,2.6,7.3,2.6,17.8v52.9h14.7v-53.9
			c6.3-5.2,11-7.9,15.7-7.9c6.3,0,7.9,3.7,7.9,12v49.7h15.2v-52.9c5.8-6.3,11.5-8.9,15.7-8.9c5.8,0,7.8,3.1,7.8,10.5v51.3H309.3
			L309.3,740.7z"/>
		<path class="st0" d="M453.2,740.7v-54.4c0-13.1-7.9-19.9-19.4-19.9c-7.8,0-14.1,2.6-22,9.4c0-3.1-1-6.3-2.6-9.9l-14.1,4.2
			c2.1,4.7,2.1,8.9,2.1,16.7v53.9h15.2v-52.9c5.2-5.2,12-8.9,17.3-8.9c5.8,0,8.4,3.1,8.4,13.1v48.7H453.2L453.2,740.7z"/>
		<polygon class="st0" points="571.5,740.7 563.1,640.7 541.7,640.7 522.3,715 502.4,640.7 480.4,640.7 471,740.7 485.7,740.7 
			492.5,656.9 515,740.7 527,740.7 550,658.5 556.3,740.7 571.5,740.7 		"/>
		<path class="st0" d="M603.4,740.7v-74.8l-15.7,2.6v72.2H603.4L603.4,740.7z M606,645.9c0-5.2-4.7-10.5-10.5-10.5
			c-5.2,0-10.5,5.2-10.5,10.5c0,6.3,4.7,10.5,10.5,10.5C601.3,656.4,606,652.2,606,645.9L606,645.9L606,645.9z"/>
		<path class="st0" d="M646.8,740.7l-3.1-9.4c0,0-1,0-1.6,0c-2.6,0-4.7-1.6-4.7-7.3v-68.6c0-9.4,0-15.7-1-20.9l-15.7,3.7
			c1,5.2,1.6,10.5,1.6,20.9V725c0,11,5.8,17.3,14.7,17.3C641.1,742.2,643.7,741.7,646.8,740.7L646.8,740.7L646.8,740.7z"/>
		<path class="st0" d="M682.4,740.7l-3.1-9.4c-2.1,0-3.7,0-4.7-1c-1-1.6-1.6-4.7-1.6-12v-62.8c0-9.4,0-15.7-1.6-20.9l-15.7,3.7
			c1.6,5.2,1.6,10.5,1.6,20.9v63.3c0,7.9,1.6,12,3.7,14.7c2.1,3.7,6.8,5.2,11.5,5.2C676.1,742.2,679.3,741.7,682.4,740.7
			L682.4,740.7L682.4,740.7z"/>
		<path class="st0" d="M799.6,666.9c-1.6-0.5-3.1-1-5.8-1c-7.8,0-14.1,4.2-18.8,11.5v-1.6c0-4.2-1-6.8-2.6-9.9l-14.1,3.7
			c2.1,4.7,2.6,9.9,2.6,18.8v52.3h15.2V692c1-4.2,2.1-5.8,4.7-8.4c2.6-2.6,6.3-3.1,9.4-3.1c1.6,0,2.6,0.5,4.7,1L799.6,666.9
			L799.6,666.9z"/>
	</g>
	<path class="st0" d="M563.8,441.6c0,0-63.5-21.2-153.5-21.2c-92.6,0-156.1,21.2-156.1,21.2V153.1h5.3c0,0,23.8,254,150.8,254
		c124.4,0,148.2-254,148.2-254h5.3V441.6L563.8,441.6z M685.5,296c0-153.5-124.4-277.8-275.2-277.8
		c-153.5,0-277.8,124.4-277.8,277.8c0,153.5,124.4,277.8,277.8,277.8C561.1,573.9,685.5,449.5,685.5,296L685.5,296L685.5,296z"/>
</g>
</svg>
