<?xml version="1.0" encoding="utf-8"?>
<!-- Generator: Adobe Illustrator 22.1.0, SVG Export Plug-In . SVG Version: 6.00 Build 0)  -->
<svg version="1.1" id="Capa_1" xmlns="http://www.w3.org/2000/svg" xmlns:xlink="http://www.w3.org/1999/xlink" x="0px" y="0px"
	 viewBox="0 0 200 200" style="enable-background:new 0 0 200 200;" xml:space="preserve">
<style type="text/css">
	.st0{fill:#FFFFFF;}
</style>
<g>
	<path class="st0" d="M51.2,156.3v12.6h-1.1L42,158.6v10.2h-1.3v-12.6h1.1l8.1,10.2v-10.2h1.3V156.3z"/>
	<path class="st0" d="M65,164.5h-7.9c0.1,1,0.5,1.8,1.1,2.4c0.7,0.6,1.5,0.9,2.6,0.9c0.6,0,1.1-0.1,1.6-0.3s0.9-0.5,1.3-0.9l0.7,0.8
		c-0.4,0.5-0.9,0.9-1.6,1.2c-0.6,0.3-1.3,0.4-2.1,0.4c-1,0-1.8-0.2-2.6-0.6s-1.3-1-1.8-1.7c-0.4-0.7-0.6-1.6-0.6-2.5
		s0.2-1.8,0.6-2.5c0.4-0.7,1-1.3,1.7-1.7s1.5-0.6,2.4-0.6s1.7,0.2,2.4,0.6c0.7,0.4,1.2,1,1.6,1.7s0.6,1.6,0.6,2.5V164.5z
		 M58.2,161.3c-0.6,0.6-1,1.3-1.1,2.3h6.7c-0.1-0.9-0.4-1.7-1.1-2.3c-0.6-0.6-1.4-0.9-2.3-0.9C59.6,160.4,58.8,160.7,58.2,161.3z"/>
	<path class="st0" d="M74.5,168.3c-0.2,0.2-0.5,0.4-0.9,0.5s-0.7,0.2-1.1,0.2c-0.9,0-1.6-0.2-2.1-0.7s-0.7-1.2-0.7-2v-5.7H68v-1.1
		h1.7v-2.1H71v2.1h2.9v1.1H71v5.7c0,0.6,0.1,1,0.4,1.3s0.7,0.4,1.2,0.4c0.3,0,0.5,0,0.8-0.1s0.5-0.2,0.6-0.4L74.5,168.3z"/>
	<path class="st0" d="M92.3,159.4l-3.6,9.5h-1.2l-3-7.8l-3,7.8h-1.2l-3.6-9.5H78l3,8l3-8h1.1l3,8l3-8H92.3z"/>
	<path class="st0" d="M97.2,168.3c-0.7-0.4-1.3-1-1.7-1.7c-0.4-0.7-0.6-1.6-0.6-2.5s0.2-1.8,0.6-2.5s1-1.3,1.7-1.7s1.6-0.6,2.5-0.6
		s1.7,0.2,2.5,0.6c0.7,0.4,1.3,1,1.7,1.7c0.4,0.7,0.6,1.6,0.6,2.5s-0.2,1.8-0.6,2.5s-1,1.3-1.7,1.7s-1.6,0.6-2.5,0.6
		S97.9,168.7,97.2,168.3z M101.4,167.4c0.5-0.3,1-0.7,1.3-1.3s0.5-1.2,0.5-1.9s-0.2-1.4-0.5-1.9c-0.3-0.6-0.7-1-1.3-1.3
		c-0.5-0.3-1.1-0.5-1.8-0.5s-1.3,0.2-1.8,0.5s-1,0.7-1.3,1.3s-0.5,1.2-0.5,1.9s0.2,1.4,0.5,1.9c0.3,0.6,0.7,1,1.3,1.3
		c0.5,0.3,1.1,0.5,1.8,0.5S100.9,167.7,101.4,167.4z"/>
	<path class="st0" d="M111.4,159.8c0.6-0.3,1.3-0.5,2.2-0.5v1.2h-0.3c-1,0-1.8,0.3-2.3,0.9c-0.6,0.6-0.8,1.5-0.8,2.6v4.8h-1.3v-9.5
		h1.2v1.9C110.4,160.6,110.8,160.1,111.4,159.8z"/>
	<path class="st0" d="M121.2,164.1l-2.2,2.1v2.7h-1.3v-13.4h1.3v9.1l5.7-5.2h1.6l-4,3.9l4.4,5.6H125L121.2,164.1z"/>
	<path class="st0" d="M130.2,157c-0.2-0.2-0.3-0.4-0.3-0.6c0-0.2,0.1-0.5,0.3-0.6c0.2-0.2,0.4-0.3,0.7-0.3s0.5,0.1,0.7,0.3
		s0.3,0.4,0.3,0.6c0,0.3-0.1,0.5-0.3,0.7s-0.4,0.3-0.7,0.3C130.6,157.3,130.3,157.2,130.2,157z M130.2,159.4h1.3v9.5h-1.3V159.4z"/>
	<path class="st0" d="M144.5,160.4c0.7,0.7,1.1,1.7,1.1,3v5.5h-1.3v-5.4c0-1-0.2-1.7-0.7-2.3c-0.5-0.5-1.2-0.8-2.1-0.8
		c-1,0-1.8,0.3-2.4,0.9c-0.6,0.6-0.9,1.4-0.9,2.5v5h-1.3v-9.5h1.2v1.7c0.3-0.6,0.8-1,1.4-1.3c0.6-0.3,1.3-0.5,2.2-0.5
		C142.8,159.3,143.8,159.7,144.5,160.4z"/>
	<path class="st0" d="M159.6,159.4v8.3c0,1.6-0.4,2.8-1.2,3.6s-2,1.2-3.6,1.2c-0.9,0-1.7-0.1-2.5-0.4c-0.8-0.3-1.4-0.6-1.9-1.1
		l0.6-1c0.5,0.4,1,0.7,1.7,1c0.7,0.2,1.3,0.3,2.1,0.3c1.2,0,2.1-0.3,2.6-0.8c0.6-0.6,0.8-1.4,0.8-2.6v-1.2c-0.4,0.6-0.9,1.1-1.6,1.4
		c-0.6,0.3-1.4,0.5-2.1,0.5c-0.9,0-1.7-0.2-2.4-0.6c-0.7-0.4-1.3-0.9-1.7-1.6s-0.6-1.5-0.6-2.4s0.2-1.7,0.6-2.4s1-1.2,1.7-1.6
		c0.7-0.4,1.5-0.6,2.4-0.6c0.8,0,1.5,0.2,2.2,0.5c0.6,0.3,1.2,0.8,1.6,1.4v-1.8L159.6,159.4L159.6,159.4z M156.6,166.9
		c0.6-0.3,1-0.7,1.3-1.2s0.5-1.1,0.5-1.8s-0.2-1.3-0.5-1.8s-0.7-0.9-1.3-1.2c-0.5-0.3-1.2-0.4-1.9-0.4s-1.3,0.1-1.8,0.4
		s-1,0.7-1.3,1.2s-0.5,1.1-0.5,1.8s0.2,1.3,0.5,1.8s0.7,0.9,1.3,1.2s1.2,0.4,1.8,0.4C155.5,167.4,156.1,167.2,156.6,166.9z"/>
</g>
<path class="st0" d="M173.5,65.8c-0.4-3.1-1.6-5.9-3.7-8.3c-3.6-4.2-8.2-6.3-13.7-5.9c-3,0.2-5.7,1.2-8.2,2.9
	c-3.7,2.6-5.9,6.2-6.8,10.5c-0.1,0.4-0.2,0.5-0.6,0.5c-2.9,0-5.8,0-8.7,0c-0.1,0-0.2,0-0.4,0c0-0.2-0.1-0.4-0.1-0.6
	c-0.7-4.6-2.6-8.7-5.7-12.1c-3.2-3.6-7-5.9-11.7-7.1c-1.7-0.4-3.4-0.7-5.2-0.7c-0.5,0-0.8-0.1-0.8-0.8s-0.1-1.4-0.1-2
	c-0.2-2.7-0.4-5.4-0.6-8.1c-0.2-2.3-0.3-4.5-0.5-6.8c0-0.4,0.1-0.5,0.4-0.6c4.5-1.8,7.3-6.3,6.7-11.2c-0.6-4.6-4.2-8.3-8.7-9
	c-0.5-0.1-1-0.2-1.6-0.2c-0.1,0-0.2,0-0.3,0c-0.5,0.1-1,0.2-1.6,0.2c-4.6,0.7-8.2,4.5-8.7,9c-0.7,5.7,3,10.5,8.3,11.7h0.1
	c1.2,0.2,1.1,0.2,1.2,1.4c0.2,2.9,0.4,5.7,0.6,8.6c0.1,1.7,0.2,3.5,0.4,5.2c0.1,0.8,0.1,1.7,0.2,2.5c0,0.4-0.1,0.5-0.5,0.6
	c-2.8,0.6-5.5,1.7-7.9,3.3c-0.4,0.2-0.5,0.1-0.8-0.2c-3.6-3.8-7.3-7.7-10.9-11.5c-0.7-0.7-1.3-1.4-2-2.1c-0.2-0.2-0.2-0.4,0-0.7
	c1.8-2.1,2.9-4.6,3.2-7.3c0.4-3.4-0.3-6.6-2.3-9.4c-2.3-3.3-5.5-5.4-9.5-5.8c-5.5-0.6-9.9,1.5-13.1,6.1c-1.5,2.2-2.2,4.7-2.2,7.3
	c0,6.6,4.5,12.2,10.9,13.5c3,0.6,5.8,0.3,8.6-1.1c0.4-0.2,0.6,0,0.8,0.2c2.8,2.9,5.5,5.8,8.3,8.7c1.6,1.7,3.2,3.3,4.8,5
	c0.3,0.3,0.3,0.5,0,0.9c-3,3.2-4.8,7-5.7,11.2c-0.1,0.6-0.2,1.1-0.3,1.7c-0.2,0-0.4,0-0.7,0c-8.4,0-16.8,0-25.2,0
	c-0.5,0-0.7-0.1-0.8-0.6c-1.4-5.4-4.7-8.8-10.1-9.9c-5.1-1-10.3,1.2-13.2,5.9c-1.2,1.9-1.8,3.9-1.9,6.1c0,0.2-0.1,0.4-0.1,0.6
	c0,0.1,0,0.1,0,0.2c0,0.2,0.1,0.4,0.1,0.6c0.1,2.2,0.8,4.3,1.9,6.2c3,5,9.6,7.4,15.1,5.3c4.2-1.5,6.9-4.5,8.1-8.7
	c0.1-0.4,0.2-0.6,0.7-0.6c8.5,0,17.1,0,25.6,0c0.4,0,0.6,0.1,0.6,0.6c0.1,0.6,0.1,1.2,0.3,1.8c2,8.7,7.1,14.7,15.6,17.7
	c0.6,0.2,0.6,0.4,0.5,0.9c-1.5,5.6-3,11.2-4.5,16.8c-0.5,1.9-1,3.8-1.5,5.7c-0.1,0.3-0.1,0.5-0.5,0.5c-1-0.1-2.1-0.1-3.1-0.1
	c-3,0.2-5.8,1.1-8.2,2.9c-5.4,4-7.7,9.4-6.9,16.1c0.4,3.1,1.6,5.9,3.5,8.3c4.1,5.2,10.9,7.5,17.4,5.5c4.5-1.4,7.7-4.2,9.9-8.3
	c1.3-2.4,1.9-5.1,1.9-7.8s-0.6-5.3-1.9-7.7c-1.6-3.1-4-5.5-7.1-7.2c-0.5-0.3-0.6-0.5-0.4-1c1.3-4.7,2.6-9.5,3.8-14.2
	c0.8-2.9,1.6-5.8,2.3-8.7c0.1-0.5,0.3-0.7,0.8-0.6c0.4,0.1,0.9,0.1,1.3,0.1c2.3-0.1,4.6-0.3,6.8-1.1c0.4-0.2,0.6,0,0.8,0.4
	c2.1,4.9,4.2,9.8,6.3,14.7c0.2,0.4,0.1,0.6-0.2,0.8c-3.6,2.6-5.2,6.1-4.6,10.5c0.9,5.8,6.6,9.8,12.6,8.5c5-1,8.7-5.7,8.3-11
	c-0.3-3.5-1.9-6.2-4.8-8.1c-1.9-1.3-4.1-1.8-6.4-1.7c-0.4,0-0.7,0.1-0.9-0.4c-2.2-5.1-4.3-10.2-6.5-15.2c-0.2-0.4-0.1-0.5,0.3-0.7
	c2-1.2,3.8-2.7,5.4-4.4c3.1-3.3,5-7.2,5.8-11.7c0.1-0.7,0.2-1.5,0.4-2.2c0.3,0,0.5,0,0.7,0c2.4,0,4.8,0,7.2,0c0.5,0,1-0.1,1.3,0.1
	c0.2,0.2,0.2,0.8,0.3,1.2c0,0,0,0,0,0.1c0.8,3.7,2.5,6.8,5.4,9.3c4.2,3.6,9,4.8,14.3,3.7c4.4-1,7.8-3.4,10.2-7.2
	C173.3,73.8,174.1,69.9,173.5,65.8z M70.7,34.5c-5,0-9.1-4.1-9.1-9.1s4.1-9.1,9.1-9.1s9.1,4.1,9.1,9.1
	C79.8,30.5,75.7,34.5,70.7,34.5z M45.6,76.1c-5,0-9.1-4.1-9.1-9.1s4.1-9.1,9.1-9.1s9.1,4.1,9.1,9.1C54.7,72,50.6,76.1,45.6,76.1z
	 M106.6,131.1c0,7.4-6,13.4-13.4,13.4s-13.4-6-13.4-13.4c0-7.4,6-13.4,13.4-13.4C100.6,117.7,106.6,123.7,106.6,131.1z M128.3,108.1
	c3.8,0,6.9,3.1,6.9,6.9s-3.1,6.9-6.9,6.9s-6.9-3.1-6.9-6.9S124.4,108.1,128.3,108.1z M103.2,23.3c-3.8,0-6.9-3.1-6.9-6.9
	s3.1-6.9,6.9-6.9s6.9,3.1,6.9,6.9S107,23.3,103.2,23.3z M107.9,86.5c-10.3,0-18.6-8.3-18.6-18.6s8.3-18.6,18.6-18.6
	s18.6,8.3,18.6,18.6S118.2,86.5,107.9,86.5z M157.3,81.3c-7.4,0-13.4-6-13.4-13.4s6-13.4,13.4-13.4s13.4,6,13.4,13.4
	S164.7,81.3,157.3,81.3z"/>
</svg>
