<?xml version="1.0" encoding="utf-8"?>
<!-- Generator: Adobe Illustrator 22.1.0, SVG Export Plug-In . SVG Version: 6.00 Build 0)  -->
<svg version="1.1" id="Capa_1" xmlns="http://www.w3.org/2000/svg" xmlns:xlink="http://www.w3.org/1999/xlink" x="0px" y="0px"
	 viewBox="0 0 200 200" style="enable-background:new 0 0 200 200;" xml:space="preserve">
<style type="text/css">
	.st0{fill:#FFFFFF;}
</style>
<g>
	<path class="st0" d="M41.8,168.9l-2.9-4c-0.3,0-0.7,0.1-1,0.1h-3.4v4h-1.3v-12.6h4.7c1.6,0,2.9,0.4,3.8,1.2
		c0.9,0.8,1.4,1.8,1.4,3.2c0,1-0.2,1.8-0.7,2.5s-1.2,1.2-2.1,1.5l3.1,4.3h-1.6V168.9z M40.7,162.9c0.7-0.6,1-1.3,1-2.3
		s-0.3-1.8-1-2.3s-1.6-0.8-2.9-0.8h-3.3v6.3h3.3C39.1,163.7,40,163.4,40.7,162.9z"/>
	<path class="st0" d="M56,164.5h-8c0.1,1,0.5,1.8,1.1,2.4c0.7,0.6,1.5,0.9,2.6,0.9c0.6,0,1.1-0.1,1.6-0.3s0.9-0.5,1.3-0.9l0.7,0.8
		c-0.4,0.5-0.9,0.9-1.6,1.2s-1.3,0.4-2.1,0.4c-1,0-1.8-0.2-2.6-0.6s-1.3-1-1.8-1.7c-0.4-0.7-0.6-1.6-0.6-2.5s0.2-1.8,0.6-2.5
		c0.4-0.7,1-1.3,1.7-1.7s1.5-0.6,2.4-0.6s1.7,0.2,2.4,0.6c0.7,0.4,1.2,1,1.6,1.7c0.4,0.7,0.6,1.6,0.6,2.5L56,164.5z M49.1,161.3
		c-0.6,0.6-1,1.3-1.1,2.3h6.7c-0.1-0.9-0.4-1.7-1.1-2.3c-0.6-0.6-1.4-0.9-2.3-0.9C50.5,160.4,49.7,160.7,49.1,161.3z"/>
	<path class="st0" d="M62.3,156.9c-0.3,0.3-0.4,0.7-0.4,1.3v1.1h2.9v1.1h-2.9v8.4h-1.3v-8.4h-1.7v-1.1h1.7v-1.2
		c0-0.9,0.2-1.5,0.7-2.1c0.5-0.5,1.2-0.8,2.1-0.8c0.4,0,0.7,0.1,1,0.2c0.3,0.1,0.6,0.2,0.8,0.4l-0.4,1c-0.4-0.3-0.8-0.5-1.4-0.5
		C63,156.5,62.5,156.6,62.3,156.9z"/>
	<path class="st0" d="M72.3,159.8c0.6-0.3,1.3-0.5,2.2-0.5v1.2h-0.3c-1,0-1.8,0.3-2.3,0.9c-0.6,0.6-0.8,1.5-0.8,2.6v4.8h-1.3v-9.5
		H71v1.9C71.2,160.6,71.7,160.1,72.3,159.8z"/>
	<path class="st0" d="M86.8,164.5h-7.9c0.1,1,0.5,1.8,1.1,2.4c0.7,0.6,1.5,0.9,2.6,0.9c0.6,0,1.1-0.1,1.6-0.3s0.9-0.5,1.3-0.9
		l0.7,0.8c-0.4,0.5-0.9,0.9-1.6,1.2s-1.3,0.4-2.1,0.4c-1,0-1.8-0.2-2.6-0.6s-1.3-1-1.8-1.7c-0.4-0.7-0.6-1.6-0.6-2.5
		s0.2-1.8,0.6-2.5s1-1.3,1.7-1.7s1.5-0.6,2.4-0.6s1.7,0.2,2.4,0.6c0.7,0.4,1.2,1,1.6,1.7s0.6,1.6,0.6,2.5L86.8,164.5z M79.9,161.3
		c-0.6,0.6-1,1.3-1.1,2.3h6.7c-0.1-0.9-0.4-1.7-1.1-2.3c-0.6-0.6-1.4-0.9-2.3-0.9C81.3,160.4,80.5,160.7,79.9,161.3z"/>
	<path class="st0" d="M91.5,168.6c-0.7-0.2-1.3-0.5-1.6-0.8l0.6-1c0.4,0.3,0.9,0.6,1.5,0.8s1.2,0.3,1.9,0.3c0.9,0,1.5-0.1,1.9-0.4
		c0.4-0.3,0.6-0.7,0.6-1.1c0-0.3-0.1-0.6-0.3-0.8c-0.2-0.2-0.5-0.3-0.9-0.5c-0.3-0.1-0.8-0.2-1.4-0.3c-0.8-0.1-1.4-0.3-1.9-0.4
		c-0.5-0.1-0.9-0.4-1.2-0.8c-0.3-0.4-0.5-0.9-0.5-1.5c0-0.8,0.3-1.4,1-1.9s1.6-0.8,2.8-0.8c0.6,0,1.2,0.1,1.8,0.2
		c0.6,0.2,1.1,0.4,1.5,0.6l-0.6,1c-0.8-0.5-1.7-0.8-2.8-0.8c-0.8,0-1.4,0.1-1.8,0.4s-0.6,0.7-0.6,1.1c0,0.4,0.1,0.6,0.4,0.9
		s0.5,0.4,0.9,0.5c0.3,0.1,0.8,0.2,1.4,0.3c0.8,0.1,1.4,0.3,1.8,0.4c0.5,0.1,0.8,0.4,1.2,0.7c0.3,0.3,0.5,0.8,0.5,1.4
		c0,0.8-0.3,1.5-1,2s-1.6,0.7-2.9,0.7C92.9,168.9,92.2,168.8,91.5,168.6z"/>
	<path class="st0" d="M109.4,160.4c0.7,0.7,1.1,1.7,1.1,3v5.5h-1.3v-5.4c0-1-0.2-1.7-0.7-2.3c-0.5-0.5-1.2-0.8-2.1-0.8
		c-1,0-1.8,0.3-2.4,0.9c-0.6,0.6-0.9,1.4-0.9,2.5v5h-1.3v-13.4h1.3v5.5c0.3-0.6,0.8-1,1.4-1.3s1.3-0.5,2.1-0.5
		C107.8,159.3,108.7,159.7,109.4,160.4z"/>
	<path class="st0" d="M130.4,160.3c0.7,0.7,1,1.7,1,3v5.5h-1.3v-5.4c0-1-0.2-1.7-0.7-2.3c-0.5-0.5-1.1-0.8-2-0.8
		c-1,0-1.8,0.3-2.3,0.9c-0.6,0.6-0.8,1.4-0.8,2.5v5H123v-5.4c0-1-0.2-1.7-0.7-2.3c-0.5-0.5-1.1-0.8-2-0.8c-1,0-1.7,0.3-2.3,0.9
		c-0.6,0.6-0.9,1.4-0.9,2.5v5h-1.3v-9.5h1.2v1.7c0.3-0.6,0.8-1,1.4-1.3s1.3-0.5,2.1-0.5c0.8,0,1.5,0.2,2.1,0.5s1,0.8,1.3,1.5
		c0.3-0.6,0.8-1.1,1.5-1.5s1.4-0.5,2.2-0.5C128.8,159.3,129.7,159.7,130.4,160.3z"/>
	<path class="st0" d="M144.9,164.5H137c0.1,1,0.5,1.8,1.1,2.4c0.7,0.6,1.5,0.9,2.6,0.9c0.6,0,1.1-0.1,1.6-0.3s0.9-0.5,1.3-0.9
		l0.7,0.8c-0.4,0.5-0.9,0.9-1.6,1.2s-1.3,0.4-2.1,0.4c-1,0-1.8-0.2-2.6-0.6s-1.3-1-1.8-1.7c-0.4-0.7-0.6-1.6-0.6-2.5
		s0.2-1.8,0.6-2.5c0.4-0.7,1-1.3,1.7-1.7s1.5-0.6,2.4-0.6s1.7,0.2,2.4,0.6c0.7,0.4,1.2,1,1.6,1.7c0.4,0.7,0.6,1.6,0.6,2.5V164.5z
		 M138.1,161.3c-0.6,0.6-1,1.3-1.1,2.3h6.7c-0.1-0.9-0.4-1.7-1.1-2.3c-0.6-0.6-1.4-0.9-2.3-0.9C139.5,160.4,138.7,160.7,138.1,161.3
		z"/>
	<path class="st0" d="M157,160.4c0.7,0.7,1.1,1.7,1.1,3v5.5h-1.3v-5.4c0-1-0.2-1.7-0.7-2.3c-0.5-0.5-1.2-0.8-2.1-0.8
		c-1,0-1.8,0.3-2.4,0.9c-0.6,0.6-0.9,1.4-0.9,2.5v5h-1.3v-9.5h1.2v1.7c0.3-0.6,0.8-1,1.4-1.3c0.6-0.3,1.3-0.5,2.2-0.5
		C155.4,159.3,156.3,159.7,157,160.4z"/>
	<path class="st0" d="M168.3,168.3c-0.2,0.2-0.5,0.4-0.9,0.5s-0.7,0.2-1.1,0.2c-0.9,0-1.6-0.2-2.1-0.7s-0.7-1.2-0.7-2v-5.7h-1.7
		v-1.1h1.7v-2.1h1.3v2.1h2.9v1.1h-2.9v5.7c0,0.6,0.1,1,0.4,1.3c0.3,0.3,0.7,0.4,1.2,0.4c0.3,0,0.5,0,0.8-0.1
		c0.2-0.1,0.5-0.2,0.6-0.4L168.3,168.3z"/>
	<path class="st0" d="M69.3,189.7c-1-0.6-1.8-1.3-2.4-2.3s-0.9-2.1-0.9-3.3s0.3-2.3,0.9-3.3s1.4-1.7,2.4-2.3s2.1-0.8,3.4-0.8
		c0.9,0,1.8,0.2,2.6,0.5c0.8,0.3,1.5,0.8,2,1.4l-0.8,0.8c-1-1-2.2-1.5-3.7-1.5c-1,0-1.9,0.2-2.7,0.7s-1.5,1.1-1.9,1.9
		s-0.7,1.7-0.7,2.7s0.2,1.9,0.7,2.7s1.1,1.4,1.9,1.9s1.7,0.7,2.7,0.7c1.5,0,2.8-0.5,3.7-1.5l0.8,0.8c-0.6,0.6-1.2,1.1-2,1.4
		c-0.8,0.3-1.7,0.5-2.6,0.5C71.5,190.6,70.3,190.3,69.3,189.7z"/>
	<path class="st0" d="M89.5,186.1h-7.9c0.1,1,0.5,1.8,1.1,2.4c0.7,0.6,1.5,0.9,2.6,0.9c0.6,0,1.1-0.1,1.6-0.3s0.9-0.5,1.3-0.9
		L89,189c-0.4,0.5-0.9,0.9-1.6,1.2s-1.3,0.4-2.1,0.4c-1,0-1.8-0.2-2.6-0.6s-1.3-1-1.8-1.7c-0.4-0.7-0.6-1.6-0.6-2.5s0.2-1.8,0.6-2.5
		s1-1.3,1.7-1.7s1.5-0.6,2.4-0.6s1.7,0.2,2.4,0.6c0.7,0.4,1.2,1,1.6,1.7s0.6,1.6,0.6,2.5L89.5,186.1z M82.7,182.9
		c-0.6,0.6-1,1.3-1.1,2.3h6.7c-0.1-0.9-0.4-1.7-1.1-2.3c-0.6-0.6-1.4-0.9-2.3-0.9C84,182,83.3,182.3,82.7,182.9z"/>
	<path class="st0" d="M101.6,182c0.7,0.7,1.1,1.7,1.1,3v5.5h-1.3v-5.4c0-1-0.2-1.7-0.7-2.3c-0.5-0.5-1.2-0.8-2.1-0.8
		c-1,0-1.8,0.3-2.4,0.9c-0.6,0.6-0.9,1.4-0.9,2.5v5H94V181h1.2v1.7c0.3-0.6,0.8-1,1.4-1.3s1.3-0.5,2.2-0.5
		C100,180.9,100.9,181.3,101.6,182z"/>
	<path class="st0" d="M112.9,189.9c-0.2,0.2-0.5,0.4-0.9,0.5s-0.7,0.2-1.1,0.2c-0.9,0-1.6-0.2-2.1-0.7s-0.7-1.2-0.7-2v-5.7h-1.7V181
		h1.7v-2.1h1.3v2.1h2.9v1.1h-2.9v5.7c0,0.6,0.1,1,0.4,1.3s0.7,0.4,1.2,0.4c0.3,0,0.5,0,0.8-0.1c0.2-0.1,0.5-0.2,0.6-0.4L112.9,189.9
		z"/>
	<path class="st0" d="M125,186.1h-8c0.1,1,0.5,1.8,1.1,2.4c0.7,0.6,1.5,0.9,2.6,0.9c0.6,0,1.1-0.1,1.6-0.3s0.9-0.5,1.3-0.9l0.7,0.8
		c-0.4,0.5-0.9,0.9-1.6,1.2s-1.3,0.4-2.1,0.4c-1,0-1.8-0.2-2.6-0.6s-1.3-1-1.8-1.7c-0.4-0.7-0.6-1.6-0.6-2.5s0.2-1.8,0.6-2.5
		s1-1.3,1.7-1.7s1.5-0.6,2.4-0.6s1.7,0.2,2.4,0.6c0.7,0.4,1.2,1,1.6,1.7s0.6,1.6,0.6,2.5L125,186.1z M118.1,182.9
		c-0.6,0.6-1,1.3-1.1,2.3h6.7c-0.1-0.9-0.4-1.7-1.1-2.3c-0.6-0.6-1.4-0.9-2.3-0.9C119.5,182,118.7,182.3,118.1,182.9z"/>
	<path class="st0" d="M131.9,181.4c0.6-0.3,1.3-0.5,2.2-0.5v1.2h-0.3c-1,0-1.8,0.3-2.3,0.9c-0.6,0.6-0.8,1.5-0.8,2.6v4.8h-1.3V181
		h1.2v1.9C130.9,182.2,131.4,181.7,131.9,181.4z"/>
</g>
<g>
	<g>
		<path class="st0" d="M166,108.7c-0.4-0.2-0.9-0.3-1.3-0.3H161c-0.4,0-0.7,0.1-1,0.2c-0.4-0.1-0.8-0.2-1.2-0.2
			c-8.7,0.4-17.4,0.8-26.1,1.1c2.7-1.5,5.4-3.2,7.8-5.2c1.7-1.4,3.2-3,4.5-4.6c26.4,5,29.1-37.2,6.1-39.2c-0.6-3.2-1.5-6.3-2.4-9.2
			c-0.5-1.7-1.9-2.4-3.3-2.4c-0.3-0.1-0.7-0.2-1.1-0.1c-35,1.1-70,1.4-105.1,1.1c-1.1,0-2,0.4-2.5,1.1c-0.8,0.5-1.3,1.4-1.4,2.6
			c-1.5,17.7-1.3,37.3,12.1,50.7c2.7,2.7,5.8,4.8,9.3,6.5c-4.1-0.1-8.2-0.2-12.4-0.4c-0.2,0-0.3-0.1-0.5-0.1H36
			c-0.5,0-1,0.1-1.4,0.3c-1.8,0.3-3.3,1.8-2.5,4c3.5,9.3,13.8,13.1,22.7,15.5c14.8,4,30.8,4.5,46.1,4.4c14.4-0.1,29-1.2,43.2-4.1
			c10.4-2.1,21.8-6.3,23.8-17.7c0.1-0.3,0.2-0.7,0.2-1C168.3,110.1,167.3,109.1,166,108.7z M152.1,67.7c11.4,3.4,10.9,25.7-3.3,25.6
			C152.3,85.6,153,76.5,152.1,67.7z M52.1,99.5C40.4,89.3,40.6,71.3,41.7,56.8c33.7,0.2,67.4-0.1,101.1-1.1
			c4.5,15.6,4.9,34.9-9.2,45.4c-8.1,6-18.6,8.6-28.8,9.5c-5.5,0.2-11,0.3-16.4,0.4C75.7,110.4,61.6,107.8,52.1,99.5z M137,125
			c-11.9,2.1-24.1,2.7-36.1,2.8c-12.8,0.2-25.6-0.5-38.2-2.8c-5.9-1.1-15.6-2.9-20.9-7.8h0.8c15.5,0.6,31,0.7,46.5,0.5
			c2.3,0.1,4.5,0.1,6.6,0.1c3.3,0,6.7-0.2,10.1-0.5c17.7-0.5,35.4-1.3,53.1-2.1c0.4,0,0.7-0.1,1.1-0.2c0.1,0,0.2,0.1,0.4,0.1
			C156.3,121.9,143.8,123.8,137,125z"/>
		<path class="st0" d="M125.3,98.9c10-8.6,13.8-20.5,11.7-33.4c-0.7-4.3-7.3-2.5-6.6,1.8c1.7,10.6-1.8,19.8-9.9,26.8
			C117.2,97,122,101.8,125.3,98.9z"/>
		<path class="st0" d="M67,26.3c1.3,2.3,2.5,4.4,3,6.7c0.5,2.2-0.7,4.3-3.5,6.6c-1.1,0.9-1.4,2.2-1,3.5c0.5,1.3,1.8,2.3,3.2,2.3l0,0
			c0.8,0,1.5-0.3,2.1-0.8c3.5-2.8,5.4-5.8,5.8-9.1c0.4-3.6-0.8-6.7-2.2-9.4c-0.5-1.1-1.1-2.1-1.7-3.2c-2.9-5-4.4-8.2-2-11.6
			c0.7-1,0.8-2.2,0.3-3.3c-0.6-1.1-1.8-1.8-3-1.8c-1.1,0-2.1,0.5-2.7,1.4c-5,6.9-0.9,14.1,1.3,17.9L67,26.3z"/>
		<path class="st0" d="M84,26.3c1.3,2.3,2.5,4.4,3,6.7c0.5,2.2-0.7,4.3-3.5,6.6c-1.1,0.9-1.4,2.2-1,3.5c0.5,1.3,1.8,2.3,3.2,2.3
			c0.8,0,1.5-0.3,2.1-0.8c3.5-2.8,5.4-5.8,5.8-9.1c0.4-3.6-0.8-6.7-2.2-9.4c-0.5-1.1-1.1-2.1-1.7-3.2c-2.9-5-4.4-8.2-2-11.6
			c0.7-1,0.8-2.2,0.3-3.3c-0.6-1.1-1.8-1.8-3-1.8c-1.1,0-2.1,0.5-2.7,1.4c-5,6.9-0.9,14.1,1.3,17.9L84,26.3z"/>
		<path class="st0" d="M101,26.3c1.3,2.3,2.5,4.4,3,6.7c0.5,2.2-0.7,4.3-3.5,6.6c-1.1,0.9-1.4,2.2-1,3.5c0.5,1.3,1.8,2.3,3.2,2.3
			c0.8,0,1.5-0.3,2.1-0.8c3.5-2.8,5.4-5.8,5.8-9.1c0.4-3.6-0.8-6.7-2.2-9.4c-0.5-1.1-1.1-2.1-1.7-3.2c-2.9-5-4.4-8.2-2-11.6
			c0.7-1,0.8-2.2,0.3-3.3c-0.6-1.1-1.8-1.8-3-1.8c-1.1,0-2.1,0.5-2.7,1.4c-5,6.9-0.9,14.1,1.3,17.9L101,26.3z"/>
	</g>
</g>
</svg>
