<?xml version="1.0" encoding="utf-8"?>
<!-- Generator: Adobe Illustrator 22.1.0, SVG Export Plug-In . SVG Version: 6.00 Build 0)  -->
<svg version="1.1" id="Capa_1" xmlns="http://www.w3.org/2000/svg" xmlns:xlink="http://www.w3.org/1999/xlink" x="0px" y="0px"
	 viewBox="0 0 200 200" style="enable-background:new 0 0 200 200;" xml:space="preserve">
<style type="text/css">
	.st0{fill:#FFFFFF;}
</style>
<g>
	<path class="st0" d="M64.7,168.9l-2.9-4c-0.3,0-0.7,0.1-1,0.1h-3.4v4h-1.3v-12.6h4.7c1.6,0,2.9,0.4,3.8,1.2s1.4,1.8,1.4,3.2
		c0,1-0.2,1.8-0.7,2.5s-1.2,1.2-2.1,1.5l3.1,4.3h-1.6V168.9z M63.7,162.9c0.7-0.6,1-1.3,1-2.3s-0.3-1.8-1-2.3
		c-0.7-0.5-1.6-0.8-2.9-0.8h-3.3v6.3h3.3C62.1,163.7,63,163.4,63.7,162.9z"/>
	<path class="st0" d="M72.1,168.3c-0.7-0.4-1.3-1-1.7-1.7c-0.4-0.7-0.6-1.6-0.6-2.5s0.2-1.8,0.6-2.5s1-1.3,1.7-1.7s1.6-0.6,2.5-0.6
		s1.7,0.2,2.5,0.6c0.7,0.4,1.3,1,1.7,1.7c0.4,0.7,0.6,1.6,0.6,2.5s-0.2,1.8-0.6,2.5s-1,1.3-1.7,1.7s-1.6,0.6-2.5,0.6
		S72.8,168.7,72.1,168.3z M76.4,167.4c0.5-0.3,1-0.7,1.3-1.3s0.5-1.2,0.5-1.9s-0.2-1.4-0.5-1.9c-0.3-0.6-0.7-1-1.3-1.3
		c-0.5-0.3-1.1-0.5-1.8-0.5s-1.3,0.2-1.8,0.5s-1,0.7-1.3,1.3s-0.5,1.2-0.5,1.9s0.2,1.4,0.5,1.9c0.3,0.6,0.7,1,1.3,1.3
		c0.5,0.3,1.1,0.5,1.8,0.5S75.8,167.7,76.4,167.4z"/>
	<path class="st0" d="M85.2,168.3c-0.7-0.4-1.3-1-1.7-1.7c-0.4-0.7-0.6-1.6-0.6-2.5s0.2-1.8,0.6-2.5s1-1.3,1.7-1.7s1.6-0.6,2.5-0.6
		s1.7,0.2,2.5,0.6c0.7,0.4,1.3,1,1.7,1.7c0.4,0.7,0.6,1.6,0.6,2.5s-0.2,1.8-0.6,2.5s-1,1.3-1.7,1.7s-1.6,0.6-2.5,0.6
		S85.9,168.7,85.2,168.3z M89.4,167.4c0.5-0.3,1-0.7,1.3-1.3s0.5-1.2,0.5-1.9s-0.2-1.4-0.5-1.9c-0.3-0.6-0.7-1-1.3-1.3
		c-0.5-0.3-1.1-0.5-1.8-0.5s-1.3,0.2-1.8,0.5s-1,0.7-1.3,1.3s-0.5,1.2-0.5,1.9s0.2,1.4,0.5,1.9c0.3,0.6,0.7,1,1.3,1.3
		c0.5,0.3,1.1,0.5,1.8,0.5S88.9,167.7,89.4,167.4z"/>
	<path class="st0" d="M98.7,156.9c-0.3,0.3-0.4,0.7-0.4,1.3v1.1h2.9v1.1h-2.9v8.4H97v-8.4h-1.7v-1.1H97v-1.2c0-0.9,0.2-1.5,0.7-2.1
		c0.5-0.5,1.2-0.8,2.1-0.8c0.4,0,0.7,0.1,1,0.2c0.3,0.1,0.6,0.2,0.8,0.4l-0.4,1c-0.4-0.3-0.8-0.5-1.4-0.5
		C99.4,156.5,99,156.6,98.7,156.9z"/>
	<path class="st0" d="M114,157.4h-4.4v-1.2h10.2v1.2h-4.4v11.4H114V157.4z"/>
	<path class="st0" d="M123.8,168.3c-0.7-0.4-1.3-1-1.7-1.7c-0.4-0.7-0.6-1.6-0.6-2.5s0.2-1.8,0.6-2.5s1-1.3,1.7-1.7s1.6-0.6,2.5-0.6
		s1.7,0.2,2.5,0.6c0.7,0.4,1.3,1,1.7,1.7s0.6,1.6,0.6,2.5s-0.2,1.8-0.6,2.5c-0.4,0.7-1,1.3-1.7,1.7s-1.6,0.6-2.5,0.6
		S124.5,168.7,123.8,168.3z M128.1,167.4c0.5-0.3,1-0.7,1.3-1.3s0.5-1.2,0.5-1.9s-0.2-1.4-0.5-1.9c-0.3-0.6-0.7-1-1.3-1.3
		c-0.5-0.3-1.1-0.5-1.8-0.5s-1.3,0.2-1.8,0.5s-1,0.7-1.3,1.3s-0.5,1.2-0.5,1.9s0.2,1.4,0.5,1.9c0.3,0.6,0.7,1,1.3,1.3
		c0.5,0.3,1.1,0.5,1.8,0.5S127.6,167.7,128.1,167.4z"/>
	<path class="st0" d="M142.8,159.9c0.7,0.4,1.3,1,1.7,1.7s0.6,1.6,0.6,2.5s-0.2,1.8-0.6,2.5c-0.4,0.7-1,1.3-1.7,1.7
		s-1.5,0.6-2.4,0.6c-0.8,0-1.5-0.2-2.1-0.5s-1.1-0.8-1.5-1.4v5.3h-1.3v-13h1.2v1.9c0.4-0.6,0.9-1.1,1.5-1.4c0.6-0.3,1.3-0.5,2.1-0.5
		C141.3,159.3,142.1,159.5,142.8,159.9z M142.1,167.4c0.5-0.3,1-0.7,1.3-1.3s0.5-1.2,0.5-1.9s-0.2-1.4-0.5-1.9
		c-0.3-0.6-0.7-1-1.3-1.3c-0.5-0.3-1.1-0.5-1.8-0.5s-1.3,0.2-1.8,0.5s-1,0.7-1.3,1.3s-0.5,1.2-0.5,1.9s0.2,1.4,0.5,1.9
		c0.3,0.6,0.7,1,1.3,1.3c0.5,0.3,1.1,0.5,1.8,0.5C140.9,167.8,141.5,167.7,142.1,167.4z"/>
	<path class="st0" d="M69.8,189.3v1.2h-8.9v-12.6h8.6v1.2h-7.3v4.5h6.5v1.1h-6.5v4.7L69.8,189.3L69.8,189.3z"/>
	<path class="st0" d="M82.3,181l-4.2,9.5h-1.3l-4.2-9.5h1.3l3.5,8.1L81,181H82.3z"/>
	<path class="st0" d="M93.8,186.1h-7.9c0.1,1,0.5,1.8,1.1,2.4c0.7,0.6,1.5,0.9,2.6,0.9c0.6,0,1.1-0.1,1.6-0.3s0.9-0.5,1.3-0.9
		l0.7,0.8c-0.4,0.5-0.9,0.9-1.6,1.2s-1.3,0.4-2.1,0.4c-1,0-1.8-0.2-2.6-0.6s-1.3-1-1.8-1.7c-0.4-0.7-0.6-1.6-0.6-2.5
		s0.2-1.8,0.6-2.5s1-1.3,1.7-1.7s1.5-0.6,2.4-0.6s1.7,0.2,2.4,0.6c0.7,0.4,1.2,1,1.6,1.7s0.6,1.6,0.6,2.5L93.8,186.1z M87,182.9
		c-0.6,0.6-1,1.3-1.1,2.3h6.7c-0.1-0.9-0.4-1.7-1.1-2.3c-0.6-0.6-1.4-0.9-2.3-0.9C88.4,182,87.6,182.3,87,182.9z"/>
	<path class="st0" d="M105.9,182c0.7,0.7,1.1,1.7,1.1,3v5.5h-1.3v-5.4c0-1-0.2-1.7-0.7-2.3c-0.5-0.5-1.2-0.8-2.1-0.8
		c-1,0-1.8,0.3-2.4,0.9c-0.6,0.6-0.9,1.4-0.9,2.5v5h-1.3V181h1.2v1.7c0.3-0.6,0.8-1,1.4-1.3s1.3-0.5,2.2-0.5
		C104.3,180.9,105.2,181.3,105.9,182z"/>
	<path class="st0" d="M117.2,189.9c-0.2,0.2-0.5,0.4-0.9,0.5s-0.7,0.2-1.1,0.2c-0.9,0-1.6-0.2-2.1-0.7s-0.7-1.2-0.7-2v-5.7h-1.7V181
		h1.7v-2.1h1.3v2.1h2.9v1.1h-2.9v5.7c0,0.6,0.1,1,0.4,1.3s0.7,0.4,1.2,0.4c0.3,0,0.5,0,0.8-0.1c0.2-0.1,0.5-0.2,0.6-0.4L117.2,189.9
		z"/>
	<path class="st0" d="M122.4,189.9c-0.7-0.4-1.3-1-1.7-1.7c-0.4-0.7-0.6-1.6-0.6-2.5s0.2-1.8,0.6-2.5s1-1.3,1.7-1.7s1.6-0.6,2.5-0.6
		s1.7,0.2,2.5,0.6c0.7,0.4,1.3,1,1.7,1.7c0.4,0.7,0.6,1.6,0.6,2.5s-0.2,1.8-0.6,2.5c-0.4,0.7-1,1.3-1.7,1.7s-1.6,0.6-2.5,0.6
		S123.2,190.3,122.4,189.9z M126.7,189c0.5-0.3,1-0.7,1.3-1.3s0.5-1.2,0.5-1.9s-0.2-1.4-0.5-1.9c-0.3-0.6-0.7-1-1.3-1.3
		c-0.5-0.3-1.1-0.5-1.8-0.5s-1.3,0.2-1.8,0.5s-1,0.7-1.3,1.3s-0.5,1.2-0.5,1.9s0.2,1.4,0.5,1.9c0.3,0.6,0.7,1,1.3,1.3
		c0.5,0.3,1.1,0.5,1.8,0.5S126.2,189.3,126.7,189z"/>
	<path class="st0" d="M134.4,190.2c-0.7-0.2-1.3-0.5-1.6-0.8l0.6-1c0.4,0.3,0.9,0.6,1.5,0.8s1.2,0.3,1.9,0.3c0.9,0,1.5-0.1,1.9-0.4
		c0.4-0.3,0.6-0.7,0.6-1.1c0-0.3-0.1-0.6-0.3-0.8s-0.5-0.3-0.9-0.5c-0.3-0.1-0.8-0.2-1.4-0.3c-0.8-0.1-1.4-0.3-1.9-0.4
		c-0.5-0.1-0.9-0.4-1.2-0.8c-0.3-0.4-0.5-0.9-0.5-1.5c0-0.8,0.3-1.4,1-1.9s1.6-0.8,2.8-0.8c0.6,0,1.2,0.1,1.8,0.2
		c0.6,0.2,1.1,0.4,1.5,0.6l-0.6,1c-0.8-0.5-1.7-0.8-2.8-0.8c-0.8,0-1.4,0.1-1.8,0.4s-0.6,0.7-0.6,1.1c0,0.4,0.1,0.6,0.4,0.9
		s0.5,0.4,0.9,0.5c0.3,0.1,0.8,0.2,1.4,0.3c0.8,0.1,1.4,0.3,1.8,0.4c0.5,0.1,0.8,0.4,1.2,0.7c0.3,0.3,0.5,0.8,0.5,1.4
		c0,0.8-0.3,1.5-1,2s-1.6,0.7-2.9,0.7C135.9,190.5,135.1,190.4,134.4,190.2z"/>
</g>
<g>
	<path class="st0" d="M66,128.6c-0.4-3.7-0.8-7.3-1.2-11.1c2.5-0.4,2.8-0.7,2.8-3.1c0-0.1,0-0.3,0-0.4c0-2.2-0.6-2.7-2.8-2.7
		c-4.5,0-8.9,0-13.4,0c-4.9,0-9.7,0-14.6,0c-0.3,0-0.7-0.1-1.1-0.1c0-2.2,0-25,0-31.2c0-1.8-0.6-2.4-2.4-2.4c-0.3,0-0.5,0-0.8,0
		c-2.4,0-2.8,0.4-2.8,2.9c0,17.5,0,35,0,52.5c0,3.4,0,6.8,0,10.2c0,1.5,0.6,2.1,2.1,2.2c0.4,0,0.8,0,1.2,0c2.3,0,2.7-0.5,2.7-2.7
		c0-7.8,0-15.6,0-23.4c0-0.5,0-1.1,0-1.7h22.8c0.1,0.5,0.2,1,0.2,1.4c0.9,8.1,1.8,16.2,2.6,24.3c0.2,1.7,0.8,2.2,2.4,2.1
		c0.5,0,0.9-0.1,1.4-0.2c1.9-0.3,2.3-0.8,2.1-2.6C67,137.8,66.5,133.2,66,128.6z"/>
	<path class="st0" d="M170.3,112.3c0-10.6,0-21.2,0-31.8c0-0.7-0.4-1.9-0.8-2c-1.4-0.3-2.9-0.4-4.3-0.1c-1.2,0.2-1,1.6-1,2.6
		c0,6.2-0.1,27.4,0,29.4c0,1.1-0.2,1.6-1.5,1.6c-7-0.1-14,0-21,0c-2.5,0-4.9,0-7.4,0c-1.1,0-1.8,0.6-2,1.7c-0.4,2.4,0.1,3.9,1.2,4.3
		c0.2,0.1,0.4,0.1,0.6,0.1c0.3,0,0.6,0.1,0.9,0.2c0,0.5-0.1,0.9-0.1,1.2c-0.8,7.5-1.7,14.9-2.5,22.4c-0.4,3.6-0.1,3.9,3.4,4.1
		c1.7,0.1,2.3-0.4,2.5-2.1c0.9-8.1,1.8-16.3,2.6-24.4c0.1-1,0.5-1.4,1.5-1.4c6.7,0,13.5,0,20.2,0c0.4,0,0.8,0.1,1.4,0.1
		c0,4.5,0,8.8,0,13.2c0,4.2-0.1,8.4,0,12.6c0,1.3,0.7,1.9,2.1,2c0.3,0,0.7,0,1,0c2.6,0,3-0.4,3-2.9
		C170.3,132.7,170.3,122.5,170.3,112.3z"/>
	<path class="st0" d="M140.3,85.8c-12,0-24,0-36.1,0c-0.6,0-1.2,0-1.8,0c0-14.7,0-29.2,0-43.9c19.1,0,38.1,0,57.3,0
		c-0.1-0.8-0.1-1.4-0.2-2c-0.9-6.3-3.7-11.6-7.9-16.3c-6.7-7.5-15.2-12.3-24.7-15.4c-14.2-4.7-28.7-5.4-43.3-2.8
		c-11,2-21.3,6-30.1,13.2c-5.6,4.7-10,10.2-12.1,17.4c-0.6,1.9-0.8,3.8-1.3,6c19.4,0,38.4,0,57.5,0c0,0.7,0,1.2,0,1.8
		c0,13.5,0,27,0,40.5c0,1.4-0.4,1.6-1.7,1.6c-11.5,0-22.9,0-34.4,0c-1,0-2.1,0-3.1,0c-1.4,0.1-2.1,0.9-2.2,2.2c0,1,0,1.9,0,2.9
		c0,2.6,0.6,3.2,3.1,3.2c6.3,0,12.6,0,18.9,0c0.5,0,0.9,0,1.4,0c0,0.6,0,1-0.1,1.4c-1.7,15.5-3.4,31-5.1,46.6
		c-0.3,3-0.1,3.2,2.9,3.6c0.1,0,0.3,0,0.4,0c1.6,0.1,2.3-0.4,2.5-2.1c0.9-8.5,1.8-16.9,2.7-25.4c0.8-7.7,1.7-15.4,2.5-23.2
		c0.1-0.9,0.5-1,1.2-1c3.3,0,23.5,0.1,27.4,0.1c0,0.3,0.1,0.4,0.1,0.6c1.7,15.8,3.4,31.6,5.2,47.3c0.4,3.7,0.8,4,4.4,3.3
		c1.1-0.2,1.7-0.8,1.6-2c-0.1-0.9-0.2-1.8-0.3-2.7c-1.5-13.4-2.9-26.7-4.4-40.1c-0.2-2.1-0.4-4.3-0.7-6.6c0.6,0,1,0,1.4,0
		c3.1,0,6.2,0,9.4,0c3.4,0,6.8,0,10.2,0c1.8,0,2.5-0.8,2.6-2.6c0-0.8,0-1.6,0-2.3C143.7,86.3,143.2,85.8,140.3,85.8z M51.4,34.8
		c8.5-14.7,27-24.9,48.5-24.9s40,10.2,48.5,24.9H51.4z"/>
</g>
</svg>
