<?xml version="1.0" encoding="utf-8"?>
<!-- Generator: Adobe Illustrator 22.1.0, SVG Export Plug-In . SVG Version: 6.00 Build 0)  -->
<svg version="1.1" id="Capa_1" xmlns="http://www.w3.org/2000/svg" xmlns:xlink="http://www.w3.org/1999/xlink" x="0px" y="0px"
	 viewBox="0 0 200 200" style="enable-background:new 0 0 200 200;" xml:space="preserve">
<style type="text/css">
	.st0{fill:#FFFFFF;}
</style>
<g>
	<path class="st0" d="M61.4,168.5c-0.9-0.3-1.5-0.7-2-1.2l0.5-1c0.5,0.5,1.1,0.8,1.8,1.1c0.8,0.3,1.5,0.4,2.3,0.4
		c1.1,0,2-0.2,2.5-0.6c0.6-0.4,0.8-1,0.8-1.6c0-0.5-0.2-0.9-0.5-1.2s-0.7-0.5-1.1-0.7s-1.1-0.3-1.9-0.5c-0.9-0.2-1.7-0.5-2.3-0.7
		s-1-0.6-1.4-1c-0.4-0.5-0.6-1.1-0.6-1.9c0-0.6,0.2-1.2,0.5-1.7s0.9-0.9,1.5-1.3c0.7-0.3,1.6-0.5,2.6-0.5c0.7,0,1.4,0.1,2.1,0.3
		s1.3,0.5,1.8,0.8l-0.5,1.1c-0.5-0.3-1.1-0.6-1.7-0.8s-1.2-0.3-1.8-0.3c-1.1,0-1.9,0.2-2.5,0.6c-0.6,0.4-0.8,1-0.8,1.6
		c0,0.5,0.2,0.9,0.5,1.2s0.7,0.5,1.2,0.7s1.1,0.3,1.9,0.5c0.9,0.2,1.7,0.5,2.2,0.7c0.6,0.2,1.1,0.6,1.4,1s0.6,1.1,0.6,1.8
		c0,0.6-0.2,1.2-0.5,1.7s-0.9,0.9-1.6,1.2s-1.6,0.5-2.6,0.5C63.1,169,62.2,168.8,61.4,168.5z"/>
	<path class="st0" d="M81.5,164.5h-7.9c0.1,1,0.5,1.8,1.1,2.4c0.7,0.6,1.5,0.9,2.6,0.9c0.6,0,1.1-0.1,1.6-0.3s0.9-0.5,1.3-0.9
		l0.7,0.8c-0.4,0.5-0.9,0.9-1.6,1.2c-0.6,0.3-1.3,0.4-2.1,0.4c-1,0-1.8-0.2-2.6-0.6s-1.3-1-1.8-1.7c-0.4-0.7-0.6-1.6-0.6-2.5
		s0.2-1.8,0.6-2.5s1-1.3,1.7-1.7s1.5-0.6,2.4-0.6s1.7,0.2,2.4,0.6s1.2,1,1.6,1.7s0.6,1.6,0.6,2.5L81.5,164.5z M74.6,161.3
		c-0.6,0.6-1,1.3-1.1,2.3h6.7c-0.1-0.9-0.4-1.7-1.1-2.3c-0.6-0.6-1.4-0.9-2.3-0.9C76,160.4,75.2,160.7,74.6,161.3z"/>
	<path class="st0" d="M88.4,159.8c0.6-0.3,1.3-0.5,2.2-0.5v1.2h-0.3c-1,0-1.8,0.3-2.3,0.9c-0.6,0.6-0.8,1.5-0.8,2.6v4.8h-1.3v-9.5
		h1.2v1.9C87.4,160.6,87.8,160.1,88.4,159.8z"/>
	<path class="st0" d="M103.1,159.4l-4.2,9.5h-1.3l-4.2-9.5h1.3l3.5,8.1l3.6-8.1H103.1z"/>
	<path class="st0" d="M106.7,157c-0.2-0.2-0.3-0.4-0.3-0.6c0-0.2,0.1-0.5,0.3-0.6s0.4-0.3,0.7-0.3s0.5,0.1,0.7,0.3s0.3,0.4,0.3,0.6
		c0,0.3-0.1,0.5-0.3,0.7c-0.2,0.2-0.4,0.3-0.7,0.3S106.9,157.2,106.7,157z M106.7,159.4h1.3v9.5h-1.3V159.4z"/>
	<path class="st0" d="M114.8,168.3c-0.7-0.4-1.3-1-1.7-1.7c-0.4-0.7-0.6-1.6-0.6-2.5s0.2-1.8,0.6-2.5s1-1.3,1.7-1.7s1.6-0.6,2.5-0.6
		c0.8,0,1.5,0.2,2.2,0.5c0.6,0.3,1.1,0.8,1.5,1.4l-1,0.6c-0.3-0.5-0.7-0.8-1.2-1.1c-0.5-0.2-1-0.4-1.6-0.4c-0.7,0-1.3,0.2-1.8,0.5
		s-1,0.7-1.3,1.3s-0.5,1.2-0.5,1.9s0.2,1.4,0.5,1.9c0.3,0.6,0.7,1,1.3,1.3s1.2,0.5,1.8,0.5c0.6,0,1.1-0.1,1.6-0.3s0.9-0.6,1.2-1
		l1,0.6c-0.4,0.6-0.9,1.1-1.5,1.4c-0.6,0.3-1.4,0.5-2.2,0.5C116.4,168.9,115.5,168.7,114.8,168.3z"/>
	<path class="st0" d="M125.3,157c-0.2-0.2-0.3-0.4-0.3-0.6c0-0.2,0.1-0.5,0.3-0.6c0.2-0.2,0.4-0.3,0.7-0.3c0.3,0,0.5,0.1,0.7,0.3
		s0.3,0.4,0.3,0.6c0,0.3-0.1,0.5-0.3,0.7c-0.2,0.2-0.4,0.3-0.7,0.3C125.7,157.3,125.5,157.2,125.3,157z M125.3,159.4h1.3v9.5h-1.3
		V159.4z"/>
	<path class="st0" d="M133.3,168.3c-0.7-0.4-1.3-1-1.7-1.7s-0.6-1.6-0.6-2.5s0.2-1.8,0.6-2.5c0.4-0.7,1-1.3,1.7-1.7s1.6-0.6,2.5-0.6
		s1.7,0.2,2.5,0.6c0.7,0.4,1.3,1,1.7,1.7s0.6,1.6,0.6,2.5s-0.2,1.8-0.6,2.5c-0.4,0.7-1,1.3-1.7,1.7s-1.6,0.6-2.5,0.6
		S134.1,168.7,133.3,168.3z M137.6,167.4c0.5-0.3,1-0.7,1.3-1.3s0.5-1.2,0.5-1.9s-0.2-1.4-0.5-1.9c-0.3-0.6-0.7-1-1.3-1.3
		c-0.5-0.3-1.1-0.5-1.8-0.5s-1.3,0.2-1.8,0.5s-1,0.7-1.3,1.3s-0.5,1.2-0.5,1.9s0.2,1.4,0.5,1.9c0.3,0.6,0.7,1,1.3,1.3
		s1.1,0.5,1.8,0.5S137.1,167.7,137.6,167.4z"/>
	<path class="st0" d="M59,189.7c-1-0.6-1.8-1.3-2.4-2.3c-0.6-1-0.9-2.1-0.9-3.3s0.3-2.3,0.9-3.3c0.6-1,1.4-1.7,2.4-2.3
		s2.1-0.8,3.4-0.8c0.9,0,1.8,0.2,2.6,0.5c0.8,0.3,1.5,0.8,2,1.4l-0.8,0.8c-1-1-2.2-1.5-3.7-1.5c-1,0-1.9,0.2-2.7,0.7
		s-1.5,1.1-1.9,1.9s-0.7,1.7-0.7,2.7s0.2,1.9,0.7,2.7s1.1,1.4,1.9,1.9s1.7,0.7,2.7,0.7c1.5,0,2.8-0.5,3.7-1.5l0.8,0.8
		c-0.6,0.6-1.2,1.1-2,1.4c-0.8,0.3-1.7,0.5-2.6,0.5C61.1,190.6,60,190.3,59,189.7z"/>
	<path class="st0" d="M77.4,181.8c0.7,0.6,1,1.5,1,2.7v5.9h-1.2V189c-0.3,0.5-0.7,0.9-1.3,1.2c-0.6,0.3-1.2,0.4-2,0.4
		c-1.1,0-1.9-0.3-2.5-0.8s-0.9-1.2-0.9-2s0.3-1.5,0.9-1.9c0.6-0.5,1.5-0.7,2.8-0.7h3v-0.6c0-0.8-0.2-1.4-0.7-1.9
		c-0.5-0.4-1.1-0.6-2-0.6c-0.6,0-1.2,0.1-1.7,0.3c-0.6,0.2-1,0.5-1.4,0.8l-0.6-1c0.5-0.4,1.1-0.7,1.7-0.9c0.7-0.2,1.4-0.3,2.1-0.3
		C75.8,180.9,76.7,181.2,77.4,181.8z M75.9,189c0.5-0.3,0.9-0.8,1.2-1.4v-1.5h-3c-1.6,0-2.4,0.6-2.4,1.7c0,0.6,0.2,1,0.6,1.3
		s1,0.5,1.8,0.5C74.8,189.5,75.4,189.4,75.9,189z"/>
	<path class="st0" d="M88.6,189.9c-0.2,0.2-0.5,0.4-0.9,0.5s-0.7,0.2-1.1,0.2c-0.9,0-1.6-0.2-2.1-0.7s-0.7-1.2-0.7-2v-5.7h-1.7V181
		h1.7v-2.1h1.3v2.1H88v1.1h-2.9v5.7c0,0.6,0.1,1,0.4,1.3s0.7,0.4,1.2,0.4c0.3,0,0.5,0,0.8-0.1c0.2-0.1,0.5-0.2,0.6-0.4L88.6,189.9z"
		/>
	<path class="st0" d="M100.6,186.1h-7.9c0.1,1,0.5,1.8,1.1,2.4c0.7,0.6,1.5,0.9,2.6,0.9c0.6,0,1.1-0.1,1.6-0.3s0.9-0.5,1.3-0.9
		l0.7,0.8c-0.4,0.5-0.9,0.9-1.6,1.2s-1.3,0.4-2.1,0.4c-1,0-1.8-0.2-2.6-0.6s-1.3-1-1.8-1.7c-0.4-0.7-0.6-1.6-0.6-2.5
		s0.2-1.8,0.6-2.5s1-1.3,1.7-1.7s1.5-0.6,2.4-0.6s1.7,0.2,2.4,0.6c0.7,0.4,1.2,1,1.6,1.7s0.6,1.6,0.6,2.5L100.6,186.1z M93.8,182.9
		c-0.6,0.6-1,1.3-1.1,2.3h6.7c-0.1-0.9-0.4-1.7-1.1-2.3c-0.6-0.6-1.4-0.9-2.3-0.9C95.2,182,94.4,182.3,93.8,182.9z"/>
	<path class="st0" d="M107.6,181.4c0.6-0.3,1.3-0.5,2.2-0.5v1.2h-0.3c-1,0-1.8,0.3-2.3,0.9c-0.6,0.6-0.8,1.5-0.8,2.6v4.8h-1.3V181
		h1.2v1.9C106.6,182.2,107,181.7,107.6,181.4z"/>
	<path class="st0" d="M113.9,178.6c-0.2-0.2-0.3-0.4-0.3-0.6c0-0.2,0.1-0.5,0.3-0.6c0.2-0.2,0.4-0.3,0.7-0.3c0.3,0,0.5,0.1,0.7,0.3
		s0.3,0.4,0.3,0.6c0,0.3-0.1,0.5-0.3,0.7c-0.2,0.2-0.4,0.3-0.7,0.3C114.3,178.9,114.1,178.8,113.9,178.6z M113.9,181h1.3v9.5h-1.3
		V181z"/>
	<path class="st0" d="M128.2,182c0.7,0.7,1.1,1.7,1.1,3v5.5H128v-5.4c0-1-0.2-1.7-0.7-2.3c-0.5-0.5-1.2-0.8-2.1-0.8
		c-1,0-1.8,0.3-2.4,0.9c-0.6,0.6-0.9,1.4-0.9,2.5v5h-1.3V181h1.2v1.7c0.3-0.6,0.8-1,1.4-1.3s1.3-0.5,2.2-0.5
		C126.6,180.9,127.5,181.3,128.2,182z"/>
	<path class="st0" d="M143.4,181v8.3c0,1.6-0.4,2.8-1.2,3.6s-2,1.2-3.6,1.2c-0.9,0-1.7-0.1-2.5-0.4c-0.8-0.3-1.4-0.6-1.9-1.1l0.6-1
		c0.5,0.4,1,0.7,1.7,1c0.7,0.2,1.3,0.3,2.1,0.3c1.2,0,2.1-0.3,2.6-0.8c0.6-0.6,0.8-1.4,0.8-2.6v-1.2c-0.4,0.6-0.9,1.1-1.6,1.4
		c-0.6,0.3-1.4,0.5-2.1,0.5c-0.9,0-1.7-0.2-2.4-0.6c-0.7-0.4-1.3-0.9-1.7-1.6s-0.6-1.5-0.6-2.4s0.2-1.7,0.6-2.4s1-1.2,1.7-1.6
		c0.7-0.4,1.5-0.6,2.4-0.6c0.8,0,1.5,0.2,2.2,0.5c0.6,0.3,1.2,0.8,1.6,1.4V181H143.4z M140.4,188.5c0.6-0.3,1-0.7,1.3-1.2
		s0.5-1.1,0.5-1.8s-0.2-1.3-0.5-1.8s-0.7-0.9-1.3-1.2c-0.5-0.3-1.2-0.4-1.9-0.4s-1.3,0.1-1.8,0.4c-0.5,0.3-1,0.7-1.3,1.2
		s-0.5,1.1-0.5,1.8s0.2,1.3,0.5,1.8s0.7,0.9,1.3,1.2c0.5,0.3,1.2,0.4,1.8,0.4S139.8,188.8,140.4,188.5z"/>
</g>
<g>
	<path class="st0" d="M58.2,112.4c-4.3,0-8.4,0-12.5,0c-1.4,0-2.6-0.2-2.7-2c0-1.8,1.2-2,2.6-2c4,0,8,0.1,12,0
		c2.9-0.1,5.1,0.2,4.9,3.7c3,0.9,6.5-1.3,9.1,2.3c1.7-3.7,3.2-7.4,4.3-11.2c0.6-2-0.5-3.5-2.1-4.9c-1.5-1.3-3.3-3-3.7-4.7
		c-0.4-1.8,0.8-3.9,1.4-6c-4.5,0-9.6-0.2-14.7,0.1c-6,0.3-11.6,0.1-14-6.8c-0.5-1.6-1.4-1.9-2.8-1.7c-1.5,0.2-2.6-0.2-2.6-1.9
		c0-1.7,1.1-2.1,2.6-2c2.5,0.1,5.1,0,7.6,0c1.9-32.6,29.1-50.1,51.5-50.6c24.8-0.6,52.4,18.7,53.9,50.6c2.6,0,5.2-0.1,7.8,0.1
		c0.7,0.1,1.9,1.1,1.9,1.7c0.1,0.7-1,2.1-1.5,2.1c-3.2-0.3-4,2-5,4.1c-1.4,2.8-3.5,4.4-6.6,4.4c-3.5,0-6.9-0.1-10.4-0.1
		c-2.5,0-5,0-7.8,0c3.9,4.3,3.6,6.7-1,9.6c-0.2,0.1-0.3,0.2-0.5,0.3c-6.4,4.1-12.3,8.8-17.2,14.7c-10.4,12.5-23.4,20.6-39.3,24.3
		c-1.5,0.4-3,0.4-3.2,2.5c0,0.5-1.5,1.2-2.3,1.3c-1.8,0.2-3.6,0.1-5.6,0.1c-0.1,1.2-0.1,2.1-0.1,3c-0.1,3.3-0.4,3.7-3.6,3.7
		c-4.3,0-8.6,0-12.9,0c-1.4,0-2.9,0-2.9-2s1.5-2,2.9-2c4,0,8,0,12.3,0C58.2,132.6,58.2,122.5,58.2,112.4z M55,75.2
		c1.4,0,3.2-0.2,3.1,2c-0.1,2-1.6,1.8-3,1.8c-2.6,0-5.3,0-8.2,0c0.8,2.6,1.4,4.3,4.2,4.3c10.2-0.1,20.4,0,30.6,0.1
		c8.7,0,17.5,0.1,26.2,0.1c10.7,0,21.5-0.1,32.2-0.1c2.8,0,5.7-0.1,8.5,0c2.7,0.1,3.9-1.5,4.8-4c-1.1-0.1-1.9-0.2-2.8-0.2
		c-8.1,0-16.2-0.1-24.3,0c-8.2,0-16.4,0.1-24.6,0.2c-3.9,0-7.8,0-11.8,0c-1,0-2.1,0.1-3-0.3c-0.7-0.3-1.3-1.3-1.4-2
		c0-0.5,0.8-1.3,1.5-1.6c0.8-0.3,1.8-0.2,2.7-0.2c18.5,0,37-0.1,55.5,0.1c2.7,0,3.3-0.9,3-3.3c-2.7-19.4-13-33.2-31.3-40
		c-29.2-11.1-59.7,7.2-64.8,38c-0.2,1.5-0.3,3.1-0.5,5.1C53.1,75.2,54.1,75.2,55,75.2z M83.8,128.8c8.8-3.6,16.5-8.9,22.7-16.1
		c6.5-7.5,13.5-14.3,22.2-19.3c0.5-0.3,0.8-0.7,1.4-1.1c-1.5-1.7-3.2-1.1-4.5-0.3c-6.8,4.4-13.5,8.9-20.3,13.3c-3,2-5.9,4.3-9.2,5.8
		c-3.9,1.9-7.2,0.4-8.9-3.6c-1.4-3.2-2.3-6.5-3.5-9.8c-1.2-3.4-3.8-5.3-7.2-6.1c-0.8-0.2-1.8,0.4-2.7,0.6c0.4,0.7,0.7,1.7,1.3,2.1
		c4.8,3.8,5.8,6.3,4,12.1c-1.5,4.8-2.8,9.9-8,12.5c-0.4,0.2-0.6,0.9-0.6,1.3c-0.1,4,0,8,0,12.8C75.3,131.6,79.7,130.4,83.8,128.8z
		 M88.9,100.3c0.6,1.8,1.3,3.6,1.9,5.4c0.9,2.4,2.6,2.8,4.5,1.6c2.7-1.7,5.3-3.5,7.8-5.4c6.8-5.2,13.4-10.5,22-14.2
		c-15.7,0-30.8,0-45.8,0C85.3,89.9,87.2,94.9,88.9,100.3z M62.6,116.4c0,6.5,0,13,0,19.7c1.2,0,2.4,0,3.8,0c0-6.5,0-13,0-19.7
		C65.1,116.4,63.9,116.4,62.6,116.4z"/>
	<path class="st0" d="M106.3,7.6c1.2,0.6,2.6,2.7,2.4,3.7c-0.7,3.2-1.7,6.6-3.6,9.3c-2.9,4.1-7.5,3.7-10.4-0.4
		c-0.6-0.8-1-1.7-1.4-2.6c-3.8-7.6-1.5-11.3,7-11.6C102.3,6.5,104.5,6.6,106.3,7.6z M95.7,12.4c-0.1,2.5,2.8,6.9,4.4,7
		c1.6,0,4.8-4.6,4.5-7.2c-0.3-2.8-3-1.3-4.6-2.1C98.6,11,95.9,9.3,95.7,12.4z"/>
	<path class="st0" d="M50.6,134.2c-0.7,1-1.8,2-1.8,2.9c0,0.8,1.5,2.2,2.3,2.2s2.3-1.3,2.4-2.1c0.1-0.9-1.1-2-1.7-3
		C51.4,134.2,51,134.2,50.6,134.2z"/>
	<path class="st0" d="M139.8,68.4c-2.4-15.7-9.7-26.9-23.6-33.4c-1.2-0.6-2.7-1.1-3.5,0.7c-0.7,1.7,0.6,2.4,1.9,3
		c12.1,5.9,18.7,15.7,20.9,28.8c0,0.2,0,0.4,0,0.5c0.7,0.8,1.5,1.7,2.3,2.5C138.7,69.6,139.4,68.8,139.8,68.4z"/>
</g>
</svg>
