<?xml version="1.0" encoding="utf-8"?>
<!-- Generator: Adobe Illustrator 22.1.0, SVG Export Plug-In . SVG Version: 6.00 Build 0)  -->
<svg version="1.1" id="Capa_1" xmlns="http://www.w3.org/2000/svg" xmlns:xlink="http://www.w3.org/1999/xlink" x="0px" y="0px"
	 viewBox="0 0 200 200" style="enable-background:new 0 0 200 200;" xml:space="preserve">
<style type="text/css">
	.st0{fill:#FFFFFF;}
</style>
<g>
	<path class="st0" d="M44.8,168.5c-0.9-0.3-1.5-0.7-2-1.2l0.5-1c0.5,0.5,1.1,0.8,1.8,1.1c0.8,0.3,1.5,0.4,2.3,0.4
		c1.1,0,2-0.2,2.5-0.6c0.6-0.4,0.8-1,0.8-1.6c0-0.5-0.2-0.9-0.5-1.2s-0.7-0.5-1.1-0.7s-1.1-0.3-1.9-0.5c-0.9-0.2-1.7-0.5-2.3-0.7
		s-1-0.6-1.4-1c-0.4-0.5-0.6-1.1-0.6-1.9c0-0.6,0.2-1.2,0.5-1.7s0.9-0.9,1.5-1.3c0.7-0.3,1.6-0.5,2.6-0.5c0.7,0,1.4,0.1,2.1,0.3
		c0.7,0.2,1.3,0.5,1.8,0.8l-0.5,1.1c-0.5-0.3-1.1-0.6-1.7-0.8c-0.6-0.2-1.2-0.3-1.8-0.3c-1.1,0-1.9,0.2-2.5,0.6
		c-0.6,0.4-0.8,1-0.8,1.6c0,0.5,0.2,0.9,0.5,1.2s0.7,0.5,1.2,0.7s1.1,0.3,1.9,0.5c0.9,0.2,1.7,0.5,2.2,0.7c0.6,0.2,1.1,0.6,1.4,1
		s0.6,1.1,0.6,1.8c0,0.6-0.2,1.2-0.5,1.7s-0.9,0.9-1.6,1.2c-0.7,0.3-1.6,0.5-2.6,0.5C46.5,169,45.7,168.8,44.8,168.5z"/>
	<path class="st0" d="M64.9,164.5H57c0.1,1,0.5,1.8,1.1,2.4c0.7,0.6,1.5,0.9,2.6,0.9c0.6,0,1.1-0.1,1.6-0.3s0.9-0.5,1.3-0.9l0.7,0.8
		c-0.4,0.5-0.9,0.9-1.6,1.2c-0.6,0.3-1.3,0.4-2.1,0.4c-1,0-1.8-0.2-2.6-0.6s-1.3-1-1.8-1.7c-0.4-0.7-0.6-1.6-0.6-2.5
		s0.2-1.8,0.6-2.5c0.4-0.7,1-1.3,1.7-1.7s1.5-0.6,2.4-0.6s1.7,0.2,2.4,0.6s1.2,1,1.6,1.7c0.4,0.7,0.6,1.6,0.6,2.5V164.5z M58,161.3
		c-0.6,0.6-1,1.3-1.1,2.3h6.7c-0.1-0.9-0.4-1.7-1.1-2.3c-0.6-0.6-1.4-0.9-2.3-0.9C59.4,160.4,58.6,160.7,58,161.3z"/>
	<path class="st0" d="M71.8,159.8c0.6-0.3,1.3-0.5,2.2-0.5v1.2h-0.3c-1,0-1.8,0.3-2.3,0.9c-0.6,0.6-0.8,1.5-0.8,2.6v4.8h-1.3v-9.5
		h1.2v1.9C70.8,160.6,71.3,160.1,71.8,159.8z"/>
	<path class="st0" d="M86.5,159.4l-4.2,9.5H81l-4.2-9.5h1.3l3.5,8.1l3.6-8.1H86.5z"/>
	<path class="st0" d="M90.1,157c-0.2-0.2-0.3-0.4-0.3-0.6c0-0.2,0.1-0.5,0.3-0.6s0.4-0.3,0.7-0.3s0.5,0.1,0.7,0.3s0.3,0.4,0.3,0.6
		c0,0.3-0.1,0.5-0.3,0.7c-0.2,0.2-0.4,0.3-0.7,0.3S90.3,157.2,90.1,157z M90.1,159.4h1.3v9.5h-1.3V159.4z"/>
	<path class="st0" d="M98.2,168.3c-0.7-0.4-1.3-1-1.7-1.7c-0.4-0.7-0.6-1.6-0.6-2.5s0.2-1.8,0.6-2.5s1-1.3,1.7-1.7s1.6-0.6,2.5-0.6
		c0.8,0,1.5,0.2,2.2,0.5c0.6,0.3,1.1,0.8,1.5,1.4l-1,0.6c-0.3-0.5-0.7-0.8-1.2-1.1c-0.5-0.2-1-0.4-1.6-0.4c-0.7,0-1.3,0.2-1.8,0.5
		s-1,0.7-1.3,1.3S97,163.3,97,164s0.2,1.4,0.5,1.9c0.3,0.6,0.7,1,1.3,1.3s1.2,0.5,1.8,0.5c0.6,0,1.1-0.1,1.6-0.3s0.9-0.6,1.2-1
		l1,0.6c-0.4,0.6-0.9,1.1-1.5,1.4c-0.6,0.3-1.4,0.5-2.2,0.5C99.8,168.9,98.9,168.7,98.2,168.3z"/>
	<path class="st0" d="M108.7,157c-0.2-0.2-0.3-0.4-0.3-0.6c0-0.2,0.1-0.5,0.3-0.6c0.2-0.2,0.4-0.3,0.7-0.3c0.3,0,0.5,0.1,0.7,0.3
		s0.3,0.4,0.3,0.6c0,0.3-0.1,0.5-0.3,0.7c-0.2,0.2-0.4,0.3-0.7,0.3C109.1,157.3,108.9,157.2,108.7,157z M108.7,159.4h1.3v9.5h-1.3
		V159.4z"/>
	<path class="st0" d="M116.7,168.3c-0.7-0.4-1.3-1-1.7-1.7c-0.4-0.7-0.6-1.6-0.6-2.5s0.2-1.8,0.6-2.5s1-1.3,1.7-1.7s1.6-0.6,2.5-0.6
		s1.7,0.2,2.5,0.6c0.7,0.4,1.3,1,1.7,1.7c0.4,0.7,0.6,1.6,0.6,2.5s-0.2,1.8-0.6,2.5s-1,1.3-1.7,1.7s-1.6,0.6-2.5,0.6
		S117.5,168.7,116.7,168.3z M121,167.4c0.5-0.3,1-0.7,1.3-1.3s0.5-1.2,0.5-1.9s-0.2-1.4-0.5-1.9c-0.3-0.6-0.7-1-1.3-1.3
		c-0.5-0.3-1.1-0.5-1.8-0.5s-1.3,0.2-1.8,0.5s-1,0.7-1.3,1.3s-0.5,1.2-0.5,1.9s0.2,1.4,0.5,1.9c0.3,0.6,0.7,1,1.3,1.3
		s1.1,0.5,1.8,0.5S120.5,167.7,121,167.4z"/>
	<path class="st0" d="M143.6,155.5v13.4h-1.2V167c-0.4,0.6-0.9,1.1-1.5,1.5c-0.6,0.3-1.3,0.5-2.1,0.5c-0.9,0-1.7-0.2-2.4-0.6
		c-0.7-0.4-1.3-1-1.7-1.7s-0.6-1.6-0.6-2.5s0.2-1.8,0.6-2.5c0.4-0.7,1-1.3,1.7-1.7s1.5-0.6,2.4-0.6c0.8,0,1.5,0.2,2.1,0.5
		s1.1,0.8,1.5,1.4v-5.7L143.6,155.5L143.6,155.5z M140.6,167.4c0.5-0.3,1-0.7,1.3-1.3s0.5-1.2,0.5-1.9s-0.2-1.4-0.5-1.9
		c-0.3-0.6-0.7-1-1.3-1.3c-0.5-0.3-1.1-0.5-1.8-0.5s-1.3,0.2-1.8,0.5s-1,0.7-1.3,1.3s-0.5,1.2-0.5,1.9s0.2,1.4,0.5,1.9
		c0.3,0.6,0.7,1,1.3,1.3c0.5,0.3,1.1,0.5,1.8,0.5C139.5,167.8,140.1,167.7,140.6,167.4z"/>
	<path class="st0" d="M157.2,164.5h-7.9c0.1,1,0.5,1.8,1.1,2.4c0.7,0.6,1.5,0.9,2.6,0.9c0.6,0,1.1-0.1,1.6-0.3s0.9-0.5,1.3-0.9
		l0.7,0.8c-0.4,0.5-0.9,0.9-1.6,1.2c-0.6,0.3-1.3,0.4-2.1,0.4c-1,0-1.8-0.2-2.6-0.6s-1.3-1-1.8-1.7c-0.4-0.7-0.6-1.6-0.6-2.5
		s0.2-1.8,0.6-2.5c0.4-0.7,1-1.3,1.7-1.7s1.5-0.6,2.4-0.6s1.7,0.2,2.4,0.6c0.7,0.4,1.2,1,1.6,1.7c0.4,0.7,0.6,1.6,0.6,2.5V164.5z
		 M150.3,161.3c-0.6,0.6-1,1.3-1.1,2.3h6.7c-0.1-0.9-0.4-1.7-1.1-2.3c-0.6-0.6-1.4-0.9-2.3-0.9C151.7,160.4,150.9,160.7,150.3,161.3
		z"/>
	<path class="st0" d="M54.7,177.9H56v11.4h7v1.2h-8.4v-12.6H54.7z"/>
	<path class="st0" d="M66.8,178.6c-0.2-0.2-0.3-0.4-0.3-0.6c0-0.2,0.1-0.5,0.3-0.6s0.4-0.3,0.7-0.3s0.5,0.1,0.7,0.3s0.3,0.4,0.3,0.6
		c0,0.3-0.1,0.5-0.3,0.7c-0.2,0.2-0.4,0.3-0.7,0.3S67,178.8,66.8,178.6z M66.8,181h1.3v9.5h-1.3V181z"/>
	<path class="st0" d="M88,181.9c0.7,0.7,1,1.7,1,3v5.5h-1.3V185c0-1-0.2-1.7-0.7-2.3c-0.5-0.5-1.1-0.8-2-0.8c-1,0-1.8,0.3-2.3,0.9
		c-0.6,0.6-0.8,1.4-0.8,2.5v5h-1.3v-5.4c0-1-0.2-1.7-0.7-2.3c-0.5-0.5-1.1-0.8-2-0.8c-1,0-1.7,0.3-2.3,0.9c-0.6,0.6-0.9,1.4-0.9,2.5
		v5h-1.3V181h1.2v1.7c0.3-0.6,0.8-1,1.4-1.3s1.3-0.5,2.1-0.5c0.8,0,1.5,0.2,2.1,0.5s1,0.8,1.3,1.5c0.3-0.6,0.8-1.1,1.5-1.5
		s1.4-0.5,2.2-0.5C86.4,180.9,87.4,181.3,88,181.9z"/>
	<path class="st0" d="M101.6,181.5c0.7,0.4,1.3,1,1.7,1.7c0.4,0.7,0.6,1.6,0.6,2.5s-0.2,1.8-0.6,2.5s-1,1.3-1.7,1.7
		s-1.5,0.6-2.4,0.6c-0.8,0-1.5-0.2-2.1-0.5s-1.1-0.8-1.5-1.4v5.3h-1.3v-13h1.2v1.9c0.4-0.6,0.9-1.1,1.5-1.4c0.6-0.3,1.3-0.5,2.1-0.5
		C100.1,180.9,100.9,181.1,101.6,181.5z M100.9,189c0.5-0.3,1-0.7,1.3-1.3s0.5-1.2,0.5-1.9s-0.2-1.4-0.5-1.9c-0.3-0.6-0.7-1-1.3-1.3
		c-0.5-0.3-1.1-0.5-1.8-0.5c-0.7,0-1.3,0.2-1.8,0.5s-1,0.7-1.3,1.3s-0.5,1.2-0.5,1.9s0.2,1.4,0.5,1.9c0.3,0.6,0.7,1,1.3,1.3
		c0.5,0.3,1.1,0.5,1.8,0.5C99.8,189.4,100.4,189.3,100.9,189z"/>
	<path class="st0" d="M108.3,178.6c-0.2-0.2-0.3-0.4-0.3-0.6c0-0.2,0.1-0.5,0.3-0.6c0.2-0.2,0.4-0.3,0.7-0.3c0.3,0,0.5,0.1,0.7,0.3
		s0.3,0.4,0.3,0.6c0,0.3-0.1,0.5-0.3,0.7c-0.2,0.2-0.4,0.3-0.7,0.3C108.7,178.9,108.5,178.8,108.3,178.6z M108.3,181h1.3v9.5h-1.3
		V181z"/>
	<path class="st0" d="M123.2,186.1h-7.9c0.1,1,0.5,1.8,1.1,2.4c0.7,0.6,1.5,0.9,2.6,0.9c0.6,0,1.1-0.1,1.6-0.3s0.9-0.5,1.3-0.9
		l0.7,0.8c-0.4,0.5-0.9,0.9-1.6,1.2s-1.3,0.4-2.1,0.4c-1,0-1.8-0.2-2.6-0.6s-1.3-1-1.8-1.7c-0.4-0.7-0.6-1.6-0.6-2.5
		s0.2-1.8,0.6-2.5s1-1.3,1.7-1.7s1.5-0.6,2.4-0.6s1.7,0.2,2.4,0.6c0.7,0.4,1.2,1,1.6,1.7s0.6,1.6,0.6,2.5L123.2,186.1z M116.4,182.9
		c-0.6,0.6-1,1.3-1.1,2.3h6.7c-0.1-0.9-0.4-1.7-1.1-2.3c-0.6-0.6-1.4-0.9-2.3-0.9S117,182.3,116.4,182.9z"/>
	<path class="st0" d="M134.2,189.4v1.1h-7.7v-0.8l6-7.5h-5.8V181h7.5v0.8l-6,7.6L134.2,189.4L134.2,189.4z"/>
	<path class="st0" d="M144.7,181.8c0.7,0.6,1,1.5,1,2.7v5.9h-1.2V189c-0.3,0.5-0.7,0.9-1.3,1.2s-1.2,0.4-2,0.4
		c-1.1,0-1.9-0.3-2.5-0.8s-0.9-1.2-0.9-2s0.3-1.5,0.9-1.9c0.6-0.5,1.5-0.7,2.8-0.7h3v-0.6c0-0.8-0.2-1.4-0.7-1.9
		c-0.5-0.4-1.1-0.6-2-0.6c-0.6,0-1.2,0.1-1.7,0.3c-0.6,0.2-1,0.5-1.4,0.8l-0.6-1c0.5-0.4,1.1-0.7,1.7-0.9c0.7-0.2,1.4-0.3,2.1-0.3
		C143.1,180.9,144.1,181.2,144.7,181.8z M143.3,189c0.5-0.3,0.9-0.8,1.2-1.4v-1.5h-3c-1.6,0-2.4,0.6-2.4,1.7c0,0.6,0.2,1,0.6,1.3
		c0.4,0.3,1,0.5,1.8,0.5C142.1,189.5,142.8,189.4,143.3,189z"/>
</g>
<g>
	<path class="st0" d="M69.3,124.1c0.6-1.7,1.2-3.3,1.8-4.9c6.7-18.4,13.4-36.9,20.1-55.3c0.4-1.1,0.8-2.3,1.5-3.3
		c1.9-2.9,5.9-3.6,8.8-1.8c0.2,0.1,0.4,0.3,0.7,0.4c0.3-0.8,0.5-1.5,0.8-2.2c1.2-3.1,4-5,7.3-4.8c1.5,0.1,2.6,0.5,4.5,1.9
		c0.1-0.1,0.2-0.3,0.3-0.4c2.2-3.4,6.5-4.7,10-2.9c3.6,1.8,5.3,5.9,4,9.7c-0.3,0.8-0.6,1.6-0.9,2.5c0.6,0.1,1.1,0.1,1.6,0.2
		c4.3,0.8,6.8,4.8,5.7,9c-2.3,8.7-4.7,17.4-7,26.2c-0.1,0.2-0.1,0.4-0.2,0.7c0.3-0.1,0.5-0.2,0.8-0.3c2-0.9,3.9-1.9,5.9-2.8
		c5-2.2,10.4,0.7,11.1,6.1c0.3,2.6-0.5,4.9-2.5,6.7c-3.8,3.3-7.6,6.4-11.4,9.7c-3.8,3.2-7.6,6.4-11.4,9.6c-0.2,0.1-0.3,0.4-0.4,0.6
		c-1.1,4.2-2.3,8.4-3.4,12.6c0,0.1,0,0.2-0.1,0.3c1,0.4,2,0.8,3,1.2c1.1,0.4,1.6,1.6,1.2,2.7c-0.4,1.1-1.6,1.7-2.7,1.3
		c-15.3-5.5-30.6-11.1-45.8-16.6c-2.2-0.8-4.3-1.5-6.4-2.4c-1.6-0.6-2-2.7-0.6-3.8c0.6-0.5,1.3-0.6,2.1-0.3
		C68.2,123.7,68.7,123.9,69.3,124.1z M112.7,139.9c0.1-0.3,0.2-0.5,0.2-0.7c1.1-4.2,2.2-8.3,3.4-12.4c0.2-0.6,0.5-1.2,0.9-1.6
		c1.6-1.4,3.2-2.7,4.8-4.1c6.1-5.1,12.3-10.3,18.4-15.5c0.5-0.4,0.9-1,1.1-1.6c0.5-1.4,0.2-2.7-0.9-3.7c-1.1-1-2.4-1.2-3.8-0.5
		c-3.6,1.7-7.1,3.3-10.7,5c-0.9,0.4-1.8,0.5-2.7-0.2c-0.8-0.7-0.9-1.6-0.6-2.5c1.8-6.8,3.7-13.6,5.5-20.4c0.9-3.5,1.9-7.1,2.8-10.6
		c0.2-0.8,0.3-1.6-0.2-2.4c-0.6-1-1.5-1.5-2.6-1.4c-1.3,0.1-2.1,0.8-2.5,2c-2.1,5.8-4.2,11.6-6.4,17.4c-0.2,0.5-0.5,1-0.9,1.4
		c-0.7,0.6-1.8,0.6-2.5,0c-0.8-0.6-1.1-1.5-0.8-2.5c0.5-1.4,1-2.8,1.5-4.3c2.7-7.4,5.4-14.8,8.1-22.2c0.7-2-0.2-4-2-4.6
		c-1.9-0.6-3.9,0.4-4.5,2.4c-0.6,1.7-1.2,3.5-1.8,5.2c-1.3,3.5-2.5,7-3.8,10.5s-2.6,7.1-3.9,10.6c-0.3,0.8-0.8,1.4-1.7,1.5
		c-1.9,0.3-3-1.4-2.3-3.2c2.3-6.4,4.7-12.8,7-19.1c0.3-0.8,0.7-1.7,0.8-2.5c0.2-1.5-0.8-2.8-2.2-3.1c-1.4-0.3-2.8,0.4-3.3,1.9
		c-1.8,4.8-3.5,9.5-5.2,14.3c-1.2,3.3-2.4,6.7-3.6,10.1c-0.5,1.3-1.7,1.9-2.8,1.4c-1.2-0.4-1.7-1.7-1.3-3c0.4-1,0.8-2.1,1.1-3.1
		c1.6-4.3,3.2-8.7,4.7-13c0.5-1.3-0.1-2.5-1.2-2.9c-1.2-0.4-2.4,0.2-2.8,1.4c-3.1,8.4-6.1,16.8-9.2,25.3
		c-4.2,11.6-8.5,23.2-12.7,34.8c-0.2,0.6-0.4,1.2-0.6,1.8C86.6,130.4,99.6,135.1,112.7,139.9z"/>
	<path class="st0" d="M72,89.2c-0.5-2.3-0.6-4.5,0-6.6s1.3-4.1,2.1-6.3c-0.3,0-0.6,0-0.9,0c-9.5,0-19.1,0-28.6,0
		c-0.9,0-1.7-0.3-2.1-1.2c-0.4-0.8-0.3-1.6,0.3-2.4c0.4-0.6,1.1-0.8,1.8-0.8c2.2,0,4.5,0,6.7,0c7.8,0,15.6,0,23.3,0
		c1.2,0,1.2,0,1.6-1.1c1.4-3.8,2.7-7.5,4.1-11.3c0.1-0.1,0.1-0.3,0.1-0.5c-0.3,0-0.5,0-0.8,0c-5.9,0-11.8,0-17.8,0
		c-1.7,0-2.8-1.4-2.3-2.9c0.3-0.9,1.1-1.5,2.3-1.5c3.7,0,7.3,0,11,0c2.9,0,5.7,0,8.6,0c0.5,0,0.8-0.2,1-0.7c2-5.5,4-11.1,6-16.6
		c2.8-7.8,11.1-11.7,19-8.9c10.2,3.7,20.3,7.4,30.4,11.1c4.4,1.6,8.9,3.2,13.3,4.9c7.5,2.8,11.3,11.2,8.6,18.8
		c-3.5,9.6-7,19.2-10.5,28.8c-0.2,0.5-0.4,1-0.8,1.3c-0.7,0.7-1.8,0.8-2.7,0.2c-0.8-0.5-1.2-1.6-0.8-2.6c0.5-1.4,1-2.8,1.5-4.3
		c3-8.3,6.1-16.7,9.1-25c1.9-5.4-0.8-11.2-6.2-13.2c-12.2-4.4-24.4-8.9-36.6-13.3c-2.3-0.8-4.5-1.6-6.8-2.5
		c-5.6-2-11.4,0.7-13.5,6.3C87.1,53.2,81.9,67.6,76.6,82c-1,2.8-0.9,5.5,0.4,8.2c0.8,1.7-0.2,3.3-2,3.3c-6.3,0-12.5,0-18.8,0
		c-1.8,0-2.9-1.7-2.1-3.3c0.5-0.8,1.2-1.1,2.1-1.1c4.9,0,9.9,0,14.8,0C71.3,89.2,71.6,89.2,72,89.2z"/>
	<path class="st0" d="M77.5,32.2c-1.3,0-2.2-0.9-2.2-2.4c-0.1-2.9-1.3-5.4-3.5-7.2c-1.7-1.5-3.7-2.2-6-2.2c-1.7,0-2.3-1-2.3-2.4
		c0-1.1,1-2,2.3-2c3.3-0.1,5.9-1.5,7.8-4.2c1.2-1.6,1.7-3.4,1.7-5.4c0-1.6,1.4-2.7,2.9-2.2c0.9,0.3,1.5,1.1,1.5,2.3
		c0.2,3.8,1.9,6.6,5.2,8.4c1.4,0.8,2.9,1.1,4.5,1.1c1,0,1.8,0.6,2.1,1.6c0.3,0.9-0.1,2-0.9,2.4c-0.5,0.2-1,0.4-1.5,0.4
		c-4.5,0.2-8.2,3.3-9.2,7.7c-0.1,0.6-0.2,1.3-0.2,2C79.6,31.3,78.7,32.2,77.5,32.2z M81.5,18.1c-1.3-1.3-2.7-2.7-4-4
		c-1.3,1.3-2.7,2.7-4,4c1.3,1.3,2.7,2.7,4,4C78.8,20.8,80.2,19.4,81.5,18.1z"/>
	<path class="st0" d="M49.7,27.8c1.3,0,2.1,0.8,2.2,2.2c0.1,2.1,1,3.7,2.8,4.8c0.8,0.5,1.8,0.7,2.8,0.9c1.4,0.2,2.4,1,2.4,2.2
		s-0.9,2.2-2.3,2.2c-2.5,0-5,1.9-5.5,4.6C52,45.1,52,45.5,52,45.9c-0.1,1.2-1.1,2.1-2.2,2.1c-1.2,0-2.1-0.9-2.1-2.2
		c0-3.4-2.9-5.8-5.7-5.8c-1.4,0-2.3-1-2.2-2.3c0-1.2,1-2.1,2.3-2.1c2.8-0.1,5.4-2.3,5.6-5.5C47.6,28.7,48.4,27.8,49.7,27.8z
		 M48.2,37.9c0.5,0.5,1,1,1.5,1.4c0.5-0.4,1-0.9,1.4-1.3c-0.5-0.5-1-1-1.5-1.5C49.2,36.9,48.7,37.4,48.2,37.9z"/>
</g>
</svg>
