<?xml version="1.0" encoding="utf-8"?>
<!-- Generator: Adobe Illustrator 22.1.0, SVG Export Plug-In . SVG Version: 6.00 Build 0)  -->
<svg version="1.1" id="Capa_1" xmlns="http://www.w3.org/2000/svg" xmlns:xlink="http://www.w3.org/1999/xlink" x="0px" y="0px"
	 viewBox="0 0 818 236.8" style="enable-background:new 0 0 818 236.8;" xml:space="preserve">
<style type="text/css">
	.st0{fill:#47AFFC;}
</style>
<path class="st0" d="M672.7,14.7c0,0.6-0.1,1.3-0.1,1.9c0,23.3,0,46.5,0,69.8c0,1.5-0.4,1.9-1.9,1.9c-4-0.1-8,0-11.9,0
	c-0.5,0-1,0-1.7,0c0-2.5,0-4.9,0-7.6c-0.5,0.5-0.7,0.7-1,1c-4.8,6.5-11.1,9.4-19.2,8.1c-7.8-1.2-13.1-5.7-15.9-12.9
	c-3.2-8.1-3.3-16.5-0.1-24.6c5.5-14.1,19.3-15.6,28.6-11.6c2.8,1.2,4.8,3.6,6.5,6.1c0.2,0.3,0.4,0.5,0.5,0.7c0-10.9,0-21.8,0-32.7
	C661.9,14.7,667.3,14.7,672.7,14.7z M646.6,76.4c5.3,0,9.4-2.8,10.5-7.7c0.5-2.4,0.6-5,0.3-7.4c-0.6-5.2-4.6-8.7-9.6-9
	c-6.2-0.3-10.3,2.3-11.7,7.8c-0.5,1.8-0.6,3.8-0.5,5.7C635.9,72.3,640.2,76.4,646.6,76.4z"/>
<path class="st0" d="M800.8,88.3c-4.6,0-9.1-0.1-13.7-0.1c-1.5,0-2-0.4-1.9-1.9c0.1-1.8,0-3.6,0-5.8c-0.6,0.7-0.8,1-1.1,1.3
	c-9,12.9-28,9.6-34.1-3.1c-2.5-5.3-3.3-10.8-3-16.6c0.2-3.8,0.9-7.5,2.5-11c5.4-11.7,16.5-14.5,26.8-11.2c3.1,1,5.3,3.1,7.1,5.7
	c0.4,0.5,0.8,1.1,1.1,1.5c0-10.8,0-21.7,0-32.5c5.4,0,10.8,0,16.2,0C800.8,39.2,800.8,63.8,800.8,88.3z M786.2,64.4
	c-0.1,0-0.2-0.1-0.2-0.1c-0.1-1.2-0.2-2.4-0.4-3.6c-1-4.9-4.8-8.2-9.8-8.4c-5.9-0.2-10.1,2.4-11.3,7.5c-0.6,2.3-0.6,4.9-0.4,7.3
	c0.4,4.9,3.8,8.4,8.5,9.2c5.3,0.9,10-1.2,12-5.6C785.4,68.7,785.7,66.5,786.2,64.4z"/>
<path class="st0" d="M215.6,217.8c1.1-7.2,2.2-14.4,3.3-21.5c1.7-11.1,3.4-22.2,5.1-33.3c1.7-11.1,3.4-22.3,5.2-33.4
	c1.1-7.3,2.3-14.5,3.3-21.8c0.2-1.1,0.6-1.4,1.7-1.4c9.1,0,18.2,0,27.2,0c1.1,0,1.5,0.4,1.8,1.4c5.4,18.7,11,37.3,16.4,56
	c1.3,4.5,2.3,9,3.4,13.5c0,0.2,0.2,0.3,0.1,0.3c5.9-23.4,13.4-46.3,20.1-69.6c0.4-1.3,0.9-1.6,2.2-1.6c8.9,0.1,17.8,0,26.7,0
	c0.5,0,1.1,0,1.7,0c5.7,37.1,11.4,74.2,17.1,111.4c-9.5,0-18.8,0-28.4,0c-1.6-12-3.3-24-4.9-36c-1.5-11.9-2.9-23.9-4.2-34.9
	c-5.7,23.2-13.5,46.9-20.1,71c-3.4,0-6.6,0-9.8,0c-2.9,0-5.8-0.1-8.7,0c-1.4,0.1-1.9-0.3-2.3-1.7c-3.5-12.2-7.1-24.4-10.5-36.6
	c-2.9-10.1-5.6-20.3-8.4-30.5c-0.3-1-0.4-2-0.5-2.6c-3,23.5-6.1,47.3-9.2,71.2C234.4,217.8,225.1,217.8,215.6,217.8z"/>
<path class="st0" d="M774.9,153.1c0-3.9,0-7.8,0-11.9c8.4,0,16.6,0,24.9,0c0,25.5,0,51,0,76.6c-8.2,0-16.4,0-24.8,0
	c0-3.9,0-7.9,0-12.1c-1.7,2.1-3.2,4-4.7,5.7c-6.3,6.8-14.3,9.7-23.5,9.5c-14-0.3-23.9-7.1-29.1-19.8c-5.9-14.2-6-28.9,0.3-43.1
	c5.5-12.5,15.7-18.8,29.4-19.3c5.4-0.2,10.6,0.4,15.4,2.9c4.4,2.3,7.9,5.7,10.6,9.7c0.4,0.6,0.8,1.1,1.2,1.7
	C774.6,153,774.7,153,774.9,153.1z M740.1,179.2c0.1,0,0.2,0,0.3,0c0,0.7,0,1.4,0,2.1c0.4,8.8,5.6,16.6,15.9,17.4
	c6.7,0.5,12.5-1.3,16.5-7.1c1.9-2.8,2.8-5.9,3.1-9.2c0.4-3.8,0.2-7.6-1.1-11.2c-3-8.5-10.3-12.2-19.4-11.1
	c-7.5,0.9-12.2,5.2-14.2,12.4C740.6,174.6,740.5,177,740.1,179.2z"/>
<path class="st0" d="M422.9,152.9c0-3.9,0-7.7,0-11.7c8.3,0,16.6,0,25,0c0,25.5,0,51,0,76.6c-8.2,0-16.4,0-24.7,0
	c0-3.9,0-7.8,0-11.7c-0.1,0-0.2-0.1-0.4-0.1c-0.4,0.6-0.8,1.1-1.3,1.7c-4.8,6.5-10.9,11.1-19,12.6c-18.4,3.3-33.3-5.8-38.5-23.8
	c-3.6-12.3-3.5-24.7,1.2-36.8c5.2-13.2,16.8-20.9,31-21c4.9,0,9.6,0.5,14,2.6c4.9,2.3,8.6,6.1,11.6,10.6c0.3,0.4,0.5,0.8,0.8,1.2
	C422.7,153,422.8,153,422.9,152.9z M424.5,179.5c-0.1,0-0.2-0.1-0.3-0.1c-0.2-1.6-0.3-3.2-0.5-4.8c-0.1-1-0.4-1.9-0.7-2.9
	c-2.6-8.3-10.5-13-19.5-11.7c-7.7,1.1-12.8,5.5-14.5,13c-0.6,2.5-0.8,5.2-0.7,7.7c0.4,10.2,6.2,17.2,16,18
	c8.2,0.6,15.4-2.6,18.3-10.7C423.7,185.3,423.9,182.3,424.5,179.5z"/>
<path class="st0" d="M585.3,190.9c3.8,3.2,7.7,5.8,12.1,7.6c6.3,2.6,12.8,3.9,19.5,2.7c1.4-0.2,2.8-0.8,3.9-1.6
	c2.8-1.8,3.1-5.6,0.7-7.9c-2.5-2.5-5.7-3.3-9-4.1c-6-1.5-11.9-3-17.4-5.9c-5.8-3.1-10.1-7.3-11.3-14c-2.2-12.3,4-22.7,16.1-26.9
	c6.6-2.3,13.4-2.5,20.2-2c8.3,0.6,16.3,2.9,23.9,6.2c0.3,0.1,0.6,0.3,1.1,0.6c-1.8,6.1-3.7,12.2-5.6,18.5c-0.6-0.4-1.1-0.7-1.6-1
	c-6.5-4-13.4-6.6-21.1-6.4c-1.9,0-4,0.4-5.7,1.1c-3.9,1.6-4.3,6-0.7,8.1c2.9,1.6,6.2,2.6,9.4,3.7c4.8,1.7,9.7,3.1,14.4,5.1
	c6,2.6,10.8,6.5,12.4,13.2c2.6,10.8-0.8,21.7-11.9,28.1c-6,3.4-12.5,4.6-19.4,4.7c-12.2,0.2-23.9-2.2-34.6-8.4
	c-1.1-0.6-1.5-1.2-1.1-2.5C581.9,203.7,583.6,197.4,585.3,190.9z"/>
<path class="st0" d="M666.6,160.1c-3.9,0-7.6,0-11.4,0c0-6.4,0-12.6,0-19c3.8,0,7.5,0,11.4,0c0-7.7,0-15.3,0-22.9c9,0,17.8,0,26.8,0
	c0,7.6,0,15.2,0,22.8c3.8,0,7.6,0,11.4,0c0,6.4,0,12.7,0,19.1c-3.7,0-7.4,0-11.4,0c0,19.3,0,38.5,0,57.7c-9,0-17.8,0-26.7,0
	C666.6,198.6,666.6,179.5,666.6,160.1z"/>
<path class="st0" d="M217.5,18.9c6.3,0,12.4,0,18.8,0c0,0.6,0,1.2,0,1.7c0,11.3,0,22.6,0,33.9c0,3.5,0.2,7,0.7,10.4
	c0.9,6.2,4.2,9,10.4,9.2c1.5,0.1,3.1,0,4.5-0.3c5-1.1,7.5-4.1,8-10c0.2-2.5,0.4-5.1,0.4-7.6c0-11.8,0-23.6,0-35.3c0-0.6,0-1.2,0-1.8
	c6.3,0,12.4,0,18.7,0c0,0.4,0.1,0.8,0.1,1.2c0,14.1,0,28.2-0.1,42.3c0,3.4-0.5,6.9-1.3,10.2c-1.9,8.1-7.1,13.3-15.1,15.6
	c-9.3,2.6-18.7,2.7-28,0.1c-9.7-2.6-15.4-9.5-16.4-19.5c-0.4-4.1-0.6-8.2-0.7-12.3c-0.1-11.8,0-23.7,0-35.5
	C217.5,20.3,217.5,19.7,217.5,18.9z"/>
<path class="st0" d="M468.7,217.8c0-25.6,0-51.1,0-76.6c8.5,0,16.9,0,25.4,0c0,5.7,0,11.4,0,17.2c0.1,0,0.2,0.1,0.3,0.1
	c0.6-1.2,1.2-2.4,1.8-3.6c4.3-8.2,10.7-13.7,20-15c3.6-0.5,7.3-0.2,11-0.2c1,0,0.9,0.7,0.8,1.4c-0.4,4.3-0.9,8.7-1.3,13
	c-0.4,3.4-0.7,6.8-1.1,10c-3.1-0.4-6.1-1.1-9.1-1.2c-7.5-0.2-13.8,2.3-17.7,9.1c-2.1,3.7-3.1,7.8-3.1,12
	c-0.1,10.7-0.1,21.4-0.1,32.1c0,0.6,0,1.2,0,1.8C486.6,217.8,477.7,217.8,468.7,217.8z"/>
<path class="st0" d="M566,217.8c-9,0-17.9,0-26.9,0c0-25.5,0-51,0-76.6c8.9,0,17.8,0,26.9,0C566,166.7,566,192.2,566,217.8z"/>
<path class="st0" d="M721.1,88.1c0-2.4,0-4.8,0-7.1c-0.2-0.1-0.3-0.3-0.5-0.4c-0.2,0.3-0.2,0.7-0.5,1c-5,7-12,9.4-20.3,8
	c-8-1.4-13-6.5-15.3-14c-2.8-9-2.8-18,1.8-26.5c3.7-6.8,9.8-10,17.5-10.3c7.1-0.3,12.7,2.4,16.5,8.5c0.1,0.1,0.2,0.2,0.5,0.6
	c0-2.6,0-5,0-7.4c5.3,0,10.4,0,15.6,0c0,0.5,0,1.1,0,1.6c0,14.8,0,29.6,0,44.5c0,1.3-0.3,1.8-1.7,1.8c-4.1-0.1-8.1,0-12.2,0
	C722.2,88.2,721.7,88.2,721.1,88.1z M699,63.9c0.1,0,0.2,0.1,0.3,0.1c0.2,1.3,0.2,2.6,0.5,3.9c1,4.8,4.8,8,9.6,8.3
	c5.7,0.3,9.9-2.3,11.5-7.2c0.9-2.8,0.9-5.7,0.3-8.6c-1-4.6-4.3-7.7-8.9-8.4c-5-0.8-9.5,1.2-11.5,5.3C700,59.4,699.6,61.8,699,63.9z"
	/>
<path class="st0" d="M343.9,88.1c-5.7,0-11.2,0-16.8,0c0-0.7,0-1.3,0-1.8c0-7.7,0-15.3,0-23c0-1.7-0.1-3.4-0.4-5.1
	c-0.8-4.3-2.6-6.1-6.4-6.6c-4-0.5-7.8,1.1-9.2,4.6c-1,2.6-1.8,5.5-1.9,8.2c-0.3,7.3-0.2,14.6-0.1,21.9c0,1.5-0.4,1.9-1.9,1.9
	c-4.9-0.1-9.7,0-14.7,0c0-16,0-31.8,0-47.8c5.1,0,10.1,0,15.3,0c0,3,0,5.9,0,8.9c0.1,0,0.2,0.1,0.3,0.1c0.5-0.7,1-1.5,1.5-2.2
	c6.7-10,19.4-9.8,26.4-6.1c5,2.6,7.3,7.1,7.4,12.5c0.3,9.9,0.3,19.8,0.4,29.7C343.9,84.9,343.9,86.4,343.9,88.1z"/>
<path class="st0" d="M490.8,67.6c-12.4,0-24.4,0-36.4,0c-0.9,3.8,1.6,8.9,5.3,10.5c4.1,1.8,8.2,1.6,12.2-0.6
	c0.8-0.5,1.6-1.2,2.2-1.9c1.7-1.9,1.7-2,4.1-1c3.2,1.3,6.4,2.6,9.8,4c-0.8,2.2-2.1,4-3.8,5.5c-3.5,3.2-7.8,4.8-12.5,5.5
	c-6.3,0.9-12.5,0.6-18.4-1.7c-9.8-3.9-15.3-12.4-15.2-23.5c0.1-12,7.8-22,19.4-24.8c5.8-1.4,11.7-1.3,17.4,0.8
	c8.8,3.4,13.3,10.2,14.9,19.3C490.4,62.2,490.5,64.8,490.8,67.6z M454.7,58c6.4,0,12.7,0,19.1,0c0.2-4.7-4.1-8.8-9.2-8.9
	C459.1,48.9,454.8,52.7,454.7,58z"/>
<path class="st0" d="M576.7,54.7c-3.9-2.5-7.7-4.3-12.1-4.5c-1.7-0.1-3.5,0.1-5.2,0.5c-1.2,0.3-2.1,1.2-2.2,2.6
	c-0.1,1.3,0.6,2.2,1.7,2.7c2.1,0.9,4.2,1.6,6.3,2.4c3.2,1.2,6.5,2.2,9.6,3.7c5.5,2.8,7.8,7.9,6.8,14c-1,6-4.5,10.1-10,12.1
	c-11.3,4.1-22,1.7-32.3-3.7c1.2-4.4,2.3-8.6,3.5-12.7c2.3,1.4,4.3,2.8,6.5,3.9c4.2,2,8.6,3,13.3,2.2c0.8-0.1,1.5-0.4,2.2-0.8
	c2.1-1.3,2.4-4,0.3-5.4c-1.4-1-3-1.6-4.6-2.1c-3.4-1.2-6.9-2-10.2-3.3c-5.3-2.2-8.5-6-8.5-12c0-6.2,3-10.6,8.6-13.2
	c4.5-2.2,9.4-2.3,14.3-1.9c5.4,0.4,10.6,1.9,15.6,4.2C579,47,577.9,50.7,576.7,54.7z"/>
<path class="st0" d="M379.3,40.3c3.1,0,6,0,8.9,0c2.5,0,5,0,7.5,0c1,0,1.5,0.2,1.9,1.3c3.3,8.7,6.7,17.5,10,26.2
	c0,0,0.2-0.2,0.3-0.5c3.3-8.7,6.5-17.4,9.9-26.1c0.1-0.3,0.6-0.8,0.9-0.8c5.6,0,11.2,0,16.9,0c-0.2,0.6-0.4,1-0.5,1.3
	c-6.8,15-13.7,30.1-20.5,45.1c-0.5,1.1-1.1,1.5-2.3,1.5c-3.5-0.1-7,0-10.4-0.1c-0.5,0-1.3-0.5-1.5-0.9
	c-6.9-15.3-13.8-30.5-20.6-45.8C379.5,41.1,379.4,40.8,379.3,40.3z"/>
<path class="st0" d="M500.4,88.1c0-16,0-31.8,0-47.7c5.2,0,10.4,0,15.7,0c0,3.4,0,6.9,0,10.3c0.1,0.1,0.2,0.2,0.3,0.3
	c4-9.3,11.1-12.9,21-11.5c-0.5,5-1,10-1.6,15.1c-1.4-0.2-2.7-0.5-4-0.7c-7.4-0.8-13.6,2.8-14.3,11c-0.6,6.5-0.3,13.1-0.4,19.7
	c0,1.1,0,2.2,0,3.4C511.5,88.1,506,88.1,500.4,88.1z"/>
<path class="st0" d="M356.4,88.1c0-15.9,0-31.8,0-47.7c5.6,0,11.1,0,16.8,0c0,0.5,0.1,1,0.1,1.5c0,14.9,0,29.7,0,44.6
	c0,1.4-0.4,1.7-1.7,1.7c-4.6-0.1-9.1,0-13.7,0C357.4,88.2,356.9,88.2,356.4,88.1z"/>
<path class="st0" d="M591.3,40.3c0.7,0,1.1,0,1.6,0c5,0,9.9,0,15,0c0,0.6,0.1,1.1,0.1,1.6c0,14.9,0,29.7,0,44.6
	c0,1.2-0.2,1.7-1.6,1.7c-4.6-0.1-9.2-0.1-13.8,0c-1,0-1.5-0.2-1.5-1.4c0-15.1,0-30.2,0-45.4C591.2,41.2,591.3,40.8,591.3,40.3z"/>
<path class="st0" d="M552.6,102.2c8.6,0,14.9,6.3,14.9,15c0,8.3-6.8,15-15,15c-8.1-0.1-14.9-6.9-14.9-15.1
	C537.6,108.7,544.2,102.2,552.6,102.2z"/>
<g>
	<path class="st0" d="M17.2,15.6c0.4,0,0.8,0,1.2,0c19.4,0,38.8,0,58.2,0c0.4,0,0.8,0,1.3,0c0,0.5,0,0.9,0,1.3c0,33,0,65.9,0,98.9
		c0,0.7,0.2,1.5,0.4,2.1c4.6,10,12.5,15.5,23.4,16.4c5.6,0.4,11.3,0.4,16.8-1.2c8-2.4,13.7-7.2,17.1-14.9c0.2-0.4,0.3-0.9,0.3-1.4
		c0-5.9,0-11.7,0.1-17.6c0.1-9.5,0.1-19,0.2-28.5c0.1-8.2,0.1-16.3,0.2-24.5c0.1-9.9,0.1-19.8,0.2-29.7c0-0.3,0-0.5,0-0.8
		c20.5,0,40.9,0,61.5,0c0,0.4,0,0.7,0,1.1c0,37.9,0,75.7,0,113.6c0,9.6-2.5,18.6-6.6,27.2c-3.7,7.8-8.4,14.8-14.6,20.8
		c-9.3,9-20.4,14.7-33.2,17c-2.1,0.4-4.1,0.6-6.5,0.9c0.2-0.5,0.4-0.7,0.5-1c3.4-6.3,5.3-13.1,6.1-20.1c0.3-3,0.4-5.9,0.5-8.9
		c0.1-2.2,1.1-3.4,3.4-3.6c0.9-0.1,1.7-0.1,2.4,0.8c0.9,1.1,2.4,1.2,3.7,1.5c4.2,0.9,8-0.4,11.6-2.4c4.7-2.7,8.4-6.5,11.6-10.7
		c2.4-3.2,4.5-6.6,6.2-10.2c0.5-1.2,1-2.4,1.2-3.7c0.5-2.2-0.7-3.7-2.9-3.8c-2.8-0.2-5.4,0.7-8,1.5c-2.4,0.7-4.9,1.1-7.3,1.7
		c-4.2,1-8.3,2.2-11.9,4.5c-1.7,1.1-3.1,2.4-4.3,4.1c-1.8,2.5-3.9,4.8-6.4,6.5c-1.1,0.7-1.1,0.7-1.8-0.4c-0.9-1.6-1.7-3.1-2.7-4.8
		c1.4-1.5,2.8-3.1,4.2-4.6c2.7-3,5.4-6,8.2-9c0.3-0.3,0.7-0.6,1.2-0.8c8.1-2.6,15.3-6.7,21.4-12.7c2.4-2.4,4.6-4.9,6.2-8
		c0.4-0.8,0.8-1.5,1.4-2.2c0.6-0.7,1.3-1.4,2.1-1.8c8-4.2,11.4-11,11-19.9c-0.1-2.3-0.5-4.5-1.2-6.7c0.1,7.6-3,13.7-8.3,18.8
		c1.8-4.9,2.5-9.9,2.4-15.1c-0.1-5.1-0.9-10.2-2.6-15.1c-0.2,2-0.5,4-0.7,6c-1.4,10.1-3.3,20-7.6,29.4c-2.1,4.5-4.7,8.6-8.5,11.9
		c-2.5,2.1-5.3,3.6-8.7,3.9c-0.7,0.1-1.2-0.2-1.3-0.8c-0.1-0.3-0.1-0.7,0.1-0.9c5.7-8.7,9.1-18.3,11.7-28.3c1.9-7.2,3.2-14.5,4-21.9
		c0.2-1.5,0-3,0.3-4.4c0.7-3.4,2.6-6.2,4.9-8.7c1.2-1.2,2.9-2,4.3-3.1c2.7-2,5.1-4.2,7-7c1.4-2.1,2.4-4.3,2.5-6.9
		c0-1.3-0.2-2.5-0.8-3.7c-0.3,0.5-0.5,1-0.7,1.4c-1.3,2.3-3.1,4.2-5.1,6c-3,2.7-6.2,5-9.7,7.3c-0.1-0.9-0.1-1.6-0.2-2.3
		c-0.2-5.5-0.8-11-2.2-16.4c-0.7-2.6-1.6-5.1-3.2-7.4c-0.6-0.8-1.3-1.5-2.1-2.1c2.7,11.2,1,22.1-1.5,33.1c-1.9-4.1-5.4-5.8-9.7-6.8
		c0.2,0.4,0.4,0.7,0.5,1c3.9,7.3,6.2,15.1,6.5,23.4c0.4,9.8-1.8,19-5.7,27.9c-2.6,5.9-5.8,11.4-9.7,16.4c-0.2,0.2-0.4,0.5-0.7,0.8
		c-0.9-4.1-3.2-7.1-6.5-9.6c0,0.6,0,0.9,0,1.2c0,3.4,0.1,6.9,0,10.3c-0.3,7.7-2.7,14.5-8.1,20.1c-2.4,2.5-5.3,4.5-8.5,5.8
		c-0.4,0.2-0.8,0.3-1.2,0.3c-7.1,0.1-14.2,0.2-21.4,0.2c-2.8,0-5.6,0-8.3,0.1c-1.9,0.1-3.5-0.4-5.1-1.2c-4.7-2.3-8.1-5.8-10.8-10.2
		c-3.3-5.5-5.2-11.5-6.4-17.7c-0.4-2.3-0.7-4.7-1.1-7.3c-1.1,3-2.1,5.8-3.1,8.6c-0.2-0.2-0.3-0.3-0.4-0.5
		c-4.7-8.1-8.4-16.6-10.2-25.8c-2.3-11.6-1.3-22.9,4-33.6c0.6-1.2,1.3-2.4,2.1-3.6c0.7-1.1,1.6-2.2,2.5-3.5
		c-0.7,0.1-1.2,0.1-1.6,0.2c-2.6,1-5.2,2-7.8,3c-0.4,0.2-0.9,0.4-1.5,0.7c-0.4-9.2-0.9-18.3-1.3-27.4C54,28.1,54,28,53.9,28
		c-0.3,0.4-0.6,0.8-0.8,1.2c-1.1,3.1-2.4,6.2-3.3,9.4c-1.1,3.9-1.8,7.9-2.7,11.9c0,0.1-0.1,0.2-0.2,0.6c-1-0.3-2-0.6-2.8-1
		c-1.9-1-3.3-2.5-4.5-4.2c-2.3-3.2-3.9-6.8-5.1-10.5c-0.1-0.3-0.2-0.5-0.3-1c-0.8,2.4-1.1,4.7-0.7,7c0.9,5.8,3.7,10.5,8.1,14.3
		c4,3.4,6.1,7.8,6.1,13c0.1,14.8,2.9,29.2,7.6,43.2c0.8,2.4,1.7,4.8,2.6,7.3c-0.3-0.1-0.5-0.1-0.8-0.2c-6.3-2.3-10.6-6.8-13.6-12.6
		c-2.7-5.2-4.1-10.8-4.9-16.6c-0.8-5.5-0.9-11.1-0.7-16.6c0-0.9,0.1-1.7,0.2-2.8c-0.5,0.4-0.9,0.7-1.3,1.1c-1.9,1.9-2.8,4.3-3.4,6.9
		C32,83.1,32,88,32.3,92.9c0.2,2.7,0.5,5.5,0.8,8.4c-0.7-0.3-1.3-0.6-1.8-1c-2-1.5-3.3-3.7-4.2-5.9c-1.2-2.9-2.2-5.8-3.2-8.7
		c-0.1-0.2-0.2-0.5-0.4-0.8c-0.1,1.1-0.3,2.2-0.4,3.3c-0.3,4.3,0.1,8.6,1.9,12.6c2.4,5.3,6.5,8.6,11.9,10.5c0.5,0.2,1,0.6,1.3,1
		c5,7,11.5,12.5,18.7,17.1c3,1.9,6.1,3.4,9.2,5.1c0.3,0.2,0.6,0.3,0.8,0.5c3.4,3.9,6.4,8.1,8.6,12.9c1,2.2,1,2.2-1,3.7
		c-0.9,0.6-1.7,1.2-2.7,1.9c-1.7-1.6-3.6-2.8-4.9-4.8c-2.7-4.4-6.7-7.2-11.9-8.1c-1.8-0.3-3.6-0.3-5.5,0.1c-2.5,0.5-5.1,0.1-7.6-0.2
		c-1.1-0.2-2.3-0.4-3.4-0.6c-1.1-0.3-2.1-0.7-3.2-1c-1-0.3-2.1-0.5-3.2-0.7c-0.3-0.1-0.7,0.1-1,0.3c-1.6,1-2.2,2.5-1.8,4.3
		c0.4,1.6,1,3.3,1.8,4.8c2.1,3.9,5.1,7.2,8.1,10.4c1.4,1.5,2.7,3.1,4.3,4.3c5.2,4.3,11,5,17.1,2.2c2.6-1.2,6.4-0.2,8,2.2
		c0.2,0.3,0.3,0.8,0.3,1.2c0,4.6,0.3,9.3,1,13.9c0.8,5,1.9,9.8,3.9,14.5c0.1,0.2,0.1,0.3,0.2,0.5c-4.4-0.2-8.8-0.7-13-1.8
		c-16.2-4-27.8-13.8-35.4-28.5c-4.2-8.2-6.7-16.9-8-26c-0.3-2.2-0.5-4.5-0.7-6.7c0-0.3-0.1-0.5-0.2-0.8
		C17.2,93.8,17.2,54.7,17.2,15.6z"/>
	<path class="st0" d="M105.8,220.9c-1.6-0.2-3.2-0.4-4.8-0.8c-0.7-0.1-1.4-0.5-1.9-1c-2.4-2.3-4.2-5-4.8-8.4
		c-0.8-4.1,0.4-7.7,2.5-11.1c1.5-2.3,1.5-2.3,4.2-2.3c5.3,0,10.7,0,16,0c0.7,0,1,0.2,1.3,0.9c1.4,3.1,2.4,6.2,2.6,9.6
		c0.2,4.2-0.9,7.9-4.1,10.8c-0.4,0.4-1,0.8-1.5,0.9c-1.9,0.5-3.8,0.8-5.7,1.2c-0.3,0.1-0.6,0.1-0.9,0.2
		C107.8,220.9,106.8,220.9,105.8,220.9z M109.5,205.8c-0.1,0-0.2,0-0.3,0c0.2,0.7,0.2,1.7,0.6,2.2c1.8,1.9,4.1,3.1,6.7,3.5
		c2.1,0.4,2.9-0.2,2.7-2.4c-0.2-2.2-0.6-4.3-1.1-6.4c-0.3-1.3-1.4-2-2.7-1.7c-1.5,0.4-2.9,1.1-4.3,1.7
		C109.8,203.2,108.9,204.1,109.5,205.8z M106.4,205.7c0-0.5,0-1,0-1.5c0-0.2-0.1-0.5-0.3-0.6c-1.7-1.2-3.5-2.3-5.6-2.6
		c-1.6-0.2-2.6,0.5-3,2.1c-0.2,1-0.5,2.1-0.6,3.1c-0.1,1.4-0.2,2.8-0.1,4.2c0,0.8,0.6,1.2,1.5,1.2c2.4-0.1,4.5-1,6.4-2.4
		C105.8,208.3,106.9,207.4,106.4,205.7z M107.5,217.3c2.4-0.4,4.9-0.7,7.4-1.2c1.2-0.2,1.5-1.3,0.6-2.2c-0.3-0.3-0.7-0.6-1.1-0.8
		c-2.2-0.8-4.3-1.5-6.5-2.3c-0.2-0.1-0.5,0-0.7,0c-1.9,0.7-3.9,1.3-5.8,2.1c-0.7,0.3-1.3,0.7-1.8,1.2c-0.6,0.6-0.5,1.2,0.2,1.7
		c0.3,0.2,0.6,0.3,0.9,0.3C102.9,216.6,105.1,217,107.5,217.3z"/>
	<path class="st0" d="M77.8,162.7c0.9,2,1.6,4,2.5,5.8c1.5,2.8,3.2,5.5,4.7,8.3c0.8,1.5,1.5,3.2,2.2,4.8c0.2,0.4,0.4,1,0.3,1.4
		s-0.4,0.9-0.8,1.1c-0.3,0.1-0.9-0.1-1.1-0.4c-1.3-2-3.3-2.7-5.6-2.9c-0.2,0-0.4-0.1-0.6-0.2c-4.5-2.2-6.5-6.9-5.1-11.7
		C75.1,166.8,76.3,164.7,77.8,162.7z"/>
	<path class="st0" d="M136,162.6c2.5,3.6,4.6,7.1,3.6,11.6c-0.7,3.1-2.7,5.1-5.4,6.6c-0.2,0.1-0.5,0.1-0.8,0.2c-2,0.2-3.9,0.8-5,2.6
		c-0.3,0.5-0.8,0.9-1.4,0.6c-0.6-0.3-0.9-0.9-0.7-1.5c0.5-1.5,1-3,1.7-4.4c1.4-2.7,3.1-5.2,4.5-7.8c1.1-2.2,2.1-4.4,3.1-6.7
		C135.7,163.4,135.8,163.1,136,162.6z"/>
</g>
<path class="st0" d="M374,25.5c0,5.3-4,9.3-9.3,9.3c-5.1,0-9.3-4.3-9.2-9.5c0-5.2,4.2-9.1,9.5-9.1C370.3,16.2,374,20.1,374,25.5z"/>
<path class="st0" d="M599.6,16.2c5.4,0,9.4,4,9.4,9.2c0,5.3-4.1,9.4-9.3,9.4c-5.1,0-9.3-4.2-9.3-9.4
	C590.3,20.2,594.4,16.2,599.6,16.2z"/>
</svg>
