<?xml version="1.0" encoding="utf-8"?>
<!-- Generator: Adobe Illustrator 22.1.0, SVG Export Plug-In . SVG Version: 6.00 Build 0)  -->
<svg version="1.1" id="Capa_1" xmlns="http://www.w3.org/2000/svg" xmlns:xlink="http://www.w3.org/1999/xlink" x="0px" y="0px"
	 viewBox="0 0 1077 585" style="enable-background:new 0 0 1077 585;" xml:space="preserve">
<style type="text/css">
	.st0{fill:#00324A;}
	.st1{fill:none;stroke:#F8ED38;stroke-width:3.1326;stroke-miterlimit:10;}
</style>
<g>
	<g>
		<path class="st0" d="M942.4,220.8H987l1.5,1.3v63.4c10.4-8,21.1-15.1,35.2-15.1c22,0,41.2,17,41.2,52.9
			c0,49.8-26.3,60.4-57.8,60.4c-14.2,0-24.8-3.2-32.8-7.6l-7.8,4.7h-11.2V249c0-8.8-1.7-18.6-5.4-19.2l-7.8-1.3v-7.8H942.4z
			 M989.6,359.3c1.5,8.2,7.3,14,18.1,14c16.6,0,22.2-17,22.2-44.7c0-35.8-11.2-41.4-22-41.4c-9.9,0-15.1,5.2-17.9,12.5
			c-1.1,3-1.3,7.8-1.3,12.3v34.7C988.5,351.1,988.7,356,989.6,359.3"/>
		<path class="st0" d="M12.1,228.5h68.8v8.4c-14.9,0.6-16.8,1.7-16.8,12.9v84.6c0,25,8.4,39.7,28.3,39.7c20.3,0,28.3-14.5,28.3-39.7
			v-84.6c0-11.2-1.7-12.3-16.8-12.9v-8.4h68.8v8.4c-15.1,0.6-16.8,1.7-16.8,12.9v81.5c-0.4,38.2-22.7,52.9-63.4,52.9
			c-44,0-63.4-14.7-63.4-52.9v-81.5c0-11.2-1.7-12.3-16.8-12.9L12.1,228.5z"/>
		<path class="st0" d="M171.3,372.7c12.5-0.6,14.2-1.5,14.2-10.8v-71.2c0-8.8-1.7-10.8-5.4-11.2l-7.8-1.1v-8h42.9l2.6,19.4
			c12.7-13.4,20.1-19.4,29.3-19.4c9.3,0,15.5,6,15.5,15.3c0,4.7-1.1,9.3-3.5,12.5c-2.4,3.2-6.9,5.8-11.2,5.8
			c-4.1,0-7.3-1.7-10.1-3.5c-4.7-2.8-8.2-4.5-11.6-4.5c-5.4,0-7.6,5.2-7.6,16.6v49.4c0,9.3,1.9,9.9,19,10.8v8.4h-66.4V372.7z"/>
		<path class="st0" d="M259.6,220.8h44.7l1.5,1.3v63.4c10.4-8,21.1-15.1,35.2-15.1c22,0,41.2,17,41.2,52.9
			c0,49.8-26.3,60.4-57.8,60.4c-14.2,0-24.8-3.2-32.8-7.6l-7.8,4.7h-11.2V249c0-8.8-1.7-18.6-5.4-19.2l-7.8-1.3L259.6,220.8
			L259.6,220.8z M306.8,359.3c1.5,8.2,7.3,14,18.1,14c16.6,0,22.2-17,22.2-44.7c0-35.8-11.2-41.4-22-41.4c-9.9,0-15.1,5.2-17.9,12.5
			c-1.1,3-1.3,7.8-1.3,12.3v34.7C305.9,351.1,306.2,356,306.8,359.3"/>
		<path class="st0" d="M414.5,324.1c14.2-4.7,32.8-10.4,40.6-15.5v-11.6c0-12.5-6.5-16.4-12.7-16.4c-6.3,0-13.2,3.2-19.4,22
			c-1.7,5.4-4.1,8.8-9.1,8.8c-5.8,0-19.8-3.9-19.8-13.8c0-14.2,19.8-27.2,52.2-27.2c39,0,41.2,17.3,41.2,30.8v50.9
			c0,12.9,4.1,15.5,7.1,16.6c3.2,1.1,7.8,1.3,10.6,1.1l0.6,7.3c-7.3,2.8-21.1,6.7-32.6,6.7c-10.6,0-14.2-6-17.3-12.7
			c-7.8,5.2-17.5,12.7-31.5,12.7c-22.2,0-33.2-15.3-33.2-31.9C391.2,339,397,329.9,414.5,324.1 M441.4,366.4c6,0,13.2-3,13.6-14.9
			v-32.1c-5.4,2.4-12.9,5.6-19.8,9.3c-6.7,3.7-10.1,8.8-10.1,19.2C425,359.5,432.8,366.4,441.4,366.4"/>
		<path class="st0" d="M508.9,372.7c12.5-0.6,14.2-1.5,14.2-10.8v-71.2c0-8.8-1.7-10.8-5.4-11.2l-9.1-1.1v-8h44.7l2.8,15.1
			c14.5-8.6,24.8-15.1,37.8-15.1c22.7,0,33,13.2,33.2,33.9v57.4c0,9.3,1.7,10.1,14.2,10.8v8.4h-59.3v-8.4l4.5-0.4
			c4.5-0.4,7.1-1.5,7.1-8.8v-55.9c-0.4-13.2-6.3-20.1-17.5-20.1c-9.3,0-15.3,5-18.1,10.8c-1.5,3-2.2,8.2-2.2,12.9v52.2
			c0,7.3,2.4,8.4,7.1,8.8l4.5,0.4v8.4h-59.3v-8.2H508.9z"/>
		<path class="st0" d="M649.4,372.7c15.7-0.6,17.5-1.7,17.5-12.9V249.9c0-11.2-1.7-12.3-17.5-12.9v-8.4h70.1v8.4
			c-15.7,0.6-17.5,1.7-17.5,12.9v45.3h58v-45.3c0-11.2-1.7-12.3-17.5-12.9v-8.4h70.1v8.4c-15.7,0.6-17.5,1.7-17.5,12.9v109.6
			c0,11.2,1.7,12.3,17.5,12.9v8.4h-70.1v-8.4c15.7-0.6,17.5-1.7,17.5-12.9v-53.7h-58v53.7c0,11.2,1.7,12.3,17.5,12.9v8.4h-70.1
			V372.7z"/>
		<path class="st0" d="M812.9,270.4h44.9l1.5,1.3v70.5c0,17.3,6.9,23.9,18.6,23.9c9.7,0,15.5-5.2,17.5-10.4
			c1.3-3.2,1.7-8.6,1.7-12.3v-52.9c0-8.8-1.7-10.8-5.4-11.2l-7.8-1.1v-8h44.7l1.5,1.3v90c0,9.3,1.7,10.1,14.2,10.8v8.4h-45.5
			l-1.7-12.3c-8.8,4.7-20.3,14.9-39,14.9c-16,0-31.9-7.3-31.9-33v-59.8c0-8.8-1.7-10.8-5.4-11.2l-7.8-1.1V270.4z"/>
		<rect x="199.7" y="145.2" class="st0" width="32.6" height="2.2"/>
		<polygon class="st0" points="261.1,128.8 249.9,128.8 249.9,165.7 247.3,165.7 247.3,128.8 236,128.8 236,126.7 261.1,126.7 		"/>
		<path class="st0" d="M271.9,125.4h2.6v17.8h0.1c1.8-3.6,5.2-6.9,9.6-6.9c2.6,0,6.9,2.1,6.9,8.4v20.8h-2.6v-18c0-3.7-0.5-9-4.7-9
			c-4.8,0-9.2,6-9.2,12.7v14.4h-2.6L271.9,125.4L271.9,125.4z"/>
		<path class="st0" d="M324.5,163.7c-3.3,1.5-6.6,2.6-10.3,2.6c-8.4,0-11.5-7.5-11.5-14.8c0-7.3,3.2-15.1,11.6-15.1
			c4.8,0,10.6,3.4,10.6,15.3h-19.7c0.5,10.1,4.7,12.3,9,12.3c3.3,0,6.3-1.2,9-2.9L324.5,163.7z M322.4,149.5c0.3-4.9-2.6-11-8.4-11
			c-5.6,0-8.9,6-8.8,11H322.4z"/>
		<path class="st0" d="M386.8,134.1c-0.1-3.4-3-6-6.4-6c-9,0-9.7,11.8-9.7,18.4c0,6.4,0.7,17.8,9.5,17.8c4.1,0,7.1-3,7.3-7h2.6
			c-0.5,5.8-4.2,9.2-10.1,9.2c-10.3,0-11.9-11.8-11.9-19.7c0-8.4,1.5-20.8,12.5-20.8c4.8,0,8.6,3.4,9,8.1L386.8,134.1L386.8,134.1z"
			/>
		<path class="st0" d="M400.5,151.3c0-11.2,5.8-14.9,11-14.9c4.8,0,11,3.2,11,14.9c0,11.6-6.2,14.9-11,14.9S400.5,163,400.5,151.3
			 M419.9,151.3c0-5.6-1.4-12.7-8.5-12.7c-7,0-8.4,7.1-8.4,12.7s1.4,12.7,8.4,12.7C418.6,164.1,419.9,156.9,419.9,151.3"/>
		<polygon class="st0" points="430.5,137.1 433.4,137.1 437.3,161.7 437.3,161.7 442.4,144.3 445.1,144.3 450.2,161.7 450.4,161.7 
			454.3,137.1 457.1,137.1 452,166.1 449.3,166.1 443.8,147.5 438.3,166.1 435.6,166.1 		"/>
		<path class="st0" d="M465.7,151.3c0-11.2,5.8-14.9,11-14.9c4.8,0,11,3.2,11,14.9c0,11.6-6.2,14.9-11,14.9S465.7,163,465.7,151.3
			 M485.2,151.3c0-5.6-1.4-12.7-8.5-12.7c-7,0-8.4,7.1-8.4,12.7s1.4,12.7,8.4,12.7S485.2,156.9,485.2,151.3"/>
		<path class="st0" d="M504.6,165.7H502v-19.9l-1.1-9.2h2.5l1,8.1c1.9-4,4.9-8.4,9.9-8.4c4.8,0,6,4.8,6,8.6h-2.6
			c0-2.6-0.3-6.4-3.7-6.4c-2.9,0-9.5,4.5-9.5,15.5L504.6,165.7L504.6,165.7z"/>
		<path class="st0" d="M552,137.1c-5.8,6.9-7.3,9-11.5,13l13.8,15.6h-3.4l-12.1-14.1l-2.7,2.6v11.5h-2.6v-40.3h2.6v25.8
			c4.5-4.2,8.9-8.9,12.3-14.1H552z"/>
		<path class="st0" d="M573.8,139.1h-8.4v-2.2h11v28.6h-2.6V139.1z M577.8,128.7c0,1.5-1.4,2.9-2.9,2.9c-1.6,0-2.9-1.2-2.9-2.9
			c0-1.6,1.2-2.9,2.9-2.9C576.6,125.8,577.8,127.1,577.8,128.7"/>
		<path class="st0" d="M599.7,165.7h-2.6v-14.4c0-4.9-0.1-9.7-1.1-14.7h2.3l1.1,8.2h0.1c1.1-4.2,5.6-8.5,10.1-8.5
			c5.2,0,6.7,4.5,6.7,8.9v20.4h-2.6v-19.3c0-3.3,0-7.8-4.5-7.8c-4.1,0-9.7,4.1-9.7,15.3L599.7,165.7L599.7,165.7z"/>
		<path class="st0" d="M632.3,169.4c1.6,2.1,4.4,3.3,7.1,3.3c3.2,0,7.3-2.3,7.3-9.6v-3.6c-1.9,2.1-5.2,3.6-8.1,3.6
			c-6.9,0-10-6.9-10-12.7c0-6.6,2.7-14,10.6-14c3.2,0,5.3,1.4,7.8,3.3l0.8-3.3h2.6c-1.4,4.9-1.2,10.1-1.2,15.1v11.9
			c0,8.5-5.9,11.4-10.3,11.4c-3,0-6.3-1.8-8.4-3.8L632.3,169.4z M646.6,142.7c-1.6-2.3-4.5-4.1-7.5-4.1c-5.9,0-7.8,6.4-7.8,11.2
			c0,9,5.2,11.1,7.5,11.1c2.9,0,6.3-1.8,7.8-4.4V142.7z"/>
		<path class="st0" d="M713.3,132.1c-2.5-2.1-5.2-4.1-8.6-4.1c-4,0-7.3,2.7-7.3,6.9c0,3,1.4,5.1,6.2,7.9l3.2,1.9c6.2,3.7,9,6,9,10.8
			c0,6.7-4.4,10.8-11.1,10.8c-4.7,0-8.2-2.2-11-5.8l1.9-1.5c2.1,3,5.3,5.2,9,5.2c4.5,0,8.4-3.4,8.4-8.1c0-3.7-0.4-5.1-7.7-9.3
			l-3.7-2.2c-3.7-2.2-7.1-4.8-7.1-9.6c0-5.9,4.5-9.3,10.1-9.3c3.7,0,7.3,1.9,9.9,4.4L713.3,132.1z"/>
		<path class="st0" d="M727.9,147.1c0-3.4-0.3-7-1.4-10.3l2.3-0.3l1,4.7h0.1c1.5-3,4.2-4.7,7.5-4.7c4.8,0,11.1,3.8,11.1,15.1
			c0,11.5-7.4,14.8-11.2,14.8c-2.6,0-5.1-0.8-7.1-2.5v13.3h-2.6v-30.1L727.9,147.1z M730.3,161.3c1.8,1.5,4,2.9,6.4,2.9
			c3.3,0,9.5-2.3,9.5-12.7c0-10-5.3-12.7-8.6-12.7c-3.8,0-5.8,2.6-7.1,5.8v16.9L730.3,161.3z"/>
		<path class="st0" d="M776.5,166.3c-0.5-1.5-1-3.3-1.1-4.9c-2.1,2.9-4.1,4.9-7.8,4.9c-5.2,0-7.9-4.2-7.9-9c0-5.5,3.2-10.1,8.6-10.1
			c2.3,0,4.9,1,7,1.9c0.1-7.3-1.1-10.3-5.9-10.3c-2.5,0-4.7,0.8-6.9,1.9l-0.5-2.3c2.5-1,4.9-1.8,7.7-1.8c5.2,0,8.4,3.7,8.2,10.1
			l-0.3,11.6c0,2.7,0.7,5.3,1.4,7.8L776.5,166.3z M775,150.9c-1.8-1-4-1.8-6.3-1.8c-4.8,0-6.7,4-6.7,8.2c0,3.2,1.8,6.7,5.5,6.7
			c3.6,0,5.8-2.9,7.5-5.8V150.9z"/>
		<path class="st0" d="M813.7,161.5c-2.6,2.9-5.5,4.8-9.5,4.8c-5.1,0-12.1-3.2-12.1-14.7c0-11.6,6.4-15.2,11.8-15.2
			c4.4,0,7.5,2.3,9.9,5.8l-2.3,1.5c-1.5-3-4.1-5.2-7.5-5.2c-3.6,0-9.2,2.2-9.2,12.6c0,9.9,5.2,12.9,9.5,12.9c3.2,0,5.9-2.2,7.8-4.5
			L813.7,161.5z"/>
		<path class="st0" d="M845.7,163.7c-3.3,1.5-6.6,2.6-10.3,2.6c-8.4,0-11.5-7.5-11.5-14.8c0-7.3,3.2-15.1,11.6-15.1
			c4.8,0,10.6,3.4,10.6,15.3h-19.6c0.5,10.1,4.7,12.3,9,12.3c3.3,0,6.3-1.2,9-2.9L845.7,163.7z M843.7,149.5c0.3-4.9-2.6-11-8.4-11
			c-5.6,0-8.9,6-8.8,11H843.7z"/>
	</g>
	<path class="st1" d="M700.7,260.8c0,0-21.5,0-21.5-22.3v-9.9V44c0-0.4,0-0.6,0-1c0-8.2-6.7-14.8-14.8-14.8H430.8
		c-8.2,0-14.8,6.7-14.8,14.8v217.6v113.3v34.8V542c0,8.2,6.7,14.8,14.8,14.8l0,0h67h166.9c8.2,0,14.8-6.7,14.8-14.8
		c0-0.2,0-0.4,0-0.6V408.7v-34.8v-15.6v-9.9c0-22.3,21.5-22.3,21.5-22.3h25.7c0,0,21.1,0,21.5,21.9v25.9l0,0c0,0.4,0,138,0,167.5
		c0,0.2,0,0.4,0,0.6c0,8.2,6.7,14.8,14.8,14.8l0,0h233.8c8.2,0,14.8-6.7,14.8-14.8V408.7V260.6V43c0-8.2-6.7-14.8-14.8-14.8H762.8
		l0,0c-8.2,0-14.8,6.7-14.8,14.8c0,0.2,0,0.4,0,0.6v195.3c-0.2,21.9-21.5,21.9-21.5,21.9H700.7z"/>
	<path class="st1" d="M333.7,28.2H99.9c-8.2,0-14.8,6.7-14.8,14.8v330.8l0,0c0,0.4,0,0.8,0,1.3c0,100.3,81.3,181.6,181.6,181.6h67
		c8.2,0,14.8-6.7,14.8-14.8V408.7V260.6V43C348.6,34.9,341.9,28.2,333.7,28.2"/>
</g>
</svg>
