<?xml version="1.0" encoding="utf-8"?>
<!-- Generator: Adobe Illustrator 22.1.0, SVG Export Plug-In . SVG Version: 6.00 Build 0)  -->
<svg version="1.1" id="Capa_1" xmlns="http://www.w3.org/2000/svg" xmlns:xlink="http://www.w3.org/1999/xlink" x="0px" y="0px"
	 viewBox="0 0 721 617" style="enable-background:new 0 0 721 617;" xml:space="preserve">
<style type="text/css">
	.st0{fill:#DDB305;}
</style>
<path class="st0" d="M191.7,159.2c-4.8,0-9.4,0.1-14,0c-5.7-0.2-6.5-1.6-4.6-6.8c4.3-11.2,4.4-12.3,16.3-10.4
	c10.9,1.8,17.6-2,23.9-10.2c17.3-22.2,39.8-38.2,64.7-50.7c7.3-3.7,15.8-4.9,23.5-8c29.8-11.8,60.5-11.4,91.8-8.2
	c16.4,1.7,30.3,9.7,45.3,14.8c7.2,2.5,13.3,8.7,19.4,13.8c12.7,10.7,26.8,19.8,36.4,33.9c5.1,7.5,11.5,14.3,15.9,22.2
	c5.4,9.5,9.5,19.7,13.9,29.7c8.9,20,11.9,41,10.5,62.7c-0.8,11.9,0.8,24-3,35.7c-5.7,17.3-8.4,35.6-19.4,52.6c9.1,0,17,0,26.5,0
	c-2.5,5.6-3.4,10.5-6.3,13.3c-2.4,2.3-7.3,2.3-11.1,2.5c-4.3,0.2-8.6-0.7-12.9-0.5c-2,0.1-4.5,1.2-5.7,2.7
	c-15.4,20.5-33.6,38.4-54.7,52.7c-13.9,9.5-29.7,16.4-46.6,19.8c-3.6,0.7-7.2,1.4-10.7,2.5c-23.1,7.2-46.1,3.1-69.2-0.6
	c-29.4-4.8-55.1-17.8-78.5-35.1c-11.2-8.3-21.8-17.6-30.7-28.9c-8.9-11.2-15.4-23.1-21.2-36.2c-4.6-10.6-10.9-20.1-12.2-32.1
	c-1.7-14.4-5.1-28.7-6.7-43.1c-1-8.9-1.8-18.3,0.2-26.9c3.8-16.6,9.6-32.8,14.6-49.1C188.5,167.2,190.1,163.4,191.7,159.2z
	 M516.4,237.6c0.6-0.5,1.1-1,1.7-1.4c-2.7-12.6-5.4-25.2-8.2-37.7c-0.2-0.8-0.9-1.4-1.2-2.2c-2.6-5.7-5.1-11.4-7.7-17
	c-2.3-4.9-4.5-9.8-7-14.6c-1.6-3.1-3.3-6.2-5.3-9c-4.8-6.7-9.1-14-15-19.7c-10.3-9.9-21.1-19.5-32.6-27.9c-8-5.9-17.5-9.9-26.5-14.4
	c-5.2-2.6-10.6-4.7-16.1-6.5c-8.3-2.7-16.8-6.4-25.3-7c-12.9-0.9-25.9,0.5-38.9,1c-1.7,0.1-3.3,0.3-4.9,0.7
	c-19.8,4.8-38.3,12.9-56,22.9c-1,0.6-1.9,1.4-2.8,2.1c-6.6,5.1-12.8,10.7-19.7,15.3c-7.1,4.7-9.7,12.3-14.9,18.6
	c1.1,0.5,1.5,0.8,2,0.8c14.6,0,29.3-0.2,43.9,0.1c11.3,0.2,22.6,1,33.8,1.8c1.1,0.1,2.8,1.4,3,2.4c2,8.5-4,15-12.7,14.6
	c-10.6-0.5-21.2-0.3-31.9-0.6c-9.6-0.2-19.3-0.8-28.9-1c-7.8-0.2-15.6-0.1-23.3,0.1c-1.4,0-2.9,1.5-4.1,2.5
	c-8,6.6-10.9,16.1-14.2,25.3c-1.6,4.3-2,9.1-3.2,14.9c10.8,0,20.8,0,30.7,0c11.5,0,22.9-0.1,34.4,0c3.4,0,4.8,1.5,5.1,5.2
	c0.6,9.2-2.2,17.7-4.8,26.3c-1.9,6.6-1.5,7.6-10.6,8.5c-1.8,0.2-3.7-0.1-5.5-0.2c-10.3-0.7-20.6-1.8-30.9-2
	c-8.1-0.2-16.1,0.7-25.4,1.1c0.7,11.1,1.4,21.5,1.9,31.9c0.9,15.7,5.8,30.3,13.5,43.9c3.6,6.4,9,11.7,13.5,17.6
	c0.6,0.8,1.1,1.7,1.7,2.4c3.4,4.2,6.3,9,10.4,12.5c8.9,7.7,18.3,14.9,27.8,21.8c5.5,4,12.7,5.8,17.4,10.5
	c8.5,8.5,19.5,12.6,29.9,16.4c21.4,7.8,44.2,7.8,66.6,4.9c18-2.4,35.8-5.7,51.9-14.9c1.9-1.1,4.1-1.4,6-2.4c2.4-1.2,4.8-2.4,6.8-4.1
	c11-9.4,21.9-19,32.7-28.6c1.6-1.5,3-3.3,4.9-5.5c-1.6-0.3-2.1-0.5-2.7-0.5c-21.1,0-42.3,0-63.4,0.1c-7.2,0-14.3,0.9-21.5,0.8
	c-17.1-0.4-34.2-1.2-51.4-1.7c-6.2-0.2-12.3,0.3-18.5,0.3c-1.3,0-3.8-0.9-3.8-1.2c0.3-3.9,0.6-7.9,1.8-11.6c0.4-1.1,3.6-1.7,5.5-1.7
	c25.8,0.1,51.6,0.6,77.4,0.6c14,0,28-0.8,41.9-1c14.3-0.1,28.6,0.2,42.9,0.2c1.4,0,3.5-0.7,4.2-1.8c4.9-7.1,10.1-14.1,14.1-21.7
	c2.9-5.6,4.2-12,6.2-18.3c-5.4-0.4-9.8-0.7-14.3-0.9c-17.8-0.9-35.6-2.2-53.4-2.4c-13.9-0.1-27.9,1.6-41.9,1.9
	c-10.3,0.2-13.4-2.6-11.9-12.9c1.6-10.9,5.1-21.6,7.9-32.3c1.5-5.7,5.4-7.7,11.2-7.7c26.7-0.1,53.5-0.5,80.2-0.8
	c1.5,0,3,0.2,4.5,0.4C501.3,235.7,508.9,236.7,516.4,237.6z"/>
<path class="st0" d="M330.6,574.8c-7.7,0-16.5,0-25.6,0c5-12.4,2.1-25.3,3.1-38.4c-10.1,0-19.8,0-30.6,0c0.5,12.8,1.1,25.4,1.6,38.3
	c-7.3,0-15.9,0-23.6,0c2.4-29.9,2.6-59.9-0.2-90.2c7.7,0,16.3,0,24,0c-0.5,9.9-0.8,19.6-1.4,29.3c-0.2,3.5,1.1,4.7,4.6,4.6
	c8.3-0.2,16.6-0.1,26.1-0.1c-0.7-11.7-1.4-22.6-2.1-33.8c7.5,0,16.3,0,24.2,0C327.8,514.6,327.7,544.7,330.6,574.8z"/>
<path class="st0" d="M150,484.5c8.7,0,17.3,0,25.4,0c-3.9,23.6-1.7,47.2-1.7,70.8c0,5.5,2.8,10.9,4.4,16.7
	c-4.6,1.1-10.4,2.8-16.2,3.4c-2.3,0.2-4.9-2.2-8.2-3.9c-10.4,5.8-22.7,6.8-35.4,3.7c-16.1-3.9-25.6-14.8-25.6-31.2
	c0-12.3,1.6-24.5,2.7-36.8c0.7-7.4,1.7-14.8,2.6-22.6c7.7,0,15.8,0,24.2,0c-2.1,7.2-5,14.4-6.2,21.8c-1.8,11.4-3.1,23.1-3.4,34.6
	c-0.3,11.1,7,17.8,18.1,18.7c6.6,0.5,13.1-0.3,18.6-4.1c1.6-1.1,3.1-3.6,3.1-5.5c0.2-17.5,0.3-35,0-52.5
	C152.4,493.4,150.9,489.2,150,484.5z"/>
<path class="st0" d="M525.1,484.5c8.3,0,16.3,0,24.4,0c-2.5,8.9-5.6,17.5-7.2,26.4c-1.6,9.1-2.5,18.5-2.4,27.8
	c0.2,15.1,8.9,22.4,24,21c2.1-0.2,4.3-0.6,6.4-1.1c8.5-2.3,9.7-4.1,9.7-12.8c0-14.2,0.2-28.3-0.1-42.5c-0.1-6.2-1.3-12.4-2-18.8
	c8.1,0,16.8,0,25.8,0c-5.2,14.9-2.3,30.2-2.9,45.2c-0.3,7.3-0.1,14.7,0,22c0.1,7.1,0.8,14,6.6,19.8c-6.5,1.5-12.3,3.3-18.3,3.9
	c-2.3,0.2-4.8-2.4-7.8-4c-11.1,6.3-23.8,7-36.8,3.5c-15.1-4-24.7-15.1-24.4-30.7c0.4-15.4,2.6-30.7,4-46.1
	C524.6,493.8,524.8,489.5,525.1,484.5z"/>
<path class="st0" d="M619.5,575c0.5-8,1.3-15.5,1.4-23.1c0.2-16.3,0.2-32.7,0-49c-0.1-5.6-0.7-11.2-1.2-17.4
	c4.9-0.7,10.4-1.8,15.9-2.2c1.4-0.1,2.9,2.3,4.4,3.7c4.8-0.8,10-2.1,15.2-2.5c12.7-0.9,20.5,3.2,24.5,12.2
	c4.7,10.5,2.3,20.5-6.8,29.2c0.1,0.3,0.1,0.7,0.3,0.9c10.3,6.9,13.9,14.6,11.7,25.2c-2.3,11.6-10.5,20-22.4,21.8
	c-6.2,1-12.6,0.9-18.9,1C635.4,575.1,627.1,575,619.5,575z M640.6,546.8c0,0.8,0,1.7,0,2.5c0,11.9,1,12.8,13,11.2
	c9.3-1.2,14.1-8.1,12.2-17.5c-1.5-7.7-9.2-11.4-21.8-9.7c-6.7,0.9-2.1,6.7-3.3,10C640.2,544.4,640.6,545.7,640.6,546.8z
	 M648.2,520.7c2,0,4,0.2,6,0c6.9-1,10.8-6.3,9.9-13.1c-0.8-6.2-5.8-9.9-12.5-9.3c-11,0.9-11,0.9-11,12.1c0,1,0,2,0,3
	C640.6,520.8,640.6,520.8,648.2,520.7z"/>
<path class="st0" d="M448.1,505.5c-7.4-2-14.3-4.8-21.3-5.4c-12.7-1.1-20.9,5.5-22.8,17.9c-1.1,6.8-1.2,14-0.3,20.8
	c2.2,16.6,12.2,23.4,28.6,19.5c5.4-1.3,10.4-4.2,15.6-6.5c1.2-0.5,2.2-1.3,3.8-2.2c0,6.1,0.2,11.5-0.2,17c-0.1,1.5-1.8,3.6-3.3,4.3
	c-15.5,6.6-31.3,7.3-46.9,0.2c-6.9-3.1-11.9-8.5-14.8-15.6c-6.6-16.4-6.9-33.2-0.3-49.5c5.4-13.3,16.5-20.2,30.3-22.4
	c11-1.8,21.8,0.6,32.4,4.1c3.3,1.1,4.5,2.9,3.1,6.4C450.3,498.2,449.1,502.5,448.1,505.5z"/>
<path class="st0" d="M78.3,502.5c-7.1-1.3-13.3-2.8-19.6-3.6c-4.2-0.5-7.6,1.4-9,5.6c-1.3,4,0.6,7.2,3.8,9.5
	c7.1,5,14.5,9.5,21.2,14.9c10.7,8.6,12.8,21.9,5.8,33.7c-4.9,8.2-12.8,12-21.9,13c-9.4,1.1-18.5-0.3-27.4-3.6
	c-3.5-1.3-5-3.5-4.4-7.3c0.6-3.9,0.9-7.9,1.4-12.2c3.2,1.6,6.2,3.6,9.4,4.6c4.6,1.3,9.4,2.4,14.1,2.5c4.9,0.1,9-2.3,10.6-7.5
	c1.6-5.1-0.5-8.8-4.4-11.7c-6.2-4.5-12.6-8.7-18.8-13.2c-10.2-7.4-13.7-16.6-10.2-27.3c3.5-10.5,12.2-15.2,22.1-16.1
	c8.6-0.8,17.5,0.9,26.2,1.8c3.5,0.4,5.1,2.5,3.8,6.4C79.7,495.8,79.1,499.5,78.3,502.5z"/>
<path class="st0" d="M237.8,502.6c-7-1.3-13.2-2.8-19.5-3.6c-4.1-0.5-7.5,1.4-9.1,5.5c-1.6,4.2,0.6,7.2,3.7,9.4
	c6.2,4.5,12.8,8.5,18.9,13c11.6,8.7,14.9,19.6,10,32c-4.3,10.8-13.2,16.3-24.1,16.6c-8.9,0.2-18-2-26.9-3.5
	c-3.2-0.5-4.6-2.8-4.3-6.2c0.5-4.3,0.7-8.6,1-13.4c2.8,1.5,5,3.2,7.5,3.9c5.4,1.5,10.9,3,16.4,3.4c4.7,0.3,8.8-2.3,10.2-7.3
	c1.4-4.8-0.1-8.9-4.2-11.8c-6.9-4.9-13.9-9.7-20.8-14.8c-4.5-3.3-8-7.5-8.9-13.3c-2.5-15.4,6.1-26.9,23.1-28.6
	c8.4-0.9,17.1,1,25.7,1.9c3.6,0.4,5.1,2.7,4,6.4C239.5,495.8,238.6,499.5,237.8,502.6z"/>
<path class="st0" d="M485.8,484.7c-0.6,8.4-1.6,16.8-1.8,25.1c-0.3,13.8-0.1,27.7-0.1,41.5c0,7.1,0.1,7.1,7,7.1c8.3,0,16.5,0,25.3,0
	c-0.7,4-1.3,8.9-2.7,13.6c-0.4,1.3-3,2.7-4.5,2.8c-16.1,0.2-32.3,0.1-48.7,0.1c4.8-15,2.7-30.3,2.7-45.3c0-14.9,2.1-29.9-2.7-45
	C469.3,484.7,478.1,484.7,485.8,484.7z"/>
<path class="st0" d="M481.2,72.4c3-5.7,7-7.9,12.2-8c4.5-0.1,9,0.3,13.5,0.1c5.6-0.2,6.9-2.5,4.3-7.3c-2-3.7-4.3-7.1-6.3-10.8
	c-3.1-5.8-2.1-8.7,4.1-12.3c3.5,6.5,7,13.1,10.7,19.5c1,1.7,2.9,2.9,4.4,4.3c0.9-1.8,2.5-3.6,2.7-5.4c0.6-6.9,1.1-13.9,0.9-20.9
	c-0.2-5.8,2.7-8,8.8-9.6c0.2,3.9,0.9,7.4,0.6,10.8c-0.6,6.3-1.9,12.5-2.6,18.8c-0.2,1.8,0.9,3.7,1.5,6.3
	c8.4-7.1,15.9-13.3,23.9-20.1c1.7,4.3-0.7,5.6-2.9,7.4c-5.6,4.5-11.2,9.1-16.4,14.1c-2.4,2.3-0.6,5.3,3.6,6c5.4,1,10.9,1.1,16.3,2.2
	c4,0.8,8,2.3,11.7,4.1c1.7,0.8,2.6,3.1,4.7,5.7c-10.3-1.8-18.9-3.6-27.5-4.6c-4-0.4-10.2-0.5-11.9,1.8c-2.9,4.1,2.4,7.5,5.1,10.6
	c3.1,3.6,6.8,6.8,9.9,11.5c-1.7-0.2-3.6,0-5.1-0.7c-3.9-1.8-7.8-3.8-11.3-6.3c-3.9-2.7-5.8-0.8-6.3,2.6c-0.7,4.4-0.6,8.9-0.8,13.4
	c-0.1,3,0,6,0,8.9c-0.5,0.3-0.9,0.5-1.4,0.8c-1.1-1.6-3-3.2-3.1-4.9c-0.7-7.9-0.9-15.9-1.4-23.8c-0.1-1.9-0.8-3.7-1.5-6.9
	c-7.8,8.1-14.3,15-20.9,21.9c-0.4-0.3-0.8-0.6-1.2-1c1-1.3,1.9-2.6,2.9-4c3.7-5.3,7.7-10.4,11.1-15.9c2.5-4.1,1.3-7.2-3.3-7.8
	c-6.7-0.8-13.5-0.4-20.2-0.6C487,72.4,484.5,72.4,481.2,72.4z"/>
<path class="st0" d="M346.8,574.8c2.6-30.4,3.1-60.2-0.4-90.3c7.9,0,16.6,0,24.5,0c-2.9,30.1-2.7,60.1-0.2,90.3
	C363.1,574.8,354.3,574.8,346.8,574.8z"/>
<path class="st0" d="M152.7,377.3c4,1.9,8.1,3.8,12.5,5.9c4.2-5.2,1.1-11.6,2.6-17.2c2.6,1.6,2.6,1.6,3.2,9.8
	c0.3,3.8,0.5,7.6,0.7,11.3c4.4-4.5,8.7-9,13-13.5c0.6,0.6,1.2,1.1,1.8,1.7c-2.6,3.5-5.3,7-7.7,10.6c-3.2,5-1.9,7.8,4.1,8.2
	c3.3,0.2,6.6-0.3,10-0.4c1.7-0.1,3.4,0,5.6,0c-2.4,4.4-5.6,5.2-9.3,5.2c-12.4,0.1-12.4,0.1-6.7,10.9c2.5,4.7,2.5,4.7-1.8,9.2
	c-3.2-5.4-6.2-10.7-9.3-16c-0.6,0.1-1.2,0.1-1.8,0.2c-0.6,2.9-1.3,5.7-1.6,8.6c-0.3,3-0.2,6-0.1,9c0.1,3.4-1.4,5.3-6.2,5.8
	c0.6-7.6,1.3-15,1.9-22.4c-0.5-0.1-1.1-0.2-1.6-0.4c-4.9,4.1-9.8,8.2-14.7,12.3c-0.4-0.3-0.8-0.7-1.2-1c0.9-1.2,1.6-2.5,2.7-3.5
	c3.1-2.7,6.5-5,9.5-7.8c2.9-2.8,2.2-5-1.8-5.8c-3.7-0.7-7.7-0.6-11.3-1.5c-3.3-0.8-7.3-1.1-8.6-5.9c6,1,11.7,1.9,17.4,2.8
	c1.1,0.2,2.4,0.5,3.5,0.3c1.6-0.3,3.8-0.5,4.4-1.6c0.5-1-0.2-3.3-1.1-4.4c-2.6-3.2-5.6-6.2-8.4-9.2
	C152.3,378.2,152.5,377.8,152.7,377.3z"/>
</svg>
