<?xml version="1.0" encoding="utf-8"?>
<!-- Generator: Adobe Illustrator 22.1.0, SVG Export Plug-In . SVG Version: 6.00 Build 0)  -->
<svg version="1.1" id="Capa_1" xmlns="http://www.w3.org/2000/svg" xmlns:xlink="http://www.w3.org/1999/xlink" x="0px" y="0px"
	 viewBox="0 0 200 200" style="enable-background:new 0 0 200 200;" xml:space="preserve">
<style type="text/css">
	.st0{fill:#00324A;}
</style>
<path class="st0" d="M174.8,88.1c-0.5-3.3-1.8-6.3-3.9-8.9c-3.8-4.5-8.7-6.7-14.7-6.3c-3.2,0.2-6.1,1.3-8.7,3.1
	c-3.9,2.8-6.2,6.6-7.2,11.2c-0.1,0.4-0.2,0.5-0.6,0.5c-3.1,0-6.2,0-9.3,0c-0.1,0-0.3,0-0.4,0c-0.1-0.2-0.1-0.4-0.1-0.6
	c-0.7-4.9-2.7-9.2-6-12.9c-3.4-3.8-7.5-6.3-12.4-7.6c-1.8-0.5-3.6-0.7-5.5-0.7c-0.6,0-0.9-0.2-0.9-0.8c0-0.7-0.1-1.4-0.1-2.2
	c-0.2-2.9-0.5-5.7-0.7-8.6c-0.2-2.4-0.3-4.8-0.5-7.3c0-0.4,0.1-0.6,0.4-0.7c4.8-1.9,7.7-6.7,7.1-11.9c-0.6-4.9-4.4-8.9-9.3-9.6
	c-0.6-0.1-1.1-0.2-1.7-0.3c-0.1,0-0.2,0-0.4,0c-0.6,0.1-1.1,0.2-1.7,0.3c-4.9,0.8-8.7,4.7-9.3,9.6c-0.7,6,3.2,11.2,8.9,12.5
	c0,0,0.1,0,0.1,0c1.2,0.2,1.2,0.2,1.3,1.5c0.2,3.1,0.5,6.1,0.7,9.2c0.1,1.9,0.2,3.7,0.4,5.6c0.1,0.9,0.1,1.8,0.2,2.7
	c0,0.4-0.1,0.6-0.5,0.6c-3,0.7-5.8,1.8-8.4,3.6c-0.4,0.3-0.6,0.1-0.8-0.2c-3.9-4.1-7.8-8.2-11.7-12.3c-0.7-0.8-1.4-1.5-2.2-2.3
	c-0.2-0.2-0.2-0.4,0-0.7c1.9-2.2,3.1-4.9,3.4-7.8c0.4-3.6-0.4-7-2.5-10c-2.5-3.5-5.9-5.7-10.2-6.2c-5.9-0.6-10.6,1.6-13.9,6.6
	c-1.6,2.4-2.3,5-2.3,7.8c0,7.1,4.8,13,11.6,14.4c3.2,0.7,6.2,0.3,9.1-1.1c0.4-0.2,0.6,0,0.8,0.2c2.9,3.1,5.9,6.2,8.8,9.3
	c1.7,1.8,3.4,3.6,5.1,5.3c0.4,0.4,0.3,0.6,0,0.9c-3.2,3.4-5.1,7.4-6.1,11.9c-0.1,0.6-0.2,1.2-0.3,1.9c-0.2,0-0.5,0-0.7,0
	c-9,0-17.9,0-26.9,0c-0.5,0-0.7-0.1-0.8-0.7c-1.4-5.7-5-9.4-10.8-10.6c-5.5-1.1-11,1.3-14.1,6.2c-1.2,2-1.9,4.2-2,6.5
	c0,0.2-0.1,0.4-0.1,0.6c0,0.1,0,0.2,0,0.2c0,0.2,0.1,0.4,0.1,0.6c0.1,2.4,0.8,4.6,2,6.6c3.2,5.4,10.2,7.8,16.1,5.7
	c4.4-1.6,7.3-4.8,8.6-9.3c0.1-0.4,0.2-0.6,0.7-0.6c9.1,0,18.2,0,27.3,0c0.5,0,0.6,0.2,0.7,0.6c0.1,0.6,0.1,1.3,0.3,1.9
	c2.1,9.3,7.6,15.6,16.6,18.9c0.6,0.2,0.7,0.4,0.5,1c-1.6,6-3.2,11.9-4.8,17.9c-0.5,2-1.1,4-1.6,6.1c-0.1,0.3-0.1,0.5-0.6,0.5
	c-1.1-0.1-2.2-0.1-3.3-0.1c-3.2,0.2-6.2,1.2-8.7,3.1c-5.7,4.3-8.2,10-7.4,17.2c0.4,3.3,1.7,6.3,3.8,8.8c4.4,5.5,11.6,8,18.6,5.8
	c4.8-1.5,8.2-4.5,10.5-8.9c1.4-2.6,2-5.4,2-8.3c0-2.9-0.7-5.7-2-8.2c-1.7-3.3-4.2-5.9-7.6-7.6c-0.5-0.3-0.6-0.5-0.5-1.1
	c1.4-5.1,2.7-10.1,4.1-15.2c0.8-3.1,1.7-6.1,2.5-9.2c0.1-0.5,0.4-0.7,0.9-0.6c0.5,0.1,0.9,0.1,1.4,0.1c2.4-0.1,4.9-0.3,7.2-1.1
	c0.5-0.2,0.7,0,0.9,0.4c2.2,5.2,4.5,10.5,6.7,15.7c0.2,0.4,0.1,0.6-0.3,0.9c-3.9,2.7-5.6,6.5-4.9,11.2c0.9,6.2,7,10.4,13.4,9.1
	c5.3-1.1,9.3-6,8.9-11.7c-0.3-3.7-2-6.6-5.1-8.6c-2.1-1.4-4.4-2-6.9-1.8c-0.4,0-0.7,0.1-0.9-0.4c-2.3-5.4-4.6-10.8-6.9-16.2
	c-0.2-0.4-0.1-0.6,0.3-0.8c2.2-1.2,4.1-2.8,5.8-4.7c3.3-3.6,5.4-7.7,6.2-12.5c0.1-0.8,0.3-1.6,0.4-2.4c0.3,0,0.5,0,0.8,0
	c2.6,0,5.1,0,7.7,0c0.5,0,1.1-0.1,1.4,0.1c0.3,0.2,0.2,0.8,0.3,1.3c0,0,0,0,0,0.1c0.9,3.9,2.7,7.3,5.8,9.9c4.4,3.8,9.5,5.2,15.3,3.9
	c4.7-1,8.3-3.7,10.8-7.7C174.5,96.7,175.4,92.6,174.8,88.1z M65.1,54.8c-5.4,0-9.7-4.3-9.7-9.7c0-5.4,4.3-9.7,9.7-9.7
	c5.4,0,9.7,4.3,9.7,9.7C74.8,50.5,70.5,54.8,65.1,54.8z M38.3,99.1c-5.4,0-9.7-4.3-9.7-9.7c0-5.4,4.3-9.7,9.7-9.7s9.7,4.3,9.7,9.7
	C48,94.8,43.7,99.1,38.3,99.1z M103.4,157.8c0,7.9-6.4,14.3-14.3,14.3s-14.3-6.4-14.3-14.3c0-7.9,6.4-14.3,14.3-14.3
	S103.4,149.8,103.4,157.8z M126.5,133.3c4.1,0,7.4,3.3,7.4,7.4c0,4.1-3.3,7.4-7.4,7.4c-4.1,0-7.4-3.3-7.4-7.4
	C119.1,136.6,122.4,133.3,126.5,133.3z M99.7,42.8c-4.1,0-7.4-3.3-7.4-7.4s3.3-7.4,7.4-7.4c4.1,0,7.4,3.3,7.4,7.4
	S103.8,42.8,99.7,42.8z M104.8,110.2c-11,0-19.9-8.9-19.9-19.9c0-11,8.9-19.9,19.9-19.9s19.9,8.9,19.9,19.9
	C124.7,101.3,115.8,110.2,104.8,110.2z M157.4,104.7c-7.9,0-14.3-6.4-14.3-14.3S149.5,76,157.4,76c7.9,0,14.3,6.4,14.3,14.3
	S165.4,104.7,157.4,104.7z"/>
</svg>
