<?xml version="1.0" encoding="utf-8"?>
<!-- Generator: Adobe Illustrator 22.1.0, SVG Export Plug-In . SVG Version: 6.00 Build 0)  -->
<svg version="1.1" id="Capa_1" xmlns="http://www.w3.org/2000/svg" xmlns:xlink="http://www.w3.org/1999/xlink" x="0px" y="0px"
	 viewBox="0 0 200 200" style="enable-background:new 0 0 200 200;" xml:space="preserve">
<style type="text/css">
	.st0{fill:#00324A;}
</style>
<g>
	<path class="st0" d="M176.8,95.6c0,21.6,0,43.2,0,64.8c-1.4,0.7-2.8,2-4.2,2.1c-5.1,0.3-10.2,0.1-15.3,0.1c-5.9,0-11.8,0-18,0
		c0,3.3,0.2,6.2-0.1,9.1c-0.2,1.8-1.2,3.4-1.9,5.1c-37.9,0-75.9,0-113.9,0c0-43.2,0-86.4,0-129.6c8-8,15.9-15.9,23.9-23.9
		c30,0,60,0,90.1,0c0.7,1.7,1.8,3.4,1.9,5.1c0.3,4.5,0.1,9,0.1,13.8c6.7,0,13.1,0,19.4,0c2.4,0,4,0.7,4,3.4c0,12.3,0,24.5,0,36.8
		c0,2.7-1.6,3.5-4,3.6c-3.9,0-7.7,0-11.6,0c-2.6,0-5.1,0-7.6,0c0,2.9,0,5.2,0,7.8c10.9,0,21.5-0.1,32.2,0.1
		C173.3,93.8,175,95,176.8,95.6z M132.8,42.2c0-4.5,0-8.5,0-12.5c-27.2,0-54.2,0-81.4,0c0,5.6,0,10.9,0,16.2c0,5.1-0.3,5.4-5.5,5.4
		c-5.4,0-10.8,0-16.2,0c0,40,0,79.5,0,119c34.5,0,68.8,0,103,0c0-2.7,0-5.1,0-7.8c-1.6,0-3,0-4.3,0c-23,0-45.9,0-68.9,0
		c-4.3,0-4.9-0.6-4.9-5c0-19.3,0-38.7,0-58c0-5.3,0.6-5.9,5.8-5.9c22.7,0,45.5,0,68.2,0c1.3,0,2.7,0,4.2,0c0-2.7,0-5.1,0-7.6
		c-1.2-0.1-2.3-0.2-3.4-0.2c-8,0-15.9,0-23.9,0c-4.8,0-5.3-0.5-5.4-5.2c0-11.1,0-22.3,0-33.4c0-4.7,0.3-5.1,5-5.1
		C114.3,42.2,123.4,42.2,132.8,42.2z M170.4,102.2c-1.4,0.7-2.4,1.2-3.4,1.7c-16,8.6-31.9,17.2-47.8,25.9c-2.5,1.4-4.4,1.4-6.9,0.1
		C97,121.5,81.6,113.3,66.2,105c-1.7-0.9-3.3-1.8-5.2-2.7c0,18.3,0,36.2,0,54c36.6,0,72.9,0,109.4,0
		C170.4,138.3,170.4,120.5,170.4,102.2z M71.3,100c-0.1,0.2-0.1,0.4-0.2,0.5c0.7,0.4,1.3,0.8,2,1.2c13.3,7.2,26.6,14.3,39.8,21.6
		c2,1.1,3.5,1.1,5.5,0c13.1-7.2,26.3-14.3,39.4-21.5c0.8-0.4,1.6-0.9,3.1-1.9C130.5,100,100.9,100,71.3,100z M106.4,79.6
		c16.7,0,33.2,0,49.7,0c0-10.5,0-20.8,0-31c-16.7,0-33.2,0-49.7,0C106.4,59,106.4,69.2,106.4,79.6z M45,35.7c-3,3-6.3,6.4-9.2,9.2
		c2.4,0,5.7,0,9.2,0C45,41.4,45,38.2,45,35.7z"/>
	<path class="st0" d="M92,73.1c-16.6,0-32.9,0-49.5,0c0-1.9,0-3.8,0-5.8c16.5,0,32.9,0,49.5,0C92,69.2,92,71,92,73.1z"/>
	<path class="st0" d="M92,80c0,2.1,0,3.8,0,5.8c-16.5,0-32.9,0-49.6,0c0-1.9,0-3.7,0-5.8C58.9,80,75.3,80,92,80z"/>
	<path class="st0" d="M92.1,42.4c0,2,0,3.7,0,5.7c-6.1,0-12.2,0-18.4,0c0-1.9,0-3.7,0-5.7C79.8,42.4,85.8,42.4,92.1,42.4z"/>
	<path class="st0" d="M73.6,60.6c0-2,0-3.7,0-5.7c6.1,0,12,0,18.3,0c0,1.8,0,3.6,0,5.7C85.9,60.6,79.8,60.6,73.6,60.6z"/>
	<path class="st0" d="M111.1,63.8c0.1-6.1,4.8-10.7,10.9-10.6c6.1,0.1,10.8,4.8,10.8,10.9c0,5.9-5.1,11-10.9,10.9
		C115.8,74.9,111,70,111.1,63.8z M121.8,68.8c2.5,0.1,4.9-2.2,4.9-4.7s-2.2-4.7-4.8-4.7c-2.6,0-4.5,1.9-4.6,4.5
		C117.2,66.4,119.3,68.7,121.8,68.8z"/>
	<path class="st0" d="M151.5,54.8c0,2,0,3.8,0,5.8c-4.5,0-8.9,0-13.5,0c0-1.9,0-3.7,0-5.8C142.4,54.8,146.7,54.8,151.5,54.8z"/>
	<path class="st0" d="M137.9,71.5c0-1.9,0-3.7,0-5.7c4.4,0,8.8,0,13.4,0c0,1.8,0,3.6,0,5.7C146.9,71.5,142.5,71.5,137.9,71.5z"/>
</g>
</svg>
