<?xml version="1.0" encoding="utf-8"?>
<!-- Generator: Adobe Illustrator 22.1.0, SVG Export Plug-In . SVG Version: 6.00 Build 0)  -->
<svg version="1.1" id="Capa_1" xmlns="http://www.w3.org/2000/svg" xmlns:xlink="http://www.w3.org/1999/xlink" x="0px" y="0px"
	 viewBox="0 0 200 200" style="enable-background:new 0 0 200 200;" xml:space="preserve">
<style type="text/css">
	.st0{fill:#00324A;}
</style>
<g>
	<path class="st0" d="M190.3,82.7c-3.6,2.2-7,4.8-10.8,6.3c-4.7,1.8-6.2,4.4-6,9.5c0.4,11.6,0.1,23.2,0.2,34.8
		c0,3.1-1.2,4.9-3.9,6.2c-21.9,10.5-43.7,20.9-65.5,31.6c-2.9,1.4-5.3,1.4-8.2-0.1c-21.5-10.5-43.1-21-64.8-31.3
		c-3.4-1.6-4.7-3.7-4.7-7.4c0.2-12.3,0-24.6,0.1-36.9c0-2.7-0.8-4.1-3.3-5c-3.3-1.3-6.6-2.9-9.7-4.6c-1.5-0.8-2.6-2.1-3.9-3.2
		c0-0.8,0-1.6,0-2.4c5.3-10,10.7-20,16-30c1.3-2.5,3.1-4,6-4.7C53.2,39.9,74.6,34,96.1,28.3c2.5-0.7,5.6-0.6,8.1,0
		c21.4,5.7,42.7,11.6,64.1,17.3c2.9,0.8,4.6,2.2,5.9,4.7c5.3,10,10.6,20,16,30C190.3,81.1,190.3,81.9,190.3,82.7z M35,96.1
		c0,11.9-0.1,23,0.1,34c0,1.2,1.6,2.9,2.9,3.5c18.3,9,36.7,17.8,55,26.7c0.9,0.4,1.8,0.6,2.8,0.9c0-21.8,0-43.1,0-64.5
		c-3.3,5.9-6.1,11.9-8.7,18c-1.5,3.4-3.8,4.2-7.1,2.6c-3.2-1.6-6.5-3.1-9.8-4.6C58.7,107.3,47.2,101.8,35,96.1z M104.5,161.5
		c1.8-0.8,3.1-1.3,4.4-2c16.6-8,33-16.2,49.7-23.8c5.2-2.4,7.3-5.1,6.9-10.9c-0.6-9.4-0.2-18.8-0.2-28.7c-2,0.9-3.5,1.4-4.9,2.1
		c-11.4,5.4-22.9,10.8-34.3,16.3c-12.1,5.8-10.9,5.4-16.1-5.9c-1.7-3.6-3.3-7.3-4.9-10.9c-0.2,0.1-0.5,0.2-0.7,0.3
		C104.5,118.9,104.5,139.9,104.5,161.5z M80.7,108.5c4.6-10.2,9-20,13.6-30.2C73.6,70.6,53.2,63,32.6,55.4
		c-4.3,8.1-8.5,16.1-12.8,24.3C40.2,89.3,60.3,98.8,80.7,108.5z M167.4,55.4c-20.7,7.7-41.1,15.3-61.8,23
		c4.7,10.3,9.1,20.1,13.6,30.1c20.4-9.7,40.6-19.2,61-28.8C175.9,71.3,171.8,63.6,167.4,55.4z M45,50.7c0.8,0.5,1.1,0.7,1.5,0.8
		c17.3,6.5,34.6,12.9,52,19.3c1.3,0.5,3.1,0.1,4.5-0.4c10.1-3.7,20.2-7.4,30.3-11.2c7.1-2.6,14.2-5.3,21.7-8.2
		c-0.9-0.5-1.2-0.8-1.6-0.9c-17-4.6-33.9-9.2-50.9-13.7c-1.7-0.4-3.7-0.2-5.5,0.2c-8.8,2.2-17.5,4.6-26.2,7
		C62.3,45.9,53.9,48.3,45,50.7z"/>
</g>
</svg>
