<?xml version="1.0" encoding="utf-8"?>
<!-- Generator: Adobe Illustrator 22.1.0, SVG Export Plug-In . SVG Version: 6.00 Build 0)  -->
<svg version="1.1" id="Capa_1" xmlns="http://www.w3.org/2000/svg" xmlns:xlink="http://www.w3.org/1999/xlink" x="0px" y="0px"
	 viewBox="0 0 200 200" style="enable-background:new 0 0 200 200;" xml:space="preserve">
<style type="text/css">
	.st0{fill:#00324A;}
</style>
<g>
	<path class="st0" d="M141.8,168.1c-3.8-0.1-7.4-0.7-11-1.8c-2.5-0.8-5-1.6-7.5-2.6c-2.6-1.1-5.1-2.3-7.6-3.6
		c-2.7-1.4-5.3-3-7.9-4.6c-2.5-1.6-4.9-3.4-7.3-5.1c-1.6-1.1-3.2-2.2-4.7-3.5c-2.5-2-5-4-7.5-6.1c-2.6-2.2-5.1-4.5-7.6-6.8
		c-3.1-3-6.2-6-9.2-9c-2.6-2.6-5.1-5.3-7.6-8c-2.5-2.8-4.9-5.6-7.3-8.5c-1.9-2.3-3.8-4.7-5.6-7.2c-3.1-4.1-6-8.4-8.6-12.8
		c-2.1-3.6-4-7.3-5.7-11.1c-1.7-4-3.1-8-4-12.3c-0.8-3.9-1.1-7.8-0.4-11.8c0.8-4.8,3.1-8.8,7-11.7c3.4-2.6,6.9-5.2,10.4-7.7
		c2.9-2.1,6.1-2.6,9.5-1.8c2.4,0.6,4.3,1.9,6,3.6c2.2,2.3,4.4,4.5,6.6,6.7c2.7,2.7,5.6,5.4,8.1,8.2c2.1,2.3,2.9,5.1,2.8,8.2
		c0,2.3-0.9,4.3-2.1,6.3c-1.6,2.6-3.2,5.3-4.7,8c-0.6,1.1-0.5,2.2,0,3.3c2.1,4.9,5,9.2,8.2,13.4c3.1,4,6.4,7.8,9.9,11.3
		c2.9,2.9,5.8,5.8,8.9,8.6c4.2,3.8,8.6,7.4,13.4,10.4c2.5,1.6,5.1,3,8,4c0.9,0.3,1.8,0,2.5-0.4c2.3-1.3,4.5-2.7,6.8-4
		c1.8-1.1,3.5-2.3,5.6-2.6c4.3-0.5,8,0.7,11,3.8c2.4,2.5,4.9,4.9,7.4,7.4c2.4,2.4,4.9,4.7,7.2,7.2c3,3.2,3.7,7,2.8,11.2
		c-0.4,1.5-1.3,2.8-2.2,4.1c-1.6,2.2-3.1,4.5-4.7,6.7c-1.8,2.4-3.7,4.9-6.1,6.7c-2.6,2-5.6,3.1-8.9,3.5
		C144.4,167.9,143.1,168,141.8,168.1z M124.9,133c-0.5-0.1-1.1,0-1.6-0.2c-1.8-0.6-3.7-1.2-5.4-2c-3.7-1.7-7.1-3.9-10.4-6.3
		c-5.1-3.7-9.8-7.8-14.3-12.1c-4.6-4.4-8.9-9-13-13.8c-2.7-3.2-5.2-6.6-7.5-10.2c-1.7-2.6-3.1-5.3-4.3-8.2c-0.7-1.8-1.5-3.6-1.4-5.6
		c0.2-2.3,1-4.5,2.1-6.5c1.4-2.6,3-5.2,4.7-7.7c1-1.5,0.4-3.6-0.5-4.5c-2.3-2.2-4.5-4.5-6.7-6.7c-2.6-2.6-5.3-5.3-7.9-7.9
		c-0.8-0.8-1.9-1.1-3-0.8c-0.7,0.2-1.3,0.7-1.9,1.1c-3.4,2.2-6.7,4.6-9.7,7.3c-1.6,1.4-2.7,3.1-3.1,5.2c-0.5,2.2-0.5,4.3-0.3,6.5
		c0.4,4,1.6,7.8,3.1,11.5c1.4,3.6,3,7,5,10.3c2.1,3.4,4.1,6.8,6.4,10.1c2.3,3.3,4.8,6.5,7.4,9.7c2.5,3.1,5.2,6.2,7.9,9.1
		c2.9,3.2,6,6.3,9,9.4c2.3,2.4,4.7,4.7,7.1,6.9c2.6,2.4,5.2,4.8,7.9,7.1c3,2.5,6,5,9.1,7.3c2.6,2,5.4,3.9,8.2,5.7
		c3.3,2.1,6.6,4.1,10.1,5.8c3.8,2,7.7,3.6,11.9,4.6c3.7,0.9,7.4,1.6,11.2,1c1.7-0.3,3.3-0.6,4.6-1.8c1.4-1.3,2.8-2.7,3.9-4.2
		c1.9-2.5,3.7-5.1,5.5-7.7c0.9-1.3,0.9-3.1,0-4c-1.1-1.1-2.2-2.2-3.4-3.4c-3.8-3.8-7.6-7.6-11.4-11.4c-0.9-0.9-3.1-1.4-4.4-0.5
		c-2.9,1.9-5.8,3.6-8.9,5.2C128.9,132.4,127,133,124.9,133z"/>
	<path class="st0" d="M168.1,89.7c0,4.3-0.3,7.6-1.1,10.9c-0.4,1.6-1.8,2.9-3.5,3.1c-1.9,0.2-3.5-0.6-4.3-2.2
		c-0.6-1.1-0.6-2.2-0.4-3.4c0.4-2.2,0.7-4.4,0.8-6.6c0.2-3.4-0.3-6.8-1.1-10.1c-0.9-4.1-2.4-7.9-4.4-11.6c-2-3.7-4.4-7.1-7.2-10.2
		c-3.1-3.4-6.4-6.5-10.2-9.1c-3.5-2.5-7.2-4.5-11.2-6.2c-4-1.6-8.2-2.8-12.5-3.4c-3.8-0.5-7.7-0.6-11.5-0.2c-0.8,0.1-1.7,0.2-2.5,0
		c-2-0.4-3.2-2.1-3.2-4.1c0-1.9,1.3-3.7,3.2-4.1c2.8-0.6,5.6-0.6,8.4-0.6c4,0,7.9,0.6,11.8,1.5c5,1.1,9.8,2.8,14.3,5.1
		c5.2,2.6,10,5.9,14.3,9.9c1.3,1.2,2.6,2.3,3.8,3.6c2.1,2.4,4.1,4.8,6.1,7.3c2,2.6,3.6,5.4,5,8.3c1.7,3.4,3.1,7,4,10.8
		C167.6,82.4,168.1,86.5,168.1,89.7z"/>
	<path class="st0" d="M107.1,64.4c-1.2,0.1-2.3,0.1-3.3,0.2c-1.9,0.2-3.7-1.2-4.2-2.8c-0.6-1.9,0.1-4,1.7-5c1.1-0.7,2.3-0.7,3.6-0.8
		c3.7-0.2,7.3,0.2,10.8,1.2c5.5,1.5,10.3,4.1,14.7,7.8c3.2,2.7,6,5.8,8.2,9.3c1.3,2,2.4,4.2,3.3,6.5c1.4,3.8,2.1,7.6,2,11.6
		c-0.1,1.6-0.2,3.3-0.6,4.8c-0.8,3-4.5,4-6.7,2c-1.4-1.2-1.8-2.7-1.4-4.5c0.5-2.3,0.4-4.7-0.1-7c-0.8-4.3-2.7-8.1-5.5-11.5
		c-2.6-3.2-5.8-6-9.4-8c-3-1.7-6.1-2.8-9.5-3.4C109.4,64.6,108.2,64.5,107.1,64.4z"/>
</g>
</svg>
