<?xml version="1.0" encoding="utf-8"?>
<!-- Generator: Adobe Illustrator 22.1.0, SVG Export Plug-In . SVG Version: 6.00 Build 0)  -->
<svg version="1.1" id="Capa_1" xmlns="http://www.w3.org/2000/svg" xmlns:xlink="http://www.w3.org/1999/xlink" x="0px" y="0px"
	 viewBox="0 0 200 200" style="enable-background:new 0 0 200 200;" xml:space="preserve">
<style type="text/css">
	.st0{fill:#00324A;}
</style>
<g>
	<path class="st0" d="M29.1,128.5c0-17.5,0-35.1,0-52.6c0.6-1.5,1-3.2,1.8-4.6c2.5-4.3,6.3-6.6,11.3-6.7c3.3-0.1,6.7,0,10.2,0
		c0-0.6,0-1,0-1.4c0-9.6,0-19.2,0-28.8c0-3.6,1.6-5.3,5.2-5.3c28.3,0,56.6,0,84.9,0c3.5,0,5.2,1.7,5.2,5.1c0,9.6,0,19.2,0,28.8
		c0,0.5,0,1,0,1.5c3.5,0,6.8,0,10.2,0c7.2,0.1,13.1,5.9,13.1,13.1c0.1,16.4,0,32.8,0,49.1c0,2.6-0.8,5-2.2,7.2
		c-2.6,3.8-6.3,5.9-11,5.9c-3.3,0.1-6.6,0-10,0c0,0.7,0,1.2,0,1.8c0,7.8-0.1,15.7,0,23.5c0,2.7-0.8,4.6-3.4,5.7
		c-29.5,0-59.1,0-88.6,0c-2.5-1.1-3.4-3-3.4-5.7c0.1-7.9,0-15.9,0-23.8c0-0.5,0-1,0-1.5c-3.5,0-6.8,0-10.2,0c-5.9-0.1-11-4-12.6-9.7
		C29.5,129.6,29.3,129.1,29.1,128.5z M147.6,131c3.3,0,6.4,0,9.5,0c3.1,0,4.9-1.8,4.9-4.9c0-16,0-31.9,0-47.9c0-3-1.8-4.8-4.8-4.8
		c-38,0-76.1,0-114.1,0c-3.4,0-5.1,1.7-5.1,5.1c0,7.8,0,15.5,0,23.3c0,8.2,0,16.3,0,24.5c0,2.5,1.5,4.6,3.8,4.7c3.5,0.2,7,0,10.6,0
		c0-0.8,0-1.5,0-2.1c0-7.9,0-15.8,0-23.7c0-3.5,1.7-5.2,5.2-5.2c28.4,0,56.8,0,85.2,0c3.2,0,4.9,1.8,4.9,5c0,8.1,0,16.2,0,24.4
		C147.6,129.9,147.6,130.4,147.6,131z M138.7,109c-25.9,0-51.6,0-77.4,0c0,17.7,0,35.4,0,53c25.8,0,51.6,0,77.4,0
		C138.7,144.3,138.7,126.7,138.7,109z M61.3,64.5c25.9,0,51.7,0,77.4,0c0-8.9,0-17.6,0-26.4c-25.8,0-51.6,0-77.4,0
		C61.3,46.9,61.3,55.6,61.3,64.5z"/>
	<path class="st0" d="M148.8,82.3c2.5,0.1,4.4,2.1,4.3,4.6c-0.1,2.4-2.1,4.3-4.5,4.3c-2.5-0.1-4.4-2.1-4.3-4.6
		C144.4,84.1,146.4,82.2,148.8,82.3z"/>
	<path class="st0" d="M100,126.7c-8.4,0-16.9,0-25.3,0c-3.2,0-5.2-2.8-4.3-5.8c0.6-1.9,2.2-3.1,4.6-3.1c6.7,0,13.4,0,20.1,0
		c10.1,0,20.1,0,30.2,0c3,0,4.9,2,4.7,4.9c-0.2,2.4-2,4-4.8,4C116.8,126.7,108.4,126.7,100,126.7C100,126.7,100,126.7,100,126.7z"/>
	<path class="st0" d="M100,144.4c-8.4,0-16.9,0-25.3,0c-1.8,0-3.2-0.8-4-2.4c-0.8-1.6-0.6-3.2,0.4-4.7c1-1.4,2.5-1.8,4.1-1.8
		c14.1,0,28.2,0,42.4,0c2.7,0,5.4,0,8,0c2.1,0,3.8,1.4,4.3,3.3c0.5,2-0.4,4.2-2.2,5c-0.8,0.3-1.7,0.5-2.5,0.5
		C116.7,144.4,108.4,144.4,100,144.4z"/>
</g>
</svg>
