<?xml version="1.0" encoding="utf-8"?>
<!-- Generator: Adobe Illustrator 22.1.0, SVG Export Plug-In . SVG Version: 6.00 Build 0)  -->
<svg version="1.1" id="Capa_1" xmlns="http://www.w3.org/2000/svg" xmlns:xlink="http://www.w3.org/1999/xlink" x="0px" y="0px"
	 viewBox="0 0 200 200" style="enable-background:new 0 0 200 200;" xml:space="preserve">
<style type="text/css">
	.st0{fill:#00324A;}
</style>
<g>
	<g>
		<path class="st0" d="M170.4,140.8c-0.4-0.2-0.9-0.3-1.4-0.3H165c-0.4,0-0.7,0.1-1.1,0.2c-0.4-0.1-0.8-0.2-1.3-0.2
			c-9.3,0.4-18.6,0.8-27.8,1.2c2.9-1.6,5.7-3.4,8.3-5.6c1.8-1.5,3.4-3.2,4.8-4.9c28.1,5.3,31-39.7,6.5-41.8
			c-0.7-3.4-1.5-6.7-2.5-9.8c-0.6-1.8-2.1-2.5-3.5-2.5c-0.4-0.1-0.7-0.2-1.2-0.2c-37.3,1.2-74.7,1.5-112,1.2c-1.2,0-2.1,0.5-2.7,1.2
			c-0.8,0.6-1.4,1.5-1.5,2.7c-1.6,18.9-1.4,39.8,12.9,54c2.9,2.8,6.2,5.1,9.9,7c-4.4-0.1-8.8-0.2-13.2-0.4c-0.2,0-0.3-0.1-0.5-0.1
			h-8.2c-0.6,0-1,0.1-1.5,0.3c-1.9,0.3-3.5,2-2.6,4.3c3.8,9.9,14.7,13.9,24.2,16.5c15.8,4.3,32.8,4.8,49.1,4.7
			c15.4-0.1,30.9-1.2,46-4.3c11.1-2.3,23.3-6.8,25.4-18.8c0.1-0.4,0.2-0.7,0.2-1.1C172.8,142.3,171.7,141.2,170.4,140.8z
			 M155.5,97.1c12.2,3.6,11.6,27.4-3.5,27.3C155.7,116.2,156.5,106.4,155.5,97.1z M48.9,131c-12.4-10.9-12.2-30.1-11.1-45.6
			c35.9,0.2,71.9-0.1,107.8-1.2c4.8,16.6,5.2,37.3-9.8,48.4c-8.7,6.4-19.8,9.1-30.7,10.1c-5.8,0.2-11.7,0.3-17.5,0.4
			C74,142.6,59,139.8,48.9,131z M139.5,158.1c-12.7,2.2-25.7,2.9-38.5,3c-13.6,0.2-27.3-0.5-40.7-3c-6.3-1.2-16.7-3.1-22.3-8.3h0.8
			c16.5,0.7,33,0.8,49.5,0.5c2.4,0.1,4.8,0.1,7,0.1c3.5,0,7.1-0.2,10.7-0.5c18.9-0.5,37.7-1.4,56.6-2.2c0.4,0,0.8-0.1,1.1-0.2
			c0.1,0,0.2,0.1,0.4,0.1C160,154.9,146.6,156.9,139.5,158.1z"/>
		<path class="st0" d="M127,130.4c10.7-9.2,14.7-21.9,12.4-35.6c-0.8-4.6-7.8-2.7-7,1.9c1.8,11.3-1.9,21.2-10.6,28.6
			C118.3,128.3,123.5,133.4,127,130.4z"/>
		<path class="st0" d="M64.8,52.9c1.4,2.4,2.7,4.7,3.2,7.1c0.5,2.3-0.7,4.6-3.7,7c-1.1,0.9-1.5,2.4-1.1,3.7c0.5,1.4,1.9,2.4,3.4,2.4
			l0,0c0.8,0,1.6-0.3,2.2-0.8c3.7-3,5.7-6.2,6.1-9.7c0.5-3.8-0.9-7.2-2.3-10c-0.6-1.1-1.2-2.3-1.9-3.4c-3-5.3-4.7-8.8-2.1-12.4
			c0.8-1.1,0.9-2.4,0.3-3.5c-0.6-1.2-1.9-1.9-3.2-1.9c-1.1,0-2.2,0.5-2.9,1.5c-5.3,7.4-1,15,1.4,19.1L64.8,52.9z"/>
		<path class="st0" d="M82.9,52.9c1.4,2.4,2.7,4.7,3.2,7.1c0.5,2.3-0.7,4.6-3.7,7c-1.1,0.9-1.5,2.4-1.1,3.7c0.5,1.4,1.9,2.4,3.4,2.4
			c0.8,0,1.6-0.3,2.2-0.8c3.7-3,5.7-6.2,6.1-9.7c0.5-3.8-0.9-7.2-2.3-10c-0.6-1.1-1.2-2.3-1.9-3.4c-3-5.3-4.7-8.8-2.1-12.4
			c0.8-1.1,0.9-2.4,0.3-3.5c-0.6-1.2-1.9-1.9-3.2-1.9c-1.1,0-2.2,0.5-2.9,1.5c-5.3,7.4-1,15,1.4,19.1L82.9,52.9z"/>
		<path class="st0" d="M101.1,52.9c1.4,2.4,2.7,4.7,3.2,7.1c0.5,2.3-0.7,4.6-3.7,7c-1.1,0.9-1.5,2.4-1.1,3.7
			c0.5,1.4,1.9,2.4,3.4,2.4c0.8,0,1.6-0.3,2.2-0.8c3.7-3,5.7-6.2,6.1-9.7c0.5-3.8-0.9-7.2-2.3-10c-0.6-1.1-1.2-2.3-1.9-3.4
			c-3-5.3-4.7-8.8-2.1-12.4c0.8-1.1,0.9-2.4,0.3-3.5c-0.6-1.2-1.9-1.9-3.2-1.9c-1.1,0-2.2,0.5-2.9,1.5c-5.3,7.4-1,15,1.4,19.1
			L101.1,52.9z"/>
	</g>
</g>
</svg>
