<?xml version="1.0" encoding="utf-8"?>
<!-- Generator: Adobe Illustrator 22.1.0, SVG Export Plug-In . SVG Version: 6.00 Build 0)  -->
<svg version="1.1" id="Capa_1" xmlns="http://www.w3.org/2000/svg" xmlns:xlink="http://www.w3.org/1999/xlink" x="0px" y="0px"
	 viewBox="0 0 200 200" style="enable-background:new 0 0 200 200;" xml:space="preserve">
<style type="text/css">
	.st0{fill:#00324A;}
</style>
<g>
	<path class="st0" d="M63.7,157.2c-0.4-3.9-0.8-7.8-1.3-11.8c2.7-0.4,3-0.7,3-3.3c0-0.1,0-0.3,0-0.4c0-2.3-0.6-2.9-3-2.9
		c-4.8,0-9.5,0-14.3,0c-5.2,0-10.4,0-15.5,0c-0.3,0-0.7-0.1-1.2-0.1c0-2.3,0-26.7,0-33.2c0-2-0.6-2.5-2.6-2.6c-0.3,0-0.6,0-0.8,0
		c-2.6,0-3,0.5-3,3.1c0,18.6,0,37.3,0,55.9c0,3.6,0,7.2,0,10.8c0,1.6,0.7,2.3,2.3,2.3c0.4,0,0.8,0,1.2,0c2.4,0,2.9-0.5,2.9-2.9
		c0-8.3,0-16.6,0-25c0-0.6,0-1.2,0-1.8h24.3c0.1,0.6,0.2,1,0.3,1.5c0.9,8.6,1.9,17.3,2.8,25.9c0.2,1.8,0.8,2.4,2.6,2.2
		c0.5,0,1-0.1,1.5-0.2c2-0.3,2.5-0.8,2.3-2.8C64.8,167.1,64.3,162.1,63.7,157.2z"/>
	<path class="st0" d="M174.9,139.9c0-11.3,0-22.6,0-33.9c0-0.7-0.4-2-0.8-2.1c-1.5-0.3-3.1-0.4-4.6-0.2c-1.2,0.2-1.1,1.7-1.1,2.7
		c0,6.6-0.1,29.2,0,31.3c0.1,1.2-0.2,1.7-1.6,1.7c-7.4-0.1-14.9,0-22.3,0c-2.6,0-5.3,0-7.9,0c-1.2,0-1.9,0.6-2.1,1.8
		c-0.4,2.5,0.1,4.2,1.3,4.6c0.2,0.1,0.5,0.1,0.7,0.1c0.3,0.1,0.6,0.1,0.9,0.2c0,0.5-0.1,0.9-0.1,1.3c-0.9,7.9-1.8,15.9-2.6,23.8
		c-0.4,3.8-0.1,4.1,3.7,4.4c1.8,0.1,2.4-0.5,2.6-2.2c0.9-8.7,1.9-17.4,2.8-26.1c0.1-1.1,0.5-1.5,1.6-1.4c7.2,0,14.3,0,21.5,0
		c0.4,0,0.9,0.1,1.5,0.1c0,4.8,0,9.4,0,14.1c0,4.5-0.1,9,0,13.5c0,1.4,0.7,2,2.2,2.1c0.4,0,0.7,0,1.1,0c2.7,0,3.2-0.4,3.2-3.1
		C174.9,161.6,174.9,150.8,174.9,139.9z"/>
	<path class="st0" d="M142.9,111.7c-12.8,0-25.6,0-38.5,0c-0.6,0-1.2,0-1.9,0c0-15.7,0-31.1,0-46.8c20.4,0,40.7,0,61.1,0
		c-0.1-0.9-0.1-1.5-0.2-2.1c-0.9-6.7-3.9-12.4-8.4-17.4c-7.2-8-16.2-13.1-26.3-16.4c-15.1-5-30.6-5.8-46.2-2.9
		c-11.8,2.2-22.7,6.4-32.1,14c-6.1,4.9-10.8,10.8-13,18.4c-0.6,2-0.9,4.1-1.3,6.4c20.7,0,40.9,0,61.3,0c0,0.8,0,1.3,0,1.9
		c0,14.4,0,28.8,0,43.2c0,1.5-0.5,1.7-1.8,1.7c-12.2,0-24.4,0-36.6,0c-1.1,0-2.2,0-3.3,0c-1.5,0.1-2.3,0.9-2.3,2.4c0,1,0,2,0,3.1
		c0,2.7,0.6,3.4,3.3,3.4c6.7,0,13.4,0,20.1,0c0.5,0,1,0,1.5,0c0,0.6,0,1.1-0.1,1.5c-1.8,16.6-3.6,33.1-5.4,49.6
		c-0.3,3.2-0.1,3.5,3.1,3.9c0.1,0,0.3,0,0.4,0c1.7,0.1,2.5-0.4,2.7-2.2c1-9,1.9-18,2.9-27c0.9-8.2,1.8-16.5,2.7-24.7
		c0.1-1,0.5-1.1,1.3-1.1c3.5,0,25,0.1,29.2,0.1c0.1,0.3,0.1,0.5,0.1,0.6c1.8,16.8,3.7,33.7,5.5,50.5c0.4,3.9,0.8,4.2,4.7,3.6
		c1.2-0.2,1.8-0.9,1.8-2.1c-0.1-1-0.2-1.9-0.3-2.9c-1.6-14.3-3.1-28.5-4.7-42.8c-0.2-2.3-0.5-4.6-0.7-7.1c0.6,0,1.1,0,1.5,0
		c3.3,0,6.7,0,10,0c3.6,0,7.2,0,10.8,0c1.9,0,2.7-0.9,2.7-2.7c0-0.8,0-1.7,0-2.5C146.6,112.1,146.1,111.7,142.9,111.7z M48.2,57.3
		c9-15.7,28.8-26.6,51.7-26.6s42.6,10.9,51.7,26.6H48.2z"/>
</g>
</svg>
