<?xml version="1.0" encoding="utf-8"?>
<!-- Generator: Adobe Illustrator 22.1.0, SVG Export Plug-In . SVG Version: 6.00 Build 0)  -->
<svg version="1.1" id="Capa_1" xmlns="http://www.w3.org/2000/svg" xmlns:xlink="http://www.w3.org/1999/xlink" x="0px" y="0px"
	 viewBox="0 0 200 200" style="enable-background:new 0 0 200 200;" xml:space="preserve">
<style type="text/css">
	.st0{fill:#00324A;}
</style>
<g>
	<path class="st0" d="M99.7,110.4c-4.7,0-9.4,0-14.2,0c-1.4,0-1.9-0.4-1.7-1.8c0.2-1.3-0.2-2-1.7-2.3c-3.3-0.6-5.2-3.2-5.2-6.8
		c0.1-6.4,0.3-12.8,0.5-19.1c0.1-3.1,0.2-6.1,0.6-9.1c0.9-7,5.2-11,12.1-12.1c1.7-0.3,3,0,4.2,1.2c1.5,1.5,3.3,2.7,4.9,4.1
		c0.8,0.8,1.4,0.7,2.3,0c1.8-1.6,3.7-3.2,5.6-4.7c0.4-0.3,1-0.8,1.5-0.7c4.9,0.4,9.6,1.7,12.1,6.4c1.3,2.4,2.2,5.3,2.3,8
		c0.3,8.9,0.2,17.7,0.1,26.6c0,3.5-2.1,5.8-5.8,6.3c-1.4,0.2-1.9,0.8-1.7,2.1c0.2,1.5-0.5,1.9-1.9,1.9
		C109,110.4,104.4,110.4,99.7,110.4z"/>
	<path class="st0" d="M73.9,141.1c-0.6-1.5-1.1-2.9-1.6-4.2c-0.7-1.9-0.2-3.3,1.3-3.9c1.5-0.5,2.7,0.2,3.4,2
		c0.5,1.3,1.1,2.7,1.6,4.1c0.6,1.6,1.2,2.9,2.9,3.8c2.1,1.3,2.3,3.6,2,5.8c-0.3,2.2-1.5,3.8-3.6,4.4c-1.1,0.3-2.2,0.5-3.4,0.5
		c-7.1,0-14.2,0-21.3,0c-3.3,0-5.7-1.4-7.2-4.3c-1.9-3.5-3.5-7.2-5.3-10.7c-0.8-1.7-1.8-3.4-2.5-5.2c-0.5-1.2-1.2-1.4-2.3-1
		c-0.7,0.3-1.3,0.5-2.3,0.8c1.3,2.8,2.4,5.6,3.8,8.3c0.9,1.7,0.8,3.1-0.2,4.8c-1.2,1.9-2.1,3.9-3.3,5.8c-0.3,0.5-1.1,1-1.7,1
		c-4.9,0.1-9.8,0-14.6,0.1c-1,0-1.5-0.2-1.3-1.3c1.2-9,2.4-18,3.7-27c0.3-2.1,1.1-4.1,2-6c4.8-10.1,20-11.5,26.3-1.4
		c2.1,3.3,3.4,7,5,10.5c1.5,3.3,2.8,6.7,4.2,10c0.5,1.3,1.2,2,2.7,2.1c3.3,0.2,6.6,0.6,9.9,0.9C72.8,141.1,73.2,141.1,73.9,141.1z"
		/>
	<path class="st0" d="M164.2,133.4c-0.3-0.2-0.4-0.3-0.5-0.4c-2.9-1.4-3.1-1.2-4.5,1.7c-2.2,4.8-4.6,9.6-7,14.4
		c-1.6,3.1-4.2,4.6-7.7,4.5c-6.8-0.1-13.7,0-20.5,0c-0.7,0-1.4,0-2-0.1c-4.7-0.5-7-5.1-4.8-9.3c0.9-1.6,2.3-2.4,4-2.5
		c5.5-0.6,11-1.2,16.5-1.7c1.2-0.1,1.9-0.5,2.4-1.7c2.4-5.7,4.8-11.4,7.2-17c1.8-4.1,4.4-7.6,8.6-9.4c8.6-3.7,18,0.5,20.9,9.5
		c1.2,3.7,1.6,7.7,2.2,11.6c0.9,6.1,1.6,12.2,2.5,18.3c0.2,1.5-0.1,1.9-1.6,1.9c-4.6-0.1-9.2,0-13.8,0c-1.1,0-1.7-0.3-2.2-1.3
		c-1.2-2.4-2.6-4.6-3.7-7c-0.3-0.6-0.3-1.6,0-2.3c1-2.4,2.1-4.8,3.2-7.2C163.6,134.8,163.9,134.2,164.2,133.4z"/>
	<path class="st0" d="M43,150.5c1.4,1.8,2.8,3.4,4.1,5.2c0.2,0.3,0.1,1-0.1,1.4c-0.9,1.9-1.9,3.8-3,5.8c37.4,0,74.6,0,112,0
		c-1.2-2.4-2.3-4.6-3.3-6.5c1.4-2.1,2.8-3.9,4.2-6c0.8,1.4,1.6,2.9,2.4,4.4c1.6,3.1,3.3,6.1,4.9,9.2c1.8,3.4,0.4,5.8-3.4,5.8
		c-40.6,0-81.1,0-121.7,0c-3.6,0-5.1-2.4-3.4-5.6c2.2-4.2,4.4-8.4,6.6-12.5C42.6,151.2,42.8,150.8,43,150.5z"/>
	<path class="st0" d="M140.3,93.6c0-8.1,6.5-14.7,14.6-14.7c8.2,0,14.8,6.5,14.8,14.6c0.1,8-6.6,14.7-14.6,14.7
		C146.9,108.3,140.3,101.8,140.3,93.6z"/>
	<path class="st0" d="M50.9,109.8c-8.1,0-14.6-6.5-14.7-14.6c0-8.1,6.6-14.8,14.7-14.8c8.1,0,14.7,6.7,14.7,14.8
		C65.6,103.4,59.1,109.9,50.9,109.8z"/>
	<path class="st0" d="M138.5,128.8c-0.9-1.7-1.9-3.3-2.7-5c-0.6-1.4-1.5-1.9-3.1-1.9c-14.3,0.1-28.5,0-42.8,0c-7.7,0-15.4,0-23,0
		c-1.2,0-1.9,0.3-2.4,1.4c-0.9,2-2,3.8-3.2,6.2c-0.9-2-1.7-3.7-2.3-5.4c-0.4-0.9-1.1-2.1-0.8-2.9c0.7-1.9,1.8-3.6,2.9-5.2
		c0.4-0.5,1.4-0.7,2.1-0.8c1.2-0.1,2.4-0.1,3.6-0.1c22.1,0,44.3,0,66.4,0c6.5,0,5.6-0.1,8.5,5.6c0.2,0.4,0.3,0.9,0.1,1.3
		c-0.9,2.2-1.9,4.5-2.9,6.7C138.9,128.8,138.7,128.8,138.5,128.8z"/>
	<path class="st0" d="M113.2,43.1c0,7.1-5.8,12.9-12.9,12.8c-7.1,0-12.8-5.8-12.8-12.9c0-7.1,5.8-12.8,12.9-12.8
		C107.6,30.3,113.2,35.9,113.2,43.1z"/>
</g>
</svg>
