<?xml version="1.0" encoding="utf-8"?>
<!-- Generator: Adobe Illustrator 22.1.0, SVG Export Plug-In . SVG Version: 6.00 Build 0)  -->
<svg version="1.1" id="Capa_1" xmlns="http://www.w3.org/2000/svg" xmlns:xlink="http://www.w3.org/1999/xlink" x="0px" y="0px"
	 viewBox="0 0 200 200" style="enable-background:new 0 0 200 200;" xml:space="preserve">
<style type="text/css">
	.st0{fill:#00324A;}
</style>
<g>
	<g>
		<path class="st0" d="M165.3,104.7c-1.9-1.6-3.2-3.5-4-5.8c-2.8-7.7-6.8-14.8-11.8-21.3c-2.1-2.8-4.8-4.7-8.2-5.4
			c-2.2-0.5-4.5-0.7-6.8-0.9c-15.1-1.2-30.2-0.8-45.3,0c-6.4,0.4-11.8,3-15.1,8.5c-3.5,5.8-6.4,12-9.6,18c-1.4,2.6-2.8,5.5-5,7.4
			c-4.5,3.8-7,8.5-8.2,14.1c-0.5,2.1-0.8,4.1-1.2,6.2c0,1.7,0,3.5,0,5.2c0.1,0.3,0.3,0.6,0.3,0.9c0.8,4.2,1.4,8.4,2.4,12.6
			c0.6,2.6,1.3,4,2.7,4.8l-0.2,6c-0.1,0.3-0.1,0.7-0.1,1c0,0.4,0,0.9,0,1.3l0,0.2l0,0c0,1,0,1.9,0,2.8c0.2,3.5,1.8,5.4,5.2,5.7
			c3.1,0.2,6.1,0.1,9.2,0.1c0,0,0,0.1,0,0.1c2.9,0,5.8,0,8.6,0c0.6,0,1.2-0.2,1.8-0.3c1.5-0.3,2.7-1.2,3.5-2.4l0,0
			c1.7-1.5,1.9-7.1,1.9-10.7c1.6,0.7,3.3,1.3,5,1.3c14.8,0.2,29.6,0.1,44.4,0c1,0,2-0.3,3-0.7c0,3.5,0.3,8.6,1.9,10l0,0
			c0.8,1.2,2,2.1,3.5,2.4c0.6,0.1,1.2,0.3,1.8,0.3c2.9,0,5.8,0,8.6,0c0,0,0-0.1,0-0.1c3.1,0,6.2,0.2,9.2-0.1c3.4-0.3,5-2.2,5.2-5.7
			c0-0.9,0-1.9,0-2.8l0,0l0-0.2c0-0.4,0-0.9,0-1.3c0-0.4,0-0.7-0.1-1l-0.1-5.6c3-0.7,4.3-2.4,5.4-6.4c0.2-0.8,0.4-1.6,0.5-2.3
			c0.4-3.7,0.7-7.5,1-11.2C175.7,119.7,173,111.2,165.3,104.7z M70.7,97.1C73.5,92,76.4,87,79.3,82c1.9-3.1,4.8-4.8,8.4-5
			c8.3-0.5,16.7-0.9,24.3-1.3c8.4,0.4,16.1,0.8,23.8,1.1c4.8,0.2,8.6,1.9,11,6.1c2.7,4.8,5.4,9.5,8,14.3c1.1,2.1,0.5,2.9-1.9,2.5
			c-12.5-1.7-25-1.8-37.6-1.9c-14.2-0.1-28.5,0.2-42.6,1.9C70,100.1,69.4,99.4,70.7,97.1z M59,123.7c8.1-1.1,12.7,1.2,16.5,8.5
			c-5.9,0-11.5,0-17.2,0c-0.4,0-1.2-0.2-1.3-0.4c-0.3-2.1-0.8-4.3-0.7-6.4C56.3,124,57.8,123.9,59,123.7z M79.1,158
			c0,0.2,0,0.4,0,0.6c0,0.2-0.1,0.4-0.1,0.6c-0.1,0.3-0.2,0.5-0.4,0.7c-0.1-0.1-0.1,0-0.1,0.1c-0.4,0.4-1,0.6-1.8,0.5
			c-3.7,0-7.4,0-11,0c-2.3,0-3.4,0-3.9-0.7l0.4,0.1c-1.3-1.6-1-6.6-0.6-10.2c4.1,0,8.1,0.1,12.2,0c2.3-0.1,4.4,0.2,6.4,0.8
			c-0.2,2.7-0.4,4.6-0.6,6.1C79.3,157,79.1,157.5,79.1,158z M161.9,159.8c-0.5,0.7-1.6,0.7-3.9,0.7c-3.7,0-7.4,0-11,0
			c-0.8,0-1.4-0.2-1.8-0.5c0-0.1,0-0.2-0.1-0.1c-0.2-0.2-0.3-0.4-0.4-0.7c0-0.2-0.1-0.4-0.1-0.6c0-0.2,0-0.4,0-0.6
			c0-0.5-0.1-1-0.3-1.4c-0.2-1.3-0.4-2.9-0.5-5.1c1.6-0.7,3.3-1.3,5-1.4c4.5-0.4,9-0.3,13.5-0.3c0.4,3.6,0.7,8.6-0.6,10.2
			L161.9,159.8z M165.3,144.1c-4.3,0.1-8.7,0.1-13,0c-4.2-0.2-8.2,0.3-11.9,2.6c-3.9,2.5-8.4,2.3-12.8,2.3c-9.8-0.1-19.7-0.1-29.5,0
			c-5.1,0.1-10-0.2-14.5-3.1c-2.9-1.8-6.2-1.9-9.5-1.8c-4.5,0.1-9,0-13.4,0c-1.9,0-3.1-1.1-3.6-2.9c-0.6-2.2,0.3-3.4,2.5-3.4
			c7,0,13.9,0,20.9-0.1c1.1,0,2.3-0.3,3.1-0.9c1.3-1,1.2-2.5,0.2-3.8c-3.1-3.8-6.1-7.6-9.4-11.2c-3.7-4-8.6-4.1-13.6-3.9
			c-0.9,0-1.9-0.3-2.8-0.5c0.3-1,0.4-2,0.9-2.9c4.1-7.8,11.5-9.4,19.4-9.9c10.6-0.6,21.2-1.1,32.4-1.7c11.3,0.5,23.2,1,35,1.6
			c3.5,0.2,6.9,0.8,10.3,1.3c4.6,0.7,7.6,3.8,10,7.5c0.8,1.2,1.3,2.7,1.9,4c-1.4,0.2-2.9,0.6-4.3,0.5c-6.3-0.4-11.3,1.8-15,7.1
			c-1.9,2.7-4.3,5-6.2,7.6c-0.7,0.9-1,2.3-0.8,3.4c0.3,1.5,1.8,1.8,3.2,1.8c6.9,0,13.8,0,20.7,0c1.4,0,3.2-0.3,3.3,1.9
			C168.6,142.4,167.5,144,165.3,144.1z M164.1,132.3c-4.7,0-9.5,0-14.8,0c2.4-2.7,4.3-5.1,6.4-7.3c0.6-0.6,1.6-1.2,2.4-1.2
			c3-0.2,6-0.1,9-0.1c1.5,0,2.2,1,2.3,2.5c0,0.2,0,0.4,0,0.6C169.5,132.1,169.2,132.3,164.1,132.3z"/>
		<path class="st0" d="M135.3,123.1c-0.9-0.3-2-0.5-3-0.5c-6.6,0-13.3,0-19.9,0c0,0,0,0,0,0.1c-6.6,0-13.3,0-19.9,0
			c-2.5,0-4.5,0.8-5.6,3.1c-1,2.3-0.2,4.1,1.2,5.9c2.3,2.8,4.6,5.6,6.9,8.4c1.3,1.6,3,2.4,5.1,2.4c6.6,0,13.1,0.1,19.7,0
			c3.3,0,6.9,0.3,9.4-2.2c3.2-3.1,6.2-6.6,8.9-10.3C139.9,127.6,138.3,124,135.3,123.1z M126.2,136c-0.5,0.5-1.4,0.7-2.2,0.7
			c-7.1,0.1-14.2,0.1-21.3,0.2c-2.2,0-4-0.7-5.3-2.6c-1.3-1.8-2.9-3.5-4.6-5.6c13.4,0,26.4,0,39.7,0
			C130.4,131.3,128.4,133.7,126.2,136z"/>
	</g>
	<path class="st0" d="M107.2,40.5c-1,2.2-3,3.3-4.9,4.4c-5.7,3.5-11.8,6.3-17.9,9.2c-0.6,0.3-1,0.6-1.2,1.2
		c-3.9,8.4-7.7,16.8-11.6,25.1c-0.7,1.6-1.7,3-2.9,4.3c-1.4,1.6-3.4,2.3-5.2,3c-1.4,0.5-2.8-0.5-2.8-2.1c0-1.4,0.3-2.9,0.5-4.3
		c1.1-5.8,2.2-11.6,3.3-17.4c0-0.2,0.1-0.5,0.1-0.8c-0.4,0.2-0.6,0.3-0.9,0.4c-5.8,2.5-11.6,5-17.8,6.5c-2.9,0.7-5.8,1.3-8.8,1.1
		c-1.9-0.1-3.7-0.6-5-2c-0.5-0.5-0.9-1.2-1.2-1.9c-1.8-4-3.5-8.1-5.4-12.1c-1.5-3,0.5-5.2,3.3-5.4c1.4-0.1,2.7,0.3,3.8,1.1
		c2.2,1.6,4.4,3.2,6.6,4.9c0.7,0.6,1.4,0.6,2.3,0.2c3.9-1.8,7.9-3.5,11.8-5.3c0.2-0.1,0.5-0.2,0.8-0.4c-0.3-0.2-0.5-0.3-0.8-0.5
		c-3.6-2.2-7.3-4.4-10.9-6.6c-0.3-0.2-0.5-0.3-0.7-0.5c-1.8-1.5-1.5-3.4,0.6-4.4c1.6-0.7,3.1-1.5,4.9-1.5c1.7,0,3.4,0.2,5,0.7
		c5.8,1.8,11.5,3.5,17.3,5.3c0.7,0.2,1.3,0.2,1.9-0.1c5.7-2.6,11.4-5.2,17.2-7.6c4.8-2,9.7-2.1,14.5,0.1c1.8,0.9,3.2,2.2,4.2,3.9
		C107.2,39.7,107.2,40.1,107.2,40.5z M103.9,40c-1.8-1.9-3.9-2.6-6.1-2.9c-3.4-0.5-6.6,0.3-9.7,1.7c-15.2,6.8-30.4,13.5-45.6,20.3
		c-1.8,0.8-3.4,0.7-5-0.5c-0.4-0.3-0.8-0.6-1.2-0.8c-1.9-1.4-3.8-2.8-5.7-4.3c-0.7-0.6-1.5-0.7-2.4-0.3c0,0.1,0,0.2,0.1,0.3
		c1.8,4.2,3.7,8.3,5.5,12.5c0.4,0.9,1.1,1.4,2.1,1.6c1.7,0.4,3.4,0.3,5,0.1c4.1-0.6,8-1.7,11.7-3.2c5.1-2.1,10.1-4.3,15.2-6.5
		c0.3-0.1,0.6-0.2,1-0.4c-1.7,8.8-3.3,17.5-4.9,26.2c0.1,0.1,0.1,0.1,0.2,0.2c0.5-0.4,1.1-0.6,1.6-1.1c1.2-1.1,2-2.4,2.7-3.9
		c4-8.7,8.1-17.4,12.1-26.2c0.3-0.6,0.6-0.9,1.2-1.2c5.3-2.6,10.6-5.2,15.9-7.9C99.8,42.8,101.7,41.4,103.9,40z M44.8,40.9
		c4.3,2.6,8.5,5.1,12.7,7.6c0.2,0.1,0.5,0.1,0.7,0.1c2.5-1.1,5-2.2,7.7-3.4c-1.4-0.4-2.7-0.8-3.9-1.2c-4-1.2-7.9-2.4-11.9-3.5
		C48.3,40,46.6,40,44.8,40.9z"/>
</g>
</svg>
