<?xml version="1.0" encoding="utf-8"?>
<!-- Generator: Adobe Illustrator 22.1.0, SVG Export Plug-In . SVG Version: 6.00 Build 0)  -->
<svg version="1.1" id="Capa_1" xmlns="http://www.w3.org/2000/svg" xmlns:xlink="http://www.w3.org/1999/xlink" x="0px" y="0px"
	 viewBox="0 0 200 200" style="enable-background:new 0 0 200 200;" xml:space="preserve">
<style type="text/css">
	.st0{fill:#00324A;}
</style>
<g>
	<g>
		<path class="st0" d="M100,63C100,63,100,63,100,63c-4.2,0-8-1.6-11-4.6c-2.9-2.9-4.5-6.8-4.5-11c0-8.6,7-15.5,15.5-15.5
			c0,0,0,0,0,0c8.6,0,15.5,7,15.5,15.5C115.5,56.1,108.5,63,100,63z M100,58.8C100,58.8,100,58.8,100,58.8c6.2,0,11.3-5,11.3-11.2
			c0-6.2-5-11.3-11.2-11.3c0,0,0,0,0,0c-6.2,0-11.3,5-11.3,11.2c0,3,1.2,5.8,3.3,8C94.2,57.6,97,58.8,100,58.8z"/>
	</g>
	<path class="st0" d="M82.1,89.8c-0.8-11.4,7.4-19.1,16.3-20c4.3-0.4,8.2,0.6,11.7,3.1c5.8,4.1,8.1,9.9,7.8,16.8c1.6,0,2.9,0,4.4,0
		c0.3-9-2.9-16.3-10.6-21.1c-8.1-5-16.5-4.7-24.4,0.6c-7.1,4.8-10,11.9-9.6,20.4C79.2,89.8,80.6,89.8,82.1,89.8z"/>
	<g>
		<path class="st0" d="M100,63C100,63,100,63,100,63c-4.2,0-8-1.6-11-4.6c-2.9-2.9-4.5-6.8-4.5-11c0-8.6,7-15.5,15.5-15.5
			c0,0,0,0,0,0l0,0c8.6,0,15.5,7,15.5,15.5C115.5,56.1,108.5,63,100,63z M100,36.2c-6.2,0-11.3,5-11.3,11.2c0,3,1.2,5.8,3.3,8
			c2.1,2.1,4.9,3.3,7.9,3.3c0,0,0,0,0,0c6.2,0,11.3-5,11.3-11.2C111.3,41.3,106.2,36.2,100,36.2C100,36.2,100,36.2,100,36.2z"/>
	</g>
	<g>
		<path class="st0" d="M100,63C100,63,100,63,100,63c-4.2,0-8-1.6-11-4.6c-2.9-2.9-4.5-6.8-4.5-11c0-8.6,7-15.5,15.5-15.5
			c0,0,0,0,0,0l0,0c8.6,0,15.5,7,15.5,15.5C115.5,56.1,108.5,63,100,63z M100,36.2c-6.2,0-11.3,5-11.3,11.2c0,3,1.2,5.8,3.3,8
			c2.1,2.1,4.9,3.3,7.9,3.3c0,0,0,0,0,0c6.2,0,11.3-5,11.3-11.2C111.3,41.3,106.2,36.2,100,36.2C100,36.2,100,36.2,100,36.2z"/>
	</g>
	<path class="st0" d="M82.1,89.8c-1.5,0-2.9,0-4.4,0c-0.4-8.6,2.5-15.6,9.6-20.4c7.9-5.4,16.2-5.6,24.4-0.6
		c7.7,4.7,10.9,12,10.6,21.1c-1.5,0-2.9,0-4.4,0c0.4-6.9-2-12.7-7.8-16.8c-3.5-2.5-7.5-3.5-11.7-3.1C89.5,70.7,81.3,78.4,82.1,89.8z
		"/>
	<path class="st0" d="M164,94.4c-11.5,0-23.1,0-34.6,0c-31.1,0-62.2,0-93.3,0c-2.4,0-3.1,0.7-3.1,3c0,3.8,0.1,7.5,0,11.3
		c0,1.8,0.3,3.2,2.3,3.7c0,0.7,0,1.3,0,1.9c0,16.8,0,33.7,0,50.5c0,2.6,0.6,3.2,3.3,3.2c5.1,0,10.1,0,15.2,0c36,0,72,0,108,0
		c2.3,0,3-0.7,3-3c0-3.4,0-6.9,0-10.3c0-14.1,0-28.2,0-42.4c1.9-0.7,2.2-1.2,2.2-3.1c0-4,0-8,0-12C167,95.1,166.2,94.4,164,94.4z
		 M160.2,163.5c-40.1,0-80.2,0-120.4,0c0-17,0-34,0-51.2c40.2,0,80.2,0,120.4,0C160.2,129.3,160.2,146.3,160.2,163.5z M162.5,107.7
		c-41.6,0-83.2,0-124.9,0c0-2.9,0-5.8,0-8.7c41.6,0,83.2,0,124.9,0C162.5,101.9,162.5,104.7,162.5,107.7z"/>
</g>
</svg>
