<?xml version="1.0" encoding="utf-8"?>
<!-- Generator: Adobe Illustrator 22.1.0, SVG Export Plug-In . SVG Version: 6.00 Build 0)  -->
<svg version="1.1" id="Capa_1" xmlns="http://www.w3.org/2000/svg" xmlns:xlink="http://www.w3.org/1999/xlink" x="0px" y="0px"
	 viewBox="0 0 200 200" style="enable-background:new 0 0 200 200;" xml:space="preserve">
<style type="text/css">
	.st0{fill:#00324A;}
</style>
<g>
	<path class="st0" d="M55.4,138.2c-4.6,0-9,0-13.4,0c-1.5,0-2.8-0.2-2.8-2.1c0-1.9,1.3-2.2,2.8-2.2c4.3,0,8.6,0.2,12.8,0
		c3.1-0.1,5.5,0.2,5.2,4c3.2,1,7-1.4,9.7,2.5c1.8-4,3.4-7.9,4.6-11.9c0.6-2.1-0.5-3.8-2.3-5.3c-1.6-1.4-3.5-3.2-3.9-5
		c-0.4-1.9,0.9-4.1,1.4-6.4c-4.8,0-10.3-0.2-15.7,0.1c-6.4,0.3-12.4,0.1-14.9-7.3c-0.6-1.7-1.5-2-3-1.8c-1.6,0.3-2.8-0.2-2.8-2
		c0-1.8,1.1-2.2,2.7-2.2c2.7,0.1,5.4,0,8.1,0c2-34.8,31.1-53.4,54.9-53.9c26.4-0.6,55.9,19.9,57.5,54c2.8,0,5.6-0.1,8.4,0.1
		c0.8,0.1,2,1.1,2.1,1.8c0.1,0.7-1.1,2.3-1.6,2.2c-3.4-0.4-4.2,2.1-5.3,4.4c-1.4,3-3.7,4.7-7.1,4.7c-3.7,0-7.4-0.1-11-0.1
		c-2.6,0-5.3,0-8.3,0c4.2,4.6,3.8,7.1-1.1,10.3c-0.2,0.1-0.3,0.2-0.5,0.3c-6.8,4.4-13.1,9.4-18.3,15.7c-11,13.3-25,22-41.9,25.9
		c-1.6,0.4-3.2,0.4-3.4,2.7c-0.1,0.6-1.5,1.3-2.4,1.4c-1.9,0.2-3.8,0.1-5.9,0.1c-0.1,1.3-0.1,2.3-0.1,3.2c-0.1,3.5-0.4,3.9-3.8,3.9
		c-4.6,0-9.1,0-13.7,0c-1.5,0-3.1,0-3.1-2.1c0-2.1,1.6-2.1,3.1-2.1c4.3,0,8.5,0,13.1,0C55.4,159.8,55.4,149.1,55.4,138.2z
		 M52.1,98.6c1.5,0,3.4-0.2,3.3,2.1c-0.1,2.1-1.7,2-3.2,2c-2.8,0-5.6,0-8.8,0c0.9,2.7,1.5,4.6,4.5,4.6c10.9-0.1,21.7,0,32.6,0.1
		c9.3,0,18.6,0.1,27.9,0.1c11.4,0,22.9-0.1,34.3-0.1c3,0,6-0.1,9,0c2.9,0.1,4.1-1.6,5.1-4.3c-1.1-0.1-2-0.2-3-0.2
		c-8.6,0-17.3-0.1-25.9,0c-8.7,0-17.5,0.1-26.2,0.2c-4.2,0-8.4,0-12.5,0c-1.1,0-2.2,0.1-3.2-0.3c-0.7-0.3-1.4-1.4-1.4-2.1
		c0-0.5,0.9-1.4,1.6-1.7c0.9-0.3,1.9-0.2,2.9-0.2c19.7,0,39.5-0.1,59.2,0.1c2.9,0,3.5-1,3.2-3.6c-2.9-20.7-13.9-35.4-33.4-42.7
		C86.9,40.8,54.4,60.3,49,93.2c-0.3,1.6-0.3,3.3-0.5,5.4C50,98.6,51,98.6,52.1,98.6z M82.8,155.7c9.4-3.8,17.5-9.4,24.2-17.2
		c6.9-7.9,14.4-15.2,23.6-20.6c0.5-0.3,0.9-0.7,1.5-1.2c-1.6-1.8-3.4-1.2-4.8-0.3c-7.3,4.7-14.4,9.5-21.6,14.2
		c-3.2,2.1-6.3,4.5-9.8,6.2c-4.2,2-7.7,0.4-9.5-3.8c-1.4-3.4-2.5-6.9-3.7-10.4c-1.3-3.6-4-5.6-7.6-6.5c-0.9-0.2-1.9,0.4-2.9,0.7
		c0.5,0.8,0.8,1.8,1.4,2.3c5.1,4.1,6.2,6.7,4.2,12.9c-1.6,5.1-3,10.6-8.5,13.4c-0.4,0.2-0.7,0.9-0.7,1.4c-0.1,4.3,0,8.5,0,13.6
		C73.7,158.8,78.3,157.5,82.8,155.7z M88.2,125.3c0.6,1.9,1.4,3.8,2,5.8c0.9,2.5,2.7,3,4.8,1.7c2.9-1.8,5.7-3.7,8.3-5.8
		c7.2-5.5,14.3-11.2,23.4-15.2c-16.8,0-32.8,0-48.9,0C84.3,114.2,86.4,119.6,88.2,125.3z M60.1,142.6c0,6.9,0,13.8,0,21
		c1.3,0,2.6,0,4.1,0c0-7,0-13.9,0-21C62.8,142.6,61.6,142.6,60.1,142.6z"/>
	<path class="st0" d="M106.7,26.5c1.3,0.7,2.8,2.9,2.5,4c-0.8,3.4-1.8,7-3.8,9.9c-3,4.4-8,4-11.1-0.4c-0.6-0.9-1.1-1.8-1.5-2.8
		c-3.9-8.1-1.5-12,7.5-12.3C102.4,25.4,104.8,25.5,106.7,26.5z M95.4,31.6c-0.2,2.7,3,7.4,4.7,7.5c1.7,0.1,5.2-4.9,4.8-7.6
		c-0.3-3-3.2-1.4-4.9-2.2C98.5,30.1,95.6,28.4,95.4,31.6z"/>
	<path class="st0" d="M47.3,161.5c-0.7,1-2,2.1-1.9,3.1c0,0.9,1.6,2.3,2.4,2.4c0.9,0,2.5-1.4,2.6-2.2c0.1-1-1.1-2.1-1.8-3.2
		C48.2,161.6,47.7,161.6,47.3,161.5z"/>
	<path class="st0" d="M142.5,91.4c-2.6-16.7-10.4-28.7-25.1-35.6c-1.3-0.6-2.9-1.2-3.7,0.7c-0.7,1.8,0.7,2.6,2.1,3.2
		c12.9,6.3,19.9,16.8,22.3,30.7c0,0.2-0.1,0.5,0,0.6c0.8,0.9,1.6,1.8,2.4,2.6C141.2,92.7,142,91.8,142.5,91.4z"/>
</g>
</svg>
