<?xml version="1.0" encoding="utf-8"?>
<!-- Generator: Adobe Illustrator 22.1.0, SVG Export Plug-In . SVG Version: 6.00 Build 0)  -->
<svg version="1.1" id="Capa_1" xmlns="http://www.w3.org/2000/svg" xmlns:xlink="http://www.w3.org/1999/xlink" x="0px" y="0px"
	 viewBox="0 0 200 200" style="enable-background:new 0 0 200 200;" xml:space="preserve">
<style type="text/css">
	.st0{fill:#00324A;}
</style>
<path class="st0" d="M87.6,140.7c0-2.5,0-4.9,0-7.4c-0.4,0-0.8,0-1.2,0c-14.6,0-29.1,0-43.7,0c-3.1,0-6.2,0-9.4,0
	c-2.5,0-4.9-2-4.9-4.5c0-6.5-0.5-13,0.5-19.4c1-6.6,3.3-12.8,6.9-18.5c4.6-7.2,10.8-12.8,18.4-16.7c4.5-2.3,9.3-3.8,14.3-4.5
	c4.3-0.6,8.6-0.4,12.9-0.5c0.4,0,0.8,0,1.3,0c-0.5-7.4,2.6-12.4,9.8-14.6c0-1.6,0-3.3,0-5.1c-1.6,0-3.3,0-4.9,0
	c-1.4,0-2.5-0.5-3.5-1.4c-1-0.9-1.4-2.1-1.5-3.4c0-1.7,0-3.4,0-5.1c0-2.7,2.1-4.9,4.9-4.9c8.3,0,16.6,0,24.9,0
	c2.6,0,4.7,2.2,4.8,4.7c0,1.8,0,3.6,0,5.3c0,2.6-2.2,4.7-4.8,4.7c-1.7,0-3.3,0-5,0c0,1.7,0,3.4,0,5.1c7.2,2.2,10.3,7.2,9.8,14.6
	c0.5,0,0.8,0,1.1,0c3.8,0.1,7.7-0.1,11.5,0.3c9.7,1,18.3,4.9,25.6,11.3c6.5,5.7,11,12.7,13.7,20.9c1.5,4.7,2.2,9.5,2.3,14.4
	c0,4,0,8,0,12c0,3.1-2.1,5.2-5.2,5.2c-17.6,0-35.2,0-52.8,0c-0.3,0-0.7,0-1.1,0c0,0.4,0,0.7,0,1c0,1.9,0,3.8,0,5.7
	c0,0.6,0.2,0.7,0.7,0.7c2.6,0,5.1,0,7.7,0c16.1,0,32.2,0,48.2,0c3.3,0,5.7,2.4,6.3,5c1,4.6,2.2,9.2,3.4,13.7c0.9,3.4-1,5.9-4.5,5.9
	c-14.5,0-29,0-43.5,0c-18.8,0-37.6,0-56.3,0c-16.1,0-32.2,0-48.3,0c-3.7,0-5.5-2.5-4.6-6c1.2-4.7,2.4-9.4,3.5-14.1
	c0.6-2.6,3.1-4.6,6-4.5c18.6,0.1,37.2,0,55.8,0C87,140.7,87.3,140.7,87.6,140.7z M166.5,128.3c0-0.3,0-0.4,0-0.5c0-4.3,0-8.5,0-12.8
	c0-1.7-0.2-3.4-0.4-5.1c-0.7-4.7-2.2-9.1-4.4-13.3c-3.4-6.5-8.2-11.7-14.2-15.7c-7.2-4.7-15.1-6.9-23.7-6.8c-5.7,0.1-11.4,0-17.1,0
	c-10.9,0-21.9,0-32.8,0c-4.1,0-8.2,0.8-12.1,2.2c-9,3.1-16.1,8.7-21.4,16.6c-4.4,6.6-6.7,14-7,21.9c-0.1,3.6-0.1,7.2-0.1,10.8
	c0,0.9,0,1.8,0,2.7C77.8,128.3,122.1,128.3,166.5,128.3z M173.7,160.3c-0.1-0.3-0.1-0.5-0.1-0.7c-1.1-4.3-2.2-8.5-3.2-12.8
	c-0.2-0.9-0.6-1.2-1.5-1.2c-8,0-15.9,0-23.9,0c-9.3,0-18.6,0-27.9,0c-21.5,0-43.1,0-64.6,0c-7.1,0-14.2,0-21.3,0
	c-0.9,0-1.3,0.3-1.5,1.2c-0.5,2.4-1.2,4.7-1.8,7.1c-0.5,2.1-1.1,4.3-1.6,6.4C75.4,160.3,124.5,160.3,173.7,160.3z M112.5,69.2
	c-0.2-1.6-0.1-3.2-0.5-4.6c-0.9-3.2-3.7-5.2-7.1-5.2c-3.3,0-6.5,0-9.8,0c-0.6,0-1.3,0.1-1.9,0.3c-4.4,1.3-6,5.2-5.3,9.5
	C95.9,69.2,104,69.2,112.5,69.2z M112.3,39.7c-8.2,0-16.4,0-24.6,0c0,1.6,0,3.2,0,4.8c8.2,0,16.4,0,24.6,0
	C112.3,42.9,112.3,41.3,112.3,39.7z M107.3,140.6c0-2.4,0-4.9,0-7.3c-4.9,0-9.8,0-14.7,0c0,2.5,0,4.9,0,7.3
	C97.5,140.6,102.4,140.6,107.3,140.6z M97.6,54.3c1.6,0,3.2,0,4.8,0c0-1.6,0-3.2,0-4.8c-1.6,0-3.2,0-4.8,0
	C97.6,51.1,97.6,52.7,97.6,54.3z"/>
</svg>
