<?xml version="1.0" encoding="utf-8"?>
<!-- Generator: Adobe Illustrator 22.1.0, SVG Export Plug-In . SVG Version: 6.00 Build 0)  -->
<svg version="1.1" id="Capa_1" xmlns="http://www.w3.org/2000/svg" xmlns:xlink="http://www.w3.org/1999/xlink" x="0px" y="0px"
	 viewBox="0 0 200 200" style="enable-background:new 0 0 200 200;" xml:space="preserve">
<style type="text/css">
	.st0{fill:#00324A;}
</style>
<g>
	<path class="st0" d="M80.7,51c0-0.9,0-1.5,0-2.1c0-5.4,0-10.8,0-16.3c0-3.4,1.9-5.3,5.3-5.3c9.3,0,18.7,0,28,0
		c3.4,0,5.2,1.9,5.3,5.3c0,5.4,0,10.8,0,16.3c0,0.6,0,1.2,0,2c0.7,0,1.2,0.1,1.8,0.1c5.9,0,11.8,0,17.7,0c9.8,0,17,7.2,17,17
		c0,29.2,0,58.3,0,87.5c0,9.8-7.2,17.1-17,17.1c-25.8,0-51.6,0-77.4,0c-9.8,0-17-7.3-17-17.1c0-29.2,0-58.3,0-87.5
		c0-9.8,7.2-17,17-17c5.8,0,11.7,0,17.5,0C79.4,51,79.9,51,80.7,51z M60.7,162.8c0-2.7,0-5.4,0-8c0.2-10.4,8.5-18.8,18.9-18.8
		c13.7-0.1,27.5-0.1,41.2,0c7.6,0.1,13.2,3.8,16.8,10.5c1.5,2.7,2.1,5.7,2,8.8c0,2.5,0,4.9,0,7.9c1.5-0.8,2.8-1.2,3.8-2
		c2.1-1.6,2.6-4,2.6-6.5c0-28.6,0-57.2,0-85.8c0-0.6,0-1.1,0-1.7c-0.3-3.9-3.2-6.6-7.1-6.6c-6.2,0-12.4,0-18.6,0
		c-0.3,0-0.6,0.1-1.1,0.1c0,0.7,0,1.3,0,1.9c0,5.5,0,10.9,0,16.4c0,3.6-1.9,5.4-5.5,5.4c-9.2,0-18.4,0-27.6,0
		c-3.7,0-5.5-1.8-5.5-5.5c0-5.5,0-10.9,0-16.4c0-0.6-0.1-1.2-0.1-1.9c-0.7,0-1.3,0-1.8,0c-5.5,0-11,0-16.6,0c-5.6,0-8.3,2.7-8.3,8.2
		c0,28.6,0,57.2,0,85.8c0,0.9,0,1.8,0.2,2.6C54.7,160.4,57.4,162.7,60.7,162.8z M109.7,74.8c0-12.6,0-25.1,0-37.7
		c-6.4,0-12.7,0-19,0c0,12.6,0,25.2,0,37.7C97.1,74.8,103.4,74.8,109.7,74.8z"/>
	<path class="st0" d="M83.5,115.2c0-9.3,7.4-16.7,16.7-16.7c9.3,0,16.7,7.5,16.7,16.7c0,9.3-7.5,16.7-16.8,16.7
		C90.9,131.9,83.5,124.5,83.5,115.2z"/>
</g>
</svg>
