<?xml version="1.0" encoding="utf-8"?>
<!-- Generator: Adobe Illustrator 22.1.0, SVG Export Plug-In . SVG Version: 6.00 Build 0)  -->
<svg version="1.1" id="Capa_1" xmlns="http://www.w3.org/2000/svg" xmlns:xlink="http://www.w3.org/1999/xlink" x="0px" y="0px"
	 viewBox="0 0 200 200" style="enable-background:new 0 0 200 200;" xml:space="preserve">
<style type="text/css">
	.st0{fill:#00324A;}
</style>
<g>
	<path class="st0" d="M150.5,122.3c3.9-2.9,8.4-4.3,13.1-5.1c3.8-0.6,7.6-0.7,11.5-0.5c0.6,0,0.8-0.2,1-0.7c1.3-2.6,0.7-5-0.5-7.4
		c-1.5-2.9-3.6-5.2-6-7.3c-4.5-4-9.4-7.3-14.7-10.2c-5.4-2.9-10.9-5.7-16.3-8.4c-2.1-1.1-4.3-2.2-6.7-2.7c-1.7-0.3-3.3-0.4-4.7,0.6
		c-0.7,0.5-1.3,0.7-2.1,0.6c-3.4-0.2-6.8-0.2-10.2-0.4c-0.3,0-0.7-0.2-0.9-0.5c-2.6-4-5.2-7.9-7.7-11.9c-1.5-2.3-3.5-3.9-6.2-4.5
		c-4-0.8-7.3,0.4-9.9,3.5c-0.9,1-1.6,2.3-2.3,3.4c-3.7,5.5-7.4,10.9-11.1,16.4c-2.5,3.8-2.1,8.5,1.1,11.7c1.3,1.3,3,2.3,4.6,3.3
		c6.2,4,12.5,7.9,18.8,11.8c0.7,0.4,0.8,0.7,0.5,1.5c-1.7,4.3-3.4,8.7-5.1,13.1c-0.7,1.8,0.1,3.5,1.9,4.2c1.6,0.6,3.4-0.2,4-1.8
		c2.2-5.4,4.3-10.9,6.4-16.3c0.7-1.7,0.2-3.1-1.3-4.1c-4-2.6-8-5.1-11.9-7.7c-1.6-1-3.2-2.1-4.7-3c5.2-6.8,9.5-14,14.4-20.9
		c0.1,0.2,0.3,0.3,0.4,0.5c1.3,2,2.6,3.9,3.8,5.9c0.7,1.1,1.7,1.7,3,1.7c4.3,0.1,8.6,0.3,12.9,0.4c0.3,0.6,0.6,1.3,1,1.9
		c2.4,3.8,4.9,7.6,7.4,11.4c0.5,0.7,0.3,1.1-0.2,1.7c-0.3-0.2-0.5-0.3-0.7-0.4c-4.3-2.8-8.5-5.6-13.1-7.8c-3.3-1.6-6.7-2.8-10.4-3
		c-5.8-0.4-10.1,2.7-12.3,8.4c0.9,0.5,1.8,0.9,2.7,1.4c0.9,0.5,1.8,1,2.7,1.5c0.5-0.9,1-1.7,1.5-2.4c1.6-2.5,3.3-2.6,5.9-2.3
		c3.4,0.4,6.4,1.7,9.3,3.4c3.8,2.2,7.5,4.7,11.3,7c1.8,1.1,3.7,2.1,5.5,3.1c0.2-0.1,0.2-0.2,0.3-0.2c1.8-3.1,3.5-6.1,5.2-9.2
		c0.1-0.2,0-0.7-0.1-1c-2.5-3.8-5-7.7-7.4-11.5c-0.5-0.8-1-1.5-1.4-2.3c1.6,0.6,3.1,1.4,4.6,2.1c6.9,3.5,13.9,6.7,20.3,11
		c3.1,2.1,6,4.3,9,6.5c1.3,1,2.3,2.2,3.5,3.4c-0.2,0.1-0.3,0.2-0.3,0.2c-0.2,0-0.4,0-0.6,0c-4.8,0.3-9.4,0.9-14,2.5
		c-3,1.1-5.7,2.5-8.3,4.3c-4.6,3.4-8,7.9-10.4,13.1c-1.3,2.7-2.2,5.6-3.3,8.4c-0.2,0.4-0.2,0.7-0.8,0.7c-11.8,0-23.5,0-35.3,0
		c-0.7,0-1.2-0.1-1.2-1c0-0.4-0.2-0.9-0.3-1.3c-1.3-6.3-3.7-12.1-8.1-17c-3.4-3.8-7.5-6.5-12.2-8.5c-2-0.8-4-1.5-6.1-2
		c-2.7-0.6-5.4-1-8.1-1.5c-0.3-0.1-0.6-0.2-0.8-0.2c-4.2-0.3-8.3-0.5-12.5-0.8c-0.5,0-0.8-0.1-1-0.6c-0.2-0.6-0.5-1.1-0.8-1.6h10
		c3.5,0,6.7-1.3,9.2-3.4c1.1,1.6,2.2,3.2,3.3,4.9c0.3,0.4,0.6,0.6,1.1,0.6c4.3,0,8.6,0,12.8,0c0.2,0,0.5,0,0.9-0.1
		c-2.9-1.9-5.6-3.7-8.2-5.5c-0.8-0.5-1.5-1-2.5-0.9c-0.2,0-0.5-0.3-0.6-0.5c-0.9-1.4-1.8-2.7-2.7-4.1c0.7-1.7,1.1-3.6,1.1-5.5V67.6
		c0-7.9-6.5-14.4-14.4-14.4H24.6c-7.9,0-14.4,6.5-14.4,14.4v22.8c0,7.9,6.5,14.4,14.4,14.4h13.7c0.5,0.7,1,1.4,1.5,2.2
		c1,1.8,1.7,3.9,2.4,5.8c0.1,0.4,0.3,0.5,0.7,0.5c1.3,0,2.6,0,4,0c5.3,0.1,10.6,0.3,15.8,1.2c2,0.4,4,0.9,5.9,1.3
		c1.3,0.5,2.7,1,4,1.5c5.9,2.4,10.5,6.4,13.5,12c2,3.8,3.1,8,3.6,12.3c0.2,1.3,0.3,2.5,0.5,3.9h9.7c12.1,0,24.1,0,36.2,0
		c1.5,0,1.5,0,1.9-1.4c1.8-5.8,3.6-11.5,7.2-16.5C146.7,125.6,148.4,123.8,150.5,122.3z M100.6,74.7c-3.1,4.6-6.2,9.2-9.3,13.7
		c-1.3,1.9-2.6,3.8-3.8,5.6c-0.7,1-1.7,1.5-3.1,1.5c-1-0.1-2-0.5-2.6-1.6c-0.6-1.1-0.4-2.1,0.2-3.1c3.5-5.2,7.1-10.5,10.6-15.7
		c0.8-1.2,1.5-2.3,2.4-3.5c1.4-2,4.2-2,5.5,0C101.2,72.5,101.2,73.7,100.6,74.7z M17.2,84.4V73.6c0-7.9,6.5-14.4,14.4-14.4h17.2
		c7.9,0,14.4,6.5,14.4,14.4v10.8c0,7.9-6.5,14.4-14.4,14.4H31.6C23.7,98.8,17.2,92.4,17.2,84.4z"/>
	<path class="st0" d="M167.1,119.9c-12.3,0-22.4,9.9-22.5,22.4c-0.1,12.6,10.1,22.7,22.7,22.7c12.4,0,22.5-10.1,22.4-22.5
		C189.7,129.9,179.7,119.9,167.1,119.9z M166.8,158.6c-9.4-0.3-16.1-7.8-15.7-17.2c0.4-8.5,8.1-15.5,16.6-15.1
		c9.1,0.4,16.1,7.9,15.6,16.9C182.9,152.2,175.5,158.9,166.8,158.6z"/>
	<path class="st0" d="M62.4,119.9C50,120,40,130.1,40,142.4C40,155,50,165,62.6,165c12.4,0,22.5-10.2,22.4-22.6
		C85,130,75,119.8,62.4,119.9z M62.5,158.6c-8.9,0-16.3-7.3-16.2-16.2c0.1-9.1,7.3-16,16.1-16.1c8.8,0,16.2,7.3,16.2,16
		C78.7,151.3,71.5,158.6,62.5,158.6z"/>
	<path class="st0" d="M116.5,64.6c-1.2-3.8-1.6-7.9-3.7-11.5c4.3-0.2,8.4-0.4,12.6-0.6c-0.1-1.2-0.1-2.2-0.2-3.2
		c-0.6-5.8-3.4-10.1-8.6-12.6c-5.3-2.6-10.5-2.1-15.5,1.1c-6.8,4.5-8.8,14.3-4.2,21.1C101,65.2,108.3,67.6,116.5,64.6z M107.5,41.7
		c4-1,8.6,1.1,10.2,4.8c-1.2,0.1-2.4,0.1-3.5,0.3c-1.4,0.2-2.8,0.3-4,0.7c-2.9,1-4,3.4-3.2,6.6c0.4,1.7,0.9,3.5,1.4,5.2
		c-3.2-0.2-7.4-3.1-7.7-8.3C100.4,46.8,103.1,42.8,107.5,41.7z"/>
</g>
</svg>
