<?xml version="1.0" encoding="utf-8"?>
<!-- Generator: Adobe Illustrator 22.1.0, SVG Export Plug-In . SVG Version: 6.00 Build 0)  -->
<svg version="1.1" id="Capa_1" xmlns="http://www.w3.org/2000/svg" xmlns:xlink="http://www.w3.org/1999/xlink" x="0px" y="0px"
	 viewBox="0 0 200 200" style="enable-background:new 0 0 200 200;" xml:space="preserve">
<style type="text/css">
	.st0{fill:#00324A;}
</style>
<g>
	<path class="st0" d="M99.9,168.9c-37.5,0.2-68.7-30.9-68.8-68.7C31,62.5,61.8,31.2,99.4,31.1c38.4-0.1,68.9,30.1,69.5,67.4
		C169.5,137.9,138.9,168.7,99.9,168.9z M100.3,39.5c-33.6-0.1-60.7,26.7-60.9,60.2c-0.2,33.8,26.8,60.9,60.5,61
		c33.4,0.1,60.5-26.8,60.6-60.2C160.8,66.8,133.9,39.6,100.3,39.5z"/>
	<path class="st0" d="M76.5,62.8c0.4-0.1,0.5-0.2,0.7-0.2c11.9,0.1,23.7,0.1,35.6,0.4c12.5,0.3,19.7,10.2,19.8,21.2
		c0.1,11.2-4.6,19.2-14,22.3c-4.3,1.4-9.1,1.5-13.7,1.8c-4.4,0.3-8.8,0.1-13.4,0.1c0,9.2,0,18.1,0,27.3c-5.1,0-9.9,0-15,0
		C76.5,111.3,76.5,87.1,76.5,62.8z M91.5,75c0,7.2,0,13.8,0,20.9c5.8-0.3,11.5-0.3,17.2-0.9c5.1-0.5,8.2-4.3,8.4-9.2
		c0.2-5-2.9-9.3-7.9-9.9C103.4,75.2,97.5,75.2,91.5,75z"/>
</g>
</svg>
