<?xml version="1.0" encoding="utf-8"?>
<!-- Generator: Adobe Illustrator 22.1.0, SVG Export Plug-In . SVG Version: 6.00 Build 0)  -->
<svg version="1.1" id="Capa_1" xmlns="http://www.w3.org/2000/svg" xmlns:xlink="http://www.w3.org/1999/xlink" x="0px" y="0px"
	 viewBox="0 0 200 200" style="enable-background:new 0 0 200 200;" xml:space="preserve">
<style type="text/css">
	.st0{fill:#00324A;}
</style>
<g>
	<path class="st0" d="M105.5,172.5c-3.9,0-7.7,0-11.6,0c-0.6-0.2-1.2-0.5-1.8-0.5c-30.1-4.2-50.3-20.6-60.7-49
		c-2-5.5-2.6-11.6-3.9-17.4c0-3.7,0-7.3,0-11c0.2-0.8,0.4-1.6,0.6-2.5c4-29.2,19.8-49.3,47.2-60c6.1-2.4,12.8-3.1,19.2-4.6
		c3.9,0,7.7,0,11.6,0c0.6,0.2,1.2,0.5,1.8,0.5c28.6,3,53.2,23.2,61.3,50.8c1.5,5.1,2.2,10.4,3.3,15.6c0,3.7,0,7.3,0,11
		c-0.2,0.8-0.4,1.6-0.6,2.5c-4.1,29.2-19.8,49.3-47.2,60C118.6,170.3,111.9,171,105.5,172.5z M68.4,75.9c-0.8,6.4-1.6,12.6-2.5,19
		c10,0,19.5,0,29,0c0-6.4,0-12.7,0-19C86.2,75.9,77.6,75.9,68.4,75.9z M65.8,104.9c0.9,6.2,1.6,12,2.6,17.7c0.1,0.6,1.4,1.4,2.2,1.5
		c3.9,0.2,7.7,0.1,11.6,0.1c4.2,0,8.5,0,12.6,0c0-6.7,0-13,0-19.2C85.3,104.9,76,104.9,65.8,104.9z M105.1,105c0,6.5,0,12.8,0,19.1
		c8.8,0,17.4,0,26.5,0c0.8-6.3,1.7-12.6,2.6-19.1C124.1,105,114.7,105,105.1,105z M105,76c0,6.5,0,12.7,0,19c9.6,0,19.1,0,29.1,0
		c-0.9-6.5-1.7-12.8-2.6-19C122.3,76,113.8,76,105,76z M95,66.1c0-9.6,0-18.8,0-28.1c-9.8,2.6-21.8,17.3-23,28.1
		C79.6,66.1,87.1,66.1,95,66.1z M104.8,133.9c0,4.9,0,9.5,0,14.1c0,4.7,0,9.3,0,14.1c10-2.6,22-17.3,23.2-28.1
		C120.4,133.9,112.9,133.9,104.8,133.9z M105.1,37.7c0,9.8,0,19.1,0,28.3c7.9,0,15.5,0,23.5,0C123.8,53.8,118.3,42.8,105.1,37.7z
		 M71.4,134c4.8,12.2,10.3,23.3,23.6,28.4c0-9.7,0-19,0-28.4C87.2,134,79.7,134,71.4,134z M36.7,95c7.2,0,13.5,0,19.7,0
		c0.8-6.4,1.5-12.7,2.3-19.1c-4.9,0-9.7,0.1-14.5-0.1c-1.9-0.1-2.8,0.6-3.2,2.3C39.6,83.6,38.2,89,36.7,95z M143.6,94.9
		c6.4,0,12.7,0,19.7,0c-1.5-6-2.9-11.6-4.5-17.1c-0.2-0.8-1.1-1.9-1.7-1.9c-5.3-0.1-10.6-0.1-15.8-0.1
		C142.1,82.4,142.8,88.6,143.6,94.9z M58.7,124.2c-0.8-6.7-1.6-12.9-2.4-19.1c-6.5,0-12.7,0-19.7,0c1.5,5.9,2.9,11.4,4.4,16.8
		c0.3,0.9,1.4,2.1,2.2,2.1C48.4,124.3,53.6,124.2,58.7,124.2z M141.3,124.2c5.2,0,10.3,0,15.5-0.1c0.6,0,1.6-0.7,1.8-1.3
		c1.7-5.8,3.2-11.6,4.9-17.8c-7.2,0-13.5,0-19.8,0C142.8,111.4,142.1,117.5,141.3,124.2z M128.2,156.2c9.9-5,18.2-12.2,24.6-22.2
		c-5.1,0-9.6,0-13.8,0C135.4,141.5,131.8,148.9,128.2,156.2z M47,66.2c4.4,0,8.3-0.1,12.1,0c2,0.1,2.6-0.8,3.3-2.5
		c2-4.9,4.3-9.8,6.7-14.6c0.9-1.8,2.1-3.4,3.6-5.8C61.8,48.9,53.6,56.1,47,66.2z M153,66c-6.7-9.9-14.7-17.2-24.6-22.1
		c3.5,7.2,7,14.5,10.7,22.1C143.1,66,147.7,66,153,66z M47,133.8c6.6,10.1,14.8,17.3,24.4,22.1c-3-6.7-6.1-13.7-9.4-20.6
		c-0.3-0.7-1.5-1.4-2.4-1.4C55.7,133.8,51.7,133.8,47,133.8z"/>
</g>
</svg>
