<?xml version="1.0" encoding="utf-8"?>
<!-- Generator: Adobe Illustrator 22.1.0, SVG Export Plug-In . SVG Version: 6.00 Build 0)  -->
<svg version="1.1" id="Capa_1" xmlns="http://www.w3.org/2000/svg" xmlns:xlink="http://www.w3.org/1999/xlink" x="0px" y="0px"
	 viewBox="0 0 200 200" style="enable-background:new 0 0 200 200;" xml:space="preserve">
<style type="text/css">
	.st0{fill:#00324A;}
</style>
<g>
	<path class="st0" d="M67.3,151.9c0.7-1.8,1.3-3.5,1.9-5.2c7.2-19.7,14.3-39.3,21.5-59c0.4-1.2,0.9-2.5,1.6-3.5
		c2.1-3.1,6.3-3.9,9.4-1.9c0.2,0.1,0.4,0.3,0.7,0.5c0.3-0.8,0.6-1.6,0.9-2.3c1.3-3.3,4.2-5.3,7.7-5.1c1.6,0.1,2.7,0.6,4.8,2
		c0.1-0.2,0.2-0.3,0.3-0.5c2.3-3.7,6.9-5,10.7-3.1c3.9,1.9,5.7,6.2,4.2,10.3c-0.3,0.9-0.6,1.7-1,2.7c0.6,0.1,1.1,0.1,1.7,0.2
		c4.6,0.8,7.3,5.2,6.1,9.6c-2.5,9.3-5,18.6-7.5,27.9c-0.1,0.2-0.1,0.4-0.2,0.8c0.3-0.1,0.6-0.2,0.8-0.3c2.1-1,4.2-2,6.3-2.9
		c5.3-2.4,11.1,0.8,11.9,6.5c0.4,2.8-0.5,5.2-2.6,7.1c-4,3.5-8.1,6.9-12.2,10.3c-4.1,3.4-8.1,6.8-12.2,10.2
		c-0.2,0.2-0.4,0.4-0.4,0.6c-1.2,4.5-2.4,8.9-3.6,13.4c0,0.1,0,0.2-0.1,0.4c1.1,0.4,2.2,0.8,3.2,1.3c1.1,0.5,1.7,1.7,1.2,2.9
		c-0.4,1.2-1.7,1.8-2.9,1.4c-16.3-5.9-32.6-11.8-48.9-17.7c-2.3-0.8-4.6-1.6-6.9-2.5c-1.8-0.7-2.1-2.9-0.7-4
		c0.7-0.5,1.4-0.6,2.2-0.4C66.1,151.5,66.6,151.7,67.3,151.9z M113.6,168.8c0.1-0.3,0.2-0.6,0.2-0.8c1.2-4.4,2.4-8.9,3.6-13.3
		c0.2-0.6,0.5-1.3,1-1.7c1.7-1.5,3.4-2.9,5.1-4.3c6.5-5.5,13.1-11,19.6-16.5c0.5-0.4,1-1,1.2-1.7c0.5-1.5,0.2-2.8-1-3.9
		c-1.2-1.1-2.6-1.2-4.1-0.6c-3.8,1.8-7.6,3.5-11.4,5.3c-1,0.5-2,0.5-2.8-0.2c-0.8-0.7-0.9-1.7-0.7-2.7c2-7.2,3.9-14.5,5.8-21.7
		c1-3.8,2-7.5,3-11.3c0.2-0.9,0.3-1.7-0.2-2.5c-0.6-1.1-1.6-1.6-2.8-1.5c-1.3,0.1-2.2,0.9-2.7,2.2c-2.2,6.2-4.5,12.4-6.8,18.6
		c-0.2,0.5-0.5,1.1-1,1.5c-0.8,0.7-1.9,0.6-2.7,0c-0.8-0.6-1.2-1.7-0.8-2.7c0.5-1.5,1.1-3,1.6-4.5c2.9-7.9,5.7-15.8,8.6-23.7
		c0.8-2.1-0.2-4.3-2.1-4.9c-2-0.7-4.1,0.5-4.8,2.5c-0.6,1.8-1.3,3.7-2,5.5c-1.3,3.7-2.7,7.4-4.1,11.2c-1.4,3.8-2.7,7.5-4.1,11.3
		c-0.3,0.9-0.9,1.5-1.9,1.6c-2,0.3-3.2-1.4-2.5-3.4c2.5-6.8,5-13.6,7.5-20.4c0.3-0.9,0.7-1.8,0.8-2.7c0.2-1.6-0.9-3-2.3-3.3
		c-1.5-0.3-2.9,0.5-3.5,2c-1.9,5.1-3.7,10.2-5.6,15.2c-1.3,3.6-2.6,7.1-3.9,10.7c-0.5,1.4-1.8,2-3,1.5c-1.3-0.4-1.8-1.8-1.4-3.2
		c0.4-1.1,0.8-2.2,1.2-3.3c1.7-4.6,3.4-9.3,5.1-13.9c0.5-1.4-0.1-2.7-1.3-3.1c-1.3-0.4-2.5,0.2-3,1.5c-3.3,9-6.5,18-9.8,26.9
		c-4.5,12.4-9,24.7-13.5,37.1c-0.2,0.6-0.4,1.2-0.7,1.9C85.7,158.7,99.6,163.7,113.6,168.8z"/>
	<path class="st0" d="M70.1,114.7c-0.5-2.4-0.7-4.8,0-7.1c0.6-2.2,1.4-4.4,2.2-6.7c-0.3,0-0.6,0-0.9,0c-10.2,0-20.3,0-30.5,0
		c-1,0-1.8-0.4-2.3-1.3c-0.4-0.9-0.3-1.7,0.3-2.5c0.5-0.6,1.1-0.8,1.9-0.8c2.4,0,4.7,0,7.1,0c8.3,0,16.6,0,24.9,0
		c1.2,0,1.2,0,1.7-1.2c1.5-4,2.9-8,4.4-12c0.1-0.1,0.1-0.3,0.2-0.5c-0.3,0-0.6,0-0.8,0c-6.3,0-12.6,0-18.9,0c-1.9,0-3-1.4-2.5-3.1
		c0.3-1,1.2-1.6,2.4-1.6c3.9,0,7.8,0,11.7,0c3,0,6.1,0,9.1,0c0.6,0,0.8-0.2,1-0.7c2.1-5.9,4.3-11.8,6.4-17.7
		c3-8.3,11.9-12.5,20.2-9.5c10.8,3.9,21.6,7.9,32.5,11.8c4.7,1.7,9.5,3.4,14.2,5.2c8,3,12.1,11.9,9.1,20
		c-3.7,10.2-7.4,20.5-11.2,30.7c-0.2,0.5-0.4,1-0.8,1.4c-0.8,0.8-1.9,0.8-2.9,0.2c-0.9-0.6-1.3-1.7-0.9-2.7c0.5-1.5,1.1-3,1.6-4.5
		c3.2-8.9,6.5-17.8,9.7-26.7c2.1-5.8-0.9-12-6.6-14.1c-13-4.7-26-9.5-39-14.2c-2.4-0.9-4.8-1.8-7.2-2.6c-6-2.2-12.2,0.7-14.4,6.7
		C86.3,76.3,80.7,91.7,75.1,107c-1.1,3-1,5.9,0.4,8.8c0.9,1.9-0.2,3.6-2.2,3.6c-6.7,0-13.4,0-20,0c-2,0-3.1-1.8-2.2-3.5
		c0.5-0.9,1.3-1.2,2.3-1.2c5.3,0,10.6,0,15.8,0C69.4,114.7,69.7,114.7,70.1,114.7z"/>
	<path class="st0" d="M76,54c-1.4,0-2.3-1-2.4-2.6c-0.1-3.1-1.4-5.7-3.7-7.7c-1.8-1.6-4-2.3-6.4-2.4c-1.8,0-2.5-1.1-2.5-2.5
		c0-1.2,1.1-2.1,2.5-2.2c3.5-0.1,6.3-1.6,8.3-4.5c1.2-1.7,1.8-3.6,1.8-5.8c0-1.8,1.5-2.9,3.1-2.4c1,0.3,1.6,1.2,1.6,2.4
		c0.2,4,2.1,7,5.6,9c1.5,0.8,3.1,1.2,4.8,1.2c1.1,0,1.9,0.7,2.2,1.7c0.3,1-0.1,2.1-1,2.6c-0.5,0.3-1.1,0.4-1.6,0.4
		c-4.8,0.2-8.7,3.5-9.8,8.2c-0.2,0.7-0.2,1.4-0.2,2.1C78.2,53,77.3,54,76,54z M80.2,38.9c-1.4-1.4-2.9-2.9-4.3-4.3
		c-1.4,1.4-2.9,2.9-4.3,4.3c1.4,1.4,2.9,2.9,4.3,4.3C77.4,41.8,78.9,40.3,80.2,38.9z"/>
	<path class="st0" d="M46.4,49.3c1.4,0,2.3,0.9,2.3,2.4c0.1,2.2,1,4,2.9,5.1c0.9,0.5,2,0.8,3,0.9c1.5,0.2,2.5,1,2.5,2.4
		c0,1.3-1,2.3-2.5,2.3c-2.6,0-5.3,2-5.9,4.9c-0.1,0.4-0.1,0.9-0.1,1.3c-0.1,1.3-1.1,2.3-2.4,2.2c-1.3,0-2.3-1-2.3-2.3
		c0-3.7-3.1-6.2-6.1-6.2c-1.5,0-2.4-1.1-2.4-2.4c0-1.3,1-2.2,2.5-2.2c2.9-0.1,5.8-2.4,6-5.8C44.1,50.3,45,49.3,46.4,49.3z M44.8,60
		c0.6,0.6,1.1,1.1,1.6,1.5c0.5-0.4,1-1,1.5-1.4c-0.5-0.5-1.1-1.1-1.6-1.6C45.9,59,45.3,59.5,44.8,60z"/>
</g>
</svg>
