<?xml version="1.0" encoding="utf-8"?>
<!-- Generator: Adobe Illustrator 22.1.0, SVG Export Plug-In . SVG Version: 6.00 Build 0)  -->
<svg version="1.1" id="Capa_1" xmlns="http://www.w3.org/2000/svg" xmlns:xlink="http://www.w3.org/1999/xlink" x="0px" y="0px"
	 viewBox="0 0 2124.7 583" style="enable-background:new 0 0 2124.7 583;" xml:space="preserve">
<style type="text/css">
	.st0{fill:#F8ED38;}
</style>
<g>
	<path class="st0" d="M274.5,0.1H16.7c-9,0-16.4,7.3-16.4,16.4v364.8c0,0.4,0,0.8,0,1.5C0.3,493.4,90,583,200.6,583h73.9
		c9,0,16.4-7.3,16.4-16.4V419.7V256.4V16.5C290.8,7.4,283.5,0.1,274.5,0.1z"/>
	<path class="st0" d="M2124.5,0H592.8v0.1H386.6c-11.7,0-21.4,7.3-21.4,16.4v239.9v124.9v38.4v146.9c0,9,9.5,16.4,21.4,16.4h96.5
		h240.3c0.1,0,0.1,0,0.3,0h141.2c0.1,0,0.1,0,0.3,0h336.5c0.1,0,0.1,0,0.3,0h922.8V0H2124.5z"/>
</g>
</svg>
