<?xml version="1.0" encoding="utf-8"?>
<!-- Generator: Adobe Illustrator 21.1.0, SVG Export Plug-In . SVG Version: 6.00 Build 0)  -->
<svg version="1.1" id="Capa_1" xmlns="http://www.w3.org/2000/svg" xmlns:xlink="http://www.w3.org/1999/xlink" x="0px" y="0px"
	 viewBox="0 0 500 250" style="enable-background:new 0 0 500 250;" xml:space="preserve">
<style type="text/css">
	.st0{fill:#FFFFFF;}
</style>
<g>
	<g>
		<path class="st0" d="M236.1,17.4c-2.2,13.7-3.5,43-3.3,44.8c0.2,1.4,1.6,2.1,2.8,1.9c0.9-0.1,1.7-0.6,1.8-1.7
			c0.7-7.6,2.2-29.7,4.4-46.4c0.1-0.4,0-0.9-0.2-1.1c1.6-0.1,3.1-0.1,4.5-0.3c1-0.1,9.1-1.1,10-1.4c1.1-0.3,1.5-1.7,1.3-3
			c-0.1-1.2-0.8-2.3-1.8-2.2c-1.6,0.2-10.4,1.5-12.2,1.7c-3,0.3-12.5,1.1-15.6,1.4c-1.8,0.2-3.5,0.5-5.1,0.9
			c-1.3,0.3-2.6,2.6-2.4,3.9c0.1,0.5,0.4,0.9,1.1,0.8c1.6-0.2,3.2-0.6,4.9-0.8c1.8-0.2,9.9-1,11.7-1
			C236.9,15.6,236.3,16.4,236.1,17.4"/>
		<path class="st0" d="M287.3,44.9c-0.1-0.3-0.3-0.5-0.5-0.5c-0.3,0-0.6,0.3-0.9,0.9c-1.3,2.5-3.5,8.9-9.2,9.5
			c-3.7,0.4-4.5-3.8-4.8-6.3c0.8,0.1,1.6,0.2,2.3,0.1c6.3-0.7,9.6-8.8,9-14.2c-0.4-2.8-1.7-4.8-4.3-4.8c-0.8-0.5-2.2-0.7-3.5-0.6
			c-5.7,0.6-9.4,10.4-9.1,18.5c-1.9,4.8-3.3,9.4-5.3,9.6c-0.8,0.1-1.1-0.4-1.3-1.3c-0.5-3.7,3.2-14,2.5-20.2c-0.3-2.1-1.5-4.6-5-4.2
			c-2.7,0.3-4.9,3.9-6.5,8.6c1.4-12.4,2.7-15.7,2.4-17.5c-0.2-1.5-1.8-2.2-3.3-2c-1.1,0.1-2,0.7-2.1,1.7
			c-2.4,13.4-4.1,33.8-3.6,37.5c0.2,1.7,1.4,2.4,2.6,2.2c2.4-0.3,1.9-2.4,2.5-8.6c1.2-10.8,5.1-17.9,6.8-18.1c0.6-0.1,0.9,0.4,1,1.3
			c0.5,3.7-2.9,14.7-2.3,19.6c0.4,3.4,2.9,4.7,5.3,4.4c3.7-0.4,5.7-5.5,6.7-9.1c1,4.5,3.6,7.8,8.2,7.3c6.8-0.8,10.4-6.2,12.3-12.8
			C287.3,45.4,287.3,45.1,287.3,44.9 M278,31c0.9-0.1,1.1,0.8,1.2,1.7c0.6,4.4-3.4,13.9-6.9,14.3c-0.2,0-0.3,0-0.5,0
			C271.8,40.2,274.7,31.4,278,31"/>
		<path class="st0" d="M274.4,64.7c-12.7,1-41,6-42.5,6.6c-1.2,0.4-1.5,1.7-1.2,2.6c0.3,0.7,0.9,1.2,1.9,1.1c6.8-0.9,29-4.5,44.2-6
			C279.6,68.7,280.2,64.2,274.4,64.7"/>
		<polygon class="st0" points="206,144.2 206,138.7 195.6,102.2 194,102.2 		"/>
		<rect x="221.5" y="102.2" class="st0" width="1.6" height="94"/>
		<polygon class="st0" points="194,154.2 194,196.3 195.6,196.3 195.6,160 		"/>
		<path class="st0" d="M20.2,176.1c0,4.5,2,6.7,6.1,6.7c4.1,0,6.1-2.2,6.1-6.7v-73.9h12.2v73.9c0,13.4-6.1,20.2-18.3,20.2
			c-12.2,0-18.3-6.7-18.3-20.2v-73.9h12.2V176.1z"/>
		<path class="st0" d="M75.2,166c0-4.5-2-6.7-6.1-6.7H63v36.9H50.7v-94h18.3c12.2,0,18.3,6.7,18.3,20.1v16.8c0,6.7-3,11.2-9.2,13.4
			c6.1,2.7,9.2,7.2,9.2,13.4v30.2H75.2V166z M63,115.6v30.2h6.1c4.1,0,6.1-2.2,6.1-6.7v-16.8c0-4.5-2-6.7-6.1-6.7H63z"/>
		<path class="st0" d="M278.1,121v3.4h-12.2V121c0-4.5-2-6.7-6.1-6.7c-4.1,0-6.1,2.2-6.1,6.7v56.4c0,4.5,2,6.7,6.1,6.7
			c4.1,0,6.1-2.2,6.1-6.7v-3.4h12.2v3.4c0,13.4-6.1,20.2-18.3,20.2c-12.2,0-18.3-6.7-18.3-20.2V121c0-13.4,6.1-20.2,18.3-20.2
			C272,100.9,278.1,107.6,278.1,121"/>
		<path class="st0" d="M320.8,121v56.4c0,13.4-6.1,20.2-18.3,20.2c-12.2,0-18.3-6.7-18.3-20.2V121c0-13.4,6.1-20.2,18.3-20.2
			C314.7,100.9,320.8,107.6,320.8,121 M302.5,114.3c-4.1,0-6.1,2.2-6.1,6.7v56.4c0,4.5,2,6.7,6.1,6.7c4.1,0,6.1-2.2,6.1-6.7V121
			C308.6,116.6,306.6,114.3,302.5,114.3"/>
		<path class="st0" d="M351.4,166c0-4.5-2-6.7-6.1-6.7h-6.1v36.9h-12.2v-94h18.3c12.2,0,18.3,6.7,18.3,20.1v16.8
			c0,6.7-3,11.2-9.2,13.4c6.1,2.7,9.2,7.2,9.2,13.4v30.2h-12.2V166z M339.1,115.6v30.2h6.1c4.1,0,6.1-2.2,6.1-6.7v-16.8
			c0-4.5-2-6.7-6.1-6.7H339.1z"/>
		<polygon class="st0" points="369.7,196.3 369.7,102.2 381.9,102.2 397.1,156 397.1,102.2 409.4,102.2 409.4,196.3 397.1,196.3 
			381.9,142.5 381.9,196.3 		"/>
		<polygon class="st0" points="415.5,102.2 446,102.2 446,115.6 427.7,115.6 427.7,142.5 443,142.5 443,156 427.7,156 427.7,182.8 
			446,182.8 446,196.3 415.5,196.3 		"/>
		<path class="st0" d="M476.5,166c0-4.5-2-6.7-6.1-6.7h-6.1v36.9h-12.2v-94h18.3c12.2,0,18.3,6.7,18.3,20.1v16.8
			c0,6.7-3.1,11.2-9.2,13.4c6.1,2.7,9.2,7.2,9.2,13.4v30.2h-12.2V166z M464.3,115.6v30.2h6.1c4.1,0,6.1-2.2,6.1-6.7v-16.8
			c0-4.5-2-6.7-6.1-6.7H464.3z"/>
		<rect x="466" y="117.3" class="st0" width="1.6" height="26.9"/>
		<path class="st0" d="M482.8,104c5,3.5,7.5,9.7,7.5,18.4v16.8c0,5.6-2,9.9-5.9,12.7c5-2.4,7.5-6.7,7.5-12.7v-16.8
			C492,112.9,488.9,106.8,482.8,104"/>
		<path class="st0" d="M483.8,153.1c4.4,3,6.6,7.4,6.6,13v30.2h1.6V166C492,160.1,489.3,155.8,483.8,153.1"/>
		<rect x="466" y="161" class="st0" width="1.6" height="35.3"/>
		<rect x="444.6" y="142.5" class="st0" width="1.6" height="13.4"/>
		<rect x="429.3" y="157.6" class="st0" width="1.6" height="23.5"/>
		<rect x="429.3" y="117.3" class="st0" width="1.6" height="23.5"/>
		<rect x="447.6" y="102.2" class="st0" width="1.6" height="13.4"/>
		<rect x="447.6" y="182.8" class="st0" width="1.6" height="13.4"/>
		<polygon class="st0" points="395.5,144.2 395.5,138.7 385.1,102.2 383.6,102.2 		"/>
		<rect x="411" y="102.2" class="st0" width="1.6" height="94"/>
		<polygon class="st0" points="383.5,154.2 383.5,196.3 385.1,196.3 385.1,160 		"/>
		<rect x="340.8" y="117.3" class="st0" width="1.6" height="26.9"/>
		<rect x="340.8" y="161" class="st0" width="1.6" height="35.3"/>
		<path class="st0" d="M357.7,104c4.9,3.5,7.5,9.7,7.5,18.4v16.8c0,5.6-2,9.9-5.9,12.7c5-2.4,7.5-6.7,7.5-12.7v-16.8
			C366.8,112.9,363.8,106.8,357.7,104"/>
		<path class="st0" d="M358.6,153.1c4.3,3,6.6,7.4,6.6,13v30.2h1.6V166C366.8,160.1,364.1,155.8,358.6,153.1"/>
		<path class="st0" d="M299.6,177.5V121c0-2.2,0.5-3.8,1.4-4.9c-2.1,0.4-3.1,1.9-3.1,4.9v56.4c0,3,0.9,4.5,3.1,4.9
			C300.2,181.2,299.6,179.6,299.6,177.5"/>
		<path class="st0" d="M314.9,102.6c5,3.5,7.5,9.7,7.5,18.4v56.4c0,8.7-2.6,14.9-7.5,18.4c6.1-2.8,9.2-8.9,9.2-18.4V121
			C324.1,111.5,321,105.4,314.9,102.6"/>
		<path class="st0" d="M258.3,116.1c-2.2,0.4-3.1,1.9-3.1,4.9v56.4c0,3,0.9,4.5,3.1,4.9c-0.9-1.1-1.4-2.7-1.4-4.9V121
			C256.9,118.9,257.4,117.2,258.3,116.1"/>
		<path class="st0" d="M272.2,102.6c4.9,3.5,7.5,9.7,7.5,18.4v3.4h1.6V121C281.3,111.5,278.3,105.4,272.2,102.6"/>
		<path class="st0" d="M279.7,177.5c0,8.7-2.6,14.9-7.5,18.4c6.1-2.8,9.1-8.9,9.1-18.4v-3.4h-1.6V177.5z"/>
		<rect x="64.6" y="117.3" class="st0" width="1.6" height="26.9"/>
		<path class="st0" d="M82.4,153.1c4.4,3,6.6,7.4,6.6,13v30.2h1.6V166C90.6,160.1,87.9,155.8,82.4,153.1"/>
		<path class="st0" d="M81.5,104c4.9,3.5,7.5,9.7,7.5,18.4v16.8c0,5.6-2,9.9-5.9,12.7c5-2.4,7.5-6.7,7.5-12.7v-16.8
			C90.6,112.9,87.6,106.8,81.5,104"/>
		<rect x="64.6" y="161" class="st0" width="1.6" height="35.3"/>
		<path class="st0" d="M21.8,102.2v73.9c0,3,0.9,4.5,3.1,4.9c-0.9-1.1-1.4-2.7-1.4-4.9v-73.9H21.8z"/>
		<path class="st0" d="M46.3,102.2v73.9c0,8.7-2.6,14.9-7.5,18.4c6.1-2.8,9.2-8.9,9.2-18.4v-73.9H46.3z"/>
		<polygon class="st0" points="180.1,196.3 180.1,102.2 192.4,102.2 207.6,156 207.6,102.2 219.8,102.2 219.8,196.3 207.6,196.3 
			192.4,142.5 192.4,196.3 		"/>
		<path class="st0" d="M134.1,196.3l9.8-94h20.8l9.8,94h-12.2l-2.4-20.2h-11l-2.5,20.2H134.1z M154.2,116.3l-4.3,46.3h8.6
			L154.2,116.3z"/>
		<polygon class="st0" points="176,196.1 176,196.3 177.7,196.3 167.9,102.2 166.3,102.2 		"/>
		<polygon class="st0" points="154.2,134.1 151.8,161 153.4,161 155.1,142.9 		"/>
		<polygon class="st0" points="150.2,177.8 148,196.3 149.6,196.3 151.8,177.8 		"/>
		<path class="st0" d="M94.3,196.3v-94h18.3c12.2,0,18.3,6.7,18.3,20.1v13.4c0,6.7-3.1,11.2-9.2,13.4c6.1,2.7,9.2,7.2,9.2,13.4v13.4
			c0,13.4-6.1,20.2-18.3,20.2H94.3z M106.5,115.6v26.9h6.1c4.1,0,6.1-2.2,6.1-6.7v-13.4c0-4.5-2-6.7-6.1-6.7H106.5z M106.5,156v26.9
			h6.1c4.1,0,6.1-2.2,6.1-6.7v-13.4c0-4.5-2-6.7-6.1-6.7H106.5z"/>
		<rect x="108.1" y="157.6" class="st0" width="1.6" height="23.5"/>
		<rect x="108.1" y="117.3" class="st0" width="1.6" height="23.5"/>
		<path class="st0" d="M126,149.7c4.3,3,6.5,7.4,6.5,13v13.4c0,8.7-2.6,14.9-7.5,18.4c6.1-2.8,9.1-8.9,9.1-18.4v-13.4
			C134.2,156.8,131.4,152.4,126,149.7"/>
		<path class="st0" d="M125,104c5,3.5,7.5,9.7,7.5,18.4v13.4c0,5.6-2,9.9-5.9,12.7c5-2.4,7.5-6.6,7.5-12.7v-13.4
			C134.2,112.9,131.1,106.8,125,104"/>
	</g>
	<g>
		<g>
			<path class="st0" d="M65.1,239.7h2.2v-13.8h-2.2V224h7.7c1.3,0,2.3,0.1,3.3,0.4c1.9,0.6,3.1,2.2,3.1,4.6c0,2.6-1.4,4.4-3.7,5v0
				c0,0,0.5,0.3,0.8,0.8l2.5,4.4c0.3,0.5,0.6,0.6,1.2,0.6h0.5v2h-1.5c-1.5,0-1.9-0.3-2.5-1.3l-2.7-4.8c-0.5-0.8-0.8-1-1.9-1h-2.1
				v5.2H72v2h-6.9V239.7z M73.3,232.5c1.9,0,3.2-1.3,3.2-3.3c0-1.4-0.6-2.3-1.7-2.8c-0.6-0.2-1.3-0.3-2.2-0.3h-2.9v6.4H73.3z"/>
			<path class="st0" d="M82.6,239.7h2.2v-13.8h-2.2V224h12.8v4.1h-2.2V226h-5.9v5.7h6.3v2.1h-6.3v5.8h6.3v-2.1h2.2v4.2H82.6V239.7z"
				/>
			<path class="st0" d="M100.7,236.4v1.3c0,1.3,1.7,2.1,3.5,2.1c2,0,3.5-1,3.5-2.7c0-2.1-2.1-2.7-4.3-3.6c-2.3-0.9-4.7-1.9-4.7-5
				c0-3.3,2.7-4.8,5.7-4.8c2.7,0,5.4,1,5.4,2.9v2.1h-2.3v-1.2c0-1-1.6-1.6-3-1.6c-1.7,0-3.1,0.8-3.1,2.4c0,1.9,1.8,2.5,3.8,3.3
				c2.6,1,5.2,2,5.2,5.3c0,3.4-2.8,5.1-6,5.1c-2.8,0-5.8-1.2-5.8-3.8v-1.9H100.7z"/>
			<path class="st0" d="M116.4,239.7h2.2V226h-4.2v2.8h-2.2V224h15.2v4.8h-2.2V226h-4.2v13.7h2.2v2h-7V239.7z"/>
			<path class="st0" d="M127.3,239.7h1.7l5.6-15.8h2.8l5.6,15.8h1.7v2h-6.1v-2h1.9l-1.4-3.9h-6.3l-1.4,3.9h1.9v2h-6.1V239.7z
				 M138.5,233.8l-2.2-6.1c-0.3-0.7-0.3-1.4-0.3-1.4H136c0,0-0.1,0.6-0.3,1.4l-2.2,6.1H138.5z"/>
			<path class="st0" d="M147.3,225.9h-2.2V224h7v1.9h-2.2v9.2c0,1.2,0.2,2.2,0.7,2.9c0.7,1.2,2.1,1.8,3.8,1.8c1.7,0,3.1-0.7,3.8-1.9
				c0.4-0.7,0.7-1.7,0.7-2.9v-9.1h-2.2V224h7v1.9h-2.2v9.2c0,1.7-0.5,3.2-1.2,4.3c-1.2,1.7-3.4,2.6-5.8,2.6c-2.5,0-4.6-1-5.8-2.6
				c-0.8-1.1-1.2-2.6-1.2-4.3V225.9z"/>
			<path class="st0" d="M165.6,239.7h2.2v-13.8h-2.2V224h7.7c1.3,0,2.3,0.1,3.3,0.4c1.9,0.6,3.1,2.2,3.1,4.6c0,2.6-1.4,4.4-3.7,5v0
				c0,0,0.5,0.3,0.8,0.8l2.5,4.4c0.3,0.5,0.6,0.6,1.2,0.6h0.5v2h-1.5c-1.5,0-1.9-0.3-2.5-1.3l-2.7-4.8c-0.5-0.8-0.8-1-1.9-1h-2.1
				v5.2h2.2v2h-6.9V239.7z M173.9,232.5c1.9,0,3.2-1.3,3.2-3.3c0-1.4-0.6-2.3-1.7-2.8c-0.6-0.2-1.3-0.3-2.2-0.3h-2.9v6.4H173.9z"/>
			<path class="st0" d="M182.2,239.7h1.7l5.6-15.8h2.8l5.6,15.8h1.7v2h-6.1v-2h1.9l-1.4-3.9h-6.3l-1.4,3.9h1.9v2h-6.1V239.7z
				 M193.4,233.8l-2.2-6.1c-0.3-0.7-0.3-1.4-0.3-1.4h-0.1c0,0-0.1,0.6-0.3,1.4l-2.2,6.1H193.4z"/>
			<path class="st0" d="M201.3,239.7h2.2v-13.8h-2.2V224h4.7l8.7,12.7c0.3,0.5,0.6,1.3,0.6,1.3h0.1c0,0-0.1-0.9-0.1-1.4v-10.6H213
				V224h7v1.9h-2.2v15.8h-2.5l-8.7-12.7c-0.3-0.5-0.6-1.3-0.6-1.3h-0.1c0,0,0.1,0.9,0.1,1.4v10.6h2.3v2h-7V239.7z"/>
			<path class="st0" d="M225.9,239.7h2.2V226h-4.2v2.8h-2.2V224H237v4.8h-2.2V226h-4.2v13.7h2.2v2h-7V239.7z"/>
			<path class="st0" d="M239,239.7h2.2v-13.8H239V224h12.8v4.1h-2.2V226h-5.9v5.7h6.3v2.1h-6.3v5.8h6.3v-2.1h2.2v4.2H239V239.7z"/>
			<path class="st0" d="M264.3,232.2L264.3,232.2c0,0-2.5-0.9-2.5-3.9c0-2.9,2.4-4.6,5.7-4.6c1.1,0,2.2,0.3,2.2,0.3l-0.6,2
				c0,0-0.7-0.2-1.3-0.2c-1.9,0-3.4,1-3.4,2.7c0,1.2,0.5,2.8,3.3,2.8h3.8v-2.5h2.4v2.5h2.3v2.1h-2.3v2.4c0,3.9-2.5,6.2-6.3,6.2
				c-3.9,0-6.4-2.3-6.4-5.2C261.1,234.7,262.2,232.8,264.3,232.2z M267.5,239.8c2.4,0,3.9-1.3,3.9-4.1v-2.3h-3.9
				c-2.5,0-3.9,1.2-3.9,3.2C263.6,238.4,265,239.8,267.5,239.8z"/>
			<path class="st0" d="M284.4,239.7h2.2v-13.8h-2.2V224h8.3c1.1,0,2.2,0.1,3,0.5c1.8,0.8,3,2.7,3,5c0,2.5-1.3,4.5-3.3,5.2
				c-0.8,0.3-1.7,0.4-2.7,0.4h-3.6v4.7h2.2v2h-7V239.7z M292.4,233c0.8,0,1.4-0.1,2-0.4c1.1-0.5,1.8-1.6,1.8-3.2
				c0-1.4-0.6-2.5-1.6-3c-0.6-0.3-1.3-0.4-2.2-0.4h-3.3v7H292.4z"/>
			<path class="st0" d="M298.6,239.7h1.7L306,224h2.8l5.6,15.8h1.7v2H310v-2h1.9l-1.4-3.9h-6.3l-1.4,3.9h1.9v2h-6.1V239.7z
				 M309.9,233.8l-2.2-6.1c-0.3-0.7-0.3-1.4-0.3-1.4h-0.1c0,0-0.1,0.6-0.3,1.4l-2.2,6.1H309.9z"/>
			<path class="st0" d="M317.8,239.7h2.2v-13.8h-2.2V224h4.7l8.7,12.7c0.3,0.5,0.6,1.3,0.6,1.3h0.1c0,0-0.1-0.9-0.1-1.4v-10.6h-2.3
				V224h7v1.9h-2.2v15.8h-2.5l-8.7-12.7c-0.3-0.5-0.6-1.3-0.6-1.3h-0.1c0,0,0.1,0.9,0.1,1.4v10.6h2.3v2h-7V239.7z"/>
			<path class="st0" d="M337.5,239.7h1.7l5.6-15.8h2.8l5.6,15.8h1.7v2h-6.1v-2h1.9l-1.4-3.9h-6.3l-1.4,3.9h1.9v2h-6.1V239.7z
				 M348.8,233.8l-2.2-6.1c-0.3-0.7-0.3-1.4-0.3-1.4h-0.1c0,0-0.1,0.6-0.3,1.4l-2.2,6.1H348.8z"/>
			<path class="st0" d="M356.6,239.7h2.2v-13.8h-2.2V224h7.6c1.5,0,2.6,0.1,3.8,0.4c3.4,1.1,5.6,4.1,5.6,8.4c0,4.3-2.1,7.3-5.6,8.4
				c-1.2,0.4-2.3,0.5-3.7,0.5h-7.6V239.7z M364.1,239.6c1.2,0,2.1-0.1,3-0.5c2.4-0.8,3.9-3.1,3.9-6.3c0-3.3-1.5-5.5-3.8-6.4
				c-1-0.4-1.9-0.4-3-0.4h-2.7v13.6H364.1z"/>
			<path class="st0" d="M376,239.7h2.2v-13.8H376V224h12.8v4.1h-2.2V226h-5.9v5.7h6.3v2.1h-6.3v5.8h6.3v-2.1h2.2v4.2H376V239.7z"/>
			<path class="st0" d="M391.9,239.7h2.2v-13.8h-2.2V224h7.7c1.3,0,2.3,0.1,3.3,0.4c1.9,0.6,3.1,2.2,3.1,4.6c0,2.6-1.4,4.4-3.7,5v0
				c0,0,0.5,0.3,0.8,0.8l2.5,4.4c0.3,0.5,0.6,0.6,1.2,0.6h0.5v2h-1.5c-1.5,0-1.9-0.3-2.5-1.3l-2.7-4.8c-0.5-0.8-0.8-1-1.9-1h-2.1
				v5.2h2.2v2h-6.9V239.7z M400.1,232.5c1.9,0,3.2-1.3,3.2-3.3c0-1.4-0.6-2.3-1.7-2.8c-0.6-0.2-1.3-0.3-2.2-0.3h-2.9v6.4H400.1z"/>
			<path class="st0" d="M409.4,239.7h2.2v-13.8h-2.2V224h7v1.9h-2.2v13.8h2.2v2h-7V239.7z M413.9,219.6h2.8l-3.1,3.2h-2.3
				L413.9,219.6z"/>
			<path class="st0" d="M417.9,239.7h1.7l5.6-15.8h2.8l5.6,15.8h1.7v2h-6.1v-2h1.9l-1.4-3.9h-6.3l-1.4,3.9h1.9v2h-6.1V239.7z
				 M429.2,233.8l-2.2-6.1c-0.3-0.7-0.3-1.4-0.3-1.4h-0.1c0,0-0.1,0.6-0.3,1.4l-2.2,6.1H429.2z"/>
		</g>
		<rect x="28.1" y="232.2" class="st0" width="29.6" height="2.5"/>
		<rect x="442.2" y="232.2" class="st0" width="29.6" height="2.5"/>
	</g>
</g>
</svg>
