<?xml version="1.0" encoding="utf-8"?>
<!-- Generator: Adobe Illustrator 22.1.0, SVG Export Plug-In . SVG Version: 6.00 Build 0)  -->
<svg version="1.1" id="Layer_1" xmlns="http://www.w3.org/2000/svg" xmlns:xlink="http://www.w3.org/1999/xlink" x="0px" y="0px"
	 viewBox="0 0 1488 165" style="enable-background:new 0 0 1488 165;" xml:space="preserve">
<style type="text/css">
	.st0{fill:#FFFFFF;}
</style>
<g>
	<g>
		<path class="st0" d="M233.7,130.3v0.3h-10c-12.9,0-22.1-1.5-27.5-4.4c-5.4-2.9-8.8-8-10.3-15.2c-0.5-2.7-0.9-6.9-1.1-12.6
			l-0.2-20.8c0.3-16.8,2.2-27.8,5.7-33.2c5.2-7.9,17.1-12,35.8-12.4c9.6-0.1,15.6-0.2,18.2-0.2l23.6,0.2c8.4,0,15.4,1.4,21,4.2
			c7.5,3.9,11.2,9.7,11.2,17.4h24.4c0.1-16.9-6.1-28.6-18.8-35c-8.9-4.5-22.8-6.8-41.5-6.8h-38.8c-19.3,0-33.5,2.4-42.6,7.2
			c-4,2.1-7.5,4.9-10.3,8.3c-1.2-1.4-2.5-2.7-3.9-3.9c-8.8-7.1-24.9-10.6-48.3-10.6H84.7c-23.8,0-40,3.5-48.5,10.4
			c-9.7,7.9-14.6,23.4-14.6,46.5V153h23.8V91.2V70.1c0.1-15.6,3.4-25.6,9.8-30.2c5.1-3.7,16-5.6,32.8-5.6h28.6
			c17,0,28.1,1.8,33.2,5.4c6.4,4.4,9.7,14.5,9.8,30.4l0.1,7.6H64.7v20.8h94.9v0.1h1.3c0.2,2.3,0.4,4.5,0.7,6.7
			c1.5,15.7,5,26.7,10.6,33.2c8.3,9.7,25.2,14.6,50.7,14.6h10.8v0.1h242.6v-22.7H233.7z"/>
		<path class="st0" d="M321,124.5c2.4-8.5,3.6-19.5,3.6-32.9v-14h-81.1v20.8h56.1c0,13.1-2,21.8-6,26.1H321z"/>
		<path class="st0" d="M419.4,81.3c-20.5,1.2-40.9,2.4-61.3,3.6c-21.9,4.8-32.9,18-33,39.7h26.8c0-2.4,0.1-4.3,0.2-5.7
			c0-6.4,4.6-10.9,13.8-13.6c4.9-1.5,11.9-2.4,20.8-2.8c12.8-0.3,25.6-0.5,38.4-0.8c15.7-1.1,27.6-4.3,35.6-9.6
			c10.5-6.8,15.8-17.7,15.8-32.8c0-20.4-6.2-33.8-18.6-40.3c-8.4-4.5-23.8-6.8-46.1-6.8h-23.2c-19.6,0-34.1,2.7-43.5,8
			c-11.4,6.6-17.6,17.6-18.6,33.1H351c1.1-8.4,5.5-14.1,13.3-16.9c4.9-2,14.2-3,27.8-3h24.8c11.6,0,19.8,1.3,24.8,3.8
			c7.2,3.6,10.8,10.5,10.8,20.8C452.4,71.9,441.4,79.7,419.4,81.3z"/>
	</g>
	<g>
		<path class="st0" d="M541.8,113.2V52.6h5.5v60.6H541.8z"/>
		<path class="st0" d="M592.5,113.2V57.8h-16.7v-5.2h38.9v5.2H598v55.4H592.5z"/>
		<path class="st0" d="M735.5,63.7c-3-2.6-6.1-4.5-9.2-5.8c-3.1-1.2-6.5-1.9-9.9-1.9c-7.8,0-14.2,2.5-19.1,7.5
			c-4.9,5-7.4,11.4-7.4,19.4c0,4,0.6,7.6,1.8,10.8c1.2,3.2,3,6,5.5,8.5c2.4,2.4,5.2,4.3,8.3,5.5c3.1,1.3,6.5,1.9,10.1,1.9
			c3.5,0,6.9-0.6,10.2-1.8c3.3-1.2,6.4-2.9,9.4-5.3v6.5c-3,1.8-6.1,3.2-9.5,4.2c-3.3,1-6.6,1.5-9.9,1.5c-4.4,0-8.6-0.8-12.6-2.4
			s-7.4-3.8-10.3-6.6c-3-2.9-5.2-6.3-6.7-10.2c-1.5-3.9-2.3-8.1-2.3-12.7c0-4.5,0.8-8.8,2.3-12.7c1.6-3.9,3.8-7.3,6.7-10.1
			c2.8-2.8,6.3-5,10.3-6.5c4-1.6,8.2-2.4,12.5-2.4c3.9,0,7.4,0.5,10.7,1.6c3.3,1.1,6.3,2.7,9,4.8L735.5,63.7z"/>
		<path class="st0" d="M822.9,83c0,4.3-0.8,8.3-2.4,12.2c-1.6,3.8-4,7.3-7,10.3c-3.1,3-6.6,5.3-10.6,6.9c-3.9,1.6-8.1,2.4-12.4,2.4
			c-4.4,0-8.5-0.8-12.4-2.4c-3.9-1.6-7.4-3.9-10.5-6.9c-3.1-3.1-5.4-6.5-7.1-10.3c-1.6-3.8-2.4-7.9-2.4-12.2c0-4.3,0.8-8.4,2.4-12.3
			c1.6-3.8,4-7.3,7.1-10.4c3-3,6.5-5.3,10.4-6.8c3.9-1.5,8.1-2.3,12.5-2.3c4.5,0,8.7,0.8,12.6,2.3c3.9,1.6,7.4,3.8,10.4,6.8
			c3.1,3.1,5.4,6.5,7.1,10.4C822.1,74.6,822.9,78.7,822.9,83z M790.4,109.9c3.6,0,7-0.7,10.2-2c3.2-1.3,6.1-3.3,8.7-5.8
			c2.5-2.6,4.4-5.5,5.8-8.8c1.3-3.3,2-6.7,2-10.3c0-3.6-0.7-7.1-2-10.3c-1.3-3.2-3.3-6.2-5.8-8.8c-2.5-2.5-5.4-4.5-8.6-5.8
			c-3.2-1.3-6.6-2-10.3-2c-3.6,0-7,0.7-10.2,2c-3.2,1.3-6.1,3.3-8.6,5.8c-2.5,2.6-4.5,5.5-5.8,8.8c-1.3,3.2-2,6.7-2,10.3
			c0,3.6,0.7,7.1,2,10.3c1.3,3.2,3.3,6.2,5.8,8.8c2.5,2.6,5.4,4.5,8.5,5.8C783.3,109.2,786.7,109.9,790.4,109.9z"/>
		<path class="st0" d="M847.1,113.2V50l42.9,50.7V52.6h5.1V115l-42.9-50.8v49H847.1z"/>
		<path class="st0" d="M934.6,103l4.7-2.5c0.9,3,2.4,5.3,4.6,6.9c2.2,1.6,4.8,2.5,7.8,2.5c3.8,0,6.8-1.1,9-3.4
			c2.2-2.3,3.2-5.4,3.2-9.4c0-2.9-0.7-5.4-2.2-7.3c-1.5-1.9-4.6-4.2-9.3-6.7c-6.1-3.2-10.2-6.1-12.2-8.5c-2-2.5-3-5.4-3-8.9
			c0-4.3,1.5-7.8,4.4-10.5c2.9-2.7,6.7-4.1,11.3-4.1c3,0,5.7,0.6,7.9,1.9c2.2,1.3,4.1,3.2,5.5,5.8l-4.3,2.6c-0.9-1.7-2.1-3.1-3.7-4
			c-1.6-0.9-3.5-1.4-5.7-1.4c-3,0-5.4,0.9-7.1,2.6c-1.8,1.8-2.7,4.1-2.7,7.1c0,4.3,3.5,8.2,10.5,11.9c1.3,0.7,2.2,1.2,2.9,1.5
			c5.2,2.8,8.6,5.5,10.4,8.1c1.7,2.5,2.6,5.8,2.6,9.8c0,5.4-1.6,9.8-4.8,12.9c-3.2,3.2-7.5,4.8-13,4.8c-4,0-7.4-1-10.2-3
			C938.4,109.9,936.2,106.9,934.6,103z"/>
		<path class="st0" d="M1010.5,52.6h5.4v39.6c0,6,1.4,10.4,4.1,13.4c2.7,2.9,6.9,4.4,12.5,4.4c5.5,0,9.7-1.5,12.4-4.4
			c2.7-2.9,4.1-7.4,4.1-13.4V52.6h5.5v37.8c0,8.2-1.8,14.3-5.5,18.4c-3.6,4-9.2,6.1-16.6,6.1c-7.4,0-13-2-16.6-6.1
			c-3.6-4-5.5-10.2-5.5-18.4V52.6z"/>
		<path class="st0" d="M1100.2,113.2V52.6h5.5V108h20.8v5.2H1100.2z"/>
		<path class="st0" d="M1191.2,113.2V57.8h-16.7v-5.2h38.9v5.2h-16.7v55.4H1191.2z"/>
		<path class="st0" d="M1272,113.2V52.6h5.5v60.6H1272z"/>
		<path class="st0" d="M1331.4,113.2V50l42.9,50.7V52.6h5.1V115l-42.9-50.8v49H1331.4z"/>
		<path class="st0" d="M1458.4,67.8c-2.5-3.8-5.5-6.7-9.1-8.7c-3.6-2-7.6-2.9-12.1-2.9c-7.5,0-13.6,2.5-18.3,7.6s-7.1,11.7-7.1,19.8
			c0,3.6,0.6,7,1.9,10.2c1.3,3.2,3.1,6,5.5,8.5c2.4,2.5,5.1,4.3,8.2,5.5c3,1.2,6.3,1.8,9.9,1.8c6.8,0,12.3-2,16.6-6
			c4.3-4,6.5-9.2,6.6-15.7h-20.9v-4.8h27v0.7c0,9.7-2.6,17.2-7.9,22.7s-12.5,8.2-21.8,8.2c-9.2,0-16.6-2.9-22.3-8.8
			c-5.7-5.9-8.5-13.5-8.5-23c0-4.4,0.7-8.5,2.2-12.4c1.4-3.9,3.5-7.3,6.2-10.1c2.9-3.1,6.2-5.5,9.9-7c3.7-1.5,7.8-2.3,12.3-2.3
			c6.2,0,11.4,1.1,15.8,3.3c4.4,2.2,7.8,5.5,10.1,9.8L1458.4,67.8z"/>
	</g>
</g>
</svg>
