<?xml version="1.0" encoding="utf-8"?>
<!-- Generator: Adobe Illustrator 22.1.0, SVG Export Plug-In . SVG Version: 6.00 Build 0)  -->
<svg version="1.1" id="Capa_1" xmlns="http://www.w3.org/2000/svg" xmlns:xlink="http://www.w3.org/1999/xlink" x="0px" y="0px"
	 viewBox="0 0 500 500" style="enable-background:new 0 0 500 500;" xml:space="preserve">
<style type="text/css">
	.st0{fill:#FFFFFF;}
</style>
<g>
	<g>
		<path class="st0" d="M148.8,370.1h-10.5c0-4.8,2-7.4,5.4-7.4C146.8,362.7,148.8,365.7,148.8,370.1L148.8,370.1L148.8,370.1z
			 M154.7,374.5c0-0.4,0-0.8,0-1.2c0-6.2-1.2-9.5-3.4-11.9c-1.8-2-4.6-3-7.8-3c-3.6,0-6.4,1.2-8.6,3.8s-3.4,6-3.4,10.8
			c0,9.2,4.8,14.7,12.7,14.7c3.8,0,7.2-1.4,10-3.8l-2.2-3.6c-2.2,1.8-4.4,2.8-7,2.8s-4.6-1-6-3c-0.8-1.2-1.2-3.2-1.2-5.2v-0.4
			L154.7,374.5L154.7,374.5z"/>
		<path class="st0" d="M232.8,373.7l-0.2,6.6c-1.2,2-3.2,3.2-5.4,3.2c-2.6,0-4-1.6-4-4.4c0-1.6,0.4-2.8,1.4-3.8
			c1.2-1.2,3.2-1.6,6.8-1.6C231.8,373.7,232.2,373.7,232.8,373.7L232.8,373.7L232.8,373.7z M240.8,384.2c-2-1.2-2.4-2.4-2.4-5.6
			c0-0.4,0-0.6,0-0.8v-8.4v-1.8c0-2.6,0-3.6-0.4-4.8c-1-3-4.2-4.6-8.4-4.6c-2.4,0-5,0.4-7.4,1.6c-1.6,0.8-3,1.2-4.4,2.2l2.6,4.2
			c1.2-0.8,2-1.2,3.4-2c1.8-0.8,3.6-1.2,5-1.2c1.6,0,2.6,0.4,3.2,1.2s0.8,1.8,0.8,3.8v1.6c-0.8,0-1.2,0-1.8,0
			c-9.2,0-13.9,3.2-13.9,9.7c0,2,0.6,4.6,2.2,6c1.6,1.4,3.6,2.2,7,2.2c2.4,0,4.2-0.6,6-1.6c0.6-0.6,0.8-1,1.6-1.8
			c0.6,1.8,2.2,3.2,4,3.8L240.8,384.2L240.8,384.2z"/>
		<path class="st0" d="M372.9,370.1h-10.3c0-4.8,2-7.4,5.2-7.4C371.1,362.7,372.9,365.7,372.9,370.1L372.9,370.1L372.9,370.1z
			 M379.1,374.5c0-0.4,0-0.8,0-1.2c0-6.2-1.2-9.5-3.4-11.9c-2-2-4.8-3-8-3c-3.4,0-6.2,1.2-8.4,3.8s-3.4,6-3.4,10.8
			c0,9.2,4.8,14.7,12.7,14.7c3.6,0,7-1.4,10-3.8l-2.4-3.6c-2,1.8-4.4,2.8-6.8,2.8c-2.8,0-4.8-1-6-3c-0.8-1.2-1.2-3.4-1.2-5.2v-0.4
			L379.1,374.5L379.1,374.5z"/>
		<polygon class="st0" points="126.9,386.8 126.9,348.8 120.9,348.8 120.9,364.3 107.2,364.3 107.2,348.8 101.4,348.8 101.4,386.8 
			107.2,386.8 107.2,369.1 120.9,369.1 120.9,386.8 		"/>
		<path class="st0" d="M174.3,358.8c-0.6-0.2-1.2-0.4-2.2-0.4c-3,0-5.2,1.6-7,4.4v-0.6c0-1.6-0.4-2.6-1-3.8l-5.6,1.4
			c0.8,1.8,1,3.8,1,7.2v19.9h6v-18.5c0.2-1.6,0.6-2.2,1.6-3.2c1-1,2.4-1.2,3.6-1.2c0.8,0,1,0.2,1.8,0.4L174.3,358.8L174.3,358.8z"/>
		<path class="st0" d="M212.1,386.8v-20.5c0-3-0.6-4.8-2.2-6.2c-1.2-1.2-3-1.8-5-1.8c-3,0-6.4,1.6-8.6,4.2c-1.2-2.6-3.8-4.2-6.6-4.2
			c-2.6,0-5.4,1.6-7.4,3.6c-0.2-1.4-0.6-2.6-1-3.4L176,360c0.8,1.8,1,2.8,1,6.8v20.1h5.6v-20.5c2.4-2,4.2-3,6-3c2.4,0,3,1.4,3,4.6
			v18.9h5.8v-20.1c2.2-2.4,4.4-3.4,6-3.4c2.2,0,3,1.2,3,4v19.5L212.1,386.8L212.1,386.8z"/>
		<path class="st0" d="M266.8,386.8v-20.7c0-5-3-7.6-7.4-7.6c-3,0-5.4,1-8.4,3.6c0-1.2-0.4-2.4-1-3.8l-5.4,1.6
			c0.8,1.8,0.8,3.4,0.8,6.4v20.5h5.8v-20.1c2-2,4.6-3.4,6.6-3.4c2.2,0,3.2,1.2,3.2,5v18.5L266.8,386.8L266.8,386.8z"/>
		<polygon class="st0" points="311.8,386.8 308.6,348.8 300.5,348.8 293.1,377.1 285.5,348.8 277.2,348.8 273.6,386.8 279.2,386.8 
			281.8,355 290.3,386.8 294.9,386.8 303.6,355.6 306,386.8 		"/>
		<path class="st0" d="M324,386.8v-28.5l-6,1v27.5H324L324,386.8z M324.9,350.8c0-2-1.8-4-4-4c-2,0-4,2-4,4c0,2.4,1.8,4,4,4
			C323.2,354.8,324.9,353.2,324.9,350.8L324.9,350.8L324.9,350.8z"/>
		<path class="st0" d="M340.5,386.8l-1.2-3.6c0,0-0.4,0-0.6,0c-1,0-1.8-0.6-1.8-2.8v-26.1c0-3.6,0-6-0.4-8l-6,1.4c0.4,2,0.6,4,0.6,8
			v25.1c0,4.2,2.2,6.6,5.6,6.6C338.3,387.4,339.3,387.2,340.5,386.8L340.5,386.8L340.5,386.8z"/>
		<path class="st0" d="M354,386.8l-1.2-3.6c-0.8,0-1.4,0-1.8-0.4c-0.4-0.6-0.6-1.8-0.6-4.6v-23.9c0-3.6,0-6-0.6-8l-6,1.4
			c0.6,2,0.6,4,0.6,8v24.1c0,3,0.6,4.6,1.4,5.6c0.8,1.4,2.6,2,4.4,2C351.6,387.4,352.8,387.2,354,386.8L354,386.8L354,386.8z"/>
		<path class="st0" d="M398.6,358.8c-0.6-0.2-1.2-0.4-2.2-0.4c-3,0-5.4,1.6-7.2,4.4v-0.6c0-1.6-0.4-2.6-1-3.8l-5.4,1.4
			c0.8,1.8,1,3.8,1,7.2v19.9h5.8v-18.5c0.4-1.6,0.8-2.2,1.8-3.2c1-1,2.4-1.2,3.6-1.2c0.6,0,1,0.2,1.8,0.4L398.6,358.8L398.6,358.8z"
			/>
	</g>
	<path class="st0" d="M308.9,273.1c0,0-24.2-8.1-58.4-8.1c-35.2,0-59.4,8.1-59.4,8.1V163.3h2c0,0,9.1,96.6,57.4,96.6
		c47.3,0,56.4-96.6,56.4-96.6h2V273.1L308.9,273.1z M355.2,217.7c0-58.4-47.3-105.7-104.7-105.7c-58.4,0-105.7,47.3-105.7,105.7
		c0,58.4,47.3,105.7,105.7,105.7C307.9,323.4,355.2,276.1,355.2,217.7L355.2,217.7L355.2,217.7z"/>
</g>
</svg>
