<?xml version="1.0" encoding="utf-8"?>
<!-- Generator: Adobe Illustrator 22.1.0, SVG Export Plug-In . SVG Version: 6.00 Build 0)  -->
<svg version="1.1" id="Capa_1" xmlns="http://www.w3.org/2000/svg" xmlns:xlink="http://www.w3.org/1999/xlink" x="0px" y="0px"
	 viewBox="0 0 500 500" style="enable-background:new 0 0 500 500;" xml:space="preserve">
<style type="text/css">
	.st0{fill:#FFFFFF;}
</style>
<g>
	<path class="st0" d="M411.2,186.9c0,0.4-0.1,0.8-0.1,1.2c0,14.3,0,28.5,0,42.7c0,0.9-0.2,1.2-1.2,1.2c-2.4-0.1-4.9,0-7.3,0
		c-0.3,0-0.6,0-1,0c0-1.5,0-3,0-4.7c-0.3,0.3-0.4,0.4-0.6,0.6c-2.9,4-6.8,5.8-11.7,5c-4.8-0.7-8-3.5-9.7-7.9c-2-5-2-10.1-0.1-15.1
		c3.4-8.6,11.8-9.5,17.5-7.1c1.7,0.7,2.9,2.2,4,3.7c0.1,0.2,0.2,0.3,0.3,0.4c0-6.7,0-13.3,0-20C404.6,186.9,407.9,186.9,411.2,186.9
		z M395.3,224.7c3.2,0,5.8-1.7,6.4-4.7c0.3-1.5,0.4-3.1,0.2-4.5c-0.4-3.2-2.8-5.3-5.9-5.5c-3.8-0.2-6.3,1.4-7.2,4.8
		c-0.3,1.1-0.4,2.3-0.3,3.5C388.7,222.2,391.4,224.7,395.3,224.7z"/>
	<path class="st0" d="M489.6,232c-2.8,0-5.6-0.1-8.4-0.1c-0.9,0-1.2-0.2-1.2-1.2c0.1-1.1,0-2.2,0-3.5c-0.4,0.4-0.5,0.6-0.7,0.8
		c-5.5,7.9-17.1,5.9-20.9-1.9c-1.5-3.2-2-6.6-1.8-10.2c0.1-2.3,0.6-4.6,1.5-6.7c3.3-7.2,10.1-8.9,16.4-6.9c1.9,0.6,3.2,1.9,4.3,3.5
		c0.2,0.3,0.5,0.7,0.7,0.9c0-6.6,0-13.3,0-19.9c3.3,0,6.6,0,9.9,0C489.6,201.9,489.6,217,489.6,232z M480.7,217.3
		c-0.1,0-0.1-0.1-0.1-0.1c-0.1-0.7-0.1-1.5-0.2-2.2c-0.6-3-2.9-5-6-5.1c-3.6-0.1-6.2,1.5-6.9,4.6c-0.4,1.4-0.4,3-0.2,4.5
		c0.2,3,2.3,5.1,5.2,5.6c3.2,0.6,6.1-0.7,7.3-3.4C480.2,220,480.4,218.6,480.7,217.3z"/>
	<path class="st0" d="M131.6,311.2c0.7-4.4,1.3-8.8,2-13.2c1-6.8,2.1-13.6,3.1-20.4c1-6.8,2.1-13.6,3.2-20.4c0.7-4.5,1.4-8.9,2-13.3
		c0.1-0.7,0.4-0.9,1-0.9c5.6,0,11.1,0,16.6,0c0.7,0,0.9,0.2,1.1,0.9c3.3,11.4,6.7,22.8,10,34.3c0.8,2.8,1.4,5.5,2.1,8.3
		c0,0.1,0.1,0.2,0.1,0.2c3.6-14.3,8.2-28.3,12.3-42.6c0.2-0.8,0.6-1,1.3-1c5.4,0.1,10.9,0,16.3,0c0.3,0,0.7,0,1,0
		c3.5,22.7,7,45.4,10.5,68.2c-5.8,0-11.5,0-17.4,0c-1-7.3-2-14.7-3-22c-0.9-7.3-1.8-14.6-2.6-21.4c-3.5,14.2-8.3,28.7-12.3,43.4
		c-2.1,0-4,0-6,0c-1.8,0-3.5-0.1-5.3,0c-0.9,0.1-1.2-0.2-1.4-1c-2.1-7.5-4.3-14.9-6.4-22.4c-1.8-6.2-3.4-12.4-5.1-18.7
		c-0.2-0.6-0.2-1.2-0.3-1.6c-1.8,14.4-3.7,28.9-5.6,43.6C143.1,311.2,137.4,311.2,131.6,311.2z"/>
	<path class="st0" d="M473.8,271.6c0-2.4,0-4.8,0-7.3c5.1,0,10.2,0,15.2,0c0,15.6,0,31.2,0,46.9c-5,0-10,0-15.2,0c0-2.4,0-4.8,0-7.4
		c-1,1.3-2,2.4-2.9,3.5c-3.9,4.2-8.7,5.9-14.4,5.8c-8.6-0.2-14.6-4.3-17.8-12.1c-3.6-8.7-3.7-17.7,0.2-26.4
		c3.4-7.6,9.6-11.5,18-11.8c3.3-0.1,6.5,0.2,9.4,1.8c2.7,1.4,4.8,3.5,6.5,5.9c0.2,0.4,0.5,0.7,0.7,1
		C473.6,271.5,473.7,271.5,473.8,271.6z M452.5,287.6c0.1,0,0.1,0,0.2,0c0,0.4,0,0.9,0,1.3c0.2,5.4,3.4,10.2,9.7,10.6
		c4.1,0.3,7.6-0.8,10.1-4.3c1.2-1.7,1.7-3.6,1.9-5.6c0.2-2.3,0.1-4.7-0.7-6.9c-1.8-5.2-6.3-7.5-11.9-6.8c-4.6,0.6-7.5,3.2-8.7,7.6
		C452.8,284.8,452.7,286.2,452.5,287.6z"/>
	<path class="st0" d="M258.4,271.5c0-2.4,0-4.7,0-7.2c5.1,0,10.2,0,15.3,0c0,15.6,0,31.2,0,46.9c-5,0-10,0-15.1,0c0-2.4,0-4.8,0-7.2
		c-0.1,0-0.1-0.1-0.2-0.1c-0.2,0.4-0.5,0.7-0.8,1c-2.9,4-6.7,6.8-11.6,7.7c-11.3,2-20.4-3.5-23.6-14.6c-2.2-7.5-2.1-15.1,0.7-22.5
		c3.2-8.1,10.3-12.8,19-12.8c3,0,5.9,0.3,8.6,1.6c3,1.4,5.3,3.7,7.1,6.5c0.2,0.2,0.3,0.5,0.5,0.7
		C258.3,271.5,258.3,271.5,258.4,271.5z M259.4,287.8c-0.1,0-0.1-0.1-0.2-0.1c-0.1-1-0.2-2-0.3-2.9c-0.1-0.6-0.2-1.2-0.4-1.8
		c-1.6-5.1-6.4-8-11.9-7.2c-4.7,0.7-7.8,3.4-8.9,8c-0.4,1.5-0.5,3.2-0.4,4.7c0.2,6.2,3.8,10.5,9.8,11c5,0.4,9.4-1.6,11.2-6.5
		C258.9,291.3,259,289.5,259.4,287.8z"/>
	<path class="st0" d="M357.8,294.7c2.3,2,4.7,3.5,7.4,4.7c3.9,1.6,7.8,2.4,11.9,1.7c0.9-0.1,1.7-0.5,2.4-1c1.7-1.1,1.9-3.4,0.4-4.8
		c-1.5-1.5-3.5-2-5.5-2.5c-3.7-0.9-7.3-1.8-10.6-3.6c-3.5-1.9-6.2-4.5-6.9-8.6c-1.3-7.5,2.4-13.9,9.9-16.5c4-1.4,8.2-1.5,12.4-1.2
		c5.1,0.4,10,1.8,14.6,3.8c0.2,0.1,0.4,0.2,0.7,0.4c-1.1,3.7-2.3,7.5-3.4,11.3c-0.4-0.2-0.7-0.4-1-0.6c-4-2.4-8.2-4-12.9-3.9
		c-1.2,0-2.4,0.2-3.5,0.7c-2.4,1-2.6,3.7-0.4,5c1.8,1,3.8,1.6,5.8,2.3c2.9,1,5.9,1.9,8.8,3.1c3.7,1.6,6.6,4,7.6,8.1
		c1.6,6.6-0.5,13.3-7.3,17.2c-3.7,2.1-7.6,2.8-11.9,2.9c-7.5,0.1-14.6-1.3-21.2-5.1c-0.7-0.4-0.9-0.7-0.7-1.5
		C355.7,302.6,356.7,298.7,357.8,294.7z"/>
	<path class="st0" d="M407.5,275.9c-2.4,0-4.7,0-7,0c0-3.9,0-7.7,0-11.6c2.3,0,4.6,0,7,0c0-4.7,0-9.4,0-14c5.5,0,10.9,0,16.4,0
		c0,4.7,0,9.3,0,14c2.3,0,4.7,0,7,0c0,3.9,0,7.8,0,11.7c-2.3,0-4.5,0-7,0c0,11.8,0,23.6,0,35.3c-5.5,0-10.9,0-16.3,0
		C407.5,299.4,407.5,287.8,407.5,275.9z"/>
	<path class="st0" d="M132.7,189.5c3.9,0,7.6,0,11.5,0c0,0.4,0,0.7,0,1c0,6.9,0,13.8,0,20.7c0,2.1,0.1,4.3,0.4,6.4
		c0.6,3.8,2.6,5.5,6.4,5.6c0.9,0.1,1.9,0,2.8-0.2c3.1-0.7,4.6-2.5,4.9-6.1c0.1-1.5,0.2-3.1,0.2-4.7c0-7.2,0-14.4,0-21.6
		c0-0.4,0-0.7,0-1.1c3.9,0,7.6,0,11.4,0c0,0.2,0.1,0.5,0.1,0.7c0,8.6,0,17.3-0.1,25.9c0,2.1-0.3,4.2-0.8,6.2c-1.2,5-4.3,8.1-9.2,9.5
		c-5.7,1.6-11.4,1.7-17.1,0.1c-5.9-1.6-9.4-5.8-10-11.9c-0.2-2.5-0.4-5-0.4-7.5c-0.1-7.2,0-14.5,0-21.7
		C132.7,190.4,132.7,190,132.7,189.5z"/>
	<path class="st0" d="M286.4,311.2c0-15.7,0-31.3,0-46.9c5.2,0,10.3,0,15.5,0c0,3.5,0,7,0,10.5c0.1,0,0.1,0.1,0.2,0.1
		c0.4-0.7,0.7-1.5,1.1-2.2c2.6-5,6.5-8.4,12.2-9.2c2.2-0.3,4.5-0.1,6.7-0.1c0.6,0,0.6,0.4,0.5,0.9c-0.2,2.6-0.6,5.3-0.8,8
		c-0.2,2.1-0.4,4.2-0.7,6.1c-1.9-0.2-3.7-0.7-5.6-0.7c-4.6-0.1-8.4,1.4-10.8,5.6c-1.3,2.3-1.9,4.8-1.9,7.3
		c-0.1,6.5-0.1,13.1-0.1,19.6c0,0.4,0,0.7,0,1.1C297.4,311.2,291.9,311.2,286.4,311.2z"/>
	<path class="st0" d="M346,311.2c-5.5,0-11,0-16.5,0c0-15.6,0-31.2,0-46.9c5.4,0,10.9,0,16.5,0C346,279.9,346,295.5,346,311.2z"/>
	<path class="st0" d="M440.9,231.8c0-1.5,0-2.9,0-4.3c-0.1-0.1-0.2-0.2-0.3-0.2c-0.1,0.2-0.1,0.4-0.3,0.6c-3.1,4.3-7.3,5.8-12.4,4.9
		c-4.9-0.9-8-4-9.4-8.6c-1.7-5.5-1.7-11,1.1-16.2c2.3-4.2,6-6.1,10.7-6.3c4.3-0.2,7.8,1.5,10.1,5.2c0.1,0.1,0.1,0.1,0.3,0.4
		c0-1.6,0-3.1,0-4.5c3.2,0,6.4,0,9.5,0c0,0.3,0,0.7,0,1c0,9.1,0,18.1,0,27.2c0,0.8-0.2,1.1-1,1.1c-2.5-0.1-5,0-7.5,0
		C441.5,231.9,441.2,231.9,440.9,231.8z M427.3,217c0.1,0,0.1,0.1,0.2,0.1c0.1,0.8,0.1,1.6,0.3,2.4c0.6,2.9,2.9,4.9,5.9,5.1
		c3.5,0.2,6.1-1.4,7-4.4c0.6-1.7,0.6-3.5,0.2-5.3c-0.6-2.8-2.6-4.7-5.4-5.1c-3.1-0.5-5.8,0.7-7,3.2C428,214.3,427.7,215.7,427.3,217
		z"/>
	<path class="st0" d="M210.1,231.8c-3.5,0-6.9,0-10.3,0c0-0.4,0-0.8,0-1.1c0-4.7,0-9.4,0-14.1c0-1-0.1-2.1-0.2-3.1
		c-0.5-2.6-1.6-3.7-3.9-4c-2.4-0.3-4.8,0.7-5.6,2.8c-0.6,1.6-1.1,3.4-1.2,5c-0.2,4.5-0.1,8.9-0.1,13.4c0,0.9-0.2,1.2-1.2,1.2
		c-3-0.1-5.9,0-9,0c0-9.8,0-19.5,0-29.2c3.1,0,6.2,0,9.4,0c0,1.8,0,3.6,0,5.4c0.1,0,0.1,0.1,0.2,0.1c0.3-0.4,0.6-0.9,0.9-1.3
		c4.1-6.1,11.9-6,16.2-3.7c3.1,1.6,4.5,4.3,4.5,7.6c0.2,6.1,0.2,12.1,0.2,18.2C210.1,229.9,210.1,230.8,210.1,231.8z"/>
	<path class="st0" d="M300,219.3c-7.6,0-14.9,0-22.3,0c-0.6,2.3,1,5.4,3.2,6.4c2.5,1.1,5,1,7.5-0.4c0.5-0.3,1-0.7,1.3-1.2
		c1-1.2,1-1.2,2.5-0.6c2,0.8,3.9,1.6,6,2.4c-0.5,1.3-1.3,2.4-2.3,3.4c-2.1,2-4.8,2.9-7.6,3.4c-3.9,0.6-7.6,0.4-11.3-1
		c-6-2.4-9.4-7.6-9.3-14.4c0.1-7.3,4.8-13.5,11.9-15.2c3.5-0.9,7.2-0.8,10.6,0.5c5.4,2.1,8.1,6.2,9.1,11.8
		C299.7,216,299.8,217.6,300,219.3z M277.9,213.4c3.9,0,7.8,0,11.7,0c0.1-2.9-2.5-5.4-5.6-5.4C280.6,207.9,277.9,210.2,277.9,213.4z
		"/>
	<path class="st0" d="M352.5,211.4c-2.4-1.5-4.7-2.6-7.4-2.8c-1-0.1-2.1,0.1-3.2,0.3c-0.7,0.2-1.3,0.7-1.3,1.6
		c-0.1,0.8,0.4,1.3,1,1.7c1.3,0.6,2.6,1,3.9,1.5c2,0.7,4,1.3,5.9,2.3c3.4,1.7,4.8,4.8,4.2,8.6c-0.6,3.7-2.8,6.2-6.1,7.4
		c-6.9,2.5-13.5,1-19.8-2.3c0.7-2.7,1.4-5.3,2.1-7.8c1.4,0.9,2.6,1.7,4,2.4c2.6,1.2,5.3,1.8,8.1,1.3c0.5-0.1,0.9-0.2,1.3-0.5
		c1.3-0.8,1.5-2.4,0.2-3.3c-0.9-0.6-1.8-1-2.8-1.3c-2.1-0.7-4.2-1.2-6.2-2c-3.2-1.3-5.2-3.7-5.2-7.3c0-3.8,1.8-6.5,5.3-8.1
		c2.8-1.3,5.8-1.4,8.7-1.2c3.3,0.2,6.5,1.2,9.5,2.6C353.9,206.7,353.2,209,352.5,211.4z"/>
	<path class="st0" d="M231.7,202.6c1.9,0,3.7,0,5.4,0c1.5,0,3.1,0,4.6,0c0.6,0,0.9,0.1,1.2,0.8c2,5.3,4.1,10.7,6.1,16
		c0,0,0.1-0.1,0.2-0.3c2-5.3,4-10.6,6.1-16c0.1-0.2,0.4-0.5,0.6-0.5c3.4,0,6.9,0,10.3,0c-0.1,0.4-0.2,0.6-0.3,0.8
		c-4.2,9.2-8.4,18.4-12.5,27.6c-0.3,0.7-0.7,0.9-1.4,0.9c-2.1-0.1-4.3,0-6.4-0.1c-0.3,0-0.8-0.3-0.9-0.6c-4.2-9.4-8.4-18.7-12.6-28
		C231.9,203.1,231.8,202.9,231.7,202.6z"/>
	<path class="st0" d="M305.8,231.8c0-9.8,0-19.5,0-29.2c3.2,0,6.4,0,9.6,0c0,2.1,0,4.2,0,6.3c0.1,0.1,0.1,0.1,0.2,0.2
		c2.4-5.7,6.8-7.9,12.8-7c-0.3,3.1-0.6,6.1-1,9.2c-0.9-0.1-1.7-0.3-2.4-0.4c-4.5-0.5-8.3,1.7-8.7,6.7c-0.4,4-0.2,8-0.2,12.1
		c0,0.7,0,1.3,0,2.1C312.6,231.8,309.3,231.8,305.8,231.8z"/>
	<path class="st0" d="M217.7,231.8c0-9.7,0-19.5,0-29.2c3.4,0,6.8,0,10.3,0c0,0.3,0.1,0.6,0.1,0.9c0,9.1,0,18.2,0,27.3
		c0,0.9-0.2,1-1,1c-2.8-0.1-5.6,0-8.4,0C218.3,231.9,218,231.9,217.7,231.8z"/>
	<path class="st0" d="M361.4,202.6c0.4,0,0.7,0,1,0c3.1,0,6.1,0,9.2,0c0,0.4,0.1,0.7,0.1,1c0,9.1,0,18.2,0,27.3c0,0.7-0.1,1-1,1
		c-2.8-0.1-5.6-0.1-8.4,0c-0.6,0-0.9-0.1-0.9-0.9c0-9.2,0-18.5,0-27.8C361.4,203.1,361.4,202.9,361.4,202.6z"/>
	<path class="st0" d="M337.8,240.5c5.3,0,9.1,3.9,9.1,9.2c0,5.1-4.2,9.2-9.2,9.2c-5-0.1-9.1-4.2-9.1-9.2
		C328.6,244.4,332.6,240.5,337.8,240.5z"/>
	<g>
		<path class="st0" d="M10.2,187.5c0.2,0,0.5,0,0.7,0c11.9,0,23.7,0,35.6,0c0.2,0,0.5,0,0.8,0c0,0.3,0,0.6,0,0.8
			c0,20.2,0,40.3,0,60.5c0,0.4,0.1,0.9,0.2,1.3c2.8,6.1,7.6,9.5,14.3,10c3.4,0.2,6.9,0.2,10.3-0.7c4.9-1.5,8.4-4.4,10.5-9.1
			c0.1-0.2,0.2-0.6,0.2-0.9c0-3.6,0-7.2,0.1-10.8c0.1-5.8,0.1-11.6,0.1-17.4c0.1-5,0.1-10,0.1-15c0.1-6.1,0.1-12.1,0.1-18.2
			c0-0.2,0-0.3,0-0.5c12.5,0,25,0,37.6,0c0,0.2,0,0.4,0,0.7c0,23.2,0,46.3,0,69.5c0,5.9-1.5,11.4-4,16.6c-2.3,4.8-5.1,9.1-8.9,12.7
			c-5.7,5.5-12.5,9-20.3,10.4c-1.3,0.2-2.5,0.4-4,0.6c0.1-0.3,0.2-0.4,0.3-0.6c2.1-3.9,3.2-8,3.7-12.3c0.2-1.8,0.2-3.6,0.3-5.4
			c0.1-1.3,0.7-2.1,2.1-2.2c0.6-0.1,1-0.1,1.5,0.5c0.6,0.7,1.5,0.7,2.3,0.9c2.6,0.6,4.9-0.2,7.1-1.5c2.9-1.7,5.1-4,7.1-6.5
			c1.5-2,2.8-4,3.8-6.2c0.3-0.7,0.6-1.5,0.7-2.3c0.3-1.3-0.4-2.3-1.8-2.3c-1.7-0.1-3.3,0.4-4.9,0.9c-1.5,0.4-3,0.7-4.5,1
			c-2.6,0.6-5.1,1.3-7.3,2.8c-1,0.7-1.9,1.5-2.6,2.5c-1.1,1.5-2.4,2.9-3.9,4c-0.7,0.4-0.7,0.4-1.1-0.2c-0.6-1-1-1.9-1.7-2.9
			c0.9-0.9,1.7-1.9,2.6-2.8c1.7-1.8,3.3-3.7,5-5.5c0.2-0.2,0.4-0.4,0.7-0.5c5-1.6,9.4-4.1,13.1-7.8c1.5-1.5,2.8-3,3.8-4.9
			c0.2-0.5,0.5-0.9,0.9-1.3c0.4-0.4,0.8-0.9,1.3-1.1c4.9-2.6,7-6.7,6.7-12.2c-0.1-1.4-0.3-2.8-0.7-4.1c0.1,4.7-1.8,8.4-5.1,11.5
			c1.1-3,1.5-6.1,1.5-9.2c-0.1-3.1-0.6-6.2-1.6-9.2c-0.1,1.2-0.3,2.4-0.4,3.7c-0.9,6.2-2,12.2-4.7,18c-1.3,2.8-2.9,5.3-5.2,7.3
			c-1.5,1.3-3.2,2.2-5.3,2.4c-0.4,0.1-0.7-0.1-0.8-0.5c-0.1-0.2-0.1-0.4,0.1-0.6c3.5-5.3,5.6-11.2,7.2-17.3c1.2-4.4,2-8.9,2.4-13.4
			c0.1-0.9,0-1.8,0.2-2.7c0.4-2.1,1.6-3.8,3-5.3c0.7-0.7,1.8-1.2,2.6-1.9c1.7-1.2,3.1-2.6,4.3-4.3c0.9-1.3,1.5-2.6,1.5-4.2
			c0-0.8-0.1-1.5-0.5-2.3c-0.2,0.3-0.3,0.6-0.4,0.9c-0.8,1.4-1.9,2.6-3.1,3.7c-1.8,1.7-3.8,3.1-5.9,4.5c-0.1-0.6-0.1-1-0.1-1.4
			c-0.1-3.4-0.5-6.7-1.3-10c-0.4-1.6-1-3.1-2-4.5c-0.4-0.5-0.8-0.9-1.3-1.3c1.7,6.9,0.6,13.5-0.9,20.3c-1.2-2.5-3.3-3.5-5.9-4.2
			c0.1,0.2,0.2,0.4,0.3,0.6c2.4,4.5,3.8,9.2,4,14.3c0.2,6-1.1,11.6-3.5,17.1c-1.6,3.6-3.5,7-5.9,10c-0.1,0.1-0.2,0.3-0.4,0.5
			c-0.6-2.5-2-4.3-4-5.9c0,0.4,0,0.6,0,0.7c0,2.1,0.1,4.2,0,6.3c-0.2,4.7-1.7,8.9-5,12.3c-1.5,1.5-3.2,2.8-5.2,3.5
			c-0.2,0.1-0.5,0.2-0.7,0.2c-4.3,0.1-8.7,0.1-13.1,0.1c-1.7,0-3.4,0-5.1,0.1c-1.2,0.1-2.1-0.2-3.1-0.7c-2.9-1.4-5-3.5-6.6-6.2
			c-2-3.4-3.2-7-3.9-10.8c-0.2-1.4-0.4-2.9-0.7-4.5c-0.7,1.8-1.3,3.5-1.9,5.3c-0.1-0.1-0.2-0.2-0.2-0.3c-2.9-5-5.1-10.2-6.2-15.8
			c-1.4-7.1-0.8-14,2.4-20.6c0.4-0.7,0.8-1.5,1.3-2.2c0.4-0.7,1-1.3,1.5-2.1c-0.4,0.1-0.7,0.1-1,0.1c-1.6,0.6-3.2,1.2-4.8,1.8
			c-0.2,0.1-0.6,0.2-0.9,0.4c-0.2-5.6-0.6-11.2-0.8-16.8c-0.1,0-0.1-0.1-0.1-0.1c-0.2,0.2-0.4,0.5-0.5,0.7c-0.7,1.9-1.5,3.8-2,5.8
			c-0.7,2.4-1.1,4.8-1.7,7.3c0,0.1-0.1,0.1-0.1,0.4c-0.6-0.2-1.2-0.4-1.7-0.6c-1.2-0.6-2-1.5-2.8-2.6c-1.4-2-2.4-4.2-3.1-6.4
			c-0.1-0.2-0.1-0.3-0.2-0.6c-0.5,1.5-0.7,2.9-0.4,4.3c0.6,3.5,2.3,6.4,5,8.7c2.4,2.1,3.7,4.8,3.7,8c0.1,9.1,1.8,17.9,4.7,26.4
			c0.5,1.5,1,2.9,1.6,4.5c-0.2-0.1-0.3-0.1-0.5-0.1c-3.9-1.4-6.5-4.2-8.3-7.7c-1.7-3.2-2.5-6.6-3-10.2c-0.5-3.4-0.6-6.8-0.4-10.2
			c0-0.6,0.1-1,0.1-1.7c-0.3,0.2-0.6,0.4-0.8,0.7c-1.2,1.2-1.7,2.6-2.1,4.2c-0.9,2.9-0.9,5.9-0.7,8.9c0.1,1.7,0.3,3.4,0.5,5.1
			c-0.4-0.2-0.8-0.4-1.1-0.6c-1.2-0.9-2-2.3-2.6-3.6c-0.7-1.8-1.3-3.5-2-5.3c-0.1-0.1-0.1-0.3-0.2-0.5c-0.1,0.7-0.2,1.3-0.2,2
			c-0.2,2.6,0.1,5.3,1.2,7.7c1.5,3.2,4,5.3,7.3,6.4c0.3,0.1,0.6,0.4,0.8,0.6c3.1,4.3,7,7.6,11.4,10.5c1.8,1.2,3.7,2.1,5.6,3.1
			c0.2,0.1,0.4,0.2,0.5,0.3c2.1,2.4,3.9,5,5.3,7.9c0.6,1.3,0.6,1.3-0.6,2.3c-0.6,0.4-1,0.7-1.7,1.2c-1-1-2.2-1.7-3-2.9
			c-1.7-2.7-4.1-4.4-7.3-5c-1.1-0.2-2.2-0.2-3.4,0.1c-1.5,0.3-3.1,0.1-4.7-0.1c-0.7-0.1-1.4-0.2-2.1-0.4c-0.7-0.2-1.3-0.4-2-0.6
			c-0.6-0.2-1.3-0.3-2-0.4c-0.2-0.1-0.4,0.1-0.6,0.2c-1,0.6-1.3,1.5-1.1,2.6c0.2,1,0.6,2,1.1,2.9c1.3,2.4,3.1,4.4,5,6.4
			c0.9,0.9,1.7,1.9,2.6,2.6c3.2,2.6,6.7,3.1,10.5,1.3c1.6-0.7,3.9-0.1,4.9,1.3c0.1,0.2,0.2,0.5,0.2,0.7c0,2.8,0.2,5.7,0.6,8.5
			c0.5,3.1,1.2,6,2.4,8.9c0.1,0.1,0.1,0.2,0.1,0.3c-2.7-0.1-5.4-0.4-8-1.1c-9.9-2.4-17-8.4-21.7-17.4c-2.6-5-4.1-10.3-4.9-15.9
			c-0.2-1.3-0.3-2.8-0.4-4.1c0-0.2-0.1-0.3-0.1-0.5C10.2,235.3,10.2,211.4,10.2,187.5z"/>
		<path class="st0" d="M64.4,313.1c-1-0.1-2-0.2-2.9-0.5c-0.4-0.1-0.9-0.3-1.2-0.6c-1.5-1.4-2.6-3.1-2.9-5.1
			c-0.5-2.5,0.2-4.7,1.5-6.8c0.9-1.4,0.9-1.4,2.6-1.4c3.2,0,6.5,0,9.8,0c0.4,0,0.6,0.1,0.8,0.6c0.9,1.9,1.5,3.8,1.6,5.9
			c0.1,2.6-0.6,4.8-2.5,6.6c-0.2,0.2-0.6,0.5-0.9,0.6c-1.2,0.3-2.3,0.5-3.5,0.7c-0.2,0.1-0.4,0.1-0.6,0.1
			C65.6,313.1,65,313.1,64.4,313.1z M66.7,303.9c-0.1,0-0.1,0-0.2,0c0.1,0.4,0.1,1,0.4,1.3c1.1,1.2,2.5,1.9,4.1,2.1
			c1.3,0.2,1.8-0.1,1.7-1.5c-0.1-1.3-0.4-2.6-0.7-3.9c-0.2-0.8-0.9-1.2-1.7-1c-0.9,0.2-1.8,0.7-2.6,1
			C66.8,302.3,66.3,302.8,66.7,303.9z M64.8,303.8c0-0.3,0-0.6,0-0.9c0-0.1-0.1-0.3-0.2-0.4c-1-0.7-2.1-1.4-3.4-1.6
			c-1-0.1-1.6,0.3-1.8,1.3c-0.1,0.6-0.3,1.3-0.4,1.9c-0.1,0.9-0.1,1.7-0.1,2.6c0,0.5,0.4,0.7,0.9,0.7c1.5-0.1,2.8-0.6,3.9-1.5
			C64.4,305.4,65.1,304.8,64.8,303.8z M65.4,310.9c1.5-0.2,3-0.4,4.5-0.7c0.7-0.1,0.9-0.8,0.4-1.3c-0.2-0.2-0.4-0.4-0.7-0.5
			c-1.3-0.5-2.6-0.9-4-1.4c-0.1-0.1-0.3,0-0.4,0c-1.2,0.4-2.4,0.8-3.5,1.3c-0.4,0.2-0.8,0.4-1.1,0.7c-0.4,0.4-0.3,0.7,0.1,1
			c0.2,0.1,0.4,0.2,0.6,0.2C62.6,310.5,64,310.7,65.4,310.9z"/>
		<path class="st0" d="M47.3,277.5c0.6,1.2,1,2.4,1.5,3.5c0.9,1.7,2,3.4,2.9,5.1c0.5,0.9,0.9,2,1.3,2.9c0.1,0.2,0.2,0.6,0.2,0.9
			c-0.1,0.2-0.2,0.6-0.5,0.7c-0.2,0.1-0.6-0.1-0.7-0.2c-0.8-1.2-2-1.7-3.4-1.8c-0.1,0-0.2-0.1-0.4-0.1c-2.8-1.3-4-4.2-3.1-7.2
			C45.6,280,46.3,278.7,47.3,277.5z"/>
		<path class="st0" d="M82.9,277.4c1.5,2.2,2.8,4.3,2.2,7.1c-0.4,1.9-1.7,3.1-3.3,4c-0.1,0.1-0.3,0.1-0.5,0.1
			c-1.2,0.1-2.4,0.5-3.1,1.6c-0.2,0.3-0.5,0.6-0.9,0.4c-0.4-0.2-0.6-0.6-0.4-0.9c0.3-0.9,0.6-1.8,1-2.7c0.9-1.7,1.9-3.2,2.8-4.8
			c0.7-1.3,1.3-2.7,1.9-4.1C82.7,277.9,82.7,277.7,82.9,277.4z"/>
	</g>
	<path class="st0" d="M228.5,193.5c0,3.2-2.4,5.7-5.7,5.7c-3.1,0-5.7-2.6-5.6-5.8c0-3.2,2.6-5.6,5.8-5.6S228.5,190.2,228.5,193.5z"
		/>
	<path class="st0" d="M366.5,187.8c3.3,0,5.8,2.4,5.8,5.6c0,3.2-2.5,5.8-5.7,5.8c-3.1,0-5.7-2.6-5.7-5.8
		C360.8,190.3,363.3,187.8,366.5,187.8z"/>
</g>
</svg>
