<?xml version="1.0" encoding="utf-8"?>
<!-- Generator: Adobe Illustrator 22.1.0, SVG Export Plug-In . SVG Version: 6.00 Build 0)  -->
<svg version="1.1" id="Capa_1" xmlns="http://www.w3.org/2000/svg" xmlns:xlink="http://www.w3.org/1999/xlink" x="0px" y="0px"
	 viewBox="0 0 500 500" style="enable-background:new 0 0 500 500;" xml:space="preserve">
<style type="text/css">
	.st0{fill:#FFFFFF;}
</style>
<g>
	<path class="st0" d="M162.3,169.9c-2.4,0-4.8,0.1-7.1,0c-2.9-0.1-3.3-0.8-2.3-3.4c2.2-5.7,2.2-6.2,8.3-5.3c5.5,0.9,8.9-1,12.1-5.2
		c8.8-11.2,20.2-19.4,32.8-25.7c3.7-1.9,8-2.5,11.9-4.1c15.1-6,30.7-5.8,46.5-4.2c8.3,0.9,15.4,4.9,23,7.5c3.6,1.3,6.7,4.4,9.8,7
		c6.4,5.4,13.6,10,18.4,17.2c2.6,3.8,5.8,7.2,8.1,11.2c2.7,4.8,4.8,10,7,15c4.5,10.1,6,20.8,5.3,31.8c-0.4,6,0.4,12.2-1.5,18.1
		c-2.9,8.8-4.3,18-9.8,26.7c4.6,0,8.6,0,13.4,0c-1.3,2.8-1.7,5.3-3.2,6.7c-1.2,1.2-3.7,1.2-5.6,1.3c-2.2,0.1-4.4-0.4-6.5-0.3
		c-1,0.1-2.3,0.6-2.9,1.4c-7.8,10.4-17,19.5-27.7,26.7c-7,4.8-15,8.3-23.6,10c-1.8,0.4-3.6,0.7-5.4,1.3c-11.7,3.6-23.4,1.6-35.1-0.3
		c-14.9-2.4-27.9-9-39.8-17.8c-5.7-4.2-11-8.9-15.6-14.6c-4.5-5.7-7.8-11.7-10.7-18.3c-2.3-5.4-5.5-10.2-6.2-16.3
		c-0.9-7.3-2.6-14.5-3.4-21.8c-0.5-4.5-0.9-9.3,0.1-13.6c1.9-8.4,4.9-16.6,7.4-24.9C160.7,174,161.5,172,162.3,169.9z M326.8,209.6
		c0.3-0.3,0.6-0.5,0.9-0.7c-1.4-6.4-2.7-12.8-4.2-19.1c-0.1-0.4-0.5-0.7-0.6-1.1c-1.3-2.9-2.6-5.8-3.9-8.6c-1.2-2.5-2.3-5-3.5-7.4
		c-0.8-1.6-1.7-3.1-2.7-4.6c-2.4-3.4-4.6-7.1-7.6-10c-5.2-5-10.7-9.9-16.5-14.1c-4.1-3-8.9-5-13.4-7.3c-2.6-1.3-5.4-2.4-8.2-3.3
		c-4.2-1.4-8.5-3.2-12.8-3.5c-6.5-0.5-13.1,0.3-19.7,0.5c-0.9,0.1-1.7,0.2-2.5,0.4c-10,2.4-19.4,6.5-28.4,11.6
		c-0.5,0.3-1,0.7-1.4,1.1c-3.3,2.6-6.5,5.4-10,7.8c-3.6,2.4-4.9,6.2-7.5,9.4c0.6,0.3,0.8,0.4,1,0.4c7.4,0,14.8-0.1,22.2,0.1
		c5.7,0.1,11.5,0.5,17.1,0.9c0.6,0.1,1.4,0.7,1.5,1.2c1,4.3-2,7.6-6.4,7.4c-5.4-0.3-10.7-0.2-16.2-0.3c-4.9-0.1-9.8-0.4-14.6-0.5
		c-4-0.1-7.9-0.1-11.8,0.1c-0.7,0-1.5,0.8-2.1,1.3c-4.1,3.3-5.5,8.2-7.2,12.8c-0.8,2.2-1,4.6-1.6,7.5c5.5,0,10.5,0,15.6,0
		c5.8,0,11.6-0.1,17.4,0c1.7,0,2.4,0.8,2.6,2.6c0.3,4.7-1.1,9-2.4,13.3c-1,3.3-0.8,3.9-5.4,4.3c-0.9,0.1-1.9-0.1-2.8-0.1
		c-5.2-0.4-10.4-0.9-15.7-1c-4.1-0.1-8.2,0.4-12.9,0.6c0.4,5.6,0.7,10.9,1,16.2c0.5,8,2.9,15.4,6.8,22.2c1.8,3.2,4.6,5.9,6.8,8.9
		c0.3,0.4,0.6,0.9,0.9,1.2c1.7,2.1,3.2,4.6,5.3,6.3c4.5,3.9,9.3,7.5,14.1,11c2.8,2,6.4,2.9,8.8,5.3c4.3,4.3,9.9,6.4,15.2,8.3
		c10.8,4,22.4,4,33.7,2.5c9.1-1.2,18.1-2.9,26.3-7.5c1-0.6,2.1-0.7,3-1.2c1.2-0.6,2.4-1.2,3.4-2.1c5.6-4.8,11.1-9.6,16.6-14.5
		c0.8-0.8,1.5-1.7,2.5-2.8c-0.8-0.2-1.1-0.3-1.4-0.3c-10.7,0-21.4,0-32.1,0.1c-3.6,0-7.2,0.5-10.9,0.4c-8.7-0.2-17.3-0.6-26-0.9
		c-3.1-0.1-6.2,0.2-9.4,0.2c-0.7,0-1.9-0.5-1.9-0.6c0.2-2,0.3-4,0.9-5.9c0.2-0.6,1.8-0.9,2.8-0.9c13.1,0.1,26.1,0.3,39.2,0.3
		c7.1,0,14.2-0.4,21.2-0.5c7.2-0.1,14.5,0.1,21.7,0.1c0.7,0,1.8-0.4,2.1-0.9c2.5-3.6,5.1-7.1,7.1-11c1.5-2.8,2.1-6.1,3.1-9.3
		c-2.7-0.2-5-0.4-7.2-0.5c-9-0.5-18-1.1-27.1-1.2c-7-0.1-14.1,0.8-21.2,1c-5.2,0.1-6.8-1.3-6-6.5c0.8-5.5,2.6-10.9,4-16.4
		c0.8-2.9,2.7-3.9,5.7-3.9c13.5-0.1,27.1-0.3,40.6-0.4c0.8,0,1.5,0.1,2.3,0.2C319.2,208.7,323,209.2,326.8,209.6z"/>
	<path class="st0" d="M232.7,380.5c-3.9,0-8.4,0-13,0c2.5-6.3,1.1-12.8,1.6-19.5c-5.1,0-10,0-15.5,0c0.3,6.5,0.6,12.9,0.8,19.4
		c-3.7,0-8.1,0-12,0c1.2-15.2,1.3-30.4-0.1-45.7c3.9,0,8.3,0,12.2,0c-0.3,5-0.4,9.9-0.7,14.8c-0.1,1.8,0.6,2.4,2.3,2.3
		c4.2-0.1,8.4-0.1,13.2-0.1c-0.4-5.9-0.7-11.5-1.1-17.1c3.8,0,8.3,0,12.3,0C231.3,350,231.2,365.2,232.7,380.5z"/>
	<path class="st0" d="M141.2,334.7c4.4,0,8.8,0,12.9,0c-2,12-0.9,23.9-0.9,35.9c0,2.8,1.4,5.5,2.2,8.5c-2.3,0.6-5.3,1.4-8.2,1.7
		c-1.2,0.1-2.5-1.1-4.2-2c-5.3,2.9-11.5,3.4-17.9,1.9c-8.2-2-13-7.5-13-15.8c0-6.2,0.8-12.4,1.4-18.6c0.4-3.7,0.9-7.5,1.3-11.5
		c3.9,0,8,0,12.3,0c-1.1,3.6-2.5,7.3-3.1,11c-0.9,5.8-1.6,11.7-1.7,17.5c-0.2,5.6,3.5,9,9.2,9.5c3.3,0.3,6.6-0.2,9.4-2.1
		c0.8-0.6,1.6-1.8,1.6-2.8c0.1-8.9,0.2-17.7,0-26.6C142.4,339.2,141.6,337.1,141.2,334.7z"/>
	<path class="st0" d="M331.2,334.7c4.2,0,8.3,0,12.4,0c-1.3,4.5-2.8,8.9-3.6,13.4c-0.8,4.6-1.3,9.4-1.2,14.1
		c0.1,7.7,4.5,11.4,12.2,10.6c1.1-0.1,2.2-0.3,3.2-0.6c4.3-1.2,4.9-2.1,4.9-6.5c0-7.2,0.1-14.3-0.1-21.5c-0.1-3.1-0.7-6.3-1-9.5
		c4.1,0,8.5,0,13.1,0c-2.6,7.5-1.2,15.3-1.5,22.9c-0.2,3.7-0.1,7.4,0,11.1c0.1,3.6,0.4,7.1,3.3,10c-3.3,0.8-6.2,1.7-9.3,2
		c-1.2,0.1-2.4-1.2-4-2c-5.6,3.2-12.1,3.5-18.6,1.8c-7.7-2-12.5-7.7-12.4-15.6c0.2-7.8,1.3-15.6,2-23.4
		C331,339.5,331.1,337.3,331.2,334.7z"/>
	<path class="st0" d="M379.1,380.6c0.3-4.1,0.7-7.9,0.7-11.7c0.1-8.3,0.1-16.6,0-24.8c-0.1-2.8-0.4-5.7-0.6-8.8
		c2.5-0.4,5.3-0.9,8.1-1.1c0.7-0.1,1.5,1.2,2.2,1.9c2.4-0.4,5.1-1.1,7.7-1.3c6.4-0.5,10.4,1.6,12.4,6.2c2.4,5.3,1.2,10.4-3.4,14.8
		c0.1,0.2,0.1,0.4,0.2,0.5c5.2,3.5,7,7.4,5.9,12.8c-1.2,5.9-5.3,10.1-11.4,11c-3.1,0.5-6.4,0.5-9.6,0.5
		C387.1,380.6,382.9,380.6,379.1,380.6z M389.8,366.3c0,0.4,0,0.9,0,1.3c0,6,0.5,6.5,6.6,5.7c4.7-0.6,7.1-4.1,6.2-8.9
		c-0.8-3.9-4.7-5.8-11-4.9c-3.4,0.5-1.1,3.4-1.7,5.1C389.6,365.1,389.8,365.7,389.8,366.3z M393.6,353.1c1,0,2,0.1,3,0
		c3.5-0.5,5.5-3.2,5-6.6c-0.4-3.1-2.9-5-6.3-4.7c-5.6,0.5-5.6,0.5-5.6,6.1c0,0.5,0,1,0,1.5C389.8,353.1,389.8,353.1,393.6,353.1z"/>
	<path class="st0" d="M292.2,345.4c-3.7-1-7.2-2.4-10.8-2.7c-6.4-0.6-10.6,2.8-11.6,9.1c-0.6,3.4-0.6,7.1-0.2,10.5
		c1.1,8.4,6.2,11.9,14.5,9.9c2.7-0.7,5.3-2.1,7.9-3.3c0.6-0.3,1.1-0.7,1.9-1.1c0,3.1,0.1,5.8-0.1,8.6c-0.1,0.8-0.9,1.8-1.7,2.2
		c-7.9,3.3-15.9,3.7-23.8,0.1c-3.5-1.6-6-4.3-7.5-7.9c-3.3-8.3-3.5-16.8-0.2-25.1c2.7-6.7,8.4-10.2,15.4-11.3
		c5.6-0.9,11,0.3,16.4,2.1c1.7,0.6,2.3,1.5,1.6,3.2C293.3,341.7,292.7,343.9,292.2,345.4z"/>
	<path class="st0" d="M104.8,343.9c-3.6-0.7-6.7-1.4-9.9-1.8c-2.1-0.3-3.9,0.7-4.6,2.8c-0.7,2,0.3,3.6,1.9,4.8
		c3.6,2.5,7.3,4.8,10.7,7.5c5.4,4.4,6.5,11.1,2.9,17.1c-2.5,4.2-6.5,6.1-11.1,6.6c-4.8,0.6-9.4-0.2-13.9-1.8
		c-1.8-0.7-2.5-1.8-2.2-3.7c0.3-2,0.5-4,0.7-6.2c1.6,0.8,3.1,1.8,4.8,2.3c2.3,0.7,4.8,1.2,7.1,1.3c2.5,0.1,4.6-1.2,5.4-3.8
		c0.8-2.6-0.3-4.5-2.2-5.9c-3.1-2.3-6.4-4.4-9.5-6.7c-5.2-3.7-6.9-8.4-5.2-13.8c1.8-5.3,6.2-7.7,11.2-8.2c4.4-0.4,8.9,0.5,13.3,0.9
		c1.8,0.2,2.6,1.3,1.9,3.2C105.5,340.5,105.2,342.3,104.8,343.9z"/>
	<path class="st0" d="M185.7,343.9c-3.5-0.7-6.7-1.4-9.9-1.8c-2.1-0.3-3.8,0.7-4.6,2.8c-0.8,2.1,0.3,3.6,1.9,4.8
		c3.1,2.3,6.5,4.3,9.6,6.6c5.9,4.4,7.5,9.9,5.1,16.2c-2.2,5.5-6.7,8.3-12.2,8.4c-4.5,0.1-9.1-1-13.6-1.8c-1.6-0.3-2.3-1.4-2.2-3.1
		c0.3-2.2,0.4-4.4,0.5-6.8c1.4,0.8,2.5,1.6,3.8,2c2.7,0.8,5.5,1.5,8.3,1.7c2.4,0.2,4.5-1.2,5.2-3.7c0.7-2.4-0.1-4.5-2.1-6
		c-3.5-2.5-7-4.9-10.5-7.5c-2.3-1.7-4.1-3.8-4.5-6.7c-1.3-7.8,3.1-13.6,11.7-14.5c4.3-0.5,8.7,0.5,13,1c1.8,0.2,2.6,1.4,2,3.2
		C186.5,340.5,186.1,342.3,185.7,343.9z"/>
	<path class="st0" d="M311.3,334.8c-0.3,4.3-0.8,8.5-0.9,12.7c-0.2,7-0.1,14-0.1,21c0,3.6,0.1,3.6,3.5,3.6c4.2,0,8.4,0,12.8,0
		c-0.4,2-0.7,4.5-1.4,6.9c-0.2,0.7-1.5,1.4-2.3,1.4c-8.2,0.1-16.4,0.1-24.7,0.1c2.4-7.6,1.4-15.4,1.4-23c0-7.5,1.1-15.2-1.4-22.8
		C303,334.8,307.4,334.8,311.3,334.8z"/>
	<path class="st0" d="M309,125.9c1.5-2.9,3.5-4,6.2-4.1c2.3-0.1,4.6,0.2,6.8,0.1c2.8-0.1,3.5-1.3,2.2-3.7c-1-1.9-2.2-3.6-3.2-5.5
		c-1.6-2.9-1.1-4.4,2.1-6.2c1.8,3.3,3.5,6.6,5.4,9.9c0.5,0.9,1.5,1.5,2.2,2.2c0.5-0.9,1.3-1.8,1.4-2.7c0.3-3.5,0.6-7,0.5-10.6
		c-0.1-2.9,1.4-4.1,4.5-4.9c0.1,2,0.5,3.7,0.3,5.5c-0.3,3.2-1,6.3-1.3,9.5c-0.1,0.9,0.5,1.9,0.8,3.2c4.3-3.6,8.1-6.7,12.1-10.2
		c0.9,2.2-0.4,2.8-1.5,3.7c-2.8,2.3-5.7,4.6-8.3,7.1c-1.2,1.2-0.3,2.7,1.8,3c2.7,0.5,5.5,0.6,8.3,1.1c2,0.4,4.1,1.2,5.9,2.1
		c0.9,0.4,1.3,1.6,2.4,2.9c-5.2-0.9-9.6-1.8-13.9-2.3c-2-0.2-5.2-0.3-6,0.9c-1.5,2.1,1.2,3.8,2.6,5.4c1.6,1.8,3.4,3.4,5,5.8
		c-0.9-0.1-1.8,0-2.6-0.4c-2-0.9-4-1.9-5.7-3.2c-2-1.4-2.9-0.4-3.2,1.3c-0.4,2.2-0.3,4.5-0.4,6.8c-0.1,1.5,0,3,0,4.5
		c-0.3,0.2-0.5,0.3-0.7,0.4c-0.6-0.8-1.5-1.6-1.6-2.5c-0.4-4-0.5-8.1-0.7-12.1c-0.1-1-0.4-1.9-0.8-3.5c-4,4.1-7.2,7.6-10.6,11.1
		c-0.2-0.2-0.4-0.3-0.6-0.5c0.5-0.7,1-1.3,1.5-2c1.9-2.7,3.9-5.3,5.6-8.1c1.3-2.1,0.7-3.6-1.7-4c-3.4-0.4-6.8-0.2-10.2-0.3
		C311.9,125.9,310.7,125.9,309,125.9z"/>
	<path class="st0" d="M240.9,380.5c1.3-15.4,1.6-30.5-0.2-45.8c4,0,8.4,0,12.4,0c-1.5,15.3-1.4,30.5-0.1,45.8
		C249.1,380.5,244.7,380.5,240.9,380.5z"/>
	<path class="st0" d="M142.5,280.4c2,1,4.1,1.9,6.3,3c2.1-2.6,0.6-5.9,1.3-8.7c1.3,0.8,1.3,0.8,1.6,5c0.2,1.9,0.3,3.9,0.4,5.7
		c2.2-2.3,4.4-4.6,6.6-6.8c0.3,0.3,0.6,0.6,0.9,0.9c-1.3,1.8-2.7,3.5-3.9,5.4c-1.6,2.5-1,4,2.1,4.2c1.7,0.1,3.3-0.2,5.1-0.2
		c0.9-0.1,1.7,0,2.8,0c-1.2,2.2-2.8,2.6-4.7,2.6c-6.3,0.1-6.3,0.1-3.4,5.5c1.3,2.4,1.3,2.4-0.9,4.7c-1.6-2.7-3.1-5.4-4.7-8.1
		c-0.3,0.1-0.6,0.1-0.9,0.1c-0.3,1.5-0.7,2.9-0.8,4.4c-0.2,1.5-0.1,3-0.1,4.6c0.1,1.7-0.7,2.7-3.1,2.9c0.3-3.9,0.7-7.6,1-11.3
		c-0.3-0.1-0.6-0.1-0.8-0.2c-2.5,2.1-5,4.2-7.4,6.2c-0.2-0.2-0.4-0.4-0.6-0.5c0.5-0.6,0.8-1.3,1.4-1.8c1.6-1.4,3.3-2.5,4.8-4
		c1.5-1.4,1.1-2.5-0.9-2.9c-1.9-0.4-3.9-0.3-5.7-0.8c-1.7-0.4-3.7-0.6-4.4-3c3,0.5,5.9,1,8.8,1.4c0.6,0.1,1.2,0.3,1.8,0.2
		c0.8-0.2,1.9-0.3,2.2-0.8c0.3-0.5-0.1-1.7-0.6-2.2c-1.3-1.6-2.8-3.1-4.3-4.7C142.3,280.9,142.4,280.7,142.5,280.4z"/>
</g>
</svg>
