<?xml version="1.0" encoding="utf-8"?>
<!-- Generator: Adobe Illustrator 22.1.0, SVG Export Plug-In . SVG Version: 6.00 Build 0)  -->
<svg version="1.1" id="Capa_1" xmlns="http://www.w3.org/2000/svg" xmlns:xlink="http://www.w3.org/1999/xlink" x="0px" y="0px"
	 viewBox="0 0 500 500" style="enable-background:new 0 0 500 500;" xml:space="preserve">
<style type="text/css">
	.st0{fill:#FFFFFF;}
</style>
<g>
	<g>
		<path class="st0" d="M236.6,146.5c-2.1,13.2-3.4,41.4-3.2,43.1c0.2,1.3,1.5,2,2.7,1.8c0.9-0.1,1.6-0.6,1.7-1.6
			c0.7-7.3,2.1-28.6,4.2-44.6c0.1-0.4,0-0.9-0.2-1.1c1.5-0.1,3-0.1,4.3-0.3c1-0.1,8.8-1.1,9.6-1.3c1.1-0.3,1.4-1.6,1.3-2.9
			c-0.1-1.2-0.8-2.2-1.7-2.1c-1.5,0.2-10,1.4-11.7,1.6c-2.9,0.3-12,1.1-15,1.3c-1.7,0.2-3.4,0.5-4.9,0.9c-1.3,0.3-2.5,2.5-2.3,3.8
			c0.1,0.5,0.4,0.9,1.1,0.8c1.5-0.2,3.1-0.6,4.7-0.8c1.7-0.2,9.5-1,11.3-1C237.4,144.8,236.8,145.5,236.6,146.5"/>
		<path class="st0" d="M285.9,172.9c-0.1-0.3-0.3-0.5-0.5-0.5c-0.3,0-0.6,0.3-0.9,0.9c-1.3,2.4-3.4,8.6-8.9,9.1
			c-3.6,0.4-4.3-3.7-4.6-6.1c0.8,0.1,1.5,0.2,2.2,0.1c6.1-0.7,9.2-8.5,8.7-13.7c-0.4-2.7-1.6-4.6-4.1-4.6c-0.8-0.5-2.1-0.7-3.4-0.6
			c-5.5,0.6-9,10-8.8,17.8c-1.8,4.6-3.2,9-5.1,9.2c-0.8,0.1-1.1-0.4-1.3-1.3c-0.5-3.6,3.1-13.5,2.4-19.4c-0.3-2-1.4-4.4-4.8-4
			c-2.6,0.3-4.7,3.8-6.3,8.3c1.3-11.9,2.6-15.1,2.3-16.8c-0.2-1.4-1.7-2.1-3.2-1.9c-1.1,0.1-1.9,0.7-2,1.6
			c-2.3,12.9-3.9,32.5-3.5,36.1c0.2,1.6,1.3,2.3,2.5,2.1c2.3-0.3,1.8-2.3,2.4-8.3c1.2-10.4,4.9-17.2,6.5-17.4c0.6-0.1,0.9,0.4,1,1.3
			c0.5,3.6-2.8,14.1-2.2,18.9c0.4,3.3,2.8,4.5,5.1,4.2c3.6-0.4,5.5-5.3,6.4-8.8c1,4.3,3.5,7.5,7.9,7c6.5-0.8,10-6,11.8-12.3
			C285.9,173.4,285.9,173.1,285.9,172.9 M276.9,159.6c0.9-0.1,1.1,0.8,1.2,1.6c0.6,4.2-3.3,13.4-6.6,13.8c-0.2,0-0.3,0-0.5,0
			C271,168.4,273.8,160,276.9,159.6"/>
		<path class="st0" d="M273.5,192c-12.2,1-39.4,5.8-40.9,6.3c-1.2,0.4-1.4,1.6-1.2,2.5c0.3,0.7,0.9,1.2,1.8,1.1
			c6.5-0.9,27.9-4.3,42.5-5.8C278.5,195.8,279.1,191.5,273.5,192"/>
		<polygon class="st0" points="207.7,268.5 207.7,263.2 197.7,228.1 196.1,228.1 		"/>
		<rect x="222.6" y="228.1" class="st0" width="1.5" height="90.4"/>
		<polygon class="st0" points="196.1,278.1 196.1,318.6 197.7,318.6 197.7,283.7 		"/>
		<path class="st0" d="M28.9,299.2c0,4.3,1.9,6.4,5.9,6.4s5.9-2.1,5.9-6.4v-71.1h11.7v71.1c0,12.9-5.9,19.4-17.6,19.4
			s-17.6-6.4-17.6-19.4v-71.1h11.7C28.9,228.1,28.9,299.2,28.9,299.2z"/>
		<path class="st0" d="M81.8,289.4c0-4.3-1.9-6.4-5.9-6.4h-5.9v35.5H58.3v-90.4h17.6c11.7,0,17.6,6.4,17.6,19.3v16.2
			c0,6.4-2.9,10.8-8.9,12.9c5.9,2.6,8.9,6.9,8.9,12.9v29.1H81.8V289.4z M70.1,241V270H76c3.9,0,5.9-2.1,5.9-6.4v-16.2
			c0-4.3-1.9-6.4-5.9-6.4C76,241,70.1,241,70.1,241z"/>
		<path class="st0" d="M277,246.2v3.3h-11.7v-3.3c0-4.3-1.9-6.4-5.9-6.4c-3.9,0-5.9,2.1-5.9,6.4v54.3c0,4.3,1.9,6.4,5.9,6.4
			c3.9,0,5.9-2.1,5.9-6.4v-3.3H277v3.3c0,12.9-5.9,19.4-17.6,19.4c-11.7,0-17.6-6.4-17.6-19.4v-54.3c0-12.9,5.9-19.4,17.6-19.4
			C271.2,226.8,277,233.3,277,246.2"/>
		<path class="st0" d="M318.1,246.2v54.3c0,12.9-5.9,19.4-17.6,19.4c-11.7,0-17.6-6.4-17.6-19.4v-54.3c0-12.9,5.9-19.4,17.6-19.4
			C312.2,226.8,318.1,233.3,318.1,246.2 M300.5,239.7c-3.9,0-5.9,2.1-5.9,6.4v54.3c0,4.3,1.9,6.4,5.9,6.4c3.9,0,5.9-2.1,5.9-6.4
			v-54.3C306.4,241.9,304.4,239.7,300.5,239.7"/>
		<path class="st0" d="M347.5,289.4c0-4.3-1.9-6.4-5.9-6.4h-5.9v35.5h-11.7v-90.4h17.6c11.7,0,17.6,6.4,17.6,19.3v16.2
			c0,6.4-2.9,10.8-8.9,12.9c5.9,2.6,8.9,6.9,8.9,12.9v29.1h-11.7L347.5,289.4L347.5,289.4z M335.7,241V270h5.9
			c3.9,0,5.9-2.1,5.9-6.4v-16.2c0-4.3-1.9-6.4-5.9-6.4C341.6,241,335.7,241,335.7,241z"/>
		<polygon class="st0" points="365.1,318.6 365.1,228.1 376.9,228.1 391.5,279.8 391.5,228.1 403.3,228.1 403.3,318.6 391.5,318.6 
			376.9,266.8 376.9,318.6 		"/>
		<polygon class="st0" points="409.2,228.1 438.5,228.1 438.5,241 420.9,241 420.9,266.8 435.7,266.8 435.7,279.8 420.9,279.8 
			420.9,305.6 438.5,305.6 438.5,318.6 409.2,318.6 		"/>
		<path class="st0" d="M467.9,289.4c0-4.3-1.9-6.4-5.9-6.4h-5.9v35.5h-11.7v-90.4H462c11.7,0,17.6,6.4,17.6,19.3v16.2
			c0,6.4-3,10.8-8.9,12.9c5.9,2.6,8.9,6.9,8.9,12.9v29.1h-11.7L467.9,289.4L467.9,289.4z M456.2,241V270h5.9c3.9,0,5.9-2.1,5.9-6.4
			v-16.2c0-4.3-1.9-6.4-5.9-6.4C462,241,456.2,241,456.2,241z"/>
		<rect x="457.8" y="242.6" class="st0" width="1.5" height="25.9"/>
		<path class="st0" d="M473.9,229.8c4.8,3.4,7.2,9.3,7.2,17.7v16.2c0,5.4-1.9,9.5-5.7,12.2c4.8-2.3,7.2-6.4,7.2-12.2v-16.2
			C482.8,238.4,479.8,232.5,473.9,229.8"/>
		<path class="st0" d="M474.9,277c4.2,2.9,6.3,7.1,6.3,12.5v29.1h1.5v-29.1C482.8,283.8,480.2,279.6,474.9,277"/>
		<rect x="457.8" y="284.6" class="st0" width="1.5" height="34"/>
		<rect x="437.2" y="266.8" class="st0" width="1.5" height="12.9"/>
		<rect x="422.5" y="281.4" class="st0" width="1.5" height="22.6"/>
		<rect x="422.5" y="242.6" class="st0" width="1.5" height="22.6"/>
		<rect x="440.1" y="228.1" class="st0" width="1.5" height="12.9"/>
		<rect x="440.1" y="305.6" class="st0" width="1.5" height="12.9"/>
		<polygon class="st0" points="390,268.5 390,263.2 380,228.1 378.5,228.1 		"/>
		<rect x="404.9" y="228.1" class="st0" width="1.5" height="90.4"/>
		<polygon class="st0" points="378.4,278.1 378.4,318.6 380,318.6 380,283.7 		"/>
		<rect x="337.3" y="242.6" class="st0" width="1.5" height="25.9"/>
		<rect x="337.3" y="284.6" class="st0" width="1.5" height="34"/>
		<path class="st0" d="M353.6,229.8c4.7,3.4,7.2,9.3,7.2,17.7v16.2c0,5.4-1.9,9.5-5.7,12.2c4.8-2.3,7.2-6.4,7.2-12.2v-16.2
			C362.4,238.4,359.5,232.5,353.6,229.8"/>
		<path class="st0" d="M354.5,277c4.1,2.9,6.3,7.1,6.3,12.5v29.1h1.5v-29.1C362.4,283.8,359.8,279.6,354.5,277"/>
		<path class="st0" d="M297.7,300.5v-54.4c0-2.1,0.5-3.7,1.3-4.7c-2,0.4-3,1.8-3,4.7v54.3c0,2.9,0.9,4.3,3,4.7
			C298.3,304.1,297.7,302.5,297.7,300.5"/>
		<path class="st0" d="M312.4,228.5c4.8,3.4,7.2,9.3,7.2,17.7v54.3c0,8.4-2.5,14.3-7.2,17.7c5.9-2.7,8.9-8.6,8.9-17.7v-54.3
			C321.3,237,318.3,231.1,312.4,228.5"/>
		<path class="st0" d="M258,241.4c-2.1,0.4-3,1.8-3,4.7v54.3c0,2.9,0.9,4.3,3,4.7c-0.9-1.1-1.3-2.6-1.3-4.7v-54.3
			C256.6,244.1,257.1,242.5,258,241.4"/>
		<path class="st0" d="M271.4,228.5c4.7,3.4,7.2,9.3,7.2,17.7v3.3h1.5v-3.3C280.1,237,277.2,231.1,271.4,228.5"/>
		<path class="st0" d="M278.6,300.5c0,8.4-2.5,14.3-7.2,17.7c5.9-2.7,8.8-8.6,8.8-17.7v-3.3h-1.5V300.5z"/>
		<rect x="71.6" y="242.6" class="st0" width="1.5" height="25.9"/>
		<path class="st0" d="M88.8,277c4.2,2.9,6.3,7.1,6.3,12.5v29.1h1.5v-29.1C96.7,283.8,94.1,279.6,88.8,277"/>
		<path class="st0" d="M87.9,229.8c4.7,3.4,7.2,9.3,7.2,17.7v16.2c0,5.4-1.9,9.5-5.7,12.2c4.8-2.3,7.2-6.4,7.2-12.2v-16.2
			C96.7,238.4,93.8,232.5,87.9,229.8"/>
		<rect x="71.6" y="284.6" class="st0" width="1.5" height="34"/>
		<path class="st0" d="M30.5,228.1v71.1c0,2.9,0.9,4.3,3,4.7c-0.9-1.1-1.3-2.6-1.3-4.7v-71.1C32.1,228.1,30.5,228.1,30.5,228.1z"/>
		<path class="st0" d="M54,228.1v71.1c0,8.4-2.5,14.3-7.2,17.7c5.9-2.7,8.9-8.6,8.9-17.7v-71.1C55.7,228.1,54,228.1,54,228.1z"/>
		<polygon class="st0" points="182.8,318.6 182.8,228.1 194.6,228.1 209.2,279.8 209.2,228.1 220.9,228.1 220.9,318.6 209.2,318.6 
			194.6,266.8 194.6,318.6 		"/>
		<path class="st0" d="M138.5,318.6l9.4-90.4h20l9.4,90.4h-11.7l-2.3-19.4h-10.6l-2.4,19.4H138.5z M157.8,241.6l-4.1,44.5h8.3
			L157.8,241.6z"/>
		<polygon class="st0" points="178.8,318.4 178.8,318.6 180.4,318.6 171,228.1 169.5,228.1 		"/>
		<polygon class="st0" points="157.8,258.8 155.5,284.6 157.1,284.6 158.7,267.2 		"/>
		<polygon class="st0" points="154,300.8 151.9,318.6 153.4,318.6 155.5,300.8 		"/>
		<path class="st0" d="M100.2,318.6v-90.4h17.6c11.7,0,17.6,6.4,17.6,19.3v12.9c0,6.4-3,10.8-8.9,12.9c5.9,2.6,8.9,6.9,8.9,12.9
			v12.9c0,12.9-5.9,19.4-17.6,19.4L100.2,318.6L100.2,318.6z M112,241v25.9h5.9c3.9,0,5.9-2.1,5.9-6.4v-12.9c0-4.3-1.9-6.4-5.9-6.4
			L112,241L112,241z M112,279.8v25.9h5.9c3.9,0,5.9-2.1,5.9-6.4v-12.9c0-4.3-1.9-6.4-5.9-6.4L112,279.8L112,279.8z"/>
		<rect x="113.5" y="281.4" class="st0" width="1.5" height="22.6"/>
		<rect x="113.5" y="242.6" class="st0" width="1.5" height="22.6"/>
		<path class="st0" d="M130.7,273.8c4.1,2.9,6.3,7.1,6.3,12.5v12.9c0,8.4-2.5,14.3-7.2,17.7c5.9-2.7,8.8-8.6,8.8-17.7v-12.9
			C138.6,280.6,135.9,276.4,130.7,273.8"/>
		<path class="st0" d="M129.8,229.8c4.8,3.4,7.2,9.3,7.2,17.7v12.9c0,5.4-1.9,9.5-5.7,12.2c4.8-2.3,7.2-6.3,7.2-12.2v-12.9
			C138.6,238.4,135.6,232.5,129.8,229.8"/>
	</g>
	<g>
		<g>
			<path class="st0" d="M72.1,360.3h2.1v-13.3h-2.1v-1.8h7.4c1.3,0,2.2,0.1,3.2,0.4c1.8,0.6,3,2.1,3,4.4c0,2.5-1.3,4.2-3.6,4.8l0,0
				c0,0,0.5,0.3,0.8,0.8l2.4,4.2c0.3,0.5,0.6,0.6,1.2,0.6h0.5v1.9h-1.4c-1.4,0-1.8-0.3-2.4-1.3l-2.6-4.6c-0.5-0.8-0.8-1-1.8-1h-2v5
				h2.1v1.9h-6.6V360.3z M80,353.4c1.8,0,3.1-1.3,3.1-3.2c0-1.3-0.6-2.2-1.6-2.7c-0.6-0.2-1.3-0.3-2.1-0.3h-2.8v6.2H80L80,353.4z"/>
			<path class="st0" d="M89,360.3h2.1v-13.3H89v-1.8h12.3v3.9h-2.1v-2h-5.7v5.5h6.1v2h-6.1v5.6h6.1v-2h2.1v4H89V360.3z"/>
			<path class="st0" d="M106.4,357.2v1.3c0,1.3,1.6,2,3.4,2c1.9,0,3.4-1,3.4-2.6c0-2-2-2.6-4.1-3.5c-2.2-0.9-4.5-1.8-4.5-4.8
				c0-3.2,2.6-4.6,5.5-4.6c2.6,0,5.2,1,5.2,2.8v2h-2.2v-1.2c0-1-1.5-1.5-2.9-1.5c-1.6,0-3,0.8-3,2.3c0,1.8,1.7,2.4,3.7,3.2
				c2.5,1,5,1.9,5,5.1c0,3.3-2.7,4.9-5.8,4.9c-2.7,0-5.6-1.2-5.6-3.7v-1.8L106.4,357.2L106.4,357.2z"/>
			<path class="st0" d="M121.5,360.3h2.1v-13.2h-4v2.7h-2.1v-4.6h14.6v4.6h-2.1v-2.7h-4v13.2h2.1v1.9h-6.7v-1.9H121.5z"/>
			<path class="st0" d="M132,360.3h1.6l5.4-15.2h2.7l5.4,15.2h1.6v1.9h-5.9v-1.9h1.8l-1.3-3.8h-6.1l-1.3,3.8h1.8v1.9h-5.9L132,360.3
				L132,360.3z M142.7,354.7l-2.1-5.9c-0.3-0.7-0.3-1.3-0.3-1.3l0,0c0,0-0.1,0.6-0.3,1.3l-2.1,5.9H142.7z"/>
			<path class="st0" d="M151.2,347.1h-2.1v-1.8h6.7v1.8h-2.1v8.9c0,1.2,0.2,2.1,0.7,2.8c0.7,1.2,2,1.7,3.7,1.7s3-0.7,3.7-1.8
				c0.4-0.7,0.7-1.6,0.7-2.8v-8.8h-2.1v-1.8h6.7v1.8h-2.1v8.9c0,1.6-0.5,3.1-1.2,4.1c-1.2,1.6-3.3,2.5-5.6,2.5c-2.4,0-4.4-1-5.6-2.5
				c-0.8-1.1-1.2-2.5-1.2-4.1v-8.9H151.2z"/>
			<path class="st0" d="M168.8,360.3h2.1v-13.3h-2.1v-1.8h7.4c1.3,0,2.2,0.1,3.2,0.4c1.8,0.6,3,2.1,3,4.4c0,2.5-1.3,4.2-3.6,4.8l0,0
				c0,0,0.5,0.3,0.8,0.8l2.4,4.2c0.3,0.5,0.6,0.6,1.2,0.6h0.5v1.9h-1.4c-1.4,0-1.8-0.3-2.4-1.3l-2.6-4.6c-0.5-0.8-0.8-1-1.8-1h-2v5
				h2.1v1.9h-6.6L168.8,360.3L168.8,360.3z M176.8,353.4c1.8,0,3.1-1.3,3.1-3.2c0-1.3-0.6-2.2-1.6-2.7c-0.6-0.2-1.3-0.3-2.1-0.3
				h-2.8v6.2H176.8L176.8,353.4z"/>
			<path class="st0" d="M184.8,360.3h1.6l5.4-15.2h2.7l5.4,15.2h1.6v1.9h-5.9v-1.9h1.8l-1.3-3.8h-6.1l-1.3,3.8h1.8v1.9h-5.9
				L184.8,360.3L184.8,360.3z M195.6,354.7l-2.1-5.9c-0.3-0.7-0.3-1.3-0.3-1.3h-0.1c0,0-0.1,0.6-0.3,1.3l-2.1,5.9H195.6z"/>
			<path class="st0" d="M203.2,360.3h2.1v-13.3h-2.1v-1.8h4.5l8.4,12.2c0.3,0.5,0.6,1.3,0.6,1.3h0.1c0,0-0.1-0.9-0.1-1.3v-10.2h-2.2
				v-1.9h6.7v1.8H219v15.2h-2.4l-8.4-12.2c-0.3-0.5-0.6-1.3-0.6-1.3h-0.1c0,0,0.1,0.9,0.1,1.3v10.2h2.2v1.9h-6.7V360.3z"/>
			<path class="st0" d="M226.8,360.3h2.1v-13.2h-4v2.7h-2.1v-4.6h14.7v4.6h-2.1v-2.7h-4v13.2h2.1v1.9h-6.7L226.8,360.3L226.8,360.3z
				"/>
			<path class="st0" d="M239.4,360.3h2.1v-13.3h-2.1v-1.8h12.3v3.9h-2.1v-2h-5.7v5.5h6.1v2h-6.1v5.6h6.1v-2h2.1v4h-12.7V360.3z"/>
			<path class="st0" d="M263.8,353.1L263.8,353.1c0,0-2.4-0.9-2.4-3.8c0-2.8,2.3-4.4,5.5-4.4c1.1,0,2.1,0.3,2.1,0.3l-0.6,1.9
				c0,0-0.7-0.2-1.3-0.2c-1.8,0-3.3,1-3.3,2.6c0,1.2,0.5,2.7,3.2,2.7h3.7v-2.4h2.3v2.4h2.2v2H273v2.3c0,3.8-2.4,6-6.1,6
				c-3.8,0-6.2-2.2-6.2-5C260.7,355.5,261.7,353.7,263.8,353.1z M266.8,360.4c2.3,0,3.8-1.3,3.8-3.9v-2.2h-3.8
				c-2.4,0-3.8,1.2-3.8,3.1C263.1,359.1,264.4,360.4,266.8,360.4z"/>
			<path class="st0" d="M283.1,360.3h2.1v-13.3h-2.1v-1.8h8c1.1,0,2.1,0.1,2.9,0.5c1.7,0.8,2.9,2.6,2.9,4.8c0,2.4-1.3,4.3-3.2,5
				c-0.8,0.3-1.6,0.4-2.6,0.4h-3.5v4.5h2.1v1.9H283L283.1,360.3L283.1,360.3L283.1,360.3z M290.8,353.9c0.8,0,1.3-0.1,1.9-0.4
				c1.1-0.5,1.7-1.5,1.7-3.1c0-1.3-0.6-2.4-1.5-2.9c-0.6-0.3-1.3-0.4-2.1-0.4h-3.2v6.7H290.8L290.8,353.9z"/>
			<path class="st0" d="M296.8,360.3h1.6l5.5-15.1h2.7l5.4,15.2h1.6v1.9h-5.9v-1.9h1.8l-1.3-3.8h-6.1l-1.3,3.8h1.8v1.9h-5.9V360.3z
				 M307.6,354.7l-2.1-5.9c-0.3-0.7-0.3-1.3-0.3-1.3h-0.1c0,0-0.1,0.6-0.3,1.3l-2.1,5.9H307.6z"/>
			<path class="st0" d="M315.2,360.3h2.1v-13.3h-2.1v-1.8h4.5l8.4,12.2c0.3,0.5,0.6,1.3,0.6,1.3h0.1c0,0-0.1-0.9-0.1-1.3v-10.2h-2.2
				v-1.9h6.7v1.8h-2.1v15.2h-2.4l-8.4-12.2c-0.3-0.5-0.6-1.3-0.6-1.3h-0.1c0,0,0.1,0.9,0.1,1.3v10.2h2.2v1.9h-6.7V360.3z"/>
			<path class="st0" d="M334.2,360.3h1.6l5.4-15.2h2.7l5.4,15.2h1.6v1.9H345v-1.9h1.8l-1.3-3.8h-6.1l-1.3,3.8h1.8v1.9h-5.9
				L334.2,360.3L334.2,360.3z M345,354.7l-2.1-5.9c-0.3-0.7-0.3-1.3-0.3-1.3h-0.1c0,0-0.1,0.6-0.3,1.3l-2.1,5.9H345z"/>
			<path class="st0" d="M352.5,360.3h2.1v-13.3h-2.1v-1.8h7.3c1.4,0,2.5,0.1,3.7,0.4c3.3,1.1,5.4,3.9,5.4,8.1s-2,7-5.4,8.1
				c-1.2,0.4-2.2,0.5-3.6,0.5h-7.3L352.5,360.3L352.5,360.3z M359.8,360.2c1.2,0,2-0.1,2.9-0.5c2.3-0.8,3.8-3,3.8-6.1
				c0-3.2-1.4-5.3-3.7-6.2c-1-0.4-1.8-0.4-2.9-0.4h-2.6v13.1H359.8L359.8,360.2z"/>
			<path class="st0" d="M371.2,360.3h2.1v-13.3h-2.1v-1.8h12.3v3.9h-2.1v-2h-5.7v5.5h6.1v2h-6.1v5.6h6.1v-2h2.1v4h-12.7V360.3z"/>
			<path class="st0" d="M386.5,360.3h2.1v-13.3h-2.1v-1.8h7.4c1.3,0,2.2,0.1,3.2,0.4c1.8,0.6,3,2.1,3,4.4c0,2.5-1.3,4.2-3.6,4.8l0,0
				c0,0,0.5,0.3,0.8,0.8l2.4,4.2c0.3,0.5,0.6,0.6,1.2,0.6h0.5v1.9h-1.4c-1.4,0-1.8-0.3-2.4-1.3l-2.6-4.6c-0.5-0.8-0.8-1-1.8-1h-2v5
				h2.1v1.9h-6.6V360.3z M394.4,353.4c1.8,0,3.1-1.3,3.1-3.2c0-1.3-0.6-2.2-1.6-2.7c-0.6-0.2-1.3-0.3-2.1-0.3h-2.8v6.2H394.4
				L394.4,353.4z"/>
			<path class="st0" d="M403.3,360.3h2.1v-13.3h-2.1v-1.8h6.7v1.8H408v13.3h2.1v1.9h-6.7V360.3z M407.7,341h2.7l-3,3.1h-2.2
				L407.7,341z"/>
			<path class="st0" d="M411.5,360.3h1.6l5.4-15.2h2.7l5.4,15.2h1.6v1.9h-5.9v-1.9h1.8l-1.3-3.8h-6.1l-1.3,3.8h1.8v1.9h-5.9
				L411.5,360.3L411.5,360.3z M422.4,354.7l-2.1-5.9c-0.3-0.7-0.3-1.3-0.3-1.3h-0.1c0,0-0.1,0.6-0.3,1.3l-2.1,5.9H422.4z"/>
		</g>
		<rect x="36.5" y="353.1" class="st0" width="28.5" height="2.4"/>
		<rect x="434.9" y="353.1" class="st0" width="28.5" height="2.4"/>
	</g>
</g>
</svg>
